<svg version="1.1"
baseProfile="full"
height="250" width="250" xmlns="http://www.w3.org/2000/svg">>
	<polygon points="125 0 0 216.5 250 216.5" fill="red" />
<rect x="8.66051" y="201.5" width="12" height="15" fill="green" />
<rect x="20.6605" y="201.5" width="12" height="15" fill="green" />
<rect x="32.6605" y="201.5" width="12" height="15" fill="green" />
<rect x="44.6605" y="201.5" width="12" height="15" fill="green" />
<rect x="56.6605" y="201.5" width="12" height="15" fill="green" />
<rect x="68.6605" y="201.5" width="12" height="15" fill="green" />
<rect x="80.6605" y="201.5" width="12" height="15" fill="green" />
<rect x="92.6605" y="201.5" width="12" height="15" fill="green" />
<rect x="104.661" y="201.5" width="12" height="15" fill="green" />
<rect x="116.661" y="201.5" width="12" height="15" fill="green" />
<rect x="128.661" y="201.5" width="12" height="15" fill="green" />
<rect x="140.661" y="201.5" width="12" height="15" fill="green" />
<rect x="152.661" y="201.5" width="12" height="15" fill="green" />
<rect x="164.661" y="201.5" width="12" height="15" fill="green" />
<rect x="176.661" y="201.5" width="12" height="15" fill="green" />
<rect x="188.661" y="201.5" width="12" height="15" fill="green" />
<rect x="200.661" y="201.5" width="12" height="15" fill="green" />
<rect x="212.661" y="201.5" width="12" height="15" fill="green" />
<rect x="224.661" y="201.5" width="12" height="15" fill="green" />
<rect x="17.321" y="186.5" width="12" height="15" fill="green" />
<rect x="29.321" y="186.5" width="12" height="15" fill="green" />
<rect x="41.321" y="186.5" width="12" height="15" fill="green" />
<rect x="53.321" y="186.5" width="12" height="15" fill="green" />
<rect x="65.321" y="186.5" width="12" height="15" fill="green" />
<rect x="77.321" y="186.5" width="12" height="15" fill="green" />
<rect x="89.321" y="186.5" width="12" height="15" fill="green" />
<rect x="101.321" y="186.5" width="12" height="15" fill="green" />
<rect x="113.321" y="186.5" width="12" height="15" fill="green" />
<rect x="125.321" y="186.5" width="12" height="15" fill="green" />
<rect x="137.321" y="186.5" width="12" height="15" fill="green" />
<rect x="149.321" y="186.5" width="12" height="15" fill="green" />
<rect x="161.321" y="186.5" width="12" height="15" fill="green" />
<rect x="173.321" y="186.5" width="12" height="15" fill="green" />
<rect x="185.321" y="186.5" width="12" height="15" fill="green" />
<rect x="197.321" y="186.5" width="12" height="15" fill="green" />
<rect x="209.321" y="186.5" width="12" height="15" fill="green" />
<rect x="25.9815" y="171.5" width="12" height="15" fill="green" />
<rect x="37.9815" y="171.5" width="12" height="15" fill="green" />
<rect x="49.9815" y="171.5" width="12" height="15" fill="green" />
<rect x="61.9815" y="171.5" width="12" height="15" fill="green" />
<rect x="73.9815" y="171.5" width="12" height="15" fill="green" />
<rect x="85.9815" y="171.5" width="12" height="15" fill="green" />
<rect x="97.9815" y="171.5" width="12" height="15" fill="green" />
<rect x="109.982" y="171.5" width="12" height="15" fill="green" />
<rect x="121.982" y="171.5" width="12" height="15" fill="green" />
<rect x="133.982" y="171.5" width="12" height="15" fill="green" />
<rect x="145.982" y="171.5" width="12" height="15" fill="green" />
<rect x="157.982" y="171.5" width="12" height="15" fill="green" />
<rect x="169.982" y="171.5" width="12" height="15" fill="green" />
<rect x="181.982" y="171.5" width="12" height="15" fill="green" />
<rect x="193.982" y="171.5" width="12" height="15" fill="green" />
<rect x="205.982" y="171.5" width="12" height="15" fill="green" />
<rect x="34.642" y="156.5" width="12" height="15" fill="green" />
<rect x="46.642" y="156.5" width="12" height="15" fill="green" />
<rect x="58.642" y="156.5" width="12" height="15" fill="green" />
<rect x="70.642" y="156.5" width="12" height="15" fill="green" />
<rect x="82.642" y="156.5" width="12" height="15" fill="green" />
<rect x="94.642" y="156.5" width="12" height="15" fill="green" />
<rect x="106.642" y="156.5" width="12" height="15" fill="green" />
<rect x="118.642" y="156.5" width="12" height="15" fill="green" />
<rect x="130.642" y="156.5" width="12" height="15" fill="green" />
<rect x="142.642" y="156.5" width="12" height="15" fill="green" />
<rect x="154.642" y="156.5" width="12" height="15" fill="green" />
<rect x="166.642" y="156.5" width="12" height="15" fill="green" />
<rect x="178.642" y="156.5" width="12" height="15" fill="green" />
<rect x="190.642" y="156.5" width="12" height="15" fill="green" />
<rect x="202.642" y="156.5" width="12" height="15" fill="green" />
<rect x="43.3025" y="141.5" width="12" height="15" fill="green" />
<rect x="55.3025" y="141.5" width="12" height="15" fill="green" />
<rect x="67.3025" y="141.5" width="12" height="15" fill="green" />
<rect x="79.3025" y="141.5" width="12" height="15" fill="green" />
<rect x="91.3025" y="141.5" width="12" height="15" fill="green" />
<rect x="103.303" y="141.5" width="12" height="15" fill="green" />
<rect x="115.303" y="141.5" width="12" height="15" fill="green" />
<rect x="127.303" y="141.5" width="12" height="15" fill="green" />
<rect x="139.303" y="141.5" width="12" height="15" fill="green" />
<rect x="151.303" y="141.5" width="12" height="15" fill="green" />
<rect x="163.303" y="141.5" width="12" height="15" fill="green" />
<rect x="175.303" y="141.5" width="12" height="15" fill="green" />
<rect x="187.303" y="141.5" width="12" height="15" fill="green" />
<rect x="51.963" y="126.5" width="12" height="15" fill="green" />
<rect x="63.963" y="126.5" width="12" height="15" fill="green" />
<rect x="75.963" y="126.5" width="12" height="15" fill="green" />
<rect x="87.963" y="126.5" width="12" height="15" fill="green" />
<rect x="99.963" y="126.5" width="12" height="15" fill="green" />
<rect x="111.963" y="126.5" width="12" height="15" fill="green" />
<rect x="123.963" y="126.5" width="12" height="15" fill="green" />
<rect x="135.963" y="126.5" width="12" height="15" fill="green" />
<rect x="147.963" y="126.5" width="12" height="15" fill="green" />
<rect x="159.963" y="126.5" width="12" height="15" fill="green" />
<rect x="171.963" y="126.5" width="12" height="15" fill="green" />
<rect x="183.963" y="126.5" width="12" height="15" fill="green" />
<rect x="60.6236" y="111.5" width="12" height="15" fill="green" />
<rect x="72.6236" y="111.5" width="12" height="15" fill="green" />
<rect x="84.6236" y="111.5" width="12" height="15" fill="green" />
<rect x="96.6236" y="111.5" width="12" height="15" fill="green" />
<rect x="108.624" y="111.5" width="12" height="15" fill="green" />
<rect x="120.624" y="111.5" width="12" height="15" fill="green" />
<rect x="132.624" y="111.5" width="12" height="15" fill="green" />
<rect x="144.624" y="111.5" width="12" height="15" fill="green" />
<rect x="156.624" y="111.5" width="12" height="15" fill="green" />
<rect x="168.624" y="111.5" width="12" height="15" fill="green" />
<rect x="69.2841" y="96.5" width="12" height="15" fill="green" />
<rect x="81.2841" y="96.5" width="12" height="15" fill="green" />
<rect x="93.2841" y="96.5" width="12" height="15" fill="green" />
<rect x="105.284" y="96.5" width="12" height="15" fill="green" />
<rect x="117.284" y="96.5" width="12" height="15" fill="green" />
<rect x="129.284" y="96.5" width="12" height="15" fill="green" />
<rect x="141.284" y="96.5" width="12" height="15" fill="green" />
<rect x="153.284" y="96.5" width="12" height="15" fill="green" />
<rect x="165.284" y="96.5" width="12" height="15" fill="green" />
<rect x="77.9446" y="81.5" width="12" height="15" fill="green" />
<rect x="89.9446" y="81.5" width="12" height="15" fill="green" />
<rect x="101.945" y="81.5" width="12" height="15" fill="green" />
<rect x="113.945" y="81.5" width="12" height="15" fill="green" />
<rect x="125.945" y="81.5" width="12" height="15" fill="green" />
<rect x="137.945" y="81.5" width="12" height="15" fill="green" />
<rect x="149.945" y="81.5" width="12" height="15" fill="green" />
<rect x="86.6051" y="66.5" width="12" height="15" fill="green" />
<rect x="98.6051" y="66.5" width="12" height="15" fill="green" />
<rect x="110.605" y="66.5" width="12" height="15" fill="green" />
<rect x="122.605" y="66.5" width="12" height="15" fill="green" />
<rect x="134.605" y="66.5" width="12" height="15" fill="green" />
<rect x="146.605" y="66.5" width="12" height="15" fill="green" />
<rect x="95.2656" y="51.5" width="12" height="15" fill="green" />
<rect x="107.266" y="51.5" width="12" height="15" fill="green" />
<rect x="119.266" y="51.5" width="12" height="15" fill="green" />
<rect x="131.266" y="51.5" width="12" height="15" fill="green" />
<rect x="103.926" y="36.5" width="12" height="15" fill="green" />
<rect x="115.926" y="36.5" width="12" height="15" fill="green" />
<rect x="127.926" y="36.5" width="12" height="15" fill="green" />
<rect x="112.587" y="21.5" width="12" height="15" fill="green" />
<rect x="124.587" y="21.5" width="12" height="15" fill="green" />
</svg>