<svg version="1.1"
baseProfile="full"
width="330" height="150" xmlns="http://www.w3.org/2000/svg">
<rect width="100%" height="100%" fill="red" />
<circle cx="11" cy="11" r="11" fill="green" transform="rotate(0,0,0)" />
<circle cx="11" cy="33" r="11" fill="green" transform="rotate(0,0,0)" />
<circle cx="11" cy="55" r="11" fill="green" transform="rotate(0,0,0)" />
<circle cx="11" cy="77" r="11" fill="green" transform="rotate(0,0,0)" />
<circle cx="11" cy="99" r="11" fill="green" transform="rotate(0,0,0)" />
<circle cx="11" cy="121" r="11" fill="green" transform="rotate(0,0,0)" />
<circle cx="33" cy="11" r="11" fill="green" transform="rotate(0,0,0)" />
<circle cx="33" cy="33" r="11" fill="green" transform="rotate(0,0,0)" />
<circle cx="33" cy="55" r="11" fill="green" transform="rotate(0,0,0)" />
<circle cx="33" cy="77" r="11" fill="green" transform="rotate(0,0,0)" />
<circle cx="33" cy="99" r="11" fill="green" transform="rotate(0,0,0)" />
<circle cx="33" cy="121" r="11" fill="green" transform="rotate(0,0,0)" />
<circle cx="55" cy="11" r="11" fill="green" transform="rotate(0,0,0)" />
<circle cx="55" cy="33" r="11" fill="green" transform="rotate(0,0,0)" />
<circle cx="55" cy="55" r="11" fill="green" transform="rotate(0,0,0)" />
<circle cx="55" cy="77" r="11" fill="green" transform="rotate(0,0,0)" />
<circle cx="55" cy="99" r="11" fill="green" transform="rotate(0,0,0)" />
<circle cx="55" cy="121" r="11" fill="green" transform="rotate(0,0,0)" />
<circle cx="77" cy="11" r="11" fill="green" transform="rotate(0,0,0)" />
<circle cx="77" cy="33" r="11" fill="green" transform="rotate(0,0,0)" />
<circle cx="77" cy="55" r="11" fill="green" transform="rotate(0,0,0)" />
<circle cx="77" cy="77" r="11" fill="green" transform="rotate(0,0,0)" />
<circle cx="77" cy="99" r="11" fill="green" transform="rotate(0,0,0)" />
<circle cx="77" cy="121" r="11" fill="green" transform="rotate(0,0,0)" />
<circle cx="99" cy="11" r="11" fill="green" transform="rotate(0,0,0)" />
<circle cx="99" cy="33" r="11" fill="green" transform="rotate(0,0,0)" />
<circle cx="99" cy="55" r="11" fill="green" transform="rotate(0,0,0)" />
<circle cx="99" cy="77" r="11" fill="green" transform="rotate(0,0,0)" />
<circle cx="99" cy="99" r="11" fill="green" transform="rotate(0,0,0)" />
<circle cx="99" cy="121" r="11" fill="green" transform="rotate(0,0,0)" />
<circle cx="121" cy="11" r="11" fill="green" transform="rotate(0,0,0)" />
<circle cx="121" cy="33" r="11" fill="green" transform="rotate(0,0,0)" />
<circle cx="121" cy="55" r="11" fill="green" transform="rotate(0,0,0)" />
<circle cx="121" cy="77" r="11" fill="green" transform="rotate(0,0,0)" />
<circle cx="121" cy="99" r="11" fill="green" transform="rotate(0,0,0)" />
<circle cx="121" cy="121" r="11" fill="green" transform="rotate(0,0,0)" />
<circle cx="143" cy="11" r="11" fill="green" transform="rotate(0,0,0)" />
<circle cx="143" cy="33" r="11" fill="green" transform="rotate(0,0,0)" />
<circle cx="143" cy="55" r="11" fill="green" transform="rotate(0,0,0)" />
<circle cx="143" cy="77" r="11" fill="green" transform="rotate(0,0,0)" />
<circle cx="143" cy="99" r="11" fill="green" transform="rotate(0,0,0)" />
<circle cx="143" cy="121" r="11" fill="green" transform="rotate(0,0,0)" />
<circle cx="165" cy="11" r="11" fill="green" transform="rotate(0,0,0)" />
<circle cx="165" cy="33" r="11" fill="green" transform="rotate(0,0,0)" />
<circle cx="165" cy="55" r="11" fill="green" transform="rotate(0,0,0)" />
<circle cx="165" cy="77" r="11" fill="green" transform="rotate(0,0,0)" />
<circle cx="165" cy="99" r="11" fill="green" transform="rotate(0,0,0)" />
<circle cx="165" cy="121" r="11" fill="green" transform="rotate(0,0,0)" />
<circle cx="187" cy="11" r="11" fill="green" transform="rotate(0,0,0)" />
<circle cx="187" cy="33" r="11" fill="green" transform="rotate(0,0,0)" />
<circle cx="187" cy="55" r="11" fill="green" transform="rotate(0,0,0)" />
<circle cx="187" cy="77" r="11" fill="green" transform="rotate(0,0,0)" />
<circle cx="187" cy="99" r="11" fill="green" transform="rotate(0,0,0)" />
<circle cx="187" cy="121" r="11" fill="green" transform="rotate(0,0,0)" />
<circle cx="209" cy="11" r="11" fill="green" transform="rotate(0,0,0)" />
<circle cx="209" cy="33" r="11" fill="green" transform="rotate(0,0,0)" />
<circle cx="209" cy="55" r="11" fill="green" transform="rotate(0,0,0)" />
<circle cx="209" cy="77" r="11" fill="green" transform="rotate(0,0,0)" />
<circle cx="209" cy="99" r="11" fill="green" transform="rotate(0,0,0)" />
<circle cx="209" cy="121" r="11" fill="green" transform="rotate(0,0,0)" />
<circle cx="231" cy="11" r="11" fill="green" transform="rotate(0,0,0)" />
<circle cx="231" cy="33" r="11" fill="green" transform="rotate(0,0,0)" />
<circle cx="231" cy="55" r="11" fill="green" transform="rotate(0,0,0)" />
<circle cx="231" cy="77" r="11" fill="green" transform="rotate(0,0,0)" />
<circle cx="231" cy="99" r="11" fill="green" transform="rotate(0,0,0)" />
<circle cx="231" cy="121" r="11" fill="green" transform="rotate(0,0,0)" />
<circle cx="253" cy="11" r="11" fill="green" transform="rotate(0,0,0)" />
<circle cx="253" cy="33" r="11" fill="green" transform="rotate(0,0,0)" />
<circle cx="253" cy="55" r="11" fill="green" transform="rotate(0,0,0)" />
<circle cx="253" cy="77" r="11" fill="green" transform="rotate(0,0,0)" />
<circle cx="253" cy="99" r="11" fill="green" transform="rotate(0,0,0)" />
<circle cx="253" cy="121" r="11" fill="green" transform="rotate(0,0,0)" />
<circle cx="275" cy="11" r="11" fill="green" transform="rotate(0,0,0)" />
<circle cx="275" cy="33" r="11" fill="green" transform="rotate(0,0,0)" />
<circle cx="275" cy="55" r="11" fill="green" transform="rotate(0,0,0)" />
<circle cx="275" cy="77" r="11" fill="green" transform="rotate(0,0,0)" />
<circle cx="275" cy="99" r="11" fill="green" transform="rotate(0,0,0)" />
<circle cx="275" cy="121" r="11" fill="green" transform="rotate(0,0,0)" />
<circle cx="297" cy="11" r="11" fill="green" transform="rotate(0,0,0)" />
<circle cx="297" cy="33" r="11" fill="green" transform="rotate(0,0,0)" />
<circle cx="297" cy="55" r="11" fill="green" transform="rotate(0,0,0)" />
<circle cx="297" cy="77" r="11" fill="green" transform="rotate(0,0,0)" />
<circle cx="297" cy="99" r="11" fill="green" transform="rotate(0,0,0)" />
<circle cx="297" cy="121" r="11" fill="green" transform="rotate(0,0,0)" />
<circle cx="319" cy="11" r="11" fill="green" transform="rotate(0,0,0)" />
<circle cx="319" cy="33" r="11" fill="green" transform="rotate(0,0,0)" />
<circle cx="319" cy="55" r="11" fill="green" transform="rotate(0,0,0)" />
<circle cx="319" cy="77" r="11" fill="green" transform="rotate(0,0,0)" />
<circle cx="319" cy="99" r="11" fill="green" transform="rotate(0,0,0)" />
<circle cx="319" cy="121" r="11" fill="green" transform="rotate(0,0,0)" />
</svg>