<svg version="1.1"
baseProfile="full"
width="330" height="150" xmlns="http://www.w3.org/2000/svg">
<rect width="100%" height="100%" fill="red" />
<polygon points="0 0 0 30 25.98 15" fill="green" transform="rotate(0,0,0)" />
<polygon points="0 30 0 60 25.98 45" fill="green" transform="rotate(0,0,0)" />
<polygon points="0 60 0 90 25.98 75" fill="green" transform="rotate(0,0,0)" />
<polygon points="0 90 0 120 25.98 105" fill="green" transform="rotate(0,0,0)" />
<polygon points="0 120 0 150 25.98 135" fill="green" transform="rotate(0,0,0)" />
<polygon points="25.98 0 25.98 30 51.96 15" fill="green" transform="rotate(0,0,0)" />
<polygon points="25.98 30 25.98 60 51.96 45" fill="green" transform="rotate(0,0,0)" />
<polygon points="25.98 60 25.98 90 51.96 75" fill="green" transform="rotate(0,0,0)" />
<polygon points="25.98 90 25.98 120 51.96 105" fill="green" transform="rotate(0,0,0)" />
<polygon points="25.98 120 25.98 150 51.96 135" fill="green" transform="rotate(0,0,0)" />
<polygon points="51.96 0 51.96 30 77.94 15" fill="green" transform="rotate(0,0,0)" />
<polygon points="51.96 30 51.96 60 77.94 45" fill="green" transform="rotate(0,0,0)" />
<polygon points="51.96 60 51.96 90 77.94 75" fill="green" transform="rotate(0,0,0)" />
<polygon points="51.96 90 51.96 120 77.94 105" fill="green" transform="rotate(0,0,0)" />
<polygon points="51.96 120 51.96 150 77.94 135" fill="green" transform="rotate(0,0,0)" />
<polygon points="77.94 0 77.94 30 103.92 15" fill="green" transform="rotate(0,0,0)" />
<polygon points="77.94 30 77.94 60 103.92 45" fill="green" transform="rotate(0,0,0)" />
<polygon points="77.94 60 77.94 90 103.92 75" fill="green" transform="rotate(0,0,0)" />
<polygon points="77.94 90 77.94 120 103.92 105" fill="green" transform="rotate(0,0,0)" />
<polygon points="77.94 120 77.94 150 103.92 135" fill="green" transform="rotate(0,0,0)" />
<polygon points="103.92 0 103.92 30 129.9 15" fill="green" transform="rotate(0,0,0)" />
<polygon points="103.92 30 103.92 60 129.9 45" fill="green" transform="rotate(0,0,0)" />
<polygon points="103.92 60 103.92 90 129.9 75" fill="green" transform="rotate(0,0,0)" />
<polygon points="103.92 90 103.92 120 129.9 105" fill="green" transform="rotate(0,0,0)" />
<polygon points="103.92 120 103.92 150 129.9 135" fill="green" transform="rotate(0,0,0)" />
<polygon points="129.9 0 129.9 30 155.88 15" fill="green" transform="rotate(0,0,0)" />
<polygon points="129.9 30 129.9 60 155.88 45" fill="green" transform="rotate(0,0,0)" />
<polygon points="129.9 60 129.9 90 155.88 75" fill="green" transform="rotate(0,0,0)" />
<polygon points="129.9 90 129.9 120 155.88 105" fill="green" transform="rotate(0,0,0)" />
<polygon points="129.9 120 129.9 150 155.88 135" fill="green" transform="rotate(0,0,0)" />
<polygon points="155.88 0 155.88 30 181.86 15" fill="green" transform="rotate(0,0,0)" />
<polygon points="155.88 30 155.88 60 181.86 45" fill="green" transform="rotate(0,0,0)" />
<polygon points="155.88 60 155.88 90 181.86 75" fill="green" transform="rotate(0,0,0)" />
<polygon points="155.88 90 155.88 120 181.86 105" fill="green" transform="rotate(0,0,0)" />
<polygon points="155.88 120 155.88 150 181.86 135" fill="green" transform="rotate(0,0,0)" />
<polygon points="181.86 0 181.86 30 207.84 15" fill="green" transform="rotate(0,0,0)" />
<polygon points="181.86 30 181.86 60 207.84 45" fill="green" transform="rotate(0,0,0)" />
<polygon points="181.86 60 181.86 90 207.84 75" fill="green" transform="rotate(0,0,0)" />
<polygon points="181.86 90 181.86 120 207.84 105" fill="green" transform="rotate(0,0,0)" />
<polygon points="181.86 120 181.86 150 207.84 135" fill="green" transform="rotate(0,0,0)" />
<polygon points="207.84 0 207.84 30 233.82 15" fill="green" transform="rotate(0,0,0)" />
<polygon points="207.84 30 207.84 60 233.82 45" fill="green" transform="rotate(0,0,0)" />
<polygon points="207.84 60 207.84 90 233.82 75" fill="green" transform="rotate(0,0,0)" />
<polygon points="207.84 90 207.84 120 233.82 105" fill="green" transform="rotate(0,0,0)" />
<polygon points="207.84 120 207.84 150 233.82 135" fill="green" transform="rotate(0,0,0)" />
<polygon points="233.82 0 233.82 30 259.8 15" fill="green" transform="rotate(0,0,0)" />
<polygon points="233.82 30 233.82 60 259.8 45" fill="green" transform="rotate(0,0,0)" />
<polygon points="233.82 60 233.82 90 259.8 75" fill="green" transform="rotate(0,0,0)" />
<polygon points="233.82 90 233.82 120 259.8 105" fill="green" transform="rotate(0,0,0)" />
<polygon points="233.82 120 233.82 150 259.8 135" fill="green" transform="rotate(0,0,0)" />
<polygon points="259.8 0 259.8 30 285.78 15" fill="green" transform="rotate(0,0,0)" />
<polygon points="259.8 30 259.8 60 285.78 45" fill="green" transform="rotate(0,0,0)" />
<polygon points="259.8 60 259.8 90 285.78 75" fill="green" transform="rotate(0,0,0)" />
<polygon points="259.8 90 259.8 120 285.78 105" fill="green" transform="rotate(0,0,0)" />
<polygon points="259.8 120 259.8 150 285.78 135" fill="green" transform="rotate(0,0,0)" />
<polygon points="285.78 0 285.78 30 311.76 15" fill="green" transform="rotate(0,0,0)" />
<polygon points="285.78 30 285.78 60 311.76 45" fill="green" transform="rotate(0,0,0)" />
<polygon points="285.78 60 285.78 90 311.76 75" fill="green" transform="rotate(0,0,0)" />
<polygon points="285.78 90 285.78 120 311.76 105" fill="green" transform="rotate(0,0,0)" />
<polygon points="285.78 120 285.78 150 311.76 135" fill="green" transform="rotate(0,0,0)" />
<polygon points="25.98 15 0 30 25.98 45" fill="green" transform="rotate(0,0,0)" />
<polygon points="51.96 15 25.98 30 51.96 45" fill="green" transform="rotate(0,0,0)" />
<polygon points="77.94 15 51.96 30 77.94 45" fill="green" transform="rotate(0,0,0)" />
<polygon points="103.92 15 77.94 30 103.92 45" fill="green" transform="rotate(0,0,0)" />
<polygon points="129.9 15 103.92 30 129.9 45" fill="green" transform="rotate(0,0,0)" />
<polygon points="155.88 15 129.9 30 155.88 45" fill="green" transform="rotate(0,0,0)" />
<polygon points="181.86 15 155.88 30 181.86 45" fill="green" transform="rotate(0,0,0)" />
<polygon points="207.84 15 181.86 30 207.84 45" fill="green" transform="rotate(0,0,0)" />
<polygon points="233.82 15 207.84 30 233.82 45" fill="green" transform="rotate(0,0,0)" />
<polygon points="259.8 15 233.82 30 259.8 45" fill="green" transform="rotate(0,0,0)" />
<polygon points="285.78 15 259.8 30 285.78 45" fill="green" transform="rotate(0,0,0)" />
<polygon points="311.76 15 285.78 30 311.76 45" fill="green" transform="rotate(0,0,0)" />
<polygon points="25.98 45 0 60 25.98 75" fill="green" transform="rotate(0,0,0)" />
<polygon points="51.96 45 25.98 60 51.96 75" fill="green" transform="rotate(0,0,0)" />
<polygon points="77.94 45 51.96 60 77.94 75" fill="green" transform="rotate(0,0,0)" />
<polygon points="103.92 45 77.94 60 103.92 75" fill="green" transform="rotate(0,0,0)" />
<polygon points="129.9 45 103.92 60 129.9 75" fill="green" transform="rotate(0,0,0)" />
<polygon points="155.88 45 129.9 60 155.88 75" fill="green" transform="rotate(0,0,0)" />
<polygon points="181.86 45 155.88 60 181.86 75" fill="green" transform="rotate(0,0,0)" />
<polygon points="207.84 45 181.86 60 207.84 75" fill="green" transform="rotate(0,0,0)" />
<polygon points="233.82 45 207.84 60 233.82 75" fill="green" transform="rotate(0,0,0)" />
<polygon points="259.8 45 233.82 60 259.8 75" fill="green" transform="rotate(0,0,0)" />
<polygon points="285.78 45 259.8 60 285.78 75" fill="green" transform="rotate(0,0,0)" />
<polygon points="311.76 45 285.78 60 311.76 75" fill="green" transform="rotate(0,0,0)" />
<polygon points="25.98 75 0 90 25.98 105" fill="green" transform="rotate(0,0,0)" />
<polygon points="51.96 75 25.98 90 51.96 105" fill="green" transform="rotate(0,0,0)" />
<polygon points="77.94 75 51.96 90 77.94 105" fill="green" transform="rotate(0,0,0)" />
<polygon points="103.92 75 77.94 90 103.92 105" fill="green" transform="rotate(0,0,0)" />
<polygon points="129.9 75 103.92 90 129.9 105" fill="green" transform="rotate(0,0,0)" />
<polygon points="155.88 75 129.9 90 155.88 105" fill="green" transform="rotate(0,0,0)" />
<polygon points="181.86 75 155.88 90 181.86 105" fill="green" transform="rotate(0,0,0)" />
<polygon points="207.84 75 181.86 90 207.84 105" fill="green" transform="rotate(0,0,0)" />
<polygon points="233.82 75 207.84 90 233.82 105" fill="green" transform="rotate(0,0,0)" />
<polygon points="259.8 75 233.82 90 259.8 105" fill="green" transform="rotate(0,0,0)" />
<polygon points="285.78 75 259.8 90 285.78 105" fill="green" transform="rotate(0,0,0)" />
<polygon points="311.76 75 285.78 90 311.76 105" fill="green" transform="rotate(0,0,0)" />
<polygon points="25.98 105 0 120 25.98 135" fill="green" transform="rotate(0,0,0)" />
<polygon points="51.96 105 25.98 120 51.96 135" fill="green" transform="rotate(0,0,0)" />
<polygon points="77.94 105 51.96 120 77.94 135" fill="green" transform="rotate(0,0,0)" />
<polygon points="103.92 105 77.94 120 103.92 135" fill="green" transform="rotate(0,0,0)" />
<polygon points="129.9 105 103.92 120 129.9 135" fill="green" transform="rotate(0,0,0)" />
<polygon points="155.88 105 129.9 120 155.88 135" fill="green" transform="rotate(0,0,0)" />
<polygon points="181.86 105 155.88 120 181.86 135" fill="green" transform="rotate(0,0,0)" />
<polygon points="207.84 105 181.86 120 207.84 135" fill="green" transform="rotate(0,0,0)" />
<polygon points="233.82 105 207.84 120 233.82 135" fill="green" transform="rotate(0,0,0)" />
<polygon points="259.8 105 233.82 120 259.8 135" fill="green" transform="rotate(0,0,0)" />
<polygon points="285.78 105 259.8 120 285.78 135" fill="green" transform="rotate(0,0,0)" />
<polygon points="311.76 105 285.78 120 311.76 135" fill="green" transform="rotate(0,0,0)" />
</svg>