<svg viewBox="0 0 580 580" xmlns="http://www.w3.org/2000/svg">
<circle cx="290" cy="290" r="290" fill="red" />
<circle cx="290" cy="290" r="15" fill="green" transform="rotate(0,290,290)" />
<circle cx="275" cy="315.98" r="15" fill="green" transform="rotate(0,290,290)" />
<circle cx="275" cy="315.98" r="15" fill="green" transform="rotate(60,290,290)" />
<circle cx="275" cy="315.98" r="15" fill="green" transform="rotate(120,290,290)" />
<circle cx="275" cy="315.98" r="15" fill="green" transform="rotate(180,290,290)" />
<circle cx="275" cy="315.98" r="15" fill="green" transform="rotate(240,290,290)" />
<circle cx="275" cy="315.98" r="15" fill="green" transform="rotate(300,290,290)" />
<circle cx="260" cy="341.96" r="15" fill="green" transform="rotate(0,290,290)" />
<circle cx="260" cy="341.96" r="15" fill="green" transform="rotate(60,290,290)" />
<circle cx="260" cy="341.96" r="15" fill="green" transform="rotate(120,290,290)" />
<circle cx="260" cy="341.96" r="15" fill="green" transform="rotate(180,290,290)" />
<circle cx="260" cy="341.96" r="15" fill="green" transform="rotate(240,290,290)" />
<circle cx="260" cy="341.96" r="15" fill="green" transform="rotate(300,290,290)" />
<circle cx="290" cy="341.96" r="15" fill="green" transform="rotate(0,290,290)" />
<circle cx="290" cy="341.96" r="15" fill="green" transform="rotate(60,290,290)" />
<circle cx="290" cy="341.96" r="15" fill="green" transform="rotate(120,290,290)" />
<circle cx="290" cy="341.96" r="15" fill="green" transform="rotate(180,290,290)" />
<circle cx="290" cy="341.96" r="15" fill="green" transform="rotate(240,290,290)" />
<circle cx="290" cy="341.96" r="15" fill="green" transform="rotate(300,290,290)" />
<circle cx="245" cy="367.94" r="15" fill="green" transform="rotate(0,290,290)" />
<circle cx="245" cy="367.94" r="15" fill="green" transform="rotate(60,290,290)" />
<circle cx="245" cy="367.94" r="15" fill="green" transform="rotate(120,290,290)" />
<circle cx="245" cy="367.94" r="15" fill="green" transform="rotate(180,290,290)" />
<circle cx="245" cy="367.94" r="15" fill="green" transform="rotate(240,290,290)" />
<circle cx="245" cy="367.94" r="15" fill="green" transform="rotate(300,290,290)" />
<circle cx="275" cy="367.94" r="15" fill="green" transform="rotate(0,290,290)" />
<circle cx="275" cy="367.94" r="15" fill="green" transform="rotate(60,290,290)" />
<circle cx="275" cy="367.94" r="15" fill="green" transform="rotate(120,290,290)" />
<circle cx="275" cy="367.94" r="15" fill="green" transform="rotate(180,290,290)" />
<circle cx="275" cy="367.94" r="15" fill="green" transform="rotate(240,290,290)" />
<circle cx="275" cy="367.94" r="15" fill="green" transform="rotate(300,290,290)" />
<circle cx="305" cy="367.94" r="15" fill="green" transform="rotate(0,290,290)" />
<circle cx="305" cy="367.94" r="15" fill="green" transform="rotate(60,290,290)" />
<circle cx="305" cy="367.94" r="15" fill="green" transform="rotate(120,290,290)" />
<circle cx="305" cy="367.94" r="15" fill="green" transform="rotate(180,290,290)" />
<circle cx="305" cy="367.94" r="15" fill="green" transform="rotate(240,290,290)" />
<circle cx="305" cy="367.94" r="15" fill="green" transform="rotate(300,290,290)" />
<circle cx="230" cy="393.92" r="15" fill="green" transform="rotate(0,290,290)" />
<circle cx="230" cy="393.92" r="15" fill="green" transform="rotate(60,290,290)" />
<circle cx="230" cy="393.92" r="15" fill="green" transform="rotate(120,290,290)" />
<circle cx="230" cy="393.92" r="15" fill="green" transform="rotate(180,290,290)" />
<circle cx="230" cy="393.92" r="15" fill="green" transform="rotate(240,290,290)" />
<circle cx="230" cy="393.92" r="15" fill="green" transform="rotate(300,290,290)" />
<circle cx="260" cy="393.92" r="15" fill="green" transform="rotate(0,290,290)" />
<circle cx="260" cy="393.92" r="15" fill="green" transform="rotate(60,290,290)" />
<circle cx="260" cy="393.92" r="15" fill="green" transform="rotate(120,290,290)" />
<circle cx="260" cy="393.92" r="15" fill="green" transform="rotate(180,290,290)" />
<circle cx="260" cy="393.92" r="15" fill="green" transform="rotate(240,290,290)" />
<circle cx="260" cy="393.92" r="15" fill="green" transform="rotate(300,290,290)" />
<circle cx="290" cy="393.92" r="15" fill="green" transform="rotate(0,290,290)" />
<circle cx="290" cy="393.92" r="15" fill="green" transform="rotate(60,290,290)" />
<circle cx="290" cy="393.92" r="15" fill="green" transform="rotate(120,290,290)" />
<circle cx="290" cy="393.92" r="15" fill="green" transform="rotate(180,290,290)" />
<circle cx="290" cy="393.92" r="15" fill="green" transform="rotate(240,290,290)" />
<circle cx="290" cy="393.92" r="15" fill="green" transform="rotate(300,290,290)" />
<circle cx="320" cy="393.92" r="15" fill="green" transform="rotate(0,290,290)" />
<circle cx="320" cy="393.92" r="15" fill="green" transform="rotate(60,290,290)" />
<circle cx="320" cy="393.92" r="15" fill="green" transform="rotate(120,290,290)" />
<circle cx="320" cy="393.92" r="15" fill="green" transform="rotate(180,290,290)" />
<circle cx="320" cy="393.92" r="15" fill="green" transform="rotate(240,290,290)" />
<circle cx="320" cy="393.92" r="15" fill="green" transform="rotate(300,290,290)" />
<circle cx="215" cy="419.9" r="15" fill="green" transform="rotate(0,290,290)" />
<circle cx="215" cy="419.9" r="15" fill="green" transform="rotate(60,290,290)" />
<circle cx="215" cy="419.9" r="15" fill="green" transform="rotate(120,290,290)" />
<circle cx="215" cy="419.9" r="15" fill="green" transform="rotate(180,290,290)" />
<circle cx="215" cy="419.9" r="15" fill="green" transform="rotate(240,290,290)" />
<circle cx="215" cy="419.9" r="15" fill="green" transform="rotate(300,290,290)" />
<circle cx="245" cy="419.9" r="15" fill="green" transform="rotate(0,290,290)" />
<circle cx="245" cy="419.9" r="15" fill="green" transform="rotate(60,290,290)" />
<circle cx="245" cy="419.9" r="15" fill="green" transform="rotate(120,290,290)" />
<circle cx="245" cy="419.9" r="15" fill="green" transform="rotate(180,290,290)" />
<circle cx="245" cy="419.9" r="15" fill="green" transform="rotate(240,290,290)" />
<circle cx="245" cy="419.9" r="15" fill="green" transform="rotate(300,290,290)" />
<circle cx="275" cy="419.9" r="15" fill="green" transform="rotate(0,290,290)" />
<circle cx="275" cy="419.9" r="15" fill="green" transform="rotate(60,290,290)" />
<circle cx="275" cy="419.9" r="15" fill="green" transform="rotate(120,290,290)" />
<circle cx="275" cy="419.9" r="15" fill="green" transform="rotate(180,290,290)" />
<circle cx="275" cy="419.9" r="15" fill="green" transform="rotate(240,290,290)" />
<circle cx="275" cy="419.9" r="15" fill="green" transform="rotate(300,290,290)" />
<circle cx="305" cy="419.9" r="15" fill="green" transform="rotate(0,290,290)" />
<circle cx="305" cy="419.9" r="15" fill="green" transform="rotate(60,290,290)" />
<circle cx="305" cy="419.9" r="15" fill="green" transform="rotate(120,290,290)" />
<circle cx="305" cy="419.9" r="15" fill="green" transform="rotate(180,290,290)" />
<circle cx="305" cy="419.9" r="15" fill="green" transform="rotate(240,290,290)" />
<circle cx="305" cy="419.9" r="15" fill="green" transform="rotate(300,290,290)" />
<circle cx="335" cy="419.9" r="15" fill="green" transform="rotate(0,290,290)" />
<circle cx="335" cy="419.9" r="15" fill="green" transform="rotate(60,290,290)" />
<circle cx="335" cy="419.9" r="15" fill="green" transform="rotate(120,290,290)" />
<circle cx="335" cy="419.9" r="15" fill="green" transform="rotate(180,290,290)" />
<circle cx="335" cy="419.9" r="15" fill="green" transform="rotate(240,290,290)" />
<circle cx="335" cy="419.9" r="15" fill="green" transform="rotate(300,290,290)" />
<circle cx="200" cy="445.88" r="15" fill="green" transform="rotate(0,290,290)" />
<circle cx="200" cy="445.88" r="15" fill="green" transform="rotate(60,290,290)" />
<circle cx="200" cy="445.88" r="15" fill="green" transform="rotate(120,290,290)" />
<circle cx="200" cy="445.88" r="15" fill="green" transform="rotate(180,290,290)" />
<circle cx="200" cy="445.88" r="15" fill="green" transform="rotate(240,290,290)" />
<circle cx="200" cy="445.88" r="15" fill="green" transform="rotate(300,290,290)" />
<circle cx="230" cy="445.88" r="15" fill="green" transform="rotate(0,290,290)" />
<circle cx="230" cy="445.88" r="15" fill="green" transform="rotate(60,290,290)" />
<circle cx="230" cy="445.88" r="15" fill="green" transform="rotate(120,290,290)" />
<circle cx="230" cy="445.88" r="15" fill="green" transform="rotate(180,290,290)" />
<circle cx="230" cy="445.88" r="15" fill="green" transform="rotate(240,290,290)" />
<circle cx="230" cy="445.88" r="15" fill="green" transform="rotate(300,290,290)" />
<circle cx="260" cy="445.88" r="15" fill="green" transform="rotate(0,290,290)" />
<circle cx="260" cy="445.88" r="15" fill="green" transform="rotate(60,290,290)" />
<circle cx="260" cy="445.88" r="15" fill="green" transform="rotate(120,290,290)" />
<circle cx="260" cy="445.88" r="15" fill="green" transform="rotate(180,290,290)" />
<circle cx="260" cy="445.88" r="15" fill="green" transform="rotate(240,290,290)" />
<circle cx="260" cy="445.88" r="15" fill="green" transform="rotate(300,290,290)" />
<circle cx="290" cy="445.88" r="15" fill="green" transform="rotate(0,290,290)" />
<circle cx="290" cy="445.88" r="15" fill="green" transform="rotate(60,290,290)" />
<circle cx="290" cy="445.88" r="15" fill="green" transform="rotate(120,290,290)" />
<circle cx="290" cy="445.88" r="15" fill="green" transform="rotate(180,290,290)" />
<circle cx="290" cy="445.88" r="15" fill="green" transform="rotate(240,290,290)" />
<circle cx="290" cy="445.88" r="15" fill="green" transform="rotate(300,290,290)" />
<circle cx="320" cy="445.88" r="15" fill="green" transform="rotate(0,290,290)" />
<circle cx="320" cy="445.88" r="15" fill="green" transform="rotate(60,290,290)" />
<circle cx="320" cy="445.88" r="15" fill="green" transform="rotate(120,290,290)" />
<circle cx="320" cy="445.88" r="15" fill="green" transform="rotate(180,290,290)" />
<circle cx="320" cy="445.88" r="15" fill="green" transform="rotate(240,290,290)" />
<circle cx="320" cy="445.88" r="15" fill="green" transform="rotate(300,290,290)" />
<circle cx="350" cy="445.88" r="15" fill="green" transform="rotate(0,290,290)" />
<circle cx="350" cy="445.88" r="15" fill="green" transform="rotate(60,290,290)" />
<circle cx="350" cy="445.88" r="15" fill="green" transform="rotate(120,290,290)" />
<circle cx="350" cy="445.88" r="15" fill="green" transform="rotate(180,290,290)" />
<circle cx="350" cy="445.88" r="15" fill="green" transform="rotate(240,290,290)" />
<circle cx="350" cy="445.88" r="15" fill="green" transform="rotate(300,290,290)" />
<circle cx="185" cy="471.86" r="15" fill="green" transform="rotate(0,290,290)" />
<circle cx="185" cy="471.86" r="15" fill="green" transform="rotate(60,290,290)" />
<circle cx="185" cy="471.86" r="15" fill="green" transform="rotate(120,290,290)" />
<circle cx="185" cy="471.86" r="15" fill="green" transform="rotate(180,290,290)" />
<circle cx="185" cy="471.86" r="15" fill="green" transform="rotate(240,290,290)" />
<circle cx="185" cy="471.86" r="15" fill="green" transform="rotate(300,290,290)" />
<circle cx="215" cy="471.86" r="15" fill="green" transform="rotate(0,290,290)" />
<circle cx="215" cy="471.86" r="15" fill="green" transform="rotate(60,290,290)" />
<circle cx="215" cy="471.86" r="15" fill="green" transform="rotate(120,290,290)" />
<circle cx="215" cy="471.86" r="15" fill="green" transform="rotate(180,290,290)" />
<circle cx="215" cy="471.86" r="15" fill="green" transform="rotate(240,290,290)" />
<circle cx="215" cy="471.86" r="15" fill="green" transform="rotate(300,290,290)" />
<circle cx="245" cy="471.86" r="15" fill="green" transform="rotate(0,290,290)" />
<circle cx="245" cy="471.86" r="15" fill="green" transform="rotate(60,290,290)" />
<circle cx="245" cy="471.86" r="15" fill="green" transform="rotate(120,290,290)" />
<circle cx="245" cy="471.86" r="15" fill="green" transform="rotate(180,290,290)" />
<circle cx="245" cy="471.86" r="15" fill="green" transform="rotate(240,290,290)" />
<circle cx="245" cy="471.86" r="15" fill="green" transform="rotate(300,290,290)" />
<circle cx="275" cy="471.86" r="15" fill="green" transform="rotate(0,290,290)" />
<circle cx="275" cy="471.86" r="15" fill="green" transform="rotate(60,290,290)" />
<circle cx="275" cy="471.86" r="15" fill="green" transform="rotate(120,290,290)" />
<circle cx="275" cy="471.86" r="15" fill="green" transform="rotate(180,290,290)" />
<circle cx="275" cy="471.86" r="15" fill="green" transform="rotate(240,290,290)" />
<circle cx="275" cy="471.86" r="15" fill="green" transform="rotate(300,290,290)" />
<circle cx="305" cy="471.86" r="15" fill="green" transform="rotate(0,290,290)" />
<circle cx="305" cy="471.86" r="15" fill="green" transform="rotate(60,290,290)" />
<circle cx="305" cy="471.86" r="15" fill="green" transform="rotate(120,290,290)" />
<circle cx="305" cy="471.86" r="15" fill="green" transform="rotate(180,290,290)" />
<circle cx="305" cy="471.86" r="15" fill="green" transform="rotate(240,290,290)" />
<circle cx="305" cy="471.86" r="15" fill="green" transform="rotate(300,290,290)" />
<circle cx="335" cy="471.86" r="15" fill="green" transform="rotate(0,290,290)" />
<circle cx="335" cy="471.86" r="15" fill="green" transform="rotate(60,290,290)" />
<circle cx="335" cy="471.86" r="15" fill="green" transform="rotate(120,290,290)" />
<circle cx="335" cy="471.86" r="15" fill="green" transform="rotate(180,290,290)" />
<circle cx="335" cy="471.86" r="15" fill="green" transform="rotate(240,290,290)" />
<circle cx="335" cy="471.86" r="15" fill="green" transform="rotate(300,290,290)" />
<circle cx="365" cy="471.86" r="15" fill="green" transform="rotate(0,290,290)" />
<circle cx="365" cy="471.86" r="15" fill="green" transform="rotate(60,290,290)" />
<circle cx="365" cy="471.86" r="15" fill="green" transform="rotate(120,290,290)" />
<circle cx="365" cy="471.86" r="15" fill="green" transform="rotate(180,290,290)" />
<circle cx="365" cy="471.86" r="15" fill="green" transform="rotate(240,290,290)" />
<circle cx="365" cy="471.86" r="15" fill="green" transform="rotate(300,290,290)" />
<circle cx="170" cy="497.84" r="15" fill="green" transform="rotate(0,290,290)" />
<circle cx="170" cy="497.84" r="15" fill="green" transform="rotate(60,290,290)" />
<circle cx="170" cy="497.84" r="15" fill="green" transform="rotate(120,290,290)" />
<circle cx="170" cy="497.84" r="15" fill="green" transform="rotate(180,290,290)" />
<circle cx="170" cy="497.84" r="15" fill="green" transform="rotate(240,290,290)" />
<circle cx="170" cy="497.84" r="15" fill="green" transform="rotate(300,290,290)" />
<circle cx="200" cy="497.84" r="15" fill="green" transform="rotate(0,290,290)" />
<circle cx="200" cy="497.84" r="15" fill="green" transform="rotate(60,290,290)" />
<circle cx="200" cy="497.84" r="15" fill="green" transform="rotate(120,290,290)" />
<circle cx="200" cy="497.84" r="15" fill="green" transform="rotate(180,290,290)" />
<circle cx="200" cy="497.84" r="15" fill="green" transform="rotate(240,290,290)" />
<circle cx="200" cy="497.84" r="15" fill="green" transform="rotate(300,290,290)" />
<circle cx="230" cy="497.84" r="15" fill="green" transform="rotate(0,290,290)" />
<circle cx="230" cy="497.84" r="15" fill="green" transform="rotate(60,290,290)" />
<circle cx="230" cy="497.84" r="15" fill="green" transform="rotate(120,290,290)" />
<circle cx="230" cy="497.84" r="15" fill="green" transform="rotate(180,290,290)" />
<circle cx="230" cy="497.84" r="15" fill="green" transform="rotate(240,290,290)" />
<circle cx="230" cy="497.84" r="15" fill="green" transform="rotate(300,290,290)" />
<circle cx="260" cy="497.84" r="15" fill="green" transform="rotate(0,290,290)" />
<circle cx="260" cy="497.84" r="15" fill="green" transform="rotate(60,290,290)" />
<circle cx="260" cy="497.84" r="15" fill="green" transform="rotate(120,290,290)" />
<circle cx="260" cy="497.84" r="15" fill="green" transform="rotate(180,290,290)" />
<circle cx="260" cy="497.84" r="15" fill="green" transform="rotate(240,290,290)" />
<circle cx="260" cy="497.84" r="15" fill="green" transform="rotate(300,290,290)" />
<circle cx="290" cy="497.84" r="15" fill="green" transform="rotate(0,290,290)" />
<circle cx="290" cy="497.84" r="15" fill="green" transform="rotate(60,290,290)" />
<circle cx="290" cy="497.84" r="15" fill="green" transform="rotate(120,290,290)" />
<circle cx="290" cy="497.84" r="15" fill="green" transform="rotate(180,290,290)" />
<circle cx="290" cy="497.84" r="15" fill="green" transform="rotate(240,290,290)" />
<circle cx="290" cy="497.84" r="15" fill="green" transform="rotate(300,290,290)" />
<circle cx="320" cy="497.84" r="15" fill="green" transform="rotate(0,290,290)" />
<circle cx="320" cy="497.84" r="15" fill="green" transform="rotate(60,290,290)" />
<circle cx="320" cy="497.84" r="15" fill="green" transform="rotate(120,290,290)" />
<circle cx="320" cy="497.84" r="15" fill="green" transform="rotate(180,290,290)" />
<circle cx="320" cy="497.84" r="15" fill="green" transform="rotate(240,290,290)" />
<circle cx="320" cy="497.84" r="15" fill="green" transform="rotate(300,290,290)" />
<circle cx="350" cy="497.84" r="15" fill="green" transform="rotate(0,290,290)" />
<circle cx="350" cy="497.84" r="15" fill="green" transform="rotate(60,290,290)" />
<circle cx="350" cy="497.84" r="15" fill="green" transform="rotate(120,290,290)" />
<circle cx="350" cy="497.84" r="15" fill="green" transform="rotate(180,290,290)" />
<circle cx="350" cy="497.84" r="15" fill="green" transform="rotate(240,290,290)" />
<circle cx="350" cy="497.84" r="15" fill="green" transform="rotate(300,290,290)" />
<circle cx="380" cy="497.84" r="15" fill="green" transform="rotate(0,290,290)" />
<circle cx="380" cy="497.84" r="15" fill="green" transform="rotate(60,290,290)" />
<circle cx="380" cy="497.84" r="15" fill="green" transform="rotate(120,290,290)" />
<circle cx="380" cy="497.84" r="15" fill="green" transform="rotate(180,290,290)" />
<circle cx="380" cy="497.84" r="15" fill="green" transform="rotate(240,290,290)" />
<circle cx="380" cy="497.84" r="15" fill="green" transform="rotate(300,290,290)" />
<circle cx="155" cy="523.82" r="15" fill="green" transform="rotate(0,290,290)" />
<circle cx="155" cy="523.82" r="15" fill="green" transform="rotate(60,290,290)" />
<circle cx="155" cy="523.82" r="15" fill="green" transform="rotate(120,290,290)" />
<circle cx="155" cy="523.82" r="15" fill="green" transform="rotate(180,290,290)" />
<circle cx="155" cy="523.82" r="15" fill="green" transform="rotate(240,290,290)" />
<circle cx="155" cy="523.82" r="15" fill="green" transform="rotate(300,290,290)" />
<circle cx="185" cy="523.82" r="15" fill="green" transform="rotate(0,290,290)" />
<circle cx="185" cy="523.82" r="15" fill="green" transform="rotate(60,290,290)" />
<circle cx="185" cy="523.82" r="15" fill="green" transform="rotate(120,290,290)" />
<circle cx="185" cy="523.82" r="15" fill="green" transform="rotate(180,290,290)" />
<circle cx="185" cy="523.82" r="15" fill="green" transform="rotate(240,290,290)" />
<circle cx="185" cy="523.82" r="15" fill="green" transform="rotate(300,290,290)" />
<circle cx="215" cy="523.82" r="15" fill="green" transform="rotate(0,290,290)" />
<circle cx="215" cy="523.82" r="15" fill="green" transform="rotate(60,290,290)" />
<circle cx="215" cy="523.82" r="15" fill="green" transform="rotate(120,290,290)" />
<circle cx="215" cy="523.82" r="15" fill="green" transform="rotate(180,290,290)" />
<circle cx="215" cy="523.82" r="15" fill="green" transform="rotate(240,290,290)" />
<circle cx="215" cy="523.82" r="15" fill="green" transform="rotate(300,290,290)" />
<circle cx="245" cy="523.82" r="15" fill="green" transform="rotate(0,290,290)" />
<circle cx="245" cy="523.82" r="15" fill="green" transform="rotate(60,290,290)" />
<circle cx="245" cy="523.82" r="15" fill="green" transform="rotate(120,290,290)" />
<circle cx="245" cy="523.82" r="15" fill="green" transform="rotate(180,290,290)" />
<circle cx="245" cy="523.82" r="15" fill="green" transform="rotate(240,290,290)" />
<circle cx="245" cy="523.82" r="15" fill="green" transform="rotate(300,290,290)" />
<circle cx="275" cy="523.82" r="15" fill="green" transform="rotate(0,290,290)" />
<circle cx="275" cy="523.82" r="15" fill="green" transform="rotate(60,290,290)" />
<circle cx="275" cy="523.82" r="15" fill="green" transform="rotate(120,290,290)" />
<circle cx="275" cy="523.82" r="15" fill="green" transform="rotate(180,290,290)" />
<circle cx="275" cy="523.82" r="15" fill="green" transform="rotate(240,290,290)" />
<circle cx="275" cy="523.82" r="15" fill="green" transform="rotate(300,290,290)" />
<circle cx="305" cy="523.82" r="15" fill="green" transform="rotate(0,290,290)" />
<circle cx="305" cy="523.82" r="15" fill="green" transform="rotate(60,290,290)" />
<circle cx="305" cy="523.82" r="15" fill="green" transform="rotate(120,290,290)" />
<circle cx="305" cy="523.82" r="15" fill="green" transform="rotate(180,290,290)" />
<circle cx="305" cy="523.82" r="15" fill="green" transform="rotate(240,290,290)" />
<circle cx="305" cy="523.82" r="15" fill="green" transform="rotate(300,290,290)" />
<circle cx="335" cy="523.82" r="15" fill="green" transform="rotate(0,290,290)" />
<circle cx="335" cy="523.82" r="15" fill="green" transform="rotate(60,290,290)" />
<circle cx="335" cy="523.82" r="15" fill="green" transform="rotate(120,290,290)" />
<circle cx="335" cy="523.82" r="15" fill="green" transform="rotate(180,290,290)" />
<circle cx="335" cy="523.82" r="15" fill="green" transform="rotate(240,290,290)" />
<circle cx="335" cy="523.82" r="15" fill="green" transform="rotate(300,290,290)" />
<circle cx="365" cy="523.82" r="15" fill="green" transform="rotate(0,290,290)" />
<circle cx="365" cy="523.82" r="15" fill="green" transform="rotate(60,290,290)" />
<circle cx="365" cy="523.82" r="15" fill="green" transform="rotate(120,290,290)" />
<circle cx="365" cy="523.82" r="15" fill="green" transform="rotate(180,290,290)" />
<circle cx="365" cy="523.82" r="15" fill="green" transform="rotate(240,290,290)" />
<circle cx="365" cy="523.82" r="15" fill="green" transform="rotate(300,290,290)" />
<circle cx="395" cy="523.82" r="15" fill="green" transform="rotate(0,290,290)" />
<circle cx="395" cy="523.82" r="15" fill="green" transform="rotate(60,290,290)" />
<circle cx="395" cy="523.82" r="15" fill="green" transform="rotate(120,290,290)" />
<circle cx="395" cy="523.82" r="15" fill="green" transform="rotate(180,290,290)" />
<circle cx="395" cy="523.82" r="15" fill="green" transform="rotate(240,290,290)" />
<circle cx="395" cy="523.82" r="15" fill="green" transform="rotate(300,290,290)" />
</svg>