<svg version="1.1"
baseProfile="full"
height="250" width="250" xmlns="http://www.w3.org/2000/svg">>
	<polygon points="125 0 0 216.5 250 216.5" fill="red" />
<circle cx="19.0531" cy="205.5" r="11" fill="green" transform="rotate(0,0,0)" />
<circle cx="41.0531" cy="205.5" r="11" fill="green" transform="rotate(0,0,0)" />
<circle cx="63.0531" cy="205.5" r="11" fill="green" transform="rotate(0,0,0)" />
<circle cx="85.0531" cy="205.5" r="11" fill="green" transform="rotate(0,0,0)" />
<circle cx="107.053" cy="205.5" r="11" fill="green" transform="rotate(0,0,0)" />
<circle cx="129.053" cy="205.5" r="11" fill="green" transform="rotate(0,0,0)" />
<circle cx="151.053" cy="205.5" r="11" fill="green" transform="rotate(0,0,0)" />
<circle cx="173.053" cy="205.5" r="11" fill="green" transform="rotate(0,0,0)" />
<circle cx="195.053" cy="205.5" r="11" fill="green" transform="rotate(0,0,0)" />
<circle cx="217.053" cy="205.5" r="11" fill="green" transform="rotate(0,0,0)" />
<circle cx="31.7552" cy="183.5" r="11" fill="green" transform="rotate(0,0,0)" />
<circle cx="53.7552" cy="183.5" r="11" fill="green" transform="rotate(0,0,0)" />
<circle cx="75.7552" cy="183.5" r="11" fill="green" transform="rotate(0,0,0)" />
<circle cx="97.7552" cy="183.5" r="11" fill="green" transform="rotate(0,0,0)" />
<circle cx="119.755" cy="183.5" r="11" fill="green" transform="rotate(0,0,0)" />
<circle cx="141.755" cy="183.5" r="11" fill="green" transform="rotate(0,0,0)" />
<circle cx="163.755" cy="183.5" r="11" fill="green" transform="rotate(0,0,0)" />
<circle cx="185.755" cy="183.5" r="11" fill="green" transform="rotate(0,0,0)" />
<circle cx="207.755" cy="183.5" r="11" fill="green" transform="rotate(0,0,0)" />
<circle cx="44.4573" cy="161.5" r="11" fill="green" transform="rotate(0,0,0)" />
<circle cx="66.4573" cy="161.5" r="11" fill="green" transform="rotate(0,0,0)" />
<circle cx="88.4573" cy="161.5" r="11" fill="green" transform="rotate(0,0,0)" />
<circle cx="110.457" cy="161.5" r="11" fill="green" transform="rotate(0,0,0)" />
<circle cx="132.457" cy="161.5" r="11" fill="green" transform="rotate(0,0,0)" />
<circle cx="154.457" cy="161.5" r="11" fill="green" transform="rotate(0,0,0)" />
<circle cx="176.457" cy="161.5" r="11" fill="green" transform="rotate(0,0,0)" />
<circle cx="198.457" cy="161.5" r="11" fill="green" transform="rotate(0,0,0)" />
<circle cx="57.1594" cy="139.5" r="11" fill="green" transform="rotate(0,0,0)" />
<circle cx="79.1594" cy="139.5" r="11" fill="green" transform="rotate(0,0,0)" />
<circle cx="101.159" cy="139.5" r="11" fill="green" transform="rotate(0,0,0)" />
<circle cx="123.159" cy="139.5" r="11" fill="green" transform="rotate(0,0,0)" />
<circle cx="145.159" cy="139.5" r="11" fill="green" transform="rotate(0,0,0)" />
<circle cx="167.159" cy="139.5" r="11" fill="green" transform="rotate(0,0,0)" />
<circle cx="189.159" cy="139.5" r="11" fill="green" transform="rotate(0,0,0)" />
<circle cx="69.8614" cy="117.5" r="11" fill="green" transform="rotate(0,0,0)" />
<circle cx="91.8614" cy="117.5" r="11" fill="green" transform="rotate(0,0,0)" />
<circle cx="113.861" cy="117.5" r="11" fill="green" transform="rotate(0,0,0)" />
<circle cx="135.861" cy="117.5" r="11" fill="green" transform="rotate(0,0,0)" />
<circle cx="157.861" cy="117.5" r="11" fill="green" transform="rotate(0,0,0)" />
<circle cx="179.861" cy="117.5" r="11" fill="green" transform="rotate(0,0,0)" />
<circle cx="82.5635" cy="95.5" r="11" fill="green" transform="rotate(0,0,0)" />
<circle cx="104.564" cy="95.5" r="11" fill="green" transform="rotate(0,0,0)" />
<circle cx="126.564" cy="95.5" r="11" fill="green" transform="rotate(0,0,0)" />
<circle cx="148.564" cy="95.5" r="11" fill="green" transform="rotate(0,0,0)" />
<circle cx="95.2656" cy="73.5" r="11" fill="green" transform="rotate(0,0,0)" />
<circle cx="117.266" cy="73.5" r="11" fill="green" transform="rotate(0,0,0)" />
<circle cx="139.266" cy="73.5" r="11" fill="green" transform="rotate(0,0,0)" />
<circle cx="107.968" cy="51.5" r="11" fill="green" transform="rotate(0,0,0)" />
<circle cx="129.968" cy="51.5" r="11" fill="green" transform="rotate(0,0,0)" />
<circle cx="120.67" cy="29.5" r="11" fill="green" transform="rotate(0,0,0)" />
</svg>