<svg version="1.1"
baseProfile="full"
width="200" height="100" xmlns="http://www.w3.org/2000/svg">
<rect width="100%" height="100%" fill="red" />
<rect x="0" y="0" width="10" height="20" fill="green" />
<rect x="0" y="20" width="10" height="20" fill="green" />
<rect x="0" y="40" width="10" height="20" fill="green" />
<rect x="0" y="60" width="10" height="20" fill="green" />
<rect x="0" y="80" width="10" height="20" fill="green" />
<rect x="10" y="0" width="10" height="20" fill="green" />
<rect x="10" y="20" width="10" height="20" fill="green" />
<rect x="10" y="40" width="10" height="20" fill="green" />
<rect x="10" y="60" width="10" height="20" fill="green" />
<rect x="10" y="80" width="10" height="20" fill="green" />
<rect x="20" y="0" width="10" height="20" fill="green" />
<rect x="20" y="20" width="10" height="20" fill="green" />
<rect x="20" y="40" width="10" height="20" fill="green" />
<rect x="20" y="60" width="10" height="20" fill="green" />
<rect x="20" y="80" width="10" height="20" fill="green" />
<rect x="30" y="0" width="10" height="20" fill="green" />
<rect x="30" y="20" width="10" height="20" fill="green" />
<rect x="30" y="40" width="10" height="20" fill="green" />
<rect x="30" y="60" width="10" height="20" fill="green" />
<rect x="30" y="80" width="10" height="20" fill="green" />
<rect x="40" y="0" width="10" height="20" fill="green" />
<rect x="40" y="20" width="10" height="20" fill="green" />
<rect x="40" y="40" width="10" height="20" fill="green" />
<rect x="40" y="60" width="10" height="20" fill="green" />
<rect x="40" y="80" width="10" height="20" fill="green" />
<rect x="50" y="0" width="10" height="20" fill="green" />
<rect x="50" y="20" width="10" height="20" fill="green" />
<rect x="50" y="40" width="10" height="20" fill="green" />
<rect x="50" y="60" width="10" height="20" fill="green" />
<rect x="50" y="80" width="10" height="20" fill="green" />
<rect x="60" y="0" width="10" height="20" fill="green" />
<rect x="60" y="20" width="10" height="20" fill="green" />
<rect x="60" y="40" width="10" height="20" fill="green" />
<rect x="60" y="60" width="10" height="20" fill="green" />
<rect x="60" y="80" width="10" height="20" fill="green" />
<rect x="70" y="0" width="10" height="20" fill="green" />
<rect x="70" y="20" width="10" height="20" fill="green" />
<rect x="70" y="40" width="10" height="20" fill="green" />
<rect x="70" y="60" width="10" height="20" fill="green" />
<rect x="70" y="80" width="10" height="20" fill="green" />
<rect x="80" y="0" width="10" height="20" fill="green" />
<rect x="80" y="20" width="10" height="20" fill="green" />
<rect x="80" y="40" width="10" height="20" fill="green" />
<rect x="80" y="60" width="10" height="20" fill="green" />
<rect x="80" y="80" width="10" height="20" fill="green" />
<rect x="90" y="0" width="10" height="20" fill="green" />
<rect x="90" y="20" width="10" height="20" fill="green" />
<rect x="90" y="40" width="10" height="20" fill="green" />
<rect x="90" y="60" width="10" height="20" fill="green" />
<rect x="90" y="80" width="10" height="20" fill="green" />
<rect x="100" y="0" width="10" height="20" fill="green" />
<rect x="100" y="20" width="10" height="20" fill="green" />
<rect x="100" y="40" width="10" height="20" fill="green" />
<rect x="100" y="60" width="10" height="20" fill="green" />
<rect x="100" y="80" width="10" height="20" fill="green" />
<rect x="110" y="0" width="10" height="20" fill="green" />
<rect x="110" y="20" width="10" height="20" fill="green" />
<rect x="110" y="40" width="10" height="20" fill="green" />
<rect x="110" y="60" width="10" height="20" fill="green" />
<rect x="110" y="80" width="10" height="20" fill="green" />
<rect x="120" y="0" width="10" height="20" fill="green" />
<rect x="120" y="20" width="10" height="20" fill="green" />
<rect x="120" y="40" width="10" height="20" fill="green" />
<rect x="120" y="60" width="10" height="20" fill="green" />
<rect x="120" y="80" width="10" height="20" fill="green" />
<rect x="130" y="0" width="10" height="20" fill="green" />
<rect x="130" y="20" width="10" height="20" fill="green" />
<rect x="130" y="40" width="10" height="20" fill="green" />
<rect x="130" y="60" width="10" height="20" fill="green" />
<rect x="130" y="80" width="10" height="20" fill="green" />
<rect x="140" y="0" width="10" height="20" fill="green" />
<rect x="140" y="20" width="10" height="20" fill="green" />
<rect x="140" y="40" width="10" height="20" fill="green" />
<rect x="140" y="60" width="10" height="20" fill="green" />
<rect x="140" y="80" width="10" height="20" fill="green" />
<rect x="150" y="0" width="10" height="20" fill="green" />
<rect x="150" y="20" width="10" height="20" fill="green" />
<rect x="150" y="40" width="10" height="20" fill="green" />
<rect x="150" y="60" width="10" height="20" fill="green" />
<rect x="150" y="80" width="10" height="20" fill="green" />
<rect x="160" y="0" width="10" height="20" fill="green" />
<rect x="160" y="20" width="10" height="20" fill="green" />
<rect x="160" y="40" width="10" height="20" fill="green" />
<rect x="160" y="60" width="10" height="20" fill="green" />
<rect x="160" y="80" width="10" height="20" fill="green" />
<rect x="170" y="0" width="10" height="20" fill="green" />
<rect x="170" y="20" width="10" height="20" fill="green" />
<rect x="170" y="40" width="10" height="20" fill="green" />
<rect x="170" y="60" width="10" height="20" fill="green" />
<rect x="170" y="80" width="10" height="20" fill="green" />
<rect x="180" y="0" width="10" height="20" fill="green" />
<rect x="180" y="20" width="10" height="20" fill="green" />
<rect x="180" y="40" width="10" height="20" fill="green" />
<rect x="180" y="60" width="10" height="20" fill="green" />
<rect x="180" y="80" width="10" height="20" fill="green" />
<rect x="190" y="0" width="10" height="20" fill="green" />
<rect x="190" y="20" width="10" height="20" fill="green" />
<rect x="190" y="40" width="10" height="20" fill="green" />
<rect x="190" y="60" width="10" height="20" fill="green" />
<rect x="190" y="80" width="10" height="20" fill="green" />
</svg>