<svg viewBox="0 0 600 600" xmlns="http://www.w3.org/2000/svg">
<circle cx="300" cy="300" r="300" fill="red" />
<polygon points="300 300 315 325.98 285 325.98" fill="green" transform="rotate(0,300,300)" />
<polygon points="300 300 315 325.98 285 325.98" fill="green" transform="rotate(60,300,300)" />
<polygon points="300 300 315 325.98 285 325.98" fill="green" transform="rotate(120,300,300)" />
<polygon points="300 300 315 325.98 285 325.98" fill="green" transform="rotate(180,300,300)" />
<polygon points="300 300 315 325.98 285 325.98" fill="green" transform="rotate(240,300,300)" />
<polygon points="300 300 315 325.98 285 325.98" fill="green" transform="rotate(300,300,300)" />
<polygon points="300 351.96 315 325.98 285 325.98" fill="green" transform="rotate(0,300,300)" />
<polygon points="300 351.96 315 325.98 285 325.98" fill="green" transform="rotate(60,300,300)" />
<polygon points="300 351.96 315 325.98 285 325.98" fill="green" transform="rotate(120,300,300)" />
<polygon points="300 351.96 315 325.98 285 325.98" fill="green" transform="rotate(180,300,300)" />
<polygon points="300 351.96 315 325.98 285 325.98" fill="green" transform="rotate(240,300,300)" />
<polygon points="300 351.96 315 325.98 285 325.98" fill="green" transform="rotate(300,300,300)" />
<polygon points="285 325.98 300 351.96 270 351.96" fill="green" transform="rotate(0,300,300)" />
<polygon points="285 325.98 300 351.96 270 351.96" fill="green" transform="rotate(60,300,300)" />
<polygon points="285 325.98 300 351.96 270 351.96" fill="green" transform="rotate(120,300,300)" />
<polygon points="285 325.98 300 351.96 270 351.96" fill="green" transform="rotate(180,300,300)" />
<polygon points="285 325.98 300 351.96 270 351.96" fill="green" transform="rotate(240,300,300)" />
<polygon points="285 325.98 300 351.96 270 351.96" fill="green" transform="rotate(300,300,300)" />
<polygon points="285 377.94 300 351.96 270 351.96" fill="green" transform="rotate(0,300,300)" />
<polygon points="285 377.94 300 351.96 270 351.96" fill="green" transform="rotate(60,300,300)" />
<polygon points="285 377.94 300 351.96 270 351.96" fill="green" transform="rotate(120,300,300)" />
<polygon points="285 377.94 300 351.96 270 351.96" fill="green" transform="rotate(180,300,300)" />
<polygon points="285 377.94 300 351.96 270 351.96" fill="green" transform="rotate(240,300,300)" />
<polygon points="285 377.94 300 351.96 270 351.96" fill="green" transform="rotate(300,300,300)" />
<polygon points="315 325.98 330 351.96 300 351.96" fill="green" transform="rotate(0,300,300)" />
<polygon points="315 325.98 330 351.96 300 351.96" fill="green" transform="rotate(60,300,300)" />
<polygon points="315 325.98 330 351.96 300 351.96" fill="green" transform="rotate(120,300,300)" />
<polygon points="315 325.98 330 351.96 300 351.96" fill="green" transform="rotate(180,300,300)" />
<polygon points="315 325.98 330 351.96 300 351.96" fill="green" transform="rotate(240,300,300)" />
<polygon points="315 325.98 330 351.96 300 351.96" fill="green" transform="rotate(300,300,300)" />
<polygon points="315 377.94 330 351.96 300 351.96" fill="green" transform="rotate(0,300,300)" />
<polygon points="315 377.94 330 351.96 300 351.96" fill="green" transform="rotate(60,300,300)" />
<polygon points="315 377.94 330 351.96 300 351.96" fill="green" transform="rotate(120,300,300)" />
<polygon points="315 377.94 330 351.96 300 351.96" fill="green" transform="rotate(180,300,300)" />
<polygon points="315 377.94 330 351.96 300 351.96" fill="green" transform="rotate(240,300,300)" />
<polygon points="315 377.94 330 351.96 300 351.96" fill="green" transform="rotate(300,300,300)" />
<polygon points="270 351.96 285 377.94 255 377.94" fill="green" transform="rotate(0,300,300)" />
<polygon points="270 351.96 285 377.94 255 377.94" fill="green" transform="rotate(60,300,300)" />
<polygon points="270 351.96 285 377.94 255 377.94" fill="green" transform="rotate(120,300,300)" />
<polygon points="270 351.96 285 377.94 255 377.94" fill="green" transform="rotate(180,300,300)" />
<polygon points="270 351.96 285 377.94 255 377.94" fill="green" transform="rotate(240,300,300)" />
<polygon points="270 351.96 285 377.94 255 377.94" fill="green" transform="rotate(300,300,300)" />
<polygon points="270 403.92 285 377.94 255 377.94" fill="green" transform="rotate(0,300,300)" />
<polygon points="270 403.92 285 377.94 255 377.94" fill="green" transform="rotate(60,300,300)" />
<polygon points="270 403.92 285 377.94 255 377.94" fill="green" transform="rotate(120,300,300)" />
<polygon points="270 403.92 285 377.94 255 377.94" fill="green" transform="rotate(180,300,300)" />
<polygon points="270 403.92 285 377.94 255 377.94" fill="green" transform="rotate(240,300,300)" />
<polygon points="270 403.92 285 377.94 255 377.94" fill="green" transform="rotate(300,300,300)" />
<polygon points="300 351.96 315 377.94 285 377.94" fill="green" transform="rotate(0,300,300)" />
<polygon points="300 351.96 315 377.94 285 377.94" fill="green" transform="rotate(60,300,300)" />
<polygon points="300 351.96 315 377.94 285 377.94" fill="green" transform="rotate(120,300,300)" />
<polygon points="300 351.96 315 377.94 285 377.94" fill="green" transform="rotate(180,300,300)" />
<polygon points="300 351.96 315 377.94 285 377.94" fill="green" transform="rotate(240,300,300)" />
<polygon points="300 351.96 315 377.94 285 377.94" fill="green" transform="rotate(300,300,300)" />
<polygon points="300 403.92 315 377.94 285 377.94" fill="green" transform="rotate(0,300,300)" />
<polygon points="300 403.92 315 377.94 285 377.94" fill="green" transform="rotate(60,300,300)" />
<polygon points="300 403.92 315 377.94 285 377.94" fill="green" transform="rotate(120,300,300)" />
<polygon points="300 403.92 315 377.94 285 377.94" fill="green" transform="rotate(180,300,300)" />
<polygon points="300 403.92 315 377.94 285 377.94" fill="green" transform="rotate(240,300,300)" />
<polygon points="300 403.92 315 377.94 285 377.94" fill="green" transform="rotate(300,300,300)" />
<polygon points="330 351.96 345 377.94 315 377.94" fill="green" transform="rotate(0,300,300)" />
<polygon points="330 351.96 345 377.94 315 377.94" fill="green" transform="rotate(60,300,300)" />
<polygon points="330 351.96 345 377.94 315 377.94" fill="green" transform="rotate(120,300,300)" />
<polygon points="330 351.96 345 377.94 315 377.94" fill="green" transform="rotate(180,300,300)" />
<polygon points="330 351.96 345 377.94 315 377.94" fill="green" transform="rotate(240,300,300)" />
<polygon points="330 351.96 345 377.94 315 377.94" fill="green" transform="rotate(300,300,300)" />
<polygon points="330 403.92 345 377.94 315 377.94" fill="green" transform="rotate(0,300,300)" />
<polygon points="330 403.92 345 377.94 315 377.94" fill="green" transform="rotate(60,300,300)" />
<polygon points="330 403.92 345 377.94 315 377.94" fill="green" transform="rotate(120,300,300)" />
<polygon points="330 403.92 345 377.94 315 377.94" fill="green" transform="rotate(180,300,300)" />
<polygon points="330 403.92 345 377.94 315 377.94" fill="green" transform="rotate(240,300,300)" />
<polygon points="330 403.92 345 377.94 315 377.94" fill="green" transform="rotate(300,300,300)" />
<polygon points="255 377.94 270 403.92 240 403.92" fill="green" transform="rotate(0,300,300)" />
<polygon points="255 377.94 270 403.92 240 403.92" fill="green" transform="rotate(60,300,300)" />
<polygon points="255 377.94 270 403.92 240 403.92" fill="green" transform="rotate(120,300,300)" />
<polygon points="255 377.94 270 403.92 240 403.92" fill="green" transform="rotate(180,300,300)" />
<polygon points="255 377.94 270 403.92 240 403.92" fill="green" transform="rotate(240,300,300)" />
<polygon points="255 377.94 270 403.92 240 403.92" fill="green" transform="rotate(300,300,300)" />
<polygon points="255 429.9 270 403.92 240 403.92" fill="green" transform="rotate(0,300,300)" />
<polygon points="255 429.9 270 403.92 240 403.92" fill="green" transform="rotate(60,300,300)" />
<polygon points="255 429.9 270 403.92 240 403.92" fill="green" transform="rotate(120,300,300)" />
<polygon points="255 429.9 270 403.92 240 403.92" fill="green" transform="rotate(180,300,300)" />
<polygon points="255 429.9 270 403.92 240 403.92" fill="green" transform="rotate(240,300,300)" />
<polygon points="255 429.9 270 403.92 240 403.92" fill="green" transform="rotate(300,300,300)" />
<polygon points="285 377.94 300 403.92 270 403.92" fill="green" transform="rotate(0,300,300)" />
<polygon points="285 377.94 300 403.92 270 403.92" fill="green" transform="rotate(60,300,300)" />
<polygon points="285 377.94 300 403.92 270 403.92" fill="green" transform="rotate(120,300,300)" />
<polygon points="285 377.94 300 403.92 270 403.92" fill="green" transform="rotate(180,300,300)" />
<polygon points="285 377.94 300 403.92 270 403.92" fill="green" transform="rotate(240,300,300)" />
<polygon points="285 377.94 300 403.92 270 403.92" fill="green" transform="rotate(300,300,300)" />
<polygon points="285 429.9 300 403.92 270 403.92" fill="green" transform="rotate(0,300,300)" />
<polygon points="285 429.9 300 403.92 270 403.92" fill="green" transform="rotate(60,300,300)" />
<polygon points="285 429.9 300 403.92 270 403.92" fill="green" transform="rotate(120,300,300)" />
<polygon points="285 429.9 300 403.92 270 403.92" fill="green" transform="rotate(180,300,300)" />
<polygon points="285 429.9 300 403.92 270 403.92" fill="green" transform="rotate(240,300,300)" />
<polygon points="285 429.9 300 403.92 270 403.92" fill="green" transform="rotate(300,300,300)" />
<polygon points="315 377.94 330 403.92 300 403.92" fill="green" transform="rotate(0,300,300)" />
<polygon points="315 377.94 330 403.92 300 403.92" fill="green" transform="rotate(60,300,300)" />
<polygon points="315 377.94 330 403.92 300 403.92" fill="green" transform="rotate(120,300,300)" />
<polygon points="315 377.94 330 403.92 300 403.92" fill="green" transform="rotate(180,300,300)" />
<polygon points="315 377.94 330 403.92 300 403.92" fill="green" transform="rotate(240,300,300)" />
<polygon points="315 377.94 330 403.92 300 403.92" fill="green" transform="rotate(300,300,300)" />
<polygon points="315 429.9 330 403.92 300 403.92" fill="green" transform="rotate(0,300,300)" />
<polygon points="315 429.9 330 403.92 300 403.92" fill="green" transform="rotate(60,300,300)" />
<polygon points="315 429.9 330 403.92 300 403.92" fill="green" transform="rotate(120,300,300)" />
<polygon points="315 429.9 330 403.92 300 403.92" fill="green" transform="rotate(180,300,300)" />
<polygon points="315 429.9 330 403.92 300 403.92" fill="green" transform="rotate(240,300,300)" />
<polygon points="315 429.9 330 403.92 300 403.92" fill="green" transform="rotate(300,300,300)" />
<polygon points="345 377.94 360 403.92 330 403.92" fill="green" transform="rotate(0,300,300)" />
<polygon points="345 377.94 360 403.92 330 403.92" fill="green" transform="rotate(60,300,300)" />
<polygon points="345 377.94 360 403.92 330 403.92" fill="green" transform="rotate(120,300,300)" />
<polygon points="345 377.94 360 403.92 330 403.92" fill="green" transform="rotate(180,300,300)" />
<polygon points="345 377.94 360 403.92 330 403.92" fill="green" transform="rotate(240,300,300)" />
<polygon points="345 377.94 360 403.92 330 403.92" fill="green" transform="rotate(300,300,300)" />
<polygon points="345 429.9 360 403.92 330 403.92" fill="green" transform="rotate(0,300,300)" />
<polygon points="345 429.9 360 403.92 330 403.92" fill="green" transform="rotate(60,300,300)" />
<polygon points="345 429.9 360 403.92 330 403.92" fill="green" transform="rotate(120,300,300)" />
<polygon points="345 429.9 360 403.92 330 403.92" fill="green" transform="rotate(180,300,300)" />
<polygon points="345 429.9 360 403.92 330 403.92" fill="green" transform="rotate(240,300,300)" />
<polygon points="345 429.9 360 403.92 330 403.92" fill="green" transform="rotate(300,300,300)" />
<polygon points="240 403.92 255 429.9 225 429.9" fill="green" transform="rotate(0,300,300)" />
<polygon points="240 403.92 255 429.9 225 429.9" fill="green" transform="rotate(60,300,300)" />
<polygon points="240 403.92 255 429.9 225 429.9" fill="green" transform="rotate(120,300,300)" />
<polygon points="240 403.92 255 429.9 225 429.9" fill="green" transform="rotate(180,300,300)" />
<polygon points="240 403.92 255 429.9 225 429.9" fill="green" transform="rotate(240,300,300)" />
<polygon points="240 403.92 255 429.9 225 429.9" fill="green" transform="rotate(300,300,300)" />
<polygon points="240 455.88 255 429.9 225 429.9" fill="green" transform="rotate(0,300,300)" />
<polygon points="240 455.88 255 429.9 225 429.9" fill="green" transform="rotate(60,300,300)" />
<polygon points="240 455.88 255 429.9 225 429.9" fill="green" transform="rotate(120,300,300)" />
<polygon points="240 455.88 255 429.9 225 429.9" fill="green" transform="rotate(180,300,300)" />
<polygon points="240 455.88 255 429.9 225 429.9" fill="green" transform="rotate(240,300,300)" />
<polygon points="240 455.88 255 429.9 225 429.9" fill="green" transform="rotate(300,300,300)" />
<polygon points="270 403.92 285 429.9 255 429.9" fill="green" transform="rotate(0,300,300)" />
<polygon points="270 403.92 285 429.9 255 429.9" fill="green" transform="rotate(60,300,300)" />
<polygon points="270 403.92 285 429.9 255 429.9" fill="green" transform="rotate(120,300,300)" />
<polygon points="270 403.92 285 429.9 255 429.9" fill="green" transform="rotate(180,300,300)" />
<polygon points="270 403.92 285 429.9 255 429.9" fill="green" transform="rotate(240,300,300)" />
<polygon points="270 403.92 285 429.9 255 429.9" fill="green" transform="rotate(300,300,300)" />
<polygon points="270 455.88 285 429.9 255 429.9" fill="green" transform="rotate(0,300,300)" />
<polygon points="270 455.88 285 429.9 255 429.9" fill="green" transform="rotate(60,300,300)" />
<polygon points="270 455.88 285 429.9 255 429.9" fill="green" transform="rotate(120,300,300)" />
<polygon points="270 455.88 285 429.9 255 429.9" fill="green" transform="rotate(180,300,300)" />
<polygon points="270 455.88 285 429.9 255 429.9" fill="green" transform="rotate(240,300,300)" />
<polygon points="270 455.88 285 429.9 255 429.9" fill="green" transform="rotate(300,300,300)" />
<polygon points="300 403.92 315 429.9 285 429.9" fill="green" transform="rotate(0,300,300)" />
<polygon points="300 403.92 315 429.9 285 429.9" fill="green" transform="rotate(60,300,300)" />
<polygon points="300 403.92 315 429.9 285 429.9" fill="green" transform="rotate(120,300,300)" />
<polygon points="300 403.92 315 429.9 285 429.9" fill="green" transform="rotate(180,300,300)" />
<polygon points="300 403.92 315 429.9 285 429.9" fill="green" transform="rotate(240,300,300)" />
<polygon points="300 403.92 315 429.9 285 429.9" fill="green" transform="rotate(300,300,300)" />
<polygon points="300 455.88 315 429.9 285 429.9" fill="green" transform="rotate(0,300,300)" />
<polygon points="300 455.88 315 429.9 285 429.9" fill="green" transform="rotate(60,300,300)" />
<polygon points="300 455.88 315 429.9 285 429.9" fill="green" transform="rotate(120,300,300)" />
<polygon points="300 455.88 315 429.9 285 429.9" fill="green" transform="rotate(180,300,300)" />
<polygon points="300 455.88 315 429.9 285 429.9" fill="green" transform="rotate(240,300,300)" />
<polygon points="300 455.88 315 429.9 285 429.9" fill="green" transform="rotate(300,300,300)" />
<polygon points="330 403.92 345 429.9 315 429.9" fill="green" transform="rotate(0,300,300)" />
<polygon points="330 403.92 345 429.9 315 429.9" fill="green" transform="rotate(60,300,300)" />
<polygon points="330 403.92 345 429.9 315 429.9" fill="green" transform="rotate(120,300,300)" />
<polygon points="330 403.92 345 429.9 315 429.9" fill="green" transform="rotate(180,300,300)" />
<polygon points="330 403.92 345 429.9 315 429.9" fill="green" transform="rotate(240,300,300)" />
<polygon points="330 403.92 345 429.9 315 429.9" fill="green" transform="rotate(300,300,300)" />
<polygon points="330 455.88 345 429.9 315 429.9" fill="green" transform="rotate(0,300,300)" />
<polygon points="330 455.88 345 429.9 315 429.9" fill="green" transform="rotate(60,300,300)" />
<polygon points="330 455.88 345 429.9 315 429.9" fill="green" transform="rotate(120,300,300)" />
<polygon points="330 455.88 345 429.9 315 429.9" fill="green" transform="rotate(180,300,300)" />
<polygon points="330 455.88 345 429.9 315 429.9" fill="green" transform="rotate(240,300,300)" />
<polygon points="330 455.88 345 429.9 315 429.9" fill="green" transform="rotate(300,300,300)" />
<polygon points="360 403.92 375 429.9 345 429.9" fill="green" transform="rotate(0,300,300)" />
<polygon points="360 403.92 375 429.9 345 429.9" fill="green" transform="rotate(60,300,300)" />
<polygon points="360 403.92 375 429.9 345 429.9" fill="green" transform="rotate(120,300,300)" />
<polygon points="360 403.92 375 429.9 345 429.9" fill="green" transform="rotate(180,300,300)" />
<polygon points="360 403.92 375 429.9 345 429.9" fill="green" transform="rotate(240,300,300)" />
<polygon points="360 403.92 375 429.9 345 429.9" fill="green" transform="rotate(300,300,300)" />
<polygon points="360 455.88 375 429.9 345 429.9" fill="green" transform="rotate(0,300,300)" />
<polygon points="360 455.88 375 429.9 345 429.9" fill="green" transform="rotate(60,300,300)" />
<polygon points="360 455.88 375 429.9 345 429.9" fill="green" transform="rotate(120,300,300)" />
<polygon points="360 455.88 375 429.9 345 429.9" fill="green" transform="rotate(180,300,300)" />
<polygon points="360 455.88 375 429.9 345 429.9" fill="green" transform="rotate(240,300,300)" />
<polygon points="360 455.88 375 429.9 345 429.9" fill="green" transform="rotate(300,300,300)" />
<polygon points="225 429.9 240 455.88 210 455.88" fill="green" transform="rotate(0,300,300)" />
<polygon points="225 429.9 240 455.88 210 455.88" fill="green" transform="rotate(60,300,300)" />
<polygon points="225 429.9 240 455.88 210 455.88" fill="green" transform="rotate(120,300,300)" />
<polygon points="225 429.9 240 455.88 210 455.88" fill="green" transform="rotate(180,300,300)" />
<polygon points="225 429.9 240 455.88 210 455.88" fill="green" transform="rotate(240,300,300)" />
<polygon points="225 429.9 240 455.88 210 455.88" fill="green" transform="rotate(300,300,300)" />
<polygon points="225 481.86 240 455.88 210 455.88" fill="green" transform="rotate(0,300,300)" />
<polygon points="225 481.86 240 455.88 210 455.88" fill="green" transform="rotate(60,300,300)" />
<polygon points="225 481.86 240 455.88 210 455.88" fill="green" transform="rotate(120,300,300)" />
<polygon points="225 481.86 240 455.88 210 455.88" fill="green" transform="rotate(180,300,300)" />
<polygon points="225 481.86 240 455.88 210 455.88" fill="green" transform="rotate(240,300,300)" />
<polygon points="225 481.86 240 455.88 210 455.88" fill="green" transform="rotate(300,300,300)" />
<polygon points="255 429.9 270 455.88 240 455.88" fill="green" transform="rotate(0,300,300)" />
<polygon points="255 429.9 270 455.88 240 455.88" fill="green" transform="rotate(60,300,300)" />
<polygon points="255 429.9 270 455.88 240 455.88" fill="green" transform="rotate(120,300,300)" />
<polygon points="255 429.9 270 455.88 240 455.88" fill="green" transform="rotate(180,300,300)" />
<polygon points="255 429.9 270 455.88 240 455.88" fill="green" transform="rotate(240,300,300)" />
<polygon points="255 429.9 270 455.88 240 455.88" fill="green" transform="rotate(300,300,300)" />
<polygon points="255 481.86 270 455.88 240 455.88" fill="green" transform="rotate(0,300,300)" />
<polygon points="255 481.86 270 455.88 240 455.88" fill="green" transform="rotate(60,300,300)" />
<polygon points="255 481.86 270 455.88 240 455.88" fill="green" transform="rotate(120,300,300)" />
<polygon points="255 481.86 270 455.88 240 455.88" fill="green" transform="rotate(180,300,300)" />
<polygon points="255 481.86 270 455.88 240 455.88" fill="green" transform="rotate(240,300,300)" />
<polygon points="255 481.86 270 455.88 240 455.88" fill="green" transform="rotate(300,300,300)" />
<polygon points="285 429.9 300 455.88 270 455.88" fill="green" transform="rotate(0,300,300)" />
<polygon points="285 429.9 300 455.88 270 455.88" fill="green" transform="rotate(60,300,300)" />
<polygon points="285 429.9 300 455.88 270 455.88" fill="green" transform="rotate(120,300,300)" />
<polygon points="285 429.9 300 455.88 270 455.88" fill="green" transform="rotate(180,300,300)" />
<polygon points="285 429.9 300 455.88 270 455.88" fill="green" transform="rotate(240,300,300)" />
<polygon points="285 429.9 300 455.88 270 455.88" fill="green" transform="rotate(300,300,300)" />
<polygon points="285 481.86 300 455.88 270 455.88" fill="green" transform="rotate(0,300,300)" />
<polygon points="285 481.86 300 455.88 270 455.88" fill="green" transform="rotate(60,300,300)" />
<polygon points="285 481.86 300 455.88 270 455.88" fill="green" transform="rotate(120,300,300)" />
<polygon points="285 481.86 300 455.88 270 455.88" fill="green" transform="rotate(180,300,300)" />
<polygon points="285 481.86 300 455.88 270 455.88" fill="green" transform="rotate(240,300,300)" />
<polygon points="285 481.86 300 455.88 270 455.88" fill="green" transform="rotate(300,300,300)" />
<polygon points="315 429.9 330 455.88 300 455.88" fill="green" transform="rotate(0,300,300)" />
<polygon points="315 429.9 330 455.88 300 455.88" fill="green" transform="rotate(60,300,300)" />
<polygon points="315 429.9 330 455.88 300 455.88" fill="green" transform="rotate(120,300,300)" />
<polygon points="315 429.9 330 455.88 300 455.88" fill="green" transform="rotate(180,300,300)" />
<polygon points="315 429.9 330 455.88 300 455.88" fill="green" transform="rotate(240,300,300)" />
<polygon points="315 429.9 330 455.88 300 455.88" fill="green" transform="rotate(300,300,300)" />
<polygon points="315 481.86 330 455.88 300 455.88" fill="green" transform="rotate(0,300,300)" />
<polygon points="315 481.86 330 455.88 300 455.88" fill="green" transform="rotate(60,300,300)" />
<polygon points="315 481.86 330 455.88 300 455.88" fill="green" transform="rotate(120,300,300)" />
<polygon points="315 481.86 330 455.88 300 455.88" fill="green" transform="rotate(180,300,300)" />
<polygon points="315 481.86 330 455.88 300 455.88" fill="green" transform="rotate(240,300,300)" />
<polygon points="315 481.86 330 455.88 300 455.88" fill="green" transform="rotate(300,300,300)" />
<polygon points="345 429.9 360 455.88 330 455.88" fill="green" transform="rotate(0,300,300)" />
<polygon points="345 429.9 360 455.88 330 455.88" fill="green" transform="rotate(60,300,300)" />
<polygon points="345 429.9 360 455.88 330 455.88" fill="green" transform="rotate(120,300,300)" />
<polygon points="345 429.9 360 455.88 330 455.88" fill="green" transform="rotate(180,300,300)" />
<polygon points="345 429.9 360 455.88 330 455.88" fill="green" transform="rotate(240,300,300)" />
<polygon points="345 429.9 360 455.88 330 455.88" fill="green" transform="rotate(300,300,300)" />
<polygon points="345 481.86 360 455.88 330 455.88" fill="green" transform="rotate(0,300,300)" />
<polygon points="345 481.86 360 455.88 330 455.88" fill="green" transform="rotate(60,300,300)" />
<polygon points="345 481.86 360 455.88 330 455.88" fill="green" transform="rotate(120,300,300)" />
<polygon points="345 481.86 360 455.88 330 455.88" fill="green" transform="rotate(180,300,300)" />
<polygon points="345 481.86 360 455.88 330 455.88" fill="green" transform="rotate(240,300,300)" />
<polygon points="345 481.86 360 455.88 330 455.88" fill="green" transform="rotate(300,300,300)" />
<polygon points="375 429.9 390 455.88 360 455.88" fill="green" transform="rotate(0,300,300)" />
<polygon points="375 429.9 390 455.88 360 455.88" fill="green" transform="rotate(60,300,300)" />
<polygon points="375 429.9 390 455.88 360 455.88" fill="green" transform="rotate(120,300,300)" />
<polygon points="375 429.9 390 455.88 360 455.88" fill="green" transform="rotate(180,300,300)" />
<polygon points="375 429.9 390 455.88 360 455.88" fill="green" transform="rotate(240,300,300)" />
<polygon points="375 429.9 390 455.88 360 455.88" fill="green" transform="rotate(300,300,300)" />
<polygon points="375 481.86 390 455.88 360 455.88" fill="green" transform="rotate(0,300,300)" />
<polygon points="375 481.86 390 455.88 360 455.88" fill="green" transform="rotate(60,300,300)" />
<polygon points="375 481.86 390 455.88 360 455.88" fill="green" transform="rotate(120,300,300)" />
<polygon points="375 481.86 390 455.88 360 455.88" fill="green" transform="rotate(180,300,300)" />
<polygon points="375 481.86 390 455.88 360 455.88" fill="green" transform="rotate(240,300,300)" />
<polygon points="375 481.86 390 455.88 360 455.88" fill="green" transform="rotate(300,300,300)" />
<polygon points="210 455.88 225 481.86 195 481.86" fill="green" transform="rotate(0,300,300)" />
<polygon points="210 455.88 225 481.86 195 481.86" fill="green" transform="rotate(60,300,300)" />
<polygon points="210 455.88 225 481.86 195 481.86" fill="green" transform="rotate(120,300,300)" />
<polygon points="210 455.88 225 481.86 195 481.86" fill="green" transform="rotate(180,300,300)" />
<polygon points="210 455.88 225 481.86 195 481.86" fill="green" transform="rotate(240,300,300)" />
<polygon points="210 455.88 225 481.86 195 481.86" fill="green" transform="rotate(300,300,300)" />
<polygon points="210 507.84 225 481.86 195 481.86" fill="green" transform="rotate(0,300,300)" />
<polygon points="210 507.84 225 481.86 195 481.86" fill="green" transform="rotate(60,300,300)" />
<polygon points="210 507.84 225 481.86 195 481.86" fill="green" transform="rotate(120,300,300)" />
<polygon points="210 507.84 225 481.86 195 481.86" fill="green" transform="rotate(180,300,300)" />
<polygon points="210 507.84 225 481.86 195 481.86" fill="green" transform="rotate(240,300,300)" />
<polygon points="210 507.84 225 481.86 195 481.86" fill="green" transform="rotate(300,300,300)" />
<polygon points="240 455.88 255 481.86 225 481.86" fill="green" transform="rotate(0,300,300)" />
<polygon points="240 455.88 255 481.86 225 481.86" fill="green" transform="rotate(60,300,300)" />
<polygon points="240 455.88 255 481.86 225 481.86" fill="green" transform="rotate(120,300,300)" />
<polygon points="240 455.88 255 481.86 225 481.86" fill="green" transform="rotate(180,300,300)" />
<polygon points="240 455.88 255 481.86 225 481.86" fill="green" transform="rotate(240,300,300)" />
<polygon points="240 455.88 255 481.86 225 481.86" fill="green" transform="rotate(300,300,300)" />
<polygon points="240 507.84 255 481.86 225 481.86" fill="green" transform="rotate(0,300,300)" />
<polygon points="240 507.84 255 481.86 225 481.86" fill="green" transform="rotate(60,300,300)" />
<polygon points="240 507.84 255 481.86 225 481.86" fill="green" transform="rotate(120,300,300)" />
<polygon points="240 507.84 255 481.86 225 481.86" fill="green" transform="rotate(180,300,300)" />
<polygon points="240 507.84 255 481.86 225 481.86" fill="green" transform="rotate(240,300,300)" />
<polygon points="240 507.84 255 481.86 225 481.86" fill="green" transform="rotate(300,300,300)" />
<polygon points="270 455.88 285 481.86 255 481.86" fill="green" transform="rotate(0,300,300)" />
<polygon points="270 455.88 285 481.86 255 481.86" fill="green" transform="rotate(60,300,300)" />
<polygon points="270 455.88 285 481.86 255 481.86" fill="green" transform="rotate(120,300,300)" />
<polygon points="270 455.88 285 481.86 255 481.86" fill="green" transform="rotate(180,300,300)" />
<polygon points="270 455.88 285 481.86 255 481.86" fill="green" transform="rotate(240,300,300)" />
<polygon points="270 455.88 285 481.86 255 481.86" fill="green" transform="rotate(300,300,300)" />
<polygon points="270 507.84 285 481.86 255 481.86" fill="green" transform="rotate(0,300,300)" />
<polygon points="270 507.84 285 481.86 255 481.86" fill="green" transform="rotate(60,300,300)" />
<polygon points="270 507.84 285 481.86 255 481.86" fill="green" transform="rotate(120,300,300)" />
<polygon points="270 507.84 285 481.86 255 481.86" fill="green" transform="rotate(180,300,300)" />
<polygon points="270 507.84 285 481.86 255 481.86" fill="green" transform="rotate(240,300,300)" />
<polygon points="270 507.84 285 481.86 255 481.86" fill="green" transform="rotate(300,300,300)" />
<polygon points="300 455.88 315 481.86 285 481.86" fill="green" transform="rotate(0,300,300)" />
<polygon points="300 455.88 315 481.86 285 481.86" fill="green" transform="rotate(60,300,300)" />
<polygon points="300 455.88 315 481.86 285 481.86" fill="green" transform="rotate(120,300,300)" />
<polygon points="300 455.88 315 481.86 285 481.86" fill="green" transform="rotate(180,300,300)" />
<polygon points="300 455.88 315 481.86 285 481.86" fill="green" transform="rotate(240,300,300)" />
<polygon points="300 455.88 315 481.86 285 481.86" fill="green" transform="rotate(300,300,300)" />
<polygon points="300 507.84 315 481.86 285 481.86" fill="green" transform="rotate(0,300,300)" />
<polygon points="300 507.84 315 481.86 285 481.86" fill="green" transform="rotate(60,300,300)" />
<polygon points="300 507.84 315 481.86 285 481.86" fill="green" transform="rotate(120,300,300)" />
<polygon points="300 507.84 315 481.86 285 481.86" fill="green" transform="rotate(180,300,300)" />
<polygon points="300 507.84 315 481.86 285 481.86" fill="green" transform="rotate(240,300,300)" />
<polygon points="300 507.84 315 481.86 285 481.86" fill="green" transform="rotate(300,300,300)" />
<polygon points="330 455.88 345 481.86 315 481.86" fill="green" transform="rotate(0,300,300)" />
<polygon points="330 455.88 345 481.86 315 481.86" fill="green" transform="rotate(60,300,300)" />
<polygon points="330 455.88 345 481.86 315 481.86" fill="green" transform="rotate(120,300,300)" />
<polygon points="330 455.88 345 481.86 315 481.86" fill="green" transform="rotate(180,300,300)" />
<polygon points="330 455.88 345 481.86 315 481.86" fill="green" transform="rotate(240,300,300)" />
<polygon points="330 455.88 345 481.86 315 481.86" fill="green" transform="rotate(300,300,300)" />
<polygon points="330 507.84 345 481.86 315 481.86" fill="green" transform="rotate(0,300,300)" />
<polygon points="330 507.84 345 481.86 315 481.86" fill="green" transform="rotate(60,300,300)" />
<polygon points="330 507.84 345 481.86 315 481.86" fill="green" transform="rotate(120,300,300)" />
<polygon points="330 507.84 345 481.86 315 481.86" fill="green" transform="rotate(180,300,300)" />
<polygon points="330 507.84 345 481.86 315 481.86" fill="green" transform="rotate(240,300,300)" />
<polygon points="330 507.84 345 481.86 315 481.86" fill="green" transform="rotate(300,300,300)" />
<polygon points="360 455.88 375 481.86 345 481.86" fill="green" transform="rotate(0,300,300)" />
<polygon points="360 455.88 375 481.86 345 481.86" fill="green" transform="rotate(60,300,300)" />
<polygon points="360 455.88 375 481.86 345 481.86" fill="green" transform="rotate(120,300,300)" />
<polygon points="360 455.88 375 481.86 345 481.86" fill="green" transform="rotate(180,300,300)" />
<polygon points="360 455.88 375 481.86 345 481.86" fill="green" transform="rotate(240,300,300)" />
<polygon points="360 455.88 375 481.86 345 481.86" fill="green" transform="rotate(300,300,300)" />
<polygon points="360 507.84 375 481.86 345 481.86" fill="green" transform="rotate(0,300,300)" />
<polygon points="360 507.84 375 481.86 345 481.86" fill="green" transform="rotate(60,300,300)" />
<polygon points="360 507.84 375 481.86 345 481.86" fill="green" transform="rotate(120,300,300)" />
<polygon points="360 507.84 375 481.86 345 481.86" fill="green" transform="rotate(180,300,300)" />
<polygon points="360 507.84 375 481.86 345 481.86" fill="green" transform="rotate(240,300,300)" />
<polygon points="360 507.84 375 481.86 345 481.86" fill="green" transform="rotate(300,300,300)" />
<polygon points="390 455.88 405 481.86 375 481.86" fill="green" transform="rotate(0,300,300)" />
<polygon points="390 455.88 405 481.86 375 481.86" fill="green" transform="rotate(60,300,300)" />
<polygon points="390 455.88 405 481.86 375 481.86" fill="green" transform="rotate(120,300,300)" />
<polygon points="390 455.88 405 481.86 375 481.86" fill="green" transform="rotate(180,300,300)" />
<polygon points="390 455.88 405 481.86 375 481.86" fill="green" transform="rotate(240,300,300)" />
<polygon points="390 455.88 405 481.86 375 481.86" fill="green" transform="rotate(300,300,300)" />
<polygon points="390 507.84 405 481.86 375 481.86" fill="green" transform="rotate(0,300,300)" />
<polygon points="390 507.84 405 481.86 375 481.86" fill="green" transform="rotate(60,300,300)" />
<polygon points="390 507.84 405 481.86 375 481.86" fill="green" transform="rotate(120,300,300)" />
<polygon points="390 507.84 405 481.86 375 481.86" fill="green" transform="rotate(180,300,300)" />
<polygon points="390 507.84 405 481.86 375 481.86" fill="green" transform="rotate(240,300,300)" />
<polygon points="390 507.84 405 481.86 375 481.86" fill="green" transform="rotate(300,300,300)" />
<polygon points="195 481.86 210 507.84 180 507.84" fill="green" transform="rotate(0,300,300)" />
<polygon points="195 481.86 210 507.84 180 507.84" fill="green" transform="rotate(60,300,300)" />
<polygon points="195 481.86 210 507.84 180 507.84" fill="green" transform="rotate(120,300,300)" />
<polygon points="195 481.86 210 507.84 180 507.84" fill="green" transform="rotate(180,300,300)" />
<polygon points="195 481.86 210 507.84 180 507.84" fill="green" transform="rotate(240,300,300)" />
<polygon points="195 481.86 210 507.84 180 507.84" fill="green" transform="rotate(300,300,300)" />
<polygon points="195 533.82 210 507.84 180 507.84" fill="green" transform="rotate(0,300,300)" />
<polygon points="195 533.82 210 507.84 180 507.84" fill="green" transform="rotate(60,300,300)" />
<polygon points="195 533.82 210 507.84 180 507.84" fill="green" transform="rotate(120,300,300)" />
<polygon points="195 533.82 210 507.84 180 507.84" fill="green" transform="rotate(180,300,300)" />
<polygon points="195 533.82 210 507.84 180 507.84" fill="green" transform="rotate(240,300,300)" />
<polygon points="195 533.82 210 507.84 180 507.84" fill="green" transform="rotate(300,300,300)" />
<polygon points="225 481.86 240 507.84 210 507.84" fill="green" transform="rotate(0,300,300)" />
<polygon points="225 481.86 240 507.84 210 507.84" fill="green" transform="rotate(60,300,300)" />
<polygon points="225 481.86 240 507.84 210 507.84" fill="green" transform="rotate(120,300,300)" />
<polygon points="225 481.86 240 507.84 210 507.84" fill="green" transform="rotate(180,300,300)" />
<polygon points="225 481.86 240 507.84 210 507.84" fill="green" transform="rotate(240,300,300)" />
<polygon points="225 481.86 240 507.84 210 507.84" fill="green" transform="rotate(300,300,300)" />
<polygon points="225 533.82 240 507.84 210 507.84" fill="green" transform="rotate(0,300,300)" />
<polygon points="225 533.82 240 507.84 210 507.84" fill="green" transform="rotate(60,300,300)" />
<polygon points="225 533.82 240 507.84 210 507.84" fill="green" transform="rotate(120,300,300)" />
<polygon points="225 533.82 240 507.84 210 507.84" fill="green" transform="rotate(180,300,300)" />
<polygon points="225 533.82 240 507.84 210 507.84" fill="green" transform="rotate(240,300,300)" />
<polygon points="225 533.82 240 507.84 210 507.84" fill="green" transform="rotate(300,300,300)" />
<polygon points="255 481.86 270 507.84 240 507.84" fill="green" transform="rotate(0,300,300)" />
<polygon points="255 481.86 270 507.84 240 507.84" fill="green" transform="rotate(60,300,300)" />
<polygon points="255 481.86 270 507.84 240 507.84" fill="green" transform="rotate(120,300,300)" />
<polygon points="255 481.86 270 507.84 240 507.84" fill="green" transform="rotate(180,300,300)" />
<polygon points="255 481.86 270 507.84 240 507.84" fill="green" transform="rotate(240,300,300)" />
<polygon points="255 481.86 270 507.84 240 507.84" fill="green" transform="rotate(300,300,300)" />
<polygon points="255 533.82 270 507.84 240 507.84" fill="green" transform="rotate(0,300,300)" />
<polygon points="255 533.82 270 507.84 240 507.84" fill="green" transform="rotate(60,300,300)" />
<polygon points="255 533.82 270 507.84 240 507.84" fill="green" transform="rotate(120,300,300)" />
<polygon points="255 533.82 270 507.84 240 507.84" fill="green" transform="rotate(180,300,300)" />
<polygon points="255 533.82 270 507.84 240 507.84" fill="green" transform="rotate(240,300,300)" />
<polygon points="255 533.82 270 507.84 240 507.84" fill="green" transform="rotate(300,300,300)" />
<polygon points="285 481.86 300 507.84 270 507.84" fill="green" transform="rotate(0,300,300)" />
<polygon points="285 481.86 300 507.84 270 507.84" fill="green" transform="rotate(60,300,300)" />
<polygon points="285 481.86 300 507.84 270 507.84" fill="green" transform="rotate(120,300,300)" />
<polygon points="285 481.86 300 507.84 270 507.84" fill="green" transform="rotate(180,300,300)" />
<polygon points="285 481.86 300 507.84 270 507.84" fill="green" transform="rotate(240,300,300)" />
<polygon points="285 481.86 300 507.84 270 507.84" fill="green" transform="rotate(300,300,300)" />
<polygon points="285 533.82 300 507.84 270 507.84" fill="green" transform="rotate(0,300,300)" />
<polygon points="285 533.82 300 507.84 270 507.84" fill="green" transform="rotate(60,300,300)" />
<polygon points="285 533.82 300 507.84 270 507.84" fill="green" transform="rotate(120,300,300)" />
<polygon points="285 533.82 300 507.84 270 507.84" fill="green" transform="rotate(180,300,300)" />
<polygon points="285 533.82 300 507.84 270 507.84" fill="green" transform="rotate(240,300,300)" />
<polygon points="285 533.82 300 507.84 270 507.84" fill="green" transform="rotate(300,300,300)" />
<polygon points="315 481.86 330 507.84 300 507.84" fill="green" transform="rotate(0,300,300)" />
<polygon points="315 481.86 330 507.84 300 507.84" fill="green" transform="rotate(60,300,300)" />
<polygon points="315 481.86 330 507.84 300 507.84" fill="green" transform="rotate(120,300,300)" />
<polygon points="315 481.86 330 507.84 300 507.84" fill="green" transform="rotate(180,300,300)" />
<polygon points="315 481.86 330 507.84 300 507.84" fill="green" transform="rotate(240,300,300)" />
<polygon points="315 481.86 330 507.84 300 507.84" fill="green" transform="rotate(300,300,300)" />
<polygon points="315 533.82 330 507.84 300 507.84" fill="green" transform="rotate(0,300,300)" />
<polygon points="315 533.82 330 507.84 300 507.84" fill="green" transform="rotate(60,300,300)" />
<polygon points="315 533.82 330 507.84 300 507.84" fill="green" transform="rotate(120,300,300)" />
<polygon points="315 533.82 330 507.84 300 507.84" fill="green" transform="rotate(180,300,300)" />
<polygon points="315 533.82 330 507.84 300 507.84" fill="green" transform="rotate(240,300,300)" />
<polygon points="315 533.82 330 507.84 300 507.84" fill="green" transform="rotate(300,300,300)" />
<polygon points="345 481.86 360 507.84 330 507.84" fill="green" transform="rotate(0,300,300)" />
<polygon points="345 481.86 360 507.84 330 507.84" fill="green" transform="rotate(60,300,300)" />
<polygon points="345 481.86 360 507.84 330 507.84" fill="green" transform="rotate(120,300,300)" />
<polygon points="345 481.86 360 507.84 330 507.84" fill="green" transform="rotate(180,300,300)" />
<polygon points="345 481.86 360 507.84 330 507.84" fill="green" transform="rotate(240,300,300)" />
<polygon points="345 481.86 360 507.84 330 507.84" fill="green" transform="rotate(300,300,300)" />
<polygon points="345 533.82 360 507.84 330 507.84" fill="green" transform="rotate(0,300,300)" />
<polygon points="345 533.82 360 507.84 330 507.84" fill="green" transform="rotate(60,300,300)" />
<polygon points="345 533.82 360 507.84 330 507.84" fill="green" transform="rotate(120,300,300)" />
<polygon points="345 533.82 360 507.84 330 507.84" fill="green" transform="rotate(180,300,300)" />
<polygon points="345 533.82 360 507.84 330 507.84" fill="green" transform="rotate(240,300,300)" />
<polygon points="345 533.82 360 507.84 330 507.84" fill="green" transform="rotate(300,300,300)" />
<polygon points="375 481.86 390 507.84 360 507.84" fill="green" transform="rotate(0,300,300)" />
<polygon points="375 481.86 390 507.84 360 507.84" fill="green" transform="rotate(60,300,300)" />
<polygon points="375 481.86 390 507.84 360 507.84" fill="green" transform="rotate(120,300,300)" />
<polygon points="375 481.86 390 507.84 360 507.84" fill="green" transform="rotate(180,300,300)" />
<polygon points="375 481.86 390 507.84 360 507.84" fill="green" transform="rotate(240,300,300)" />
<polygon points="375 481.86 390 507.84 360 507.84" fill="green" transform="rotate(300,300,300)" />
<polygon points="375 533.82 390 507.84 360 507.84" fill="green" transform="rotate(0,300,300)" />
<polygon points="375 533.82 390 507.84 360 507.84" fill="green" transform="rotate(60,300,300)" />
<polygon points="375 533.82 390 507.84 360 507.84" fill="green" transform="rotate(120,300,300)" />
<polygon points="375 533.82 390 507.84 360 507.84" fill="green" transform="rotate(180,300,300)" />
<polygon points="375 533.82 390 507.84 360 507.84" fill="green" transform="rotate(240,300,300)" />
<polygon points="375 533.82 390 507.84 360 507.84" fill="green" transform="rotate(300,300,300)" />
<polygon points="405 481.86 420 507.84 390 507.84" fill="green" transform="rotate(0,300,300)" />
<polygon points="405 481.86 420 507.84 390 507.84" fill="green" transform="rotate(60,300,300)" />
<polygon points="405 481.86 420 507.84 390 507.84" fill="green" transform="rotate(120,300,300)" />
<polygon points="405 481.86 420 507.84 390 507.84" fill="green" transform="rotate(180,300,300)" />
<polygon points="405 481.86 420 507.84 390 507.84" fill="green" transform="rotate(240,300,300)" />
<polygon points="405 481.86 420 507.84 390 507.84" fill="green" transform="rotate(300,300,300)" />
<polygon points="405 533.82 420 507.84 390 507.84" fill="green" transform="rotate(0,300,300)" />
<polygon points="405 533.82 420 507.84 390 507.84" fill="green" transform="rotate(60,300,300)" />
<polygon points="405 533.82 420 507.84 390 507.84" fill="green" transform="rotate(120,300,300)" />
<polygon points="405 533.82 420 507.84 390 507.84" fill="green" transform="rotate(180,300,300)" />
<polygon points="405 533.82 420 507.84 390 507.84" fill="green" transform="rotate(240,300,300)" />
<polygon points="405 533.82 420 507.84 390 507.84" fill="green" transform="rotate(300,300,300)" />
<polygon points="180 507.84 195 533.82 165 533.82" fill="green" transform="rotate(0,300,300)" />
<polygon points="180 507.84 195 533.82 165 533.82" fill="green" transform="rotate(60,300,300)" />
<polygon points="180 507.84 195 533.82 165 533.82" fill="green" transform="rotate(120,300,300)" />
<polygon points="180 507.84 195 533.82 165 533.82" fill="green" transform="rotate(180,300,300)" />
<polygon points="180 507.84 195 533.82 165 533.82" fill="green" transform="rotate(240,300,300)" />
<polygon points="180 507.84 195 533.82 165 533.82" fill="green" transform="rotate(300,300,300)" />
<polygon points="180 559.8 195 533.82 165 533.82" fill="green" transform="rotate(0,300,300)" />
<polygon points="180 559.8 195 533.82 165 533.82" fill="green" transform="rotate(60,300,300)" />
<polygon points="180 559.8 195 533.82 165 533.82" fill="green" transform="rotate(120,300,300)" />
<polygon points="180 559.8 195 533.82 165 533.82" fill="green" transform="rotate(180,300,300)" />
<polygon points="180 559.8 195 533.82 165 533.82" fill="green" transform="rotate(240,300,300)" />
<polygon points="180 559.8 195 533.82 165 533.82" fill="green" transform="rotate(300,300,300)" />
<polygon points="210 507.84 225 533.82 195 533.82" fill="green" transform="rotate(0,300,300)" />
<polygon points="210 507.84 225 533.82 195 533.82" fill="green" transform="rotate(60,300,300)" />
<polygon points="210 507.84 225 533.82 195 533.82" fill="green" transform="rotate(120,300,300)" />
<polygon points="210 507.84 225 533.82 195 533.82" fill="green" transform="rotate(180,300,300)" />
<polygon points="210 507.84 225 533.82 195 533.82" fill="green" transform="rotate(240,300,300)" />
<polygon points="210 507.84 225 533.82 195 533.82" fill="green" transform="rotate(300,300,300)" />
<polygon points="210 559.8 225 533.82 195 533.82" fill="green" transform="rotate(0,300,300)" />
<polygon points="210 559.8 225 533.82 195 533.82" fill="green" transform="rotate(60,300,300)" />
<polygon points="210 559.8 225 533.82 195 533.82" fill="green" transform="rotate(120,300,300)" />
<polygon points="210 559.8 225 533.82 195 533.82" fill="green" transform="rotate(180,300,300)" />
<polygon points="210 559.8 225 533.82 195 533.82" fill="green" transform="rotate(240,300,300)" />
<polygon points="210 559.8 225 533.82 195 533.82" fill="green" transform="rotate(300,300,300)" />
<polygon points="240 507.84 255 533.82 225 533.82" fill="green" transform="rotate(0,300,300)" />
<polygon points="240 507.84 255 533.82 225 533.82" fill="green" transform="rotate(60,300,300)" />
<polygon points="240 507.84 255 533.82 225 533.82" fill="green" transform="rotate(120,300,300)" />
<polygon points="240 507.84 255 533.82 225 533.82" fill="green" transform="rotate(180,300,300)" />
<polygon points="240 507.84 255 533.82 225 533.82" fill="green" transform="rotate(240,300,300)" />
<polygon points="240 507.84 255 533.82 225 533.82" fill="green" transform="rotate(300,300,300)" />
<polygon points="240 559.8 255 533.82 225 533.82" fill="green" transform="rotate(0,300,300)" />
<polygon points="240 559.8 255 533.82 225 533.82" fill="green" transform="rotate(60,300,300)" />
<polygon points="240 559.8 255 533.82 225 533.82" fill="green" transform="rotate(120,300,300)" />
<polygon points="240 559.8 255 533.82 225 533.82" fill="green" transform="rotate(180,300,300)" />
<polygon points="240 559.8 255 533.82 225 533.82" fill="green" transform="rotate(240,300,300)" />
<polygon points="240 559.8 255 533.82 225 533.82" fill="green" transform="rotate(300,300,300)" />
<polygon points="270 507.84 285 533.82 255 533.82" fill="green" transform="rotate(0,300,300)" />
<polygon points="270 507.84 285 533.82 255 533.82" fill="green" transform="rotate(60,300,300)" />
<polygon points="270 507.84 285 533.82 255 533.82" fill="green" transform="rotate(120,300,300)" />
<polygon points="270 507.84 285 533.82 255 533.82" fill="green" transform="rotate(180,300,300)" />
<polygon points="270 507.84 285 533.82 255 533.82" fill="green" transform="rotate(240,300,300)" />
<polygon points="270 507.84 285 533.82 255 533.82" fill="green" transform="rotate(300,300,300)" />
<polygon points="270 559.8 285 533.82 255 533.82" fill="green" transform="rotate(0,300,300)" />
<polygon points="270 559.8 285 533.82 255 533.82" fill="green" transform="rotate(60,300,300)" />
<polygon points="270 559.8 285 533.82 255 533.82" fill="green" transform="rotate(120,300,300)" />
<polygon points="270 559.8 285 533.82 255 533.82" fill="green" transform="rotate(180,300,300)" />
<polygon points="270 559.8 285 533.82 255 533.82" fill="green" transform="rotate(240,300,300)" />
<polygon points="270 559.8 285 533.82 255 533.82" fill="green" transform="rotate(300,300,300)" />
<polygon points="300 507.84 315 533.82 285 533.82" fill="green" transform="rotate(0,300,300)" />
<polygon points="300 507.84 315 533.82 285 533.82" fill="green" transform="rotate(60,300,300)" />
<polygon points="300 507.84 315 533.82 285 533.82" fill="green" transform="rotate(120,300,300)" />
<polygon points="300 507.84 315 533.82 285 533.82" fill="green" transform="rotate(180,300,300)" />
<polygon points="300 507.84 315 533.82 285 533.82" fill="green" transform="rotate(240,300,300)" />
<polygon points="300 507.84 315 533.82 285 533.82" fill="green" transform="rotate(300,300,300)" />
<polygon points="300 559.8 315 533.82 285 533.82" fill="green" transform="rotate(0,300,300)" />
<polygon points="300 559.8 315 533.82 285 533.82" fill="green" transform="rotate(60,300,300)" />
<polygon points="300 559.8 315 533.82 285 533.82" fill="green" transform="rotate(120,300,300)" />
<polygon points="300 559.8 315 533.82 285 533.82" fill="green" transform="rotate(180,300,300)" />
<polygon points="300 559.8 315 533.82 285 533.82" fill="green" transform="rotate(240,300,300)" />
<polygon points="300 559.8 315 533.82 285 533.82" fill="green" transform="rotate(300,300,300)" />
<polygon points="330 507.84 345 533.82 315 533.82" fill="green" transform="rotate(0,300,300)" />
<polygon points="330 507.84 345 533.82 315 533.82" fill="green" transform="rotate(60,300,300)" />
<polygon points="330 507.84 345 533.82 315 533.82" fill="green" transform="rotate(120,300,300)" />
<polygon points="330 507.84 345 533.82 315 533.82" fill="green" transform="rotate(180,300,300)" />
<polygon points="330 507.84 345 533.82 315 533.82" fill="green" transform="rotate(240,300,300)" />
<polygon points="330 507.84 345 533.82 315 533.82" fill="green" transform="rotate(300,300,300)" />
<polygon points="330 559.8 345 533.82 315 533.82" fill="green" transform="rotate(0,300,300)" />
<polygon points="330 559.8 345 533.82 315 533.82" fill="green" transform="rotate(60,300,300)" />
<polygon points="330 559.8 345 533.82 315 533.82" fill="green" transform="rotate(120,300,300)" />
<polygon points="330 559.8 345 533.82 315 533.82" fill="green" transform="rotate(180,300,300)" />
<polygon points="330 559.8 345 533.82 315 533.82" fill="green" transform="rotate(240,300,300)" />
<polygon points="330 559.8 345 533.82 315 533.82" fill="green" transform="rotate(300,300,300)" />
<polygon points="360 507.84 375 533.82 345 533.82" fill="green" transform="rotate(0,300,300)" />
<polygon points="360 507.84 375 533.82 345 533.82" fill="green" transform="rotate(60,300,300)" />
<polygon points="360 507.84 375 533.82 345 533.82" fill="green" transform="rotate(120,300,300)" />
<polygon points="360 507.84 375 533.82 345 533.82" fill="green" transform="rotate(180,300,300)" />
<polygon points="360 507.84 375 533.82 345 533.82" fill="green" transform="rotate(240,300,300)" />
<polygon points="360 507.84 375 533.82 345 533.82" fill="green" transform="rotate(300,300,300)" />
<polygon points="360 559.8 375 533.82 345 533.82" fill="green" transform="rotate(0,300,300)" />
<polygon points="360 559.8 375 533.82 345 533.82" fill="green" transform="rotate(60,300,300)" />
<polygon points="360 559.8 375 533.82 345 533.82" fill="green" transform="rotate(120,300,300)" />
<polygon points="360 559.8 375 533.82 345 533.82" fill="green" transform="rotate(180,300,300)" />
<polygon points="360 559.8 375 533.82 345 533.82" fill="green" transform="rotate(240,300,300)" />
<polygon points="360 559.8 375 533.82 345 533.82" fill="green" transform="rotate(300,300,300)" />
<polygon points="390 507.84 405 533.82 375 533.82" fill="green" transform="rotate(0,300,300)" />
<polygon points="390 507.84 405 533.82 375 533.82" fill="green" transform="rotate(60,300,300)" />
<polygon points="390 507.84 405 533.82 375 533.82" fill="green" transform="rotate(120,300,300)" />
<polygon points="390 507.84 405 533.82 375 533.82" fill="green" transform="rotate(180,300,300)" />
<polygon points="390 507.84 405 533.82 375 533.82" fill="green" transform="rotate(240,300,300)" />
<polygon points="390 507.84 405 533.82 375 533.82" fill="green" transform="rotate(300,300,300)" />
<polygon points="390 559.8 405 533.82 375 533.82" fill="green" transform="rotate(0,300,300)" />
<polygon points="390 559.8 405 533.82 375 533.82" fill="green" transform="rotate(60,300,300)" />
<polygon points="390 559.8 405 533.82 375 533.82" fill="green" transform="rotate(120,300,300)" />
<polygon points="390 559.8 405 533.82 375 533.82" fill="green" transform="rotate(180,300,300)" />
<polygon points="390 559.8 405 533.82 375 533.82" fill="green" transform="rotate(240,300,300)" />
<polygon points="390 559.8 405 533.82 375 533.82" fill="green" transform="rotate(300,300,300)" />
<polygon points="420 507.84 435 533.82 405 533.82" fill="green" transform="rotate(0,300,300)" />
<polygon points="420 507.84 435 533.82 405 533.82" fill="green" transform="rotate(60,300,300)" />
<polygon points="420 507.84 435 533.82 405 533.82" fill="green" transform="rotate(120,300,300)" />
<polygon points="420 507.84 435 533.82 405 533.82" fill="green" transform="rotate(180,300,300)" />
<polygon points="420 507.84 435 533.82 405 533.82" fill="green" transform="rotate(240,300,300)" />
<polygon points="420 507.84 435 533.82 405 533.82" fill="green" transform="rotate(300,300,300)" />
<polygon points="420 559.8 435 533.82 405 533.82" fill="green" transform="rotate(0,300,300)" />
<polygon points="420 559.8 435 533.82 405 533.82" fill="green" transform="rotate(60,300,300)" />
<polygon points="420 559.8 435 533.82 405 533.82" fill="green" transform="rotate(120,300,300)" />
<polygon points="420 559.8 435 533.82 405 533.82" fill="green" transform="rotate(180,300,300)" />
<polygon points="420 559.8 435 533.82 405 533.82" fill="green" transform="rotate(240,300,300)" />
<polygon points="420 559.8 435 533.82 405 533.82" fill="green" transform="rotate(300,300,300)" />
<polygon points="165 533.82 180 559.8 150 559.8" fill="green" transform="rotate(0,300,300)" />
<polygon points="165 533.82 180 559.8 150 559.8" fill="green" transform="rotate(60,300,300)" />
<polygon points="165 533.82 180 559.8 150 559.8" fill="green" transform="rotate(120,300,300)" />
<polygon points="165 533.82 180 559.8 150 559.8" fill="green" transform="rotate(180,300,300)" />
<polygon points="165 533.82 180 559.8 150 559.8" fill="green" transform="rotate(240,300,300)" />
<polygon points="165 533.82 180 559.8 150 559.8" fill="green" transform="rotate(300,300,300)" />
<polygon points="195 533.82 210 559.8 180 559.8" fill="green" transform="rotate(0,300,300)" />
<polygon points="195 533.82 210 559.8 180 559.8" fill="green" transform="rotate(60,300,300)" />
<polygon points="195 533.82 210 559.8 180 559.8" fill="green" transform="rotate(120,300,300)" />
<polygon points="195 533.82 210 559.8 180 559.8" fill="green" transform="rotate(180,300,300)" />
<polygon points="195 533.82 210 559.8 180 559.8" fill="green" transform="rotate(240,300,300)" />
<polygon points="195 533.82 210 559.8 180 559.8" fill="green" transform="rotate(300,300,300)" />
<polygon points="225 533.82 240 559.8 210 559.8" fill="green" transform="rotate(0,300,300)" />
<polygon points="225 533.82 240 559.8 210 559.8" fill="green" transform="rotate(60,300,300)" />
<polygon points="225 533.82 240 559.8 210 559.8" fill="green" transform="rotate(120,300,300)" />
<polygon points="225 533.82 240 559.8 210 559.8" fill="green" transform="rotate(180,300,300)" />
<polygon points="225 533.82 240 559.8 210 559.8" fill="green" transform="rotate(240,300,300)" />
<polygon points="225 533.82 240 559.8 210 559.8" fill="green" transform="rotate(300,300,300)" />
<polygon points="255 533.82 270 559.8 240 559.8" fill="green" transform="rotate(0,300,300)" />
<polygon points="255 533.82 270 559.8 240 559.8" fill="green" transform="rotate(60,300,300)" />
<polygon points="255 533.82 270 559.8 240 559.8" fill="green" transform="rotate(120,300,300)" />
<polygon points="255 533.82 270 559.8 240 559.8" fill="green" transform="rotate(180,300,300)" />
<polygon points="255 533.82 270 559.8 240 559.8" fill="green" transform="rotate(240,300,300)" />
<polygon points="255 533.82 270 559.8 240 559.8" fill="green" transform="rotate(300,300,300)" />
<polygon points="285 533.82 300 559.8 270 559.8" fill="green" transform="rotate(0,300,300)" />
<polygon points="285 533.82 300 559.8 270 559.8" fill="green" transform="rotate(60,300,300)" />
<polygon points="285 533.82 300 559.8 270 559.8" fill="green" transform="rotate(120,300,300)" />
<polygon points="285 533.82 300 559.8 270 559.8" fill="green" transform="rotate(180,300,300)" />
<polygon points="285 533.82 300 559.8 270 559.8" fill="green" transform="rotate(240,300,300)" />
<polygon points="285 533.82 300 559.8 270 559.8" fill="green" transform="rotate(300,300,300)" />
<polygon points="315 533.82 330 559.8 300 559.8" fill="green" transform="rotate(0,300,300)" />
<polygon points="315 533.82 330 559.8 300 559.8" fill="green" transform="rotate(60,300,300)" />
<polygon points="315 533.82 330 559.8 300 559.8" fill="green" transform="rotate(120,300,300)" />
<polygon points="315 533.82 330 559.8 300 559.8" fill="green" transform="rotate(180,300,300)" />
<polygon points="315 533.82 330 559.8 300 559.8" fill="green" transform="rotate(240,300,300)" />
<polygon points="315 533.82 330 559.8 300 559.8" fill="green" transform="rotate(300,300,300)" />
<polygon points="345 533.82 360 559.8 330 559.8" fill="green" transform="rotate(0,300,300)" />
<polygon points="345 533.82 360 559.8 330 559.8" fill="green" transform="rotate(60,300,300)" />
<polygon points="345 533.82 360 559.8 330 559.8" fill="green" transform="rotate(120,300,300)" />
<polygon points="345 533.82 360 559.8 330 559.8" fill="green" transform="rotate(180,300,300)" />
<polygon points="345 533.82 360 559.8 330 559.8" fill="green" transform="rotate(240,300,300)" />
<polygon points="345 533.82 360 559.8 330 559.8" fill="green" transform="rotate(300,300,300)" />
<polygon points="375 533.82 390 559.8 360 559.8" fill="green" transform="rotate(0,300,300)" />
<polygon points="375 533.82 390 559.8 360 559.8" fill="green" transform="rotate(60,300,300)" />
<polygon points="375 533.82 390 559.8 360 559.8" fill="green" transform="rotate(120,300,300)" />
<polygon points="375 533.82 390 559.8 360 559.8" fill="green" transform="rotate(180,300,300)" />
<polygon points="375 533.82 390 559.8 360 559.8" fill="green" transform="rotate(240,300,300)" />
<polygon points="375 533.82 390 559.8 360 559.8" fill="green" transform="rotate(300,300,300)" />
<polygon points="405 533.82 420 559.8 390 559.8" fill="green" transform="rotate(0,300,300)" />
<polygon points="405 533.82 420 559.8 390 559.8" fill="green" transform="rotate(60,300,300)" />
<polygon points="405 533.82 420 559.8 390 559.8" fill="green" transform="rotate(120,300,300)" />
<polygon points="405 533.82 420 559.8 390 559.8" fill="green" transform="rotate(180,300,300)" />
<polygon points="405 533.82 420 559.8 390 559.8" fill="green" transform="rotate(240,300,300)" />
<polygon points="405 533.82 420 559.8 390 559.8" fill="green" transform="rotate(300,300,300)" />
<polygon points="435 533.82 450 559.8 420 559.8" fill="green" transform="rotate(0,300,300)" />
<polygon points="435 533.82 450 559.8 420 559.8" fill="green" transform="rotate(60,300,300)" />
<polygon points="435 533.82 450 559.8 420 559.8" fill="green" transform="rotate(120,300,300)" />
<polygon points="435 533.82 450 559.8 420 559.8" fill="green" transform="rotate(180,300,300)" />
<polygon points="435 533.82 450 559.8 420 559.8" fill="green" transform="rotate(240,300,300)" />
<polygon points="435 533.82 450 559.8 420 559.8" fill="green" transform="rotate(300,300,300)" />
</svg>