<svg version="1.1"
baseProfile="full"
width="150" height="330" xmlns="http://www.w3.org/2000/svg">
<rect width="100%" height="100%" fill="red" />
<polygon points="0 0 20 0 10 17.32" fill="green" transform="rotate(0,0,0)" />
<polygon points="20 0 40 0 30 17.32" fill="green" transform="rotate(0,0,0)" />
<polygon points="40 0 60 0 50 17.32" fill="green" transform="rotate(0,0,0)" />
<polygon points="60 0 80 0 70 17.32" fill="green" transform="rotate(0,0,0)" />
<polygon points="80 0 100 0 90 17.32" fill="green" transform="rotate(0,0,0)" />
<polygon points="100 0 120 0 110 17.32" fill="green" transform="rotate(0,0,0)" />
<polygon points="120 0 140 0 130 17.32" fill="green" transform="rotate(0,0,0)" />
<polygon points="0 17.32 20 17.32 10 34.64" fill="green" transform="rotate(0,0,0)" />
<polygon points="20 17.32 40 17.32 30 34.64" fill="green" transform="rotate(0,0,0)" />
<polygon points="40 17.32 60 17.32 50 34.64" fill="green" transform="rotate(0,0,0)" />
<polygon points="60 17.32 80 17.32 70 34.64" fill="green" transform="rotate(0,0,0)" />
<polygon points="80 17.32 100 17.32 90 34.64" fill="green" transform="rotate(0,0,0)" />
<polygon points="100 17.32 120 17.32 110 34.64" fill="green" transform="rotate(0,0,0)" />
<polygon points="120 17.32 140 17.32 130 34.64" fill="green" transform="rotate(0,0,0)" />
<polygon points="0 34.64 20 34.64 10 51.96" fill="green" transform="rotate(0,0,0)" />
<polygon points="20 34.64 40 34.64 30 51.96" fill="green" transform="rotate(0,0,0)" />
<polygon points="40 34.64 60 34.64 50 51.96" fill="green" transform="rotate(0,0,0)" />
<polygon points="60 34.64 80 34.64 70 51.96" fill="green" transform="rotate(0,0,0)" />
<polygon points="80 34.64 100 34.64 90 51.96" fill="green" transform="rotate(0,0,0)" />
<polygon points="100 34.64 120 34.64 110 51.96" fill="green" transform="rotate(0,0,0)" />
<polygon points="120 34.64 140 34.64 130 51.96" fill="green" transform="rotate(0,0,0)" />
<polygon points="0 51.96 20 51.96 10 69.28" fill="green" transform="rotate(0,0,0)" />
<polygon points="20 51.96 40 51.96 30 69.28" fill="green" transform="rotate(0,0,0)" />
<polygon points="40 51.96 60 51.96 50 69.28" fill="green" transform="rotate(0,0,0)" />
<polygon points="60 51.96 80 51.96 70 69.28" fill="green" transform="rotate(0,0,0)" />
<polygon points="80 51.96 100 51.96 90 69.28" fill="green" transform="rotate(0,0,0)" />
<polygon points="100 51.96 120 51.96 110 69.28" fill="green" transform="rotate(0,0,0)" />
<polygon points="120 51.96 140 51.96 130 69.28" fill="green" transform="rotate(0,0,0)" />
<polygon points="0 69.28 20 69.28 10 86.6" fill="green" transform="rotate(0,0,0)" />
<polygon points="20 69.28 40 69.28 30 86.6" fill="green" transform="rotate(0,0,0)" />
<polygon points="40 69.28 60 69.28 50 86.6" fill="green" transform="rotate(0,0,0)" />
<polygon points="60 69.28 80 69.28 70 86.6" fill="green" transform="rotate(0,0,0)" />
<polygon points="80 69.28 100 69.28 90 86.6" fill="green" transform="rotate(0,0,0)" />
<polygon points="100 69.28 120 69.28 110 86.6" fill="green" transform="rotate(0,0,0)" />
<polygon points="120 69.28 140 69.28 130 86.6" fill="green" transform="rotate(0,0,0)" />
<polygon points="0 86.6 20 86.6 10 103.92" fill="green" transform="rotate(0,0,0)" />
<polygon points="20 86.6 40 86.6 30 103.92" fill="green" transform="rotate(0,0,0)" />
<polygon points="40 86.6 60 86.6 50 103.92" fill="green" transform="rotate(0,0,0)" />
<polygon points="60 86.6 80 86.6 70 103.92" fill="green" transform="rotate(0,0,0)" />
<polygon points="80 86.6 100 86.6 90 103.92" fill="green" transform="rotate(0,0,0)" />
<polygon points="100 86.6 120 86.6 110 103.92" fill="green" transform="rotate(0,0,0)" />
<polygon points="120 86.6 140 86.6 130 103.92" fill="green" transform="rotate(0,0,0)" />
<polygon points="0 103.92 20 103.92 10 121.24" fill="green" transform="rotate(0,0,0)" />
<polygon points="20 103.92 40 103.92 30 121.24" fill="green" transform="rotate(0,0,0)" />
<polygon points="40 103.92 60 103.92 50 121.24" fill="green" transform="rotate(0,0,0)" />
<polygon points="60 103.92 80 103.92 70 121.24" fill="green" transform="rotate(0,0,0)" />
<polygon points="80 103.92 100 103.92 90 121.24" fill="green" transform="rotate(0,0,0)" />
<polygon points="100 103.92 120 103.92 110 121.24" fill="green" transform="rotate(0,0,0)" />
<polygon points="120 103.92 140 103.92 130 121.24" fill="green" transform="rotate(0,0,0)" />
<polygon points="0 121.24 20 121.24 10 138.56" fill="green" transform="rotate(0,0,0)" />
<polygon points="20 121.24 40 121.24 30 138.56" fill="green" transform="rotate(0,0,0)" />
<polygon points="40 121.24 60 121.24 50 138.56" fill="green" transform="rotate(0,0,0)" />
<polygon points="60 121.24 80 121.24 70 138.56" fill="green" transform="rotate(0,0,0)" />
<polygon points="80 121.24 100 121.24 90 138.56" fill="green" transform="rotate(0,0,0)" />
<polygon points="100 121.24 120 121.24 110 138.56" fill="green" transform="rotate(0,0,0)" />
<polygon points="120 121.24 140 121.24 130 138.56" fill="green" transform="rotate(0,0,0)" />
<polygon points="0 138.56 20 138.56 10 155.88" fill="green" transform="rotate(0,0,0)" />
<polygon points="20 138.56 40 138.56 30 155.88" fill="green" transform="rotate(0,0,0)" />
<polygon points="40 138.56 60 138.56 50 155.88" fill="green" transform="rotate(0,0,0)" />
<polygon points="60 138.56 80 138.56 70 155.88" fill="green" transform="rotate(0,0,0)" />
<polygon points="80 138.56 100 138.56 90 155.88" fill="green" transform="rotate(0,0,0)" />
<polygon points="100 138.56 120 138.56 110 155.88" fill="green" transform="rotate(0,0,0)" />
<polygon points="120 138.56 140 138.56 130 155.88" fill="green" transform="rotate(0,0,0)" />
<polygon points="0 155.88 20 155.88 10 173.2" fill="green" transform="rotate(0,0,0)" />
<polygon points="20 155.88 40 155.88 30 173.2" fill="green" transform="rotate(0,0,0)" />
<polygon points="40 155.88 60 155.88 50 173.2" fill="green" transform="rotate(0,0,0)" />
<polygon points="60 155.88 80 155.88 70 173.2" fill="green" transform="rotate(0,0,0)" />
<polygon points="80 155.88 100 155.88 90 173.2" fill="green" transform="rotate(0,0,0)" />
<polygon points="100 155.88 120 155.88 110 173.2" fill="green" transform="rotate(0,0,0)" />
<polygon points="120 155.88 140 155.88 130 173.2" fill="green" transform="rotate(0,0,0)" />
<polygon points="0 173.2 20 173.2 10 190.52" fill="green" transform="rotate(0,0,0)" />
<polygon points="20 173.2 40 173.2 30 190.52" fill="green" transform="rotate(0,0,0)" />
<polygon points="40 173.2 60 173.2 50 190.52" fill="green" transform="rotate(0,0,0)" />
<polygon points="60 173.2 80 173.2 70 190.52" fill="green" transform="rotate(0,0,0)" />
<polygon points="80 173.2 100 173.2 90 190.52" fill="green" transform="rotate(0,0,0)" />
<polygon points="100 173.2 120 173.2 110 190.52" fill="green" transform="rotate(0,0,0)" />
<polygon points="120 173.2 140 173.2 130 190.52" fill="green" transform="rotate(0,0,0)" />
<polygon points="0 190.52 20 190.52 10 207.84" fill="green" transform="rotate(0,0,0)" />
<polygon points="20 190.52 40 190.52 30 207.84" fill="green" transform="rotate(0,0,0)" />
<polygon points="40 190.52 60 190.52 50 207.84" fill="green" transform="rotate(0,0,0)" />
<polygon points="60 190.52 80 190.52 70 207.84" fill="green" transform="rotate(0,0,0)" />
<polygon points="80 190.52 100 190.52 90 207.84" fill="green" transform="rotate(0,0,0)" />
<polygon points="100 190.52 120 190.52 110 207.84" fill="green" transform="rotate(0,0,0)" />
<polygon points="120 190.52 140 190.52 130 207.84" fill="green" transform="rotate(0,0,0)" />
<polygon points="0 207.84 20 207.84 10 225.16" fill="green" transform="rotate(0,0,0)" />
<polygon points="20 207.84 40 207.84 30 225.16" fill="green" transform="rotate(0,0,0)" />
<polygon points="40 207.84 60 207.84 50 225.16" fill="green" transform="rotate(0,0,0)" />
<polygon points="60 207.84 80 207.84 70 225.16" fill="green" transform="rotate(0,0,0)" />
<polygon points="80 207.84 100 207.84 90 225.16" fill="green" transform="rotate(0,0,0)" />
<polygon points="100 207.84 120 207.84 110 225.16" fill="green" transform="rotate(0,0,0)" />
<polygon points="120 207.84 140 207.84 130 225.16" fill="green" transform="rotate(0,0,0)" />
<polygon points="0 225.16 20 225.16 10 242.48" fill="green" transform="rotate(0,0,0)" />
<polygon points="20 225.16 40 225.16 30 242.48" fill="green" transform="rotate(0,0,0)" />
<polygon points="40 225.16 60 225.16 50 242.48" fill="green" transform="rotate(0,0,0)" />
<polygon points="60 225.16 80 225.16 70 242.48" fill="green" transform="rotate(0,0,0)" />
<polygon points="80 225.16 100 225.16 90 242.48" fill="green" transform="rotate(0,0,0)" />
<polygon points="100 225.16 120 225.16 110 242.48" fill="green" transform="rotate(0,0,0)" />
<polygon points="120 225.16 140 225.16 130 242.48" fill="green" transform="rotate(0,0,0)" />
<polygon points="0 242.48 20 242.48 10 259.8" fill="green" transform="rotate(0,0,0)" />
<polygon points="20 242.48 40 242.48 30 259.8" fill="green" transform="rotate(0,0,0)" />
<polygon points="40 242.48 60 242.48 50 259.8" fill="green" transform="rotate(0,0,0)" />
<polygon points="60 242.48 80 242.48 70 259.8" fill="green" transform="rotate(0,0,0)" />
<polygon points="80 242.48 100 242.48 90 259.8" fill="green" transform="rotate(0,0,0)" />
<polygon points="100 242.48 120 242.48 110 259.8" fill="green" transform="rotate(0,0,0)" />
<polygon points="120 242.48 140 242.48 130 259.8" fill="green" transform="rotate(0,0,0)" />
<polygon points="0 259.8 20 259.8 10 277.12" fill="green" transform="rotate(0,0,0)" />
<polygon points="20 259.8 40 259.8 30 277.12" fill="green" transform="rotate(0,0,0)" />
<polygon points="40 259.8 60 259.8 50 277.12" fill="green" transform="rotate(0,0,0)" />
<polygon points="60 259.8 80 259.8 70 277.12" fill="green" transform="rotate(0,0,0)" />
<polygon points="80 259.8 100 259.8 90 277.12" fill="green" transform="rotate(0,0,0)" />
<polygon points="100 259.8 120 259.8 110 277.12" fill="green" transform="rotate(0,0,0)" />
<polygon points="120 259.8 140 259.8 130 277.12" fill="green" transform="rotate(0,0,0)" />
<polygon points="0 277.12 20 277.12 10 294.44" fill="green" transform="rotate(0,0,0)" />
<polygon points="20 277.12 40 277.12 30 294.44" fill="green" transform="rotate(0,0,0)" />
<polygon points="40 277.12 60 277.12 50 294.44" fill="green" transform="rotate(0,0,0)" />
<polygon points="60 277.12 80 277.12 70 294.44" fill="green" transform="rotate(0,0,0)" />
<polygon points="80 277.12 100 277.12 90 294.44" fill="green" transform="rotate(0,0,0)" />
<polygon points="100 277.12 120 277.12 110 294.44" fill="green" transform="rotate(0,0,0)" />
<polygon points="120 277.12 140 277.12 130 294.44" fill="green" transform="rotate(0,0,0)" />
<polygon points="0 294.44 20 294.44 10 311.76" fill="green" transform="rotate(0,0,0)" />
<polygon points="20 294.44 40 294.44 30 311.76" fill="green" transform="rotate(0,0,0)" />
<polygon points="40 294.44 60 294.44 50 311.76" fill="green" transform="rotate(0,0,0)" />
<polygon points="60 294.44 80 294.44 70 311.76" fill="green" transform="rotate(0,0,0)" />
<polygon points="80 294.44 100 294.44 90 311.76" fill="green" transform="rotate(0,0,0)" />
<polygon points="100 294.44 120 294.44 110 311.76" fill="green" transform="rotate(0,0,0)" />
<polygon points="120 294.44 140 294.44 130 311.76" fill="green" transform="rotate(0,0,0)" />
<polygon points="0 311.76 20 311.76 10 329.08" fill="green" transform="rotate(0,0,0)" />
<polygon points="20 311.76 40 311.76 30 329.08" fill="green" transform="rotate(0,0,0)" />
<polygon points="40 311.76 60 311.76 50 329.08" fill="green" transform="rotate(0,0,0)" />
<polygon points="60 311.76 80 311.76 70 329.08" fill="green" transform="rotate(0,0,0)" />
<polygon points="80 311.76 100 311.76 90 329.08" fill="green" transform="rotate(0,0,0)" />
<polygon points="100 311.76 120 311.76 110 329.08" fill="green" transform="rotate(0,0,0)" />
<polygon points="120 311.76 140 311.76 130 329.08" fill="green" transform="rotate(0,0,0)" />
<polygon points="10 17.32 20 0 30 17.32" fill="green" transform="rotate(0,0,0)" />
<polygon points="30 17.32 40 0 50 17.32" fill="green" transform="rotate(0,0,0)" />
<polygon points="50 17.32 60 0 70 17.32" fill="green" transform="rotate(0,0,0)" />
<polygon points="70 17.32 80 0 90 17.32" fill="green" transform="rotate(0,0,0)" />
<polygon points="90 17.32 100 0 110 17.32" fill="green" transform="rotate(0,0,0)" />
<polygon points="110 17.32 120 0 130 17.32" fill="green" transform="rotate(0,0,0)" />
<polygon points="130 17.32 140 0 150 17.32" fill="green" transform="rotate(0,0,0)" />
<polygon points="10 34.64 20 17.32 30 34.64" fill="green" transform="rotate(0,0,0)" />
<polygon points="30 34.64 40 17.32 50 34.64" fill="green" transform="rotate(0,0,0)" />
<polygon points="50 34.64 60 17.32 70 34.64" fill="green" transform="rotate(0,0,0)" />
<polygon points="70 34.64 80 17.32 90 34.64" fill="green" transform="rotate(0,0,0)" />
<polygon points="90 34.64 100 17.32 110 34.64" fill="green" transform="rotate(0,0,0)" />
<polygon points="110 34.64 120 17.32 130 34.64" fill="green" transform="rotate(0,0,0)" />
<polygon points="130 34.64 140 17.32 150 34.64" fill="green" transform="rotate(0,0,0)" />
<polygon points="10 51.96 20 34.64 30 51.96" fill="green" transform="rotate(0,0,0)" />
<polygon points="30 51.96 40 34.64 50 51.96" fill="green" transform="rotate(0,0,0)" />
<polygon points="50 51.96 60 34.64 70 51.96" fill="green" transform="rotate(0,0,0)" />
<polygon points="70 51.96 80 34.64 90 51.96" fill="green" transform="rotate(0,0,0)" />
<polygon points="90 51.96 100 34.64 110 51.96" fill="green" transform="rotate(0,0,0)" />
<polygon points="110 51.96 120 34.64 130 51.96" fill="green" transform="rotate(0,0,0)" />
<polygon points="130 51.96 140 34.64 150 51.96" fill="green" transform="rotate(0,0,0)" />
<polygon points="10 69.28 20 51.96 30 69.28" fill="green" transform="rotate(0,0,0)" />
<polygon points="30 69.28 40 51.96 50 69.28" fill="green" transform="rotate(0,0,0)" />
<polygon points="50 69.28 60 51.96 70 69.28" fill="green" transform="rotate(0,0,0)" />
<polygon points="70 69.28 80 51.96 90 69.28" fill="green" transform="rotate(0,0,0)" />
<polygon points="90 69.28 100 51.96 110 69.28" fill="green" transform="rotate(0,0,0)" />
<polygon points="110 69.28 120 51.96 130 69.28" fill="green" transform="rotate(0,0,0)" />
<polygon points="130 69.28 140 51.96 150 69.28" fill="green" transform="rotate(0,0,0)" />
<polygon points="10 86.6 20 69.28 30 86.6" fill="green" transform="rotate(0,0,0)" />
<polygon points="30 86.6 40 69.28 50 86.6" fill="green" transform="rotate(0,0,0)" />
<polygon points="50 86.6 60 69.28 70 86.6" fill="green" transform="rotate(0,0,0)" />
<polygon points="70 86.6 80 69.28 90 86.6" fill="green" transform="rotate(0,0,0)" />
<polygon points="90 86.6 100 69.28 110 86.6" fill="green" transform="rotate(0,0,0)" />
<polygon points="110 86.6 120 69.28 130 86.6" fill="green" transform="rotate(0,0,0)" />
<polygon points="130 86.6 140 69.28 150 86.6" fill="green" transform="rotate(0,0,0)" />
<polygon points="10 103.92 20 86.6 30 103.92" fill="green" transform="rotate(0,0,0)" />
<polygon points="30 103.92 40 86.6 50 103.92" fill="green" transform="rotate(0,0,0)" />
<polygon points="50 103.92 60 86.6 70 103.92" fill="green" transform="rotate(0,0,0)" />
<polygon points="70 103.92 80 86.6 90 103.92" fill="green" transform="rotate(0,0,0)" />
<polygon points="90 103.92 100 86.6 110 103.92" fill="green" transform="rotate(0,0,0)" />
<polygon points="110 103.92 120 86.6 130 103.92" fill="green" transform="rotate(0,0,0)" />
<polygon points="130 103.92 140 86.6 150 103.92" fill="green" transform="rotate(0,0,0)" />
<polygon points="10 121.24 20 103.92 30 121.24" fill="green" transform="rotate(0,0,0)" />
<polygon points="30 121.24 40 103.92 50 121.24" fill="green" transform="rotate(0,0,0)" />
<polygon points="50 121.24 60 103.92 70 121.24" fill="green" transform="rotate(0,0,0)" />
<polygon points="70 121.24 80 103.92 90 121.24" fill="green" transform="rotate(0,0,0)" />
<polygon points="90 121.24 100 103.92 110 121.24" fill="green" transform="rotate(0,0,0)" />
<polygon points="110 121.24 120 103.92 130 121.24" fill="green" transform="rotate(0,0,0)" />
<polygon points="130 121.24 140 103.92 150 121.24" fill="green" transform="rotate(0,0,0)" />
<polygon points="10 138.56 20 121.24 30 138.56" fill="green" transform="rotate(0,0,0)" />
<polygon points="30 138.56 40 121.24 50 138.56" fill="green" transform="rotate(0,0,0)" />
<polygon points="50 138.56 60 121.24 70 138.56" fill="green" transform="rotate(0,0,0)" />
<polygon points="70 138.56 80 121.24 90 138.56" fill="green" transform="rotate(0,0,0)" />
<polygon points="90 138.56 100 121.24 110 138.56" fill="green" transform="rotate(0,0,0)" />
<polygon points="110 138.56 120 121.24 130 138.56" fill="green" transform="rotate(0,0,0)" />
<polygon points="130 138.56 140 121.24 150 138.56" fill="green" transform="rotate(0,0,0)" />
<polygon points="10 155.88 20 138.56 30 155.88" fill="green" transform="rotate(0,0,0)" />
<polygon points="30 155.88 40 138.56 50 155.88" fill="green" transform="rotate(0,0,0)" />
<polygon points="50 155.88 60 138.56 70 155.88" fill="green" transform="rotate(0,0,0)" />
<polygon points="70 155.88 80 138.56 90 155.88" fill="green" transform="rotate(0,0,0)" />
<polygon points="90 155.88 100 138.56 110 155.88" fill="green" transform="rotate(0,0,0)" />
<polygon points="110 155.88 120 138.56 130 155.88" fill="green" transform="rotate(0,0,0)" />
<polygon points="130 155.88 140 138.56 150 155.88" fill="green" transform="rotate(0,0,0)" />
<polygon points="10 173.2 20 155.88 30 173.2" fill="green" transform="rotate(0,0,0)" />
<polygon points="30 173.2 40 155.88 50 173.2" fill="green" transform="rotate(0,0,0)" />
<polygon points="50 173.2 60 155.88 70 173.2" fill="green" transform="rotate(0,0,0)" />
<polygon points="70 173.2 80 155.88 90 173.2" fill="green" transform="rotate(0,0,0)" />
<polygon points="90 173.2 100 155.88 110 173.2" fill="green" transform="rotate(0,0,0)" />
<polygon points="110 173.2 120 155.88 130 173.2" fill="green" transform="rotate(0,0,0)" />
<polygon points="130 173.2 140 155.88 150 173.2" fill="green" transform="rotate(0,0,0)" />
<polygon points="10 190.52 20 173.2 30 190.52" fill="green" transform="rotate(0,0,0)" />
<polygon points="30 190.52 40 173.2 50 190.52" fill="green" transform="rotate(0,0,0)" />
<polygon points="50 190.52 60 173.2 70 190.52" fill="green" transform="rotate(0,0,0)" />
<polygon points="70 190.52 80 173.2 90 190.52" fill="green" transform="rotate(0,0,0)" />
<polygon points="90 190.52 100 173.2 110 190.52" fill="green" transform="rotate(0,0,0)" />
<polygon points="110 190.52 120 173.2 130 190.52" fill="green" transform="rotate(0,0,0)" />
<polygon points="130 190.52 140 173.2 150 190.52" fill="green" transform="rotate(0,0,0)" />
<polygon points="10 207.84 20 190.52 30 207.84" fill="green" transform="rotate(0,0,0)" />
<polygon points="30 207.84 40 190.52 50 207.84" fill="green" transform="rotate(0,0,0)" />
<polygon points="50 207.84 60 190.52 70 207.84" fill="green" transform="rotate(0,0,0)" />
<polygon points="70 207.84 80 190.52 90 207.84" fill="green" transform="rotate(0,0,0)" />
<polygon points="90 207.84 100 190.52 110 207.84" fill="green" transform="rotate(0,0,0)" />
<polygon points="110 207.84 120 190.52 130 207.84" fill="green" transform="rotate(0,0,0)" />
<polygon points="130 207.84 140 190.52 150 207.84" fill="green" transform="rotate(0,0,0)" />
<polygon points="10 225.16 20 207.84 30 225.16" fill="green" transform="rotate(0,0,0)" />
<polygon points="30 225.16 40 207.84 50 225.16" fill="green" transform="rotate(0,0,0)" />
<polygon points="50 225.16 60 207.84 70 225.16" fill="green" transform="rotate(0,0,0)" />
<polygon points="70 225.16 80 207.84 90 225.16" fill="green" transform="rotate(0,0,0)" />
<polygon points="90 225.16 100 207.84 110 225.16" fill="green" transform="rotate(0,0,0)" />
<polygon points="110 225.16 120 207.84 130 225.16" fill="green" transform="rotate(0,0,0)" />
<polygon points="130 225.16 140 207.84 150 225.16" fill="green" transform="rotate(0,0,0)" />
<polygon points="10 242.48 20 225.16 30 242.48" fill="green" transform="rotate(0,0,0)" />
<polygon points="30 242.48 40 225.16 50 242.48" fill="green" transform="rotate(0,0,0)" />
<polygon points="50 242.48 60 225.16 70 242.48" fill="green" transform="rotate(0,0,0)" />
<polygon points="70 242.48 80 225.16 90 242.48" fill="green" transform="rotate(0,0,0)" />
<polygon points="90 242.48 100 225.16 110 242.48" fill="green" transform="rotate(0,0,0)" />
<polygon points="110 242.48 120 225.16 130 242.48" fill="green" transform="rotate(0,0,0)" />
<polygon points="130 242.48 140 225.16 150 242.48" fill="green" transform="rotate(0,0,0)" />
<polygon points="10 259.8 20 242.48 30 259.8" fill="green" transform="rotate(0,0,0)" />
<polygon points="30 259.8 40 242.48 50 259.8" fill="green" transform="rotate(0,0,0)" />
<polygon points="50 259.8 60 242.48 70 259.8" fill="green" transform="rotate(0,0,0)" />
<polygon points="70 259.8 80 242.48 90 259.8" fill="green" transform="rotate(0,0,0)" />
<polygon points="90 259.8 100 242.48 110 259.8" fill="green" transform="rotate(0,0,0)" />
<polygon points="110 259.8 120 242.48 130 259.8" fill="green" transform="rotate(0,0,0)" />
<polygon points="130 259.8 140 242.48 150 259.8" fill="green" transform="rotate(0,0,0)" />
<polygon points="10 277.12 20 259.8 30 277.12" fill="green" transform="rotate(0,0,0)" />
<polygon points="30 277.12 40 259.8 50 277.12" fill="green" transform="rotate(0,0,0)" />
<polygon points="50 277.12 60 259.8 70 277.12" fill="green" transform="rotate(0,0,0)" />
<polygon points="70 277.12 80 259.8 90 277.12" fill="green" transform="rotate(0,0,0)" />
<polygon points="90 277.12 100 259.8 110 277.12" fill="green" transform="rotate(0,0,0)" />
<polygon points="110 277.12 120 259.8 130 277.12" fill="green" transform="rotate(0,0,0)" />
<polygon points="130 277.12 140 259.8 150 277.12" fill="green" transform="rotate(0,0,0)" />
<polygon points="10 294.44 20 277.12 30 294.44" fill="green" transform="rotate(0,0,0)" />
<polygon points="30 294.44 40 277.12 50 294.44" fill="green" transform="rotate(0,0,0)" />
<polygon points="50 294.44 60 277.12 70 294.44" fill="green" transform="rotate(0,0,0)" />
<polygon points="70 294.44 80 277.12 90 294.44" fill="green" transform="rotate(0,0,0)" />
<polygon points="90 294.44 100 277.12 110 294.44" fill="green" transform="rotate(0,0,0)" />
<polygon points="110 294.44 120 277.12 130 294.44" fill="green" transform="rotate(0,0,0)" />
<polygon points="130 294.44 140 277.12 150 294.44" fill="green" transform="rotate(0,0,0)" />
<polygon points="10 311.76 20 294.44 30 311.76" fill="green" transform="rotate(0,0,0)" />
<polygon points="30 311.76 40 294.44 50 311.76" fill="green" transform="rotate(0,0,0)" />
<polygon points="50 311.76 60 294.44 70 311.76" fill="green" transform="rotate(0,0,0)" />
<polygon points="70 311.76 80 294.44 90 311.76" fill="green" transform="rotate(0,0,0)" />
<polygon points="90 311.76 100 294.44 110 311.76" fill="green" transform="rotate(0,0,0)" />
<polygon points="110 311.76 120 294.44 130 311.76" fill="green" transform="rotate(0,0,0)" />
<polygon points="130 311.76 140 294.44 150 311.76" fill="green" transform="rotate(0,0,0)" />
<polygon points="10 329.08 20 311.76 30 329.08" fill="green" transform="rotate(0,0,0)" />
<polygon points="30 329.08 40 311.76 50 329.08" fill="green" transform="rotate(0,0,0)" />
<polygon points="50 329.08 60 311.76 70 329.08" fill="green" transform="rotate(0,0,0)" />
<polygon points="70 329.08 80 311.76 90 329.08" fill="green" transform="rotate(0,0,0)" />
<polygon points="90 329.08 100 311.76 110 329.08" fill="green" transform="rotate(0,0,0)" />
<polygon points="110 329.08 120 311.76 130 329.08" fill="green" transform="rotate(0,0,0)" />
<polygon points="130 329.08 140 311.76 150 329.08" fill="green" transform="rotate(0,0,0)" />
</svg>