<svg version="1.1"
baseProfile="full"
width="150" height="330" xmlns="http://www.w3.org/2000/svg">
<rect width="100%" height="100%" fill="red" />
<circle cx="18" cy="18" r="18" fill="green" transform="rotate(0,0,0)" />
<circle cx="18" cy="54" r="18" fill="green" transform="rotate(0,0,0)" />
<circle cx="18" cy="90" r="18" fill="green" transform="rotate(0,0,0)" />
<circle cx="18" cy="126" r="18" fill="green" transform="rotate(0,0,0)" />
<circle cx="18" cy="162" r="18" fill="green" transform="rotate(0,0,0)" />
<circle cx="18" cy="198" r="18" fill="green" transform="rotate(0,0,0)" />
<circle cx="18" cy="234" r="18" fill="green" transform="rotate(0,0,0)" />
<circle cx="18" cy="270" r="18" fill="green" transform="rotate(0,0,0)" />
<circle cx="18" cy="306" r="18" fill="green" transform="rotate(0,0,0)" />
<circle cx="54" cy="18" r="18" fill="green" transform="rotate(0,0,0)" />
<circle cx="54" cy="54" r="18" fill="green" transform="rotate(0,0,0)" />
<circle cx="54" cy="90" r="18" fill="green" transform="rotate(0,0,0)" />
<circle cx="54" cy="126" r="18" fill="green" transform="rotate(0,0,0)" />
<circle cx="54" cy="162" r="18" fill="green" transform="rotate(0,0,0)" />
<circle cx="54" cy="198" r="18" fill="green" transform="rotate(0,0,0)" />
<circle cx="54" cy="234" r="18" fill="green" transform="rotate(0,0,0)" />
<circle cx="54" cy="270" r="18" fill="green" transform="rotate(0,0,0)" />
<circle cx="54" cy="306" r="18" fill="green" transform="rotate(0,0,0)" />
<circle cx="90" cy="18" r="18" fill="green" transform="rotate(0,0,0)" />
<circle cx="90" cy="54" r="18" fill="green" transform="rotate(0,0,0)" />
<circle cx="90" cy="90" r="18" fill="green" transform="rotate(0,0,0)" />
<circle cx="90" cy="126" r="18" fill="green" transform="rotate(0,0,0)" />
<circle cx="90" cy="162" r="18" fill="green" transform="rotate(0,0,0)" />
<circle cx="90" cy="198" r="18" fill="green" transform="rotate(0,0,0)" />
<circle cx="90" cy="234" r="18" fill="green" transform="rotate(0,0,0)" />
<circle cx="90" cy="270" r="18" fill="green" transform="rotate(0,0,0)" />
<circle cx="90" cy="306" r="18" fill="green" transform="rotate(0,0,0)" />
<circle cx="126" cy="18" r="18" fill="green" transform="rotate(0,0,0)" />
<circle cx="126" cy="54" r="18" fill="green" transform="rotate(0,0,0)" />
<circle cx="126" cy="90" r="18" fill="green" transform="rotate(0,0,0)" />
<circle cx="126" cy="126" r="18" fill="green" transform="rotate(0,0,0)" />
<circle cx="126" cy="162" r="18" fill="green" transform="rotate(0,0,0)" />
<circle cx="126" cy="198" r="18" fill="green" transform="rotate(0,0,0)" />
<circle cx="126" cy="234" r="18" fill="green" transform="rotate(0,0,0)" />
<circle cx="126" cy="270" r="18" fill="green" transform="rotate(0,0,0)" />
<circle cx="126" cy="306" r="18" fill="green" transform="rotate(0,0,0)" />
</svg>