<svg version="1.1"
baseProfile="full"
height="250" width="250" xmlns="http://www.w3.org/2000/svg">>
    	<polygon points="125 0 0 216.5 250 216.5" fill="red" />
<rect x="4.61894" y="208.5" width="23" height="8" fill="green" />
<rect x="27.6189" y="208.5" width="23" height="8" fill="green" />
<rect x="50.6189" y="208.5" width="23" height="8" fill="green" />
<rect x="73.6189" y="208.5" width="23" height="8" fill="green" />
<rect x="96.6189" y="208.5" width="23" height="8" fill="green" />
<rect x="119.619" y="208.5" width="23" height="8" fill="green" />
<rect x="142.619" y="208.5" width="23" height="8" fill="green" />
<rect x="165.619" y="208.5" width="23" height="8" fill="green" />
<rect x="188.619" y="208.5" width="23" height="8" fill="green" />
<rect x="211.619" y="208.5" width="23" height="8" fill="green" />
<rect x="9.23788" y="200.5" width="23" height="8" fill="green" />
<rect x="32.2379" y="200.5" width="23" height="8" fill="green" />
<rect x="55.2379" y="200.5" width="23" height="8" fill="green" />
<rect x="78.2379" y="200.5" width="23" height="8" fill="green" />
<rect x="101.238" y="200.5" width="23" height="8" fill="green" />
<rect x="124.238" y="200.5" width="23" height="8" fill="green" />
<rect x="147.238" y="200.5" width="23" height="8" fill="green" />
<rect x="170.238" y="200.5" width="23" height="8" fill="green" />
<rect x="193.238" y="200.5" width="23" height="8" fill="green" />
<rect x="216.238" y="200.5" width="23" height="8" fill="green" />
<rect x="13.8568" y="192.5" width="23" height="8" fill="green" />
<rect x="36.8568" y="192.5" width="23" height="8" fill="green" />
<rect x="59.8568" y="192.5" width="23" height="8" fill="green" />
<rect x="82.8568" y="192.5" width="23" height="8" fill="green" />
<rect x="105.857" y="192.5" width="23" height="8" fill="green" />
<rect x="128.857" y="192.5" width="23" height="8" fill="green" />
<rect x="151.857" y="192.5" width="23" height="8" fill="green" />
<rect x="174.857" y="192.5" width="23" height="8" fill="green" />
<rect x="197.857" y="192.5" width="23" height="8" fill="green" />
<rect x="18.4758" y="184.5" width="23" height="8" fill="green" />
<rect x="41.4758" y="184.5" width="23" height="8" fill="green" />
<rect x="64.4758" y="184.5" width="23" height="8" fill="green" />
<rect x="87.4758" y="184.5" width="23" height="8" fill="green" />
<rect x="110.476" y="184.5" width="23" height="8" fill="green" />
<rect x="133.476" y="184.5" width="23" height="8" fill="green" />
<rect x="156.476" y="184.5" width="23" height="8" fill="green" />
<rect x="179.476" y="184.5" width="23" height="8" fill="green" />
<rect x="202.476" y="184.5" width="23" height="8" fill="green" />
<rect x="23.0947" y="176.5" width="23" height="8" fill="green" />
<rect x="46.0947" y="176.5" width="23" height="8" fill="green" />
<rect x="69.0947" y="176.5" width="23" height="8" fill="green" />
<rect x="92.0947" y="176.5" width="23" height="8" fill="green" />
<rect x="115.095" y="176.5" width="23" height="8" fill="green" />
<rect x="138.095" y="176.5" width="23" height="8" fill="green" />
<rect x="161.095" y="176.5" width="23" height="8" fill="green" />
<rect x="184.095" y="176.5" width="23" height="8" fill="green" />
<rect x="27.7136" y="168.5" width="23" height="8" fill="green" />
<rect x="50.7136" y="168.5" width="23" height="8" fill="green" />
<rect x="73.7136" y="168.5" width="23" height="8" fill="green" />
<rect x="96.7136" y="168.5" width="23" height="8" fill="green" />
<rect x="119.714" y="168.5" width="23" height="8" fill="green" />
<rect x="142.714" y="168.5" width="23" height="8" fill="green" />
<rect x="165.714" y="168.5" width="23" height="8" fill="green" />
<rect x="188.714" y="168.5" width="23" height="8" fill="green" />
<rect x="32.3326" y="160.5" width="23" height="8" fill="green" />
<rect x="55.3326" y="160.5" width="23" height="8" fill="green" />
<rect x="78.3326" y="160.5" width="23" height="8" fill="green" />
<rect x="101.333" y="160.5" width="23" height="8" fill="green" />
<rect x="124.333" y="160.5" width="23" height="8" fill="green" />
<rect x="147.333" y="160.5" width="23" height="8" fill="green" />
<rect x="170.333" y="160.5" width="23" height="8" fill="green" />
<rect x="193.333" y="160.5" width="23" height="8" fill="green" />
<rect x="36.9515" y="152.5" width="23" height="8" fill="green" />
<rect x="59.9515" y="152.5" width="23" height="8" fill="green" />
<rect x="82.9515" y="152.5" width="23" height="8" fill="green" />
<rect x="105.952" y="152.5" width="23" height="8" fill="green" />
<rect x="128.952" y="152.5" width="23" height="8" fill="green" />
<rect x="151.952" y="152.5" width="23" height="8" fill="green" />
<rect x="174.952" y="152.5" width="23" height="8" fill="green" />
<rect x="41.5704" y="144.5" width="23" height="8" fill="green" />
<rect x="64.5704" y="144.5" width="23" height="8" fill="green" />
<rect x="87.5704" y="144.5" width="23" height="8" fill="green" />
<rect x="110.57" y="144.5" width="23" height="8" fill="green" />
<rect x="133.57" y="144.5" width="23" height="8" fill="green" />
<rect x="156.57" y="144.5" width="23" height="8" fill="green" />
<rect x="179.57" y="144.5" width="23" height="8" fill="green" />
<rect x="46.1894" y="136.5" width="23" height="8" fill="green" />
<rect x="69.1894" y="136.5" width="23" height="8" fill="green" />
<rect x="92.1894" y="136.5" width="23" height="8" fill="green" />
<rect x="115.189" y="136.5" width="23" height="8" fill="green" />
<rect x="138.189" y="136.5" width="23" height="8" fill="green" />
<rect x="161.189" y="136.5" width="23" height="8" fill="green" />
<rect x="50.8083" y="128.5" width="23" height="8" fill="green" />
<rect x="73.8083" y="128.5" width="23" height="8" fill="green" />
<rect x="96.8083" y="128.5" width="23" height="8" fill="green" />
<rect x="119.808" y="128.5" width="23" height="8" fill="green" />
<rect x="142.808" y="128.5" width="23" height="8" fill="green" />
<rect x="165.808" y="128.5" width="23" height="8" fill="green" />
<rect x="55.4273" y="120.5" width="23" height="8" fill="green" />
<rect x="78.4273" y="120.5" width="23" height="8" fill="green" />
<rect x="101.427" y="120.5" width="23" height="8" fill="green" />
<rect x="124.427" y="120.5" width="23" height="8" fill="green" />
<rect x="147.427" y="120.5" width="23" height="8" fill="green" />
<rect x="170.427" y="120.5" width="23" height="8" fill="green" />
<rect x="60.0462" y="112.5" width="23" height="8" fill="green" />
<rect x="83.0462" y="112.5" width="23" height="8" fill="green" />
<rect x="106.046" y="112.5" width="23" height="8" fill="green" />
<rect x="129.046" y="112.5" width="23" height="8" fill="green" />
<rect x="152.046" y="112.5" width="23" height="8" fill="green" />
<rect x="64.6651" y="104.5" width="23" height="8" fill="green" />
<rect x="87.6651" y="104.5" width="23" height="8" fill="green" />
<rect x="110.665" y="104.5" width="23" height="8" fill="green" />
<rect x="133.665" y="104.5" width="23" height="8" fill="green" />
<rect x="156.665" y="104.5" width="23" height="8" fill="green" />
<rect x="69.2841" y="96.5" width="23" height="8" fill="green" />
<rect x="92.2841" y="96.5" width="23" height="8" fill="green" />
<rect x="115.284" y="96.5" width="23" height="8" fill="green" />
<rect x="138.284" y="96.5" width="23" height="8" fill="green" />
<rect x="73.903" y="88.5" width="23" height="8" fill="green" />
<rect x="96.903" y="88.5" width="23" height="8" fill="green" />
<rect x="119.903" y="88.5" width="23" height="8" fill="green" />
<rect x="142.903" y="88.5" width="23" height="8" fill="green" />
<rect x="78.5219" y="80.5" width="23" height="8" fill="green" />
<rect x="101.522" y="80.5" width="23" height="8" fill="green" />
<rect x="124.522" y="80.5" width="23" height="8" fill="green" />
<rect x="147.522" y="80.5" width="23" height="8" fill="green" />
<rect x="83.1409" y="72.5" width="23" height="8" fill="green" />
<rect x="106.141" y="72.5" width="23" height="8" fill="green" />
<rect x="129.141" y="72.5" width="23" height="8" fill="green" />
<rect x="87.7598" y="64.5" width="23" height="8" fill="green" />
<rect x="110.76" y="64.5" width="23" height="8" fill="green" />
<rect x="133.76" y="64.5" width="23" height="8" fill="green" />
<rect x="92.3788" y="56.5" width="23" height="8" fill="green" />
<rect x="115.379" y="56.5" width="23" height="8" fill="green" />
<rect x="96.9977" y="48.5" width="23" height="8" fill="green" />
<rect x="119.998" y="48.5" width="23" height="8" fill="green" />
<rect x="101.617" y="40.5" width="23" height="8" fill="green" />
<rect x="124.617" y="40.5" width="23" height="8" fill="green" />
<rect x="106.236" y="32.5" width="23" height="8" fill="green" />
<rect x="110.855" y="24.5" width="23" height="8" fill="green" />
</svg>