<svg version="1.1"
baseProfile="full"
width="150" height="330" xmlns="http://www.w3.org/2000/svg">
<rect width="100%" height="100%" fill="red" />
<rect x="0" y="0" width="23" height="8" fill="green" />
<rect x="0" y="8" width="23" height="8" fill="green" />
<rect x="0" y="16" width="23" height="8" fill="green" />
<rect x="0" y="24" width="23" height="8" fill="green" />
<rect x="0" y="32" width="23" height="8" fill="green" />
<rect x="0" y="40" width="23" height="8" fill="green" />
<rect x="0" y="48" width="23" height="8" fill="green" />
<rect x="0" y="56" width="23" height="8" fill="green" />
<rect x="0" y="64" width="23" height="8" fill="green" />
<rect x="0" y="72" width="23" height="8" fill="green" />
<rect x="0" y="80" width="23" height="8" fill="green" />
<rect x="0" y="88" width="23" height="8" fill="green" />
<rect x="0" y="96" width="23" height="8" fill="green" />
<rect x="0" y="104" width="23" height="8" fill="green" />
<rect x="0" y="112" width="23" height="8" fill="green" />
<rect x="0" y="120" width="23" height="8" fill="green" />
<rect x="0" y="128" width="23" height="8" fill="green" />
<rect x="0" y="136" width="23" height="8" fill="green" />
<rect x="0" y="144" width="23" height="8" fill="green" />
<rect x="0" y="152" width="23" height="8" fill="green" />
<rect x="0" y="160" width="23" height="8" fill="green" />
<rect x="0" y="168" width="23" height="8" fill="green" />
<rect x="0" y="176" width="23" height="8" fill="green" />
<rect x="0" y="184" width="23" height="8" fill="green" />
<rect x="0" y="192" width="23" height="8" fill="green" />
<rect x="0" y="200" width="23" height="8" fill="green" />
<rect x="0" y="208" width="23" height="8" fill="green" />
<rect x="0" y="216" width="23" height="8" fill="green" />
<rect x="0" y="224" width="23" height="8" fill="green" />
<rect x="0" y="232" width="23" height="8" fill="green" />
<rect x="0" y="240" width="23" height="8" fill="green" />
<rect x="0" y="248" width="23" height="8" fill="green" />
<rect x="0" y="256" width="23" height="8" fill="green" />
<rect x="0" y="264" width="23" height="8" fill="green" />
<rect x="0" y="272" width="23" height="8" fill="green" />
<rect x="0" y="280" width="23" height="8" fill="green" />
<rect x="0" y="288" width="23" height="8" fill="green" />
<rect x="0" y="296" width="23" height="8" fill="green" />
<rect x="0" y="304" width="23" height="8" fill="green" />
<rect x="0" y="312" width="23" height="8" fill="green" />
<rect x="0" y="320" width="23" height="8" fill="green" />
<rect x="8" y="0" width="23" height="8" fill="green" />
<rect x="8" y="8" width="23" height="8" fill="green" />
<rect x="8" y="16" width="23" height="8" fill="green" />
<rect x="8" y="24" width="23" height="8" fill="green" />
<rect x="8" y="32" width="23" height="8" fill="green" />
<rect x="8" y="40" width="23" height="8" fill="green" />
<rect x="8" y="48" width="23" height="8" fill="green" />
<rect x="8" y="56" width="23" height="8" fill="green" />
<rect x="8" y="64" width="23" height="8" fill="green" />
<rect x="8" y="72" width="23" height="8" fill="green" />
<rect x="8" y="80" width="23" height="8" fill="green" />
<rect x="8" y="88" width="23" height="8" fill="green" />
<rect x="8" y="96" width="23" height="8" fill="green" />
<rect x="8" y="104" width="23" height="8" fill="green" />
<rect x="8" y="112" width="23" height="8" fill="green" />
<rect x="8" y="120" width="23" height="8" fill="green" />
<rect x="8" y="128" width="23" height="8" fill="green" />
<rect x="8" y="136" width="23" height="8" fill="green" />
<rect x="8" y="144" width="23" height="8" fill="green" />
<rect x="8" y="152" width="23" height="8" fill="green" />
<rect x="8" y="160" width="23" height="8" fill="green" />
<rect x="8" y="168" width="23" height="8" fill="green" />
<rect x="8" y="176" width="23" height="8" fill="green" />
<rect x="8" y="184" width="23" height="8" fill="green" />
<rect x="8" y="192" width="23" height="8" fill="green" />
<rect x="8" y="200" width="23" height="8" fill="green" />
<rect x="8" y="208" width="23" height="8" fill="green" />
<rect x="8" y="216" width="23" height="8" fill="green" />
<rect x="8" y="224" width="23" height="8" fill="green" />
<rect x="8" y="232" width="23" height="8" fill="green" />
<rect x="8" y="240" width="23" height="8" fill="green" />
<rect x="8" y="248" width="23" height="8" fill="green" />
<rect x="8" y="256" width="23" height="8" fill="green" />
<rect x="8" y="264" width="23" height="8" fill="green" />
<rect x="8" y="272" width="23" height="8" fill="green" />
<rect x="8" y="280" width="23" height="8" fill="green" />
<rect x="8" y="288" width="23" height="8" fill="green" />
<rect x="8" y="296" width="23" height="8" fill="green" />
<rect x="8" y="304" width="23" height="8" fill="green" />
<rect x="8" y="312" width="23" height="8" fill="green" />
<rect x="8" y="320" width="23" height="8" fill="green" />
<rect x="16" y="0" width="23" height="8" fill="green" />
<rect x="16" y="8" width="23" height="8" fill="green" />
<rect x="16" y="16" width="23" height="8" fill="green" />
<rect x="16" y="24" width="23" height="8" fill="green" />
<rect x="16" y="32" width="23" height="8" fill="green" />
<rect x="16" y="40" width="23" height="8" fill="green" />
<rect x="16" y="48" width="23" height="8" fill="green" />
<rect x="16" y="56" width="23" height="8" fill="green" />
<rect x="16" y="64" width="23" height="8" fill="green" />
<rect x="16" y="72" width="23" height="8" fill="green" />
<rect x="16" y="80" width="23" height="8" fill="green" />
<rect x="16" y="88" width="23" height="8" fill="green" />
<rect x="16" y="96" width="23" height="8" fill="green" />
<rect x="16" y="104" width="23" height="8" fill="green" />
<rect x="16" y="112" width="23" height="8" fill="green" />
<rect x="16" y="120" width="23" height="8" fill="green" />
<rect x="16" y="128" width="23" height="8" fill="green" />
<rect x="16" y="136" width="23" height="8" fill="green" />
<rect x="16" y="144" width="23" height="8" fill="green" />
<rect x="16" y="152" width="23" height="8" fill="green" />
<rect x="16" y="160" width="23" height="8" fill="green" />
<rect x="16" y="168" width="23" height="8" fill="green" />
<rect x="16" y="176" width="23" height="8" fill="green" />
<rect x="16" y="184" width="23" height="8" fill="green" />
<rect x="16" y="192" width="23" height="8" fill="green" />
<rect x="16" y="200" width="23" height="8" fill="green" />
<rect x="16" y="208" width="23" height="8" fill="green" />
<rect x="16" y="216" width="23" height="8" fill="green" />
<rect x="16" y="224" width="23" height="8" fill="green" />
<rect x="16" y="232" width="23" height="8" fill="green" />
<rect x="16" y="240" width="23" height="8" fill="green" />
<rect x="16" y="248" width="23" height="8" fill="green" />
<rect x="16" y="256" width="23" height="8" fill="green" />
<rect x="16" y="264" width="23" height="8" fill="green" />
<rect x="16" y="272" width="23" height="8" fill="green" />
<rect x="16" y="280" width="23" height="8" fill="green" />
<rect x="16" y="288" width="23" height="8" fill="green" />
<rect x="16" y="296" width="23" height="8" fill="green" />
<rect x="16" y="304" width="23" height="8" fill="green" />
<rect x="16" y="312" width="23" height="8" fill="green" />
<rect x="16" y="320" width="23" height="8" fill="green" />
<rect x="24" y="0" width="23" height="8" fill="green" />
<rect x="24" y="8" width="23" height="8" fill="green" />
<rect x="24" y="16" width="23" height="8" fill="green" />
<rect x="24" y="24" width="23" height="8" fill="green" />
<rect x="24" y="32" width="23" height="8" fill="green" />
<rect x="24" y="40" width="23" height="8" fill="green" />
<rect x="24" y="48" width="23" height="8" fill="green" />
<rect x="24" y="56" width="23" height="8" fill="green" />
<rect x="24" y="64" width="23" height="8" fill="green" />
<rect x="24" y="72" width="23" height="8" fill="green" />
<rect x="24" y="80" width="23" height="8" fill="green" />
<rect x="24" y="88" width="23" height="8" fill="green" />
<rect x="24" y="96" width="23" height="8" fill="green" />
<rect x="24" y="104" width="23" height="8" fill="green" />
<rect x="24" y="112" width="23" height="8" fill="green" />
<rect x="24" y="120" width="23" height="8" fill="green" />
<rect x="24" y="128" width="23" height="8" fill="green" />
<rect x="24" y="136" width="23" height="8" fill="green" />
<rect x="24" y="144" width="23" height="8" fill="green" />
<rect x="24" y="152" width="23" height="8" fill="green" />
<rect x="24" y="160" width="23" height="8" fill="green" />
<rect x="24" y="168" width="23" height="8" fill="green" />
<rect x="24" y="176" width="23" height="8" fill="green" />
<rect x="24" y="184" width="23" height="8" fill="green" />
<rect x="24" y="192" width="23" height="8" fill="green" />
<rect x="24" y="200" width="23" height="8" fill="green" />
<rect x="24" y="208" width="23" height="8" fill="green" />
<rect x="24" y="216" width="23" height="8" fill="green" />
<rect x="24" y="224" width="23" height="8" fill="green" />
<rect x="24" y="232" width="23" height="8" fill="green" />
<rect x="24" y="240" width="23" height="8" fill="green" />
<rect x="24" y="248" width="23" height="8" fill="green" />
<rect x="24" y="256" width="23" height="8" fill="green" />
<rect x="24" y="264" width="23" height="8" fill="green" />
<rect x="24" y="272" width="23" height="8" fill="green" />
<rect x="24" y="280" width="23" height="8" fill="green" />
<rect x="24" y="288" width="23" height="8" fill="green" />
<rect x="24" y="296" width="23" height="8" fill="green" />
<rect x="24" y="304" width="23" height="8" fill="green" />
<rect x="24" y="312" width="23" height="8" fill="green" />
<rect x="24" y="320" width="23" height="8" fill="green" />
<rect x="32" y="0" width="23" height="8" fill="green" />
<rect x="32" y="8" width="23" height="8" fill="green" />
<rect x="32" y="16" width="23" height="8" fill="green" />
<rect x="32" y="24" width="23" height="8" fill="green" />
<rect x="32" y="32" width="23" height="8" fill="green" />
<rect x="32" y="40" width="23" height="8" fill="green" />
<rect x="32" y="48" width="23" height="8" fill="green" />
<rect x="32" y="56" width="23" height="8" fill="green" />
<rect x="32" y="64" width="23" height="8" fill="green" />
<rect x="32" y="72" width="23" height="8" fill="green" />
<rect x="32" y="80" width="23" height="8" fill="green" />
<rect x="32" y="88" width="23" height="8" fill="green" />
<rect x="32" y="96" width="23" height="8" fill="green" />
<rect x="32" y="104" width="23" height="8" fill="green" />
<rect x="32" y="112" width="23" height="8" fill="green" />
<rect x="32" y="120" width="23" height="8" fill="green" />
<rect x="32" y="128" width="23" height="8" fill="green" />
<rect x="32" y="136" width="23" height="8" fill="green" />
<rect x="32" y="144" width="23" height="8" fill="green" />
<rect x="32" y="152" width="23" height="8" fill="green" />
<rect x="32" y="160" width="23" height="8" fill="green" />
<rect x="32" y="168" width="23" height="8" fill="green" />
<rect x="32" y="176" width="23" height="8" fill="green" />
<rect x="32" y="184" width="23" height="8" fill="green" />
<rect x="32" y="192" width="23" height="8" fill="green" />
<rect x="32" y="200" width="23" height="8" fill="green" />
<rect x="32" y="208" width="23" height="8" fill="green" />
<rect x="32" y="216" width="23" height="8" fill="green" />
<rect x="32" y="224" width="23" height="8" fill="green" />
<rect x="32" y="232" width="23" height="8" fill="green" />
<rect x="32" y="240" width="23" height="8" fill="green" />
<rect x="32" y="248" width="23" height="8" fill="green" />
<rect x="32" y="256" width="23" height="8" fill="green" />
<rect x="32" y="264" width="23" height="8" fill="green" />
<rect x="32" y="272" width="23" height="8" fill="green" />
<rect x="32" y="280" width="23" height="8" fill="green" />
<rect x="32" y="288" width="23" height="8" fill="green" />
<rect x="32" y="296" width="23" height="8" fill="green" />
<rect x="32" y="304" width="23" height="8" fill="green" />
<rect x="32" y="312" width="23" height="8" fill="green" />
<rect x="32" y="320" width="23" height="8" fill="green" />
<rect x="40" y="0" width="23" height="8" fill="green" />
<rect x="40" y="8" width="23" height="8" fill="green" />
<rect x="40" y="16" width="23" height="8" fill="green" />
<rect x="40" y="24" width="23" height="8" fill="green" />
<rect x="40" y="32" width="23" height="8" fill="green" />
<rect x="40" y="40" width="23" height="8" fill="green" />
<rect x="40" y="48" width="23" height="8" fill="green" />
<rect x="40" y="56" width="23" height="8" fill="green" />
<rect x="40" y="64" width="23" height="8" fill="green" />
<rect x="40" y="72" width="23" height="8" fill="green" />
<rect x="40" y="80" width="23" height="8" fill="green" />
<rect x="40" y="88" width="23" height="8" fill="green" />
<rect x="40" y="96" width="23" height="8" fill="green" />
<rect x="40" y="104" width="23" height="8" fill="green" />
<rect x="40" y="112" width="23" height="8" fill="green" />
<rect x="40" y="120" width="23" height="8" fill="green" />
<rect x="40" y="128" width="23" height="8" fill="green" />
<rect x="40" y="136" width="23" height="8" fill="green" />
<rect x="40" y="144" width="23" height="8" fill="green" />
<rect x="40" y="152" width="23" height="8" fill="green" />
<rect x="40" y="160" width="23" height="8" fill="green" />
<rect x="40" y="168" width="23" height="8" fill="green" />
<rect x="40" y="176" width="23" height="8" fill="green" />
<rect x="40" y="184" width="23" height="8" fill="green" />
<rect x="40" y="192" width="23" height="8" fill="green" />
<rect x="40" y="200" width="23" height="8" fill="green" />
<rect x="40" y="208" width="23" height="8" fill="green" />
<rect x="40" y="216" width="23" height="8" fill="green" />
<rect x="40" y="224" width="23" height="8" fill="green" />
<rect x="40" y="232" width="23" height="8" fill="green" />
<rect x="40" y="240" width="23" height="8" fill="green" />
<rect x="40" y="248" width="23" height="8" fill="green" />
<rect x="40" y="256" width="23" height="8" fill="green" />
<rect x="40" y="264" width="23" height="8" fill="green" />
<rect x="40" y="272" width="23" height="8" fill="green" />
<rect x="40" y="280" width="23" height="8" fill="green" />
<rect x="40" y="288" width="23" height="8" fill="green" />
<rect x="40" y="296" width="23" height="8" fill="green" />
<rect x="40" y="304" width="23" height="8" fill="green" />
<rect x="40" y="312" width="23" height="8" fill="green" />
<rect x="40" y="320" width="23" height="8" fill="green" />
<rect x="48" y="0" width="23" height="8" fill="green" />
<rect x="48" y="8" width="23" height="8" fill="green" />
<rect x="48" y="16" width="23" height="8" fill="green" />
<rect x="48" y="24" width="23" height="8" fill="green" />
<rect x="48" y="32" width="23" height="8" fill="green" />
<rect x="48" y="40" width="23" height="8" fill="green" />
<rect x="48" y="48" width="23" height="8" fill="green" />
<rect x="48" y="56" width="23" height="8" fill="green" />
<rect x="48" y="64" width="23" height="8" fill="green" />
<rect x="48" y="72" width="23" height="8" fill="green" />
<rect x="48" y="80" width="23" height="8" fill="green" />
<rect x="48" y="88" width="23" height="8" fill="green" />
<rect x="48" y="96" width="23" height="8" fill="green" />
<rect x="48" y="104" width="23" height="8" fill="green" />
<rect x="48" y="112" width="23" height="8" fill="green" />
<rect x="48" y="120" width="23" height="8" fill="green" />
<rect x="48" y="128" width="23" height="8" fill="green" />
<rect x="48" y="136" width="23" height="8" fill="green" />
<rect x="48" y="144" width="23" height="8" fill="green" />
<rect x="48" y="152" width="23" height="8" fill="green" />
<rect x="48" y="160" width="23" height="8" fill="green" />
<rect x="48" y="168" width="23" height="8" fill="green" />
<rect x="48" y="176" width="23" height="8" fill="green" />
<rect x="48" y="184" width="23" height="8" fill="green" />
<rect x="48" y="192" width="23" height="8" fill="green" />
<rect x="48" y="200" width="23" height="8" fill="green" />
<rect x="48" y="208" width="23" height="8" fill="green" />
<rect x="48" y="216" width="23" height="8" fill="green" />
<rect x="48" y="224" width="23" height="8" fill="green" />
<rect x="48" y="232" width="23" height="8" fill="green" />
<rect x="48" y="240" width="23" height="8" fill="green" />
<rect x="48" y="248" width="23" height="8" fill="green" />
<rect x="48" y="256" width="23" height="8" fill="green" />
<rect x="48" y="264" width="23" height="8" fill="green" />
<rect x="48" y="272" width="23" height="8" fill="green" />
<rect x="48" y="280" width="23" height="8" fill="green" />
<rect x="48" y="288" width="23" height="8" fill="green" />
<rect x="48" y="296" width="23" height="8" fill="green" />
<rect x="48" y="304" width="23" height="8" fill="green" />
<rect x="48" y="312" width="23" height="8" fill="green" />
<rect x="48" y="320" width="23" height="8" fill="green" />
<rect x="56" y="0" width="23" height="8" fill="green" />
<rect x="56" y="8" width="23" height="8" fill="green" />
<rect x="56" y="16" width="23" height="8" fill="green" />
<rect x="56" y="24" width="23" height="8" fill="green" />
<rect x="56" y="32" width="23" height="8" fill="green" />
<rect x="56" y="40" width="23" height="8" fill="green" />
<rect x="56" y="48" width="23" height="8" fill="green" />
<rect x="56" y="56" width="23" height="8" fill="green" />
<rect x="56" y="64" width="23" height="8" fill="green" />
<rect x="56" y="72" width="23" height="8" fill="green" />
<rect x="56" y="80" width="23" height="8" fill="green" />
<rect x="56" y="88" width="23" height="8" fill="green" />
<rect x="56" y="96" width="23" height="8" fill="green" />
<rect x="56" y="104" width="23" height="8" fill="green" />
<rect x="56" y="112" width="23" height="8" fill="green" />
<rect x="56" y="120" width="23" height="8" fill="green" />
<rect x="56" y="128" width="23" height="8" fill="green" />
<rect x="56" y="136" width="23" height="8" fill="green" />
<rect x="56" y="144" width="23" height="8" fill="green" />
<rect x="56" y="152" width="23" height="8" fill="green" />
<rect x="56" y="160" width="23" height="8" fill="green" />
<rect x="56" y="168" width="23" height="8" fill="green" />
<rect x="56" y="176" width="23" height="8" fill="green" />
<rect x="56" y="184" width="23" height="8" fill="green" />
<rect x="56" y="192" width="23" height="8" fill="green" />
<rect x="56" y="200" width="23" height="8" fill="green" />
<rect x="56" y="208" width="23" height="8" fill="green" />
<rect x="56" y="216" width="23" height="8" fill="green" />
<rect x="56" y="224" width="23" height="8" fill="green" />
<rect x="56" y="232" width="23" height="8" fill="green" />
<rect x="56" y="240" width="23" height="8" fill="green" />
<rect x="56" y="248" width="23" height="8" fill="green" />
<rect x="56" y="256" width="23" height="8" fill="green" />
<rect x="56" y="264" width="23" height="8" fill="green" />
<rect x="56" y="272" width="23" height="8" fill="green" />
<rect x="56" y="280" width="23" height="8" fill="green" />
<rect x="56" y="288" width="23" height="8" fill="green" />
<rect x="56" y="296" width="23" height="8" fill="green" />
<rect x="56" y="304" width="23" height="8" fill="green" />
<rect x="56" y="312" width="23" height="8" fill="green" />
<rect x="56" y="320" width="23" height="8" fill="green" />
<rect x="64" y="0" width="23" height="8" fill="green" />
<rect x="64" y="8" width="23" height="8" fill="green" />
<rect x="64" y="16" width="23" height="8" fill="green" />
<rect x="64" y="24" width="23" height="8" fill="green" />
<rect x="64" y="32" width="23" height="8" fill="green" />
<rect x="64" y="40" width="23" height="8" fill="green" />
<rect x="64" y="48" width="23" height="8" fill="green" />
<rect x="64" y="56" width="23" height="8" fill="green" />
<rect x="64" y="64" width="23" height="8" fill="green" />
<rect x="64" y="72" width="23" height="8" fill="green" />
<rect x="64" y="80" width="23" height="8" fill="green" />
<rect x="64" y="88" width="23" height="8" fill="green" />
<rect x="64" y="96" width="23" height="8" fill="green" />
<rect x="64" y="104" width="23" height="8" fill="green" />
<rect x="64" y="112" width="23" height="8" fill="green" />
<rect x="64" y="120" width="23" height="8" fill="green" />
<rect x="64" y="128" width="23" height="8" fill="green" />
<rect x="64" y="136" width="23" height="8" fill="green" />
<rect x="64" y="144" width="23" height="8" fill="green" />
<rect x="64" y="152" width="23" height="8" fill="green" />
<rect x="64" y="160" width="23" height="8" fill="green" />
<rect x="64" y="168" width="23" height="8" fill="green" />
<rect x="64" y="176" width="23" height="8" fill="green" />
<rect x="64" y="184" width="23" height="8" fill="green" />
<rect x="64" y="192" width="23" height="8" fill="green" />
<rect x="64" y="200" width="23" height="8" fill="green" />
<rect x="64" y="208" width="23" height="8" fill="green" />
<rect x="64" y="216" width="23" height="8" fill="green" />
<rect x="64" y="224" width="23" height="8" fill="green" />
<rect x="64" y="232" width="23" height="8" fill="green" />
<rect x="64" y="240" width="23" height="8" fill="green" />
<rect x="64" y="248" width="23" height="8" fill="green" />
<rect x="64" y="256" width="23" height="8" fill="green" />
<rect x="64" y="264" width="23" height="8" fill="green" />
<rect x="64" y="272" width="23" height="8" fill="green" />
<rect x="64" y="280" width="23" height="8" fill="green" />
<rect x="64" y="288" width="23" height="8" fill="green" />
<rect x="64" y="296" width="23" height="8" fill="green" />
<rect x="64" y="304" width="23" height="8" fill="green" />
<rect x="64" y="312" width="23" height="8" fill="green" />
<rect x="64" y="320" width="23" height="8" fill="green" />
<rect x="72" y="0" width="23" height="8" fill="green" />
<rect x="72" y="8" width="23" height="8" fill="green" />
<rect x="72" y="16" width="23" height="8" fill="green" />
<rect x="72" y="24" width="23" height="8" fill="green" />
<rect x="72" y="32" width="23" height="8" fill="green" />
<rect x="72" y="40" width="23" height="8" fill="green" />
<rect x="72" y="48" width="23" height="8" fill="green" />
<rect x="72" y="56" width="23" height="8" fill="green" />
<rect x="72" y="64" width="23" height="8" fill="green" />
<rect x="72" y="72" width="23" height="8" fill="green" />
<rect x="72" y="80" width="23" height="8" fill="green" />
<rect x="72" y="88" width="23" height="8" fill="green" />
<rect x="72" y="96" width="23" height="8" fill="green" />
<rect x="72" y="104" width="23" height="8" fill="green" />
<rect x="72" y="112" width="23" height="8" fill="green" />
<rect x="72" y="120" width="23" height="8" fill="green" />
<rect x="72" y="128" width="23" height="8" fill="green" />
<rect x="72" y="136" width="23" height="8" fill="green" />
<rect x="72" y="144" width="23" height="8" fill="green" />
<rect x="72" y="152" width="23" height="8" fill="green" />
<rect x="72" y="160" width="23" height="8" fill="green" />
<rect x="72" y="168" width="23" height="8" fill="green" />
<rect x="72" y="176" width="23" height="8" fill="green" />
<rect x="72" y="184" width="23" height="8" fill="green" />
<rect x="72" y="192" width="23" height="8" fill="green" />
<rect x="72" y="200" width="23" height="8" fill="green" />
<rect x="72" y="208" width="23" height="8" fill="green" />
<rect x="72" y="216" width="23" height="8" fill="green" />
<rect x="72" y="224" width="23" height="8" fill="green" />
<rect x="72" y="232" width="23" height="8" fill="green" />
<rect x="72" y="240" width="23" height="8" fill="green" />
<rect x="72" y="248" width="23" height="8" fill="green" />
<rect x="72" y="256" width="23" height="8" fill="green" />
<rect x="72" y="264" width="23" height="8" fill="green" />
<rect x="72" y="272" width="23" height="8" fill="green" />
<rect x="72" y="280" width="23" height="8" fill="green" />
<rect x="72" y="288" width="23" height="8" fill="green" />
<rect x="72" y="296" width="23" height="8" fill="green" />
<rect x="72" y="304" width="23" height="8" fill="green" />
<rect x="72" y="312" width="23" height="8" fill="green" />
<rect x="72" y="320" width="23" height="8" fill="green" />
<rect x="80" y="0" width="23" height="8" fill="green" />
<rect x="80" y="8" width="23" height="8" fill="green" />
<rect x="80" y="16" width="23" height="8" fill="green" />
<rect x="80" y="24" width="23" height="8" fill="green" />
<rect x="80" y="32" width="23" height="8" fill="green" />
<rect x="80" y="40" width="23" height="8" fill="green" />
<rect x="80" y="48" width="23" height="8" fill="green" />
<rect x="80" y="56" width="23" height="8" fill="green" />
<rect x="80" y="64" width="23" height="8" fill="green" />
<rect x="80" y="72" width="23" height="8" fill="green" />
<rect x="80" y="80" width="23" height="8" fill="green" />
<rect x="80" y="88" width="23" height="8" fill="green" />
<rect x="80" y="96" width="23" height="8" fill="green" />
<rect x="80" y="104" width="23" height="8" fill="green" />
<rect x="80" y="112" width="23" height="8" fill="green" />
<rect x="80" y="120" width="23" height="8" fill="green" />
<rect x="80" y="128" width="23" height="8" fill="green" />
<rect x="80" y="136" width="23" height="8" fill="green" />
<rect x="80" y="144" width="23" height="8" fill="green" />
<rect x="80" y="152" width="23" height="8" fill="green" />
<rect x="80" y="160" width="23" height="8" fill="green" />
<rect x="80" y="168" width="23" height="8" fill="green" />
<rect x="80" y="176" width="23" height="8" fill="green" />
<rect x="80" y="184" width="23" height="8" fill="green" />
<rect x="80" y="192" width="23" height="8" fill="green" />
<rect x="80" y="200" width="23" height="8" fill="green" />
<rect x="80" y="208" width="23" height="8" fill="green" />
<rect x="80" y="216" width="23" height="8" fill="green" />
<rect x="80" y="224" width="23" height="8" fill="green" />
<rect x="80" y="232" width="23" height="8" fill="green" />
<rect x="80" y="240" width="23" height="8" fill="green" />
<rect x="80" y="248" width="23" height="8" fill="green" />
<rect x="80" y="256" width="23" height="8" fill="green" />
<rect x="80" y="264" width="23" height="8" fill="green" />
<rect x="80" y="272" width="23" height="8" fill="green" />
<rect x="80" y="280" width="23" height="8" fill="green" />
<rect x="80" y="288" width="23" height="8" fill="green" />
<rect x="80" y="296" width="23" height="8" fill="green" />
<rect x="80" y="304" width="23" height="8" fill="green" />
<rect x="80" y="312" width="23" height="8" fill="green" />
<rect x="80" y="320" width="23" height="8" fill="green" />
<rect x="88" y="0" width="23" height="8" fill="green" />
<rect x="88" y="8" width="23" height="8" fill="green" />
<rect x="88" y="16" width="23" height="8" fill="green" />
<rect x="88" y="24" width="23" height="8" fill="green" />
<rect x="88" y="32" width="23" height="8" fill="green" />
<rect x="88" y="40" width="23" height="8" fill="green" />
<rect x="88" y="48" width="23" height="8" fill="green" />
<rect x="88" y="56" width="23" height="8" fill="green" />
<rect x="88" y="64" width="23" height="8" fill="green" />
<rect x="88" y="72" width="23" height="8" fill="green" />
<rect x="88" y="80" width="23" height="8" fill="green" />
<rect x="88" y="88" width="23" height="8" fill="green" />
<rect x="88" y="96" width="23" height="8" fill="green" />
<rect x="88" y="104" width="23" height="8" fill="green" />
<rect x="88" y="112" width="23" height="8" fill="green" />
<rect x="88" y="120" width="23" height="8" fill="green" />
<rect x="88" y="128" width="23" height="8" fill="green" />
<rect x="88" y="136" width="23" height="8" fill="green" />
<rect x="88" y="144" width="23" height="8" fill="green" />
<rect x="88" y="152" width="23" height="8" fill="green" />
<rect x="88" y="160" width="23" height="8" fill="green" />
<rect x="88" y="168" width="23" height="8" fill="green" />
<rect x="88" y="176" width="23" height="8" fill="green" />
<rect x="88" y="184" width="23" height="8" fill="green" />
<rect x="88" y="192" width="23" height="8" fill="green" />
<rect x="88" y="200" width="23" height="8" fill="green" />
<rect x="88" y="208" width="23" height="8" fill="green" />
<rect x="88" y="216" width="23" height="8" fill="green" />
<rect x="88" y="224" width="23" height="8" fill="green" />
<rect x="88" y="232" width="23" height="8" fill="green" />
<rect x="88" y="240" width="23" height="8" fill="green" />
<rect x="88" y="248" width="23" height="8" fill="green" />
<rect x="88" y="256" width="23" height="8" fill="green" />
<rect x="88" y="264" width="23" height="8" fill="green" />
<rect x="88" y="272" width="23" height="8" fill="green" />
<rect x="88" y="280" width="23" height="8" fill="green" />
<rect x="88" y="288" width="23" height="8" fill="green" />
<rect x="88" y="296" width="23" height="8" fill="green" />
<rect x="88" y="304" width="23" height="8" fill="green" />
<rect x="88" y="312" width="23" height="8" fill="green" />
<rect x="88" y="320" width="23" height="8" fill="green" />
<rect x="96" y="0" width="23" height="8" fill="green" />
<rect x="96" y="8" width="23" height="8" fill="green" />
<rect x="96" y="16" width="23" height="8" fill="green" />
<rect x="96" y="24" width="23" height="8" fill="green" />
<rect x="96" y="32" width="23" height="8" fill="green" />
<rect x="96" y="40" width="23" height="8" fill="green" />
<rect x="96" y="48" width="23" height="8" fill="green" />
<rect x="96" y="56" width="23" height="8" fill="green" />
<rect x="96" y="64" width="23" height="8" fill="green" />
<rect x="96" y="72" width="23" height="8" fill="green" />
<rect x="96" y="80" width="23" height="8" fill="green" />
<rect x="96" y="88" width="23" height="8" fill="green" />
<rect x="96" y="96" width="23" height="8" fill="green" />
<rect x="96" y="104" width="23" height="8" fill="green" />
<rect x="96" y="112" width="23" height="8" fill="green" />
<rect x="96" y="120" width="23" height="8" fill="green" />
<rect x="96" y="128" width="23" height="8" fill="green" />
<rect x="96" y="136" width="23" height="8" fill="green" />
<rect x="96" y="144" width="23" height="8" fill="green" />
<rect x="96" y="152" width="23" height="8" fill="green" />
<rect x="96" y="160" width="23" height="8" fill="green" />
<rect x="96" y="168" width="23" height="8" fill="green" />
<rect x="96" y="176" width="23" height="8" fill="green" />
<rect x="96" y="184" width="23" height="8" fill="green" />
<rect x="96" y="192" width="23" height="8" fill="green" />
<rect x="96" y="200" width="23" height="8" fill="green" />
<rect x="96" y="208" width="23" height="8" fill="green" />
<rect x="96" y="216" width="23" height="8" fill="green" />
<rect x="96" y="224" width="23" height="8" fill="green" />
<rect x="96" y="232" width="23" height="8" fill="green" />
<rect x="96" y="240" width="23" height="8" fill="green" />
<rect x="96" y="248" width="23" height="8" fill="green" />
<rect x="96" y="256" width="23" height="8" fill="green" />
<rect x="96" y="264" width="23" height="8" fill="green" />
<rect x="96" y="272" width="23" height="8" fill="green" />
<rect x="96" y="280" width="23" height="8" fill="green" />
<rect x="96" y="288" width="23" height="8" fill="green" />
<rect x="96" y="296" width="23" height="8" fill="green" />
<rect x="96" y="304" width="23" height="8" fill="green" />
<rect x="96" y="312" width="23" height="8" fill="green" />
<rect x="96" y="320" width="23" height="8" fill="green" />
<rect x="104" y="0" width="23" height="8" fill="green" />
<rect x="104" y="8" width="23" height="8" fill="green" />
<rect x="104" y="16" width="23" height="8" fill="green" />
<rect x="104" y="24" width="23" height="8" fill="green" />
<rect x="104" y="32" width="23" height="8" fill="green" />
<rect x="104" y="40" width="23" height="8" fill="green" />
<rect x="104" y="48" width="23" height="8" fill="green" />
<rect x="104" y="56" width="23" height="8" fill="green" />
<rect x="104" y="64" width="23" height="8" fill="green" />
<rect x="104" y="72" width="23" height="8" fill="green" />
<rect x="104" y="80" width="23" height="8" fill="green" />
<rect x="104" y="88" width="23" height="8" fill="green" />
<rect x="104" y="96" width="23" height="8" fill="green" />
<rect x="104" y="104" width="23" height="8" fill="green" />
<rect x="104" y="112" width="23" height="8" fill="green" />
<rect x="104" y="120" width="23" height="8" fill="green" />
<rect x="104" y="128" width="23" height="8" fill="green" />
<rect x="104" y="136" width="23" height="8" fill="green" />
<rect x="104" y="144" width="23" height="8" fill="green" />
<rect x="104" y="152" width="23" height="8" fill="green" />
<rect x="104" y="160" width="23" height="8" fill="green" />
<rect x="104" y="168" width="23" height="8" fill="green" />
<rect x="104" y="176" width="23" height="8" fill="green" />
<rect x="104" y="184" width="23" height="8" fill="green" />
<rect x="104" y="192" width="23" height="8" fill="green" />
<rect x="104" y="200" width="23" height="8" fill="green" />
<rect x="104" y="208" width="23" height="8" fill="green" />
<rect x="104" y="216" width="23" height="8" fill="green" />
<rect x="104" y="224" width="23" height="8" fill="green" />
<rect x="104" y="232" width="23" height="8" fill="green" />
<rect x="104" y="240" width="23" height="8" fill="green" />
<rect x="104" y="248" width="23" height="8" fill="green" />
<rect x="104" y="256" width="23" height="8" fill="green" />
<rect x="104" y="264" width="23" height="8" fill="green" />
<rect x="104" y="272" width="23" height="8" fill="green" />
<rect x="104" y="280" width="23" height="8" fill="green" />
<rect x="104" y="288" width="23" height="8" fill="green" />
<rect x="104" y="296" width="23" height="8" fill="green" />
<rect x="104" y="304" width="23" height="8" fill="green" />
<rect x="104" y="312" width="23" height="8" fill="green" />
<rect x="104" y="320" width="23" height="8" fill="green" />
<rect x="112" y="0" width="23" height="8" fill="green" />
<rect x="112" y="8" width="23" height="8" fill="green" />
<rect x="112" y="16" width="23" height="8" fill="green" />
<rect x="112" y="24" width="23" height="8" fill="green" />
<rect x="112" y="32" width="23" height="8" fill="green" />
<rect x="112" y="40" width="23" height="8" fill="green" />
<rect x="112" y="48" width="23" height="8" fill="green" />
<rect x="112" y="56" width="23" height="8" fill="green" />
<rect x="112" y="64" width="23" height="8" fill="green" />
<rect x="112" y="72" width="23" height="8" fill="green" />
<rect x="112" y="80" width="23" height="8" fill="green" />
<rect x="112" y="88" width="23" height="8" fill="green" />
<rect x="112" y="96" width="23" height="8" fill="green" />
<rect x="112" y="104" width="23" height="8" fill="green" />
<rect x="112" y="112" width="23" height="8" fill="green" />
<rect x="112" y="120" width="23" height="8" fill="green" />
<rect x="112" y="128" width="23" height="8" fill="green" />
<rect x="112" y="136" width="23" height="8" fill="green" />
<rect x="112" y="144" width="23" height="8" fill="green" />
<rect x="112" y="152" width="23" height="8" fill="green" />
<rect x="112" y="160" width="23" height="8" fill="green" />
<rect x="112" y="168" width="23" height="8" fill="green" />
<rect x="112" y="176" width="23" height="8" fill="green" />
<rect x="112" y="184" width="23" height="8" fill="green" />
<rect x="112" y="192" width="23" height="8" fill="green" />
<rect x="112" y="200" width="23" height="8" fill="green" />
<rect x="112" y="208" width="23" height="8" fill="green" />
<rect x="112" y="216" width="23" height="8" fill="green" />
<rect x="112" y="224" width="23" height="8" fill="green" />
<rect x="112" y="232" width="23" height="8" fill="green" />
<rect x="112" y="240" width="23" height="8" fill="green" />
<rect x="112" y="248" width="23" height="8" fill="green" />
<rect x="112" y="256" width="23" height="8" fill="green" />
<rect x="112" y="264" width="23" height="8" fill="green" />
<rect x="112" y="272" width="23" height="8" fill="green" />
<rect x="112" y="280" width="23" height="8" fill="green" />
<rect x="112" y="288" width="23" height="8" fill="green" />
<rect x="112" y="296" width="23" height="8" fill="green" />
<rect x="112" y="304" width="23" height="8" fill="green" />
<rect x="112" y="312" width="23" height="8" fill="green" />
<rect x="112" y="320" width="23" height="8" fill="green" />
<rect x="120" y="0" width="23" height="8" fill="green" />
<rect x="120" y="8" width="23" height="8" fill="green" />
<rect x="120" y="16" width="23" height="8" fill="green" />
<rect x="120" y="24" width="23" height="8" fill="green" />
<rect x="120" y="32" width="23" height="8" fill="green" />
<rect x="120" y="40" width="23" height="8" fill="green" />
<rect x="120" y="48" width="23" height="8" fill="green" />
<rect x="120" y="56" width="23" height="8" fill="green" />
<rect x="120" y="64" width="23" height="8" fill="green" />
<rect x="120" y="72" width="23" height="8" fill="green" />
<rect x="120" y="80" width="23" height="8" fill="green" />
<rect x="120" y="88" width="23" height="8" fill="green" />
<rect x="120" y="96" width="23" height="8" fill="green" />
<rect x="120" y="104" width="23" height="8" fill="green" />
<rect x="120" y="112" width="23" height="8" fill="green" />
<rect x="120" y="120" width="23" height="8" fill="green" />
<rect x="120" y="128" width="23" height="8" fill="green" />
<rect x="120" y="136" width="23" height="8" fill="green" />
<rect x="120" y="144" width="23" height="8" fill="green" />
<rect x="120" y="152" width="23" height="8" fill="green" />
<rect x="120" y="160" width="23" height="8" fill="green" />
<rect x="120" y="168" width="23" height="8" fill="green" />
<rect x="120" y="176" width="23" height="8" fill="green" />
<rect x="120" y="184" width="23" height="8" fill="green" />
<rect x="120" y="192" width="23" height="8" fill="green" />
<rect x="120" y="200" width="23" height="8" fill="green" />
<rect x="120" y="208" width="23" height="8" fill="green" />
<rect x="120" y="216" width="23" height="8" fill="green" />
<rect x="120" y="224" width="23" height="8" fill="green" />
<rect x="120" y="232" width="23" height="8" fill="green" />
<rect x="120" y="240" width="23" height="8" fill="green" />
<rect x="120" y="248" width="23" height="8" fill="green" />
<rect x="120" y="256" width="23" height="8" fill="green" />
<rect x="120" y="264" width="23" height="8" fill="green" />
<rect x="120" y="272" width="23" height="8" fill="green" />
<rect x="120" y="280" width="23" height="8" fill="green" />
<rect x="120" y="288" width="23" height="8" fill="green" />
<rect x="120" y="296" width="23" height="8" fill="green" />
<rect x="120" y="304" width="23" height="8" fill="green" />
<rect x="120" y="312" width="23" height="8" fill="green" />
<rect x="120" y="320" width="23" height="8" fill="green" />
<rect x="128" y="0" width="8" height="23" fill="green" />
<rect x="128" y="23" width="8" height="23" fill="green" />
<rect x="128" y="46" width="8" height="23" fill="green" />
<rect x="128" y="69" width="8" height="23" fill="green" />
<rect x="128" y="92" width="8" height="23" fill="green" />
<rect x="128" y="115" width="8" height="23" fill="green" />
<rect x="128" y="138" width="8" height="23" fill="green" />
<rect x="128" y="161" width="8" height="23" fill="green" />
<rect x="128" y="184" width="8" height="23" fill="green" />
<rect x="128" y="207" width="8" height="23" fill="green" />
<rect x="128" y="230" width="8" height="23" fill="green" />
<rect x="128" y="253" width="8" height="23" fill="green" />
<rect x="128" y="276" width="8" height="23" fill="green" />
<rect x="128" y="299" width="8" height="23" fill="green" />
<rect x="136" y="0" width="8" height="23" fill="green" />
<rect x="136" y="23" width="8" height="23" fill="green" />
<rect x="136" y="46" width="8" height="23" fill="green" />
<rect x="136" y="69" width="8" height="23" fill="green" />
<rect x="136" y="92" width="8" height="23" fill="green" />
<rect x="136" y="115" width="8" height="23" fill="green" />
<rect x="136" y="138" width="8" height="23" fill="green" />
<rect x="136" y="161" width="8" height="23" fill="green" />
<rect x="136" y="184" width="8" height="23" fill="green" />
<rect x="136" y="207" width="8" height="23" fill="green" />
<rect x="136" y="230" width="8" height="23" fill="green" />
<rect x="136" y="253" width="8" height="23" fill="green" />
<rect x="136" y="276" width="8" height="23" fill="green" />
<rect x="136" y="299" width="8" height="23" fill="green" />
</svg>