<svg version="1.1"
baseProfile="full" width="100%" height="100%"
xmlns="http://www.w3.org/2000/svg">
    	<polygon points=" 125,0 0,216.5 250,216.5" stroke="black" fill="red" />
<polygon points=" 125,0 135,17.32 115,17.32" fill="green" stroke="black" transform="rotate(0,0,0)" />
<polygon points=" 125,34.64 135,17.32 115,17.32" fill="green" stroke="black" transform="rotate(0,0,0)" />
<polygon points=" 115,17.32 125,34.64 105,34.64" fill="green" stroke="black" transform="rotate(0,0,0)" />
<polygon points=" 115,51.96 125,34.64 105,34.64" fill="green" stroke="black" transform="rotate(0,0,0)" />
<polygon points=" 135,17.32 145,34.64 125,34.64" fill="green" stroke="black" transform="rotate(0,0,0)" />
<polygon points=" 135,51.96 145,34.64 125,34.64" fill="green" stroke="black" transform="rotate(0,0,0)" />
<polygon points=" 105,34.64 115,51.96 95,51.96" fill="green" stroke="black" transform="rotate(0,0,0)" />
<polygon points=" 105,69.28 115,51.96 95,51.96" fill="green" stroke="black" transform="rotate(0,0,0)" />
<polygon points=" 125,34.64 135,51.96 115,51.96" fill="green" stroke="black" transform="rotate(0,0,0)" />
<polygon points=" 125,69.28 135,51.96 115,51.96" fill="green" stroke="black" transform="rotate(0,0,0)" />
<polygon points=" 145,34.64 155,51.96 135,51.96" fill="green" stroke="black" transform="rotate(0,0,0)" />
<polygon points=" 145,69.28 155,51.96 135,51.96" fill="green" stroke="black" transform="rotate(0,0,0)" />
<polygon points=" 95,51.96 105,69.28 85,69.28" fill="green" stroke="black" transform="rotate(0,0,0)" />
<polygon points=" 95,86.6 105,69.28 85,69.28" fill="green" stroke="black" transform="rotate(0,0,0)" />
<polygon points=" 115,51.96 125,69.28 105,69.28" fill="green" stroke="black" transform="rotate(0,0,0)" />
<polygon points=" 115,86.6 125,69.28 105,69.28" fill="green" stroke="black" transform="rotate(0,0,0)" />
<polygon points=" 135,51.96 145,69.28 125,69.28" fill="green" stroke="black" transform="rotate(0,0,0)" />
<polygon points=" 135,86.6 145,69.28 125,69.28" fill="green" stroke="black" transform="rotate(0,0,0)" />
<polygon points=" 155,51.96 165,69.28 145,69.28" fill="green" stroke="black" transform="rotate(0,0,0)" />
<polygon points=" 155,86.6 165,69.28 145,69.28" fill="green" stroke="black" transform="rotate(0,0,0)" />
<polygon points=" 85,69.28 95,86.6 75,86.6" fill="green" stroke="black" transform="rotate(0,0,0)" />
<polygon points=" 85,103.92 95,86.6 75,86.6" fill="green" stroke="black" transform="rotate(0,0,0)" />
<polygon points=" 105,69.28 115,86.6 95,86.6" fill="green" stroke="black" transform="rotate(0,0,0)" />
<polygon points=" 105,103.92 115,86.6 95,86.6" fill="green" stroke="black" transform="rotate(0,0,0)" />
<polygon points=" 125,69.28 135,86.6 115,86.6" fill="green" stroke="black" transform="rotate(0,0,0)" />
<polygon points=" 125,103.92 135,86.6 115,86.6" fill="green" stroke="black" transform="rotate(0,0,0)" />
<polygon points=" 145,69.28 155,86.6 135,86.6" fill="green" stroke="black" transform="rotate(0,0,0)" />
<polygon points=" 145,103.92 155,86.6 135,86.6" fill="green" stroke="black" transform="rotate(0,0,0)" />
<polygon points=" 165,69.28 175,86.6 155,86.6" fill="green" stroke="black" transform="rotate(0,0,0)" />
<polygon points=" 165,103.92 175,86.6 155,86.6" fill="green" stroke="black" transform="rotate(0,0,0)" />
<polygon points=" 75,86.6 85,103.92 65,103.92" fill="green" stroke="black" transform="rotate(0,0,0)" />
<polygon points=" 75,121.24 85,103.92 65,103.92" fill="green" stroke="black" transform="rotate(0,0,0)" />
<polygon points=" 95,86.6 105,103.92 85,103.92" fill="green" stroke="black" transform="rotate(0,0,0)" />
<polygon points=" 95,121.24 105,103.92 85,103.92" fill="green" stroke="black" transform="rotate(0,0,0)" />
<polygon points=" 115,86.6 125,103.92 105,103.92" fill="green" stroke="black" transform="rotate(0,0,0)" />
<polygon points=" 115,121.24 125,103.92 105,103.92" fill="green" stroke="black" transform="rotate(0,0,0)" />
<polygon points=" 135,86.6 145,103.92 125,103.92" fill="green" stroke="black" transform="rotate(0,0,0)" />
<polygon points=" 135,121.24 145,103.92 125,103.92" fill="green" stroke="black" transform="rotate(0,0,0)" />
<polygon points=" 155,86.6 165,103.92 145,103.92" fill="green" stroke="black" transform="rotate(0,0,0)" />
<polygon points=" 155,121.24 165,103.92 145,103.92" fill="green" stroke="black" transform="rotate(0,0,0)" />
<polygon points=" 175,86.6 185,103.92 165,103.92" fill="green" stroke="black" transform="rotate(0,0,0)" />
<polygon points=" 175,121.24 185,103.92 165,103.92" fill="green" stroke="black" transform="rotate(0,0,0)" />
<polygon points=" 65,103.92 75,121.24 55,121.24" fill="green" stroke="black" transform="rotate(0,0,0)" />
<polygon points=" 65,138.56 75,121.24 55,121.24" fill="green" stroke="black" transform="rotate(0,0,0)" />
<polygon points=" 85,103.92 95,121.24 75,121.24" fill="green" stroke="black" transform="rotate(0,0,0)" />
<polygon points=" 85,138.56 95,121.24 75,121.24" fill="green" stroke="black" transform="rotate(0,0,0)" />
<polygon points=" 105,103.92 115,121.24 95,121.24" fill="green" stroke="black" transform="rotate(0,0,0)" />
<polygon points=" 105,138.56 115,121.24 95,121.24" fill="green" stroke="black" transform="rotate(0,0,0)" />
<polygon points=" 125,103.92 135,121.24 115,121.24" fill="green" stroke="black" transform="rotate(0,0,0)" />
<polygon points=" 125,138.56 135,121.24 115,121.24" fill="green" stroke="black" transform="rotate(0,0,0)" />
<polygon points=" 145,103.92 155,121.24 135,121.24" fill="green" stroke="black" transform="rotate(0,0,0)" />
<polygon points=" 145,138.56 155,121.24 135,121.24" fill="green" stroke="black" transform="rotate(0,0,0)" />
<polygon points=" 165,103.92 175,121.24 155,121.24" fill="green" stroke="black" transform="rotate(0,0,0)" />
<polygon points=" 165,138.56 175,121.24 155,121.24" fill="green" stroke="black" transform="rotate(0,0,0)" />
<polygon points=" 185,103.92 195,121.24 175,121.24" fill="green" stroke="black" transform="rotate(0,0,0)" />
<polygon points=" 185,138.56 195,121.24 175,121.24" fill="green" stroke="black" transform="rotate(0,0,0)" />
<polygon points=" 55,121.24 65,138.56 45,138.56" fill="green" stroke="black" transform="rotate(0,0,0)" />
<polygon points=" 55,155.88 65,138.56 45,138.56" fill="green" stroke="black" transform="rotate(0,0,0)" />
<polygon points=" 75,121.24 85,138.56 65,138.56" fill="green" stroke="black" transform="rotate(0,0,0)" />
<polygon points=" 75,155.88 85,138.56 65,138.56" fill="green" stroke="black" transform="rotate(0,0,0)" />
<polygon points=" 95,121.24 105,138.56 85,138.56" fill="green" stroke="black" transform="rotate(0,0,0)" />
<polygon points=" 95,155.88 105,138.56 85,138.56" fill="green" stroke="black" transform="rotate(0,0,0)" />
<polygon points=" 115,121.24 125,138.56 105,138.56" fill="green" stroke="black" transform="rotate(0,0,0)" />
<polygon points=" 115,155.88 125,138.56 105,138.56" fill="green" stroke="black" transform="rotate(0,0,0)" />
<polygon points=" 135,121.24 145,138.56 125,138.56" fill="green" stroke="black" transform="rotate(0,0,0)" />
<polygon points=" 135,155.88 145,138.56 125,138.56" fill="green" stroke="black" transform="rotate(0,0,0)" />
<polygon points=" 155,121.24 165,138.56 145,138.56" fill="green" stroke="black" transform="rotate(0,0,0)" />
<polygon points=" 155,155.88 165,138.56 145,138.56" fill="green" stroke="black" transform="rotate(0,0,0)" />
<polygon points=" 175,121.24 185,138.56 165,138.56" fill="green" stroke="black" transform="rotate(0,0,0)" />
<polygon points=" 175,155.88 185,138.56 165,138.56" fill="green" stroke="black" transform="rotate(0,0,0)" />
<polygon points=" 195,121.24 205,138.56 185,138.56" fill="green" stroke="black" transform="rotate(0,0,0)" />
<polygon points=" 195,155.88 205,138.56 185,138.56" fill="green" stroke="black" transform="rotate(0,0,0)" />
<polygon points=" 45,138.56 55,155.88 35,155.88" fill="green" stroke="black" transform="rotate(0,0,0)" />
<polygon points=" 45,173.2 55,155.88 35,155.88" fill="green" stroke="black" transform="rotate(0,0,0)" />
<polygon points=" 65,138.56 75,155.88 55,155.88" fill="green" stroke="black" transform="rotate(0,0,0)" />
<polygon points=" 65,173.2 75,155.88 55,155.88" fill="green" stroke="black" transform="rotate(0,0,0)" />
<polygon points=" 85,138.56 95,155.88 75,155.88" fill="green" stroke="black" transform="rotate(0,0,0)" />
<polygon points=" 85,173.2 95,155.88 75,155.88" fill="green" stroke="black" transform="rotate(0,0,0)" />
<polygon points=" 105,138.56 115,155.88 95,155.88" fill="green" stroke="black" transform="rotate(0,0,0)" />
<polygon points=" 105,173.2 115,155.88 95,155.88" fill="green" stroke="black" transform="rotate(0,0,0)" />
<polygon points=" 125,138.56 135,155.88 115,155.88" fill="green" stroke="black" transform="rotate(0,0,0)" />
<polygon points=" 125,173.2 135,155.88 115,155.88" fill="green" stroke="black" transform="rotate(0,0,0)" />
<polygon points=" 145,138.56 155,155.88 135,155.88" fill="green" stroke="black" transform="rotate(0,0,0)" />
<polygon points=" 145,173.2 155,155.88 135,155.88" fill="green" stroke="black" transform="rotate(0,0,0)" />
<polygon points=" 165,138.56 175,155.88 155,155.88" fill="green" stroke="black" transform="rotate(0,0,0)" />
<polygon points=" 165,173.2 175,155.88 155,155.88" fill="green" stroke="black" transform="rotate(0,0,0)" />
<polygon points=" 185,138.56 195,155.88 175,155.88" fill="green" stroke="black" transform="rotate(0,0,0)" />
<polygon points=" 185,173.2 195,155.88 175,155.88" fill="green" stroke="black" transform="rotate(0,0,0)" />
<polygon points=" 205,138.56 215,155.88 195,155.88" fill="green" stroke="black" transform="rotate(0,0,0)" />
<polygon points=" 205,173.2 215,155.88 195,155.88" fill="green" stroke="black" transform="rotate(0,0,0)" />
<polygon points=" 35,155.88 45,173.2 25,173.2" fill="green" stroke="black" transform="rotate(0,0,0)" />
<polygon points=" 35,190.52 45,173.2 25,173.2" fill="green" stroke="black" transform="rotate(0,0,0)" />
<polygon points=" 55,155.88 65,173.2 45,173.2" fill="green" stroke="black" transform="rotate(0,0,0)" />
<polygon points=" 55,190.52 65,173.2 45,173.2" fill="green" stroke="black" transform="rotate(0,0,0)" />
<polygon points=" 75,155.88 85,173.2 65,173.2" fill="green" stroke="black" transform="rotate(0,0,0)" />
<polygon points=" 75,190.52 85,173.2 65,173.2" fill="green" stroke="black" transform="rotate(0,0,0)" />
<polygon points=" 95,155.88 105,173.2 85,173.2" fill="green" stroke="black" transform="rotate(0,0,0)" />
<polygon points=" 95,190.52 105,173.2 85,173.2" fill="green" stroke="black" transform="rotate(0,0,0)" />
<polygon points=" 115,155.88 125,173.2 105,173.2" fill="green" stroke="black" transform="rotate(0,0,0)" />
<polygon points=" 115,190.52 125,173.2 105,173.2" fill="green" stroke="black" transform="rotate(0,0,0)" />
<polygon points=" 135,155.88 145,173.2 125,173.2" fill="green" stroke="black" transform="rotate(0,0,0)" />
<polygon points=" 135,190.52 145,173.2 125,173.2" fill="green" stroke="black" transform="rotate(0,0,0)" />
<polygon points=" 155,155.88 165,173.2 145,173.2" fill="green" stroke="black" transform="rotate(0,0,0)" />
<polygon points=" 155,190.52 165,173.2 145,173.2" fill="green" stroke="black" transform="rotate(0,0,0)" />
<polygon points=" 175,155.88 185,173.2 165,173.2" fill="green" stroke="black" transform="rotate(0,0,0)" />
<polygon points=" 175,190.52 185,173.2 165,173.2" fill="green" stroke="black" transform="rotate(0,0,0)" />
<polygon points=" 195,155.88 205,173.2 185,173.2" fill="green" stroke="black" transform="rotate(0,0,0)" />
<polygon points=" 195,190.52 205,173.2 185,173.2" fill="green" stroke="black" transform="rotate(0,0,0)" />
<polygon points=" 215,155.88 225,173.2 205,173.2" fill="green" stroke="black" transform="rotate(0,0,0)" />
<polygon points=" 215,190.52 225,173.2 205,173.2" fill="green" stroke="black" transform="rotate(0,0,0)" />
<polygon points=" 25,173.2 35,190.52 15,190.52" fill="green" stroke="black" transform="rotate(0,0,0)" />
<polygon points=" 25,207.84 35,190.52 15,190.52" fill="green" stroke="black" transform="rotate(0,0,0)" />
<polygon points=" 45,173.2 55,190.52 35,190.52" fill="green" stroke="black" transform="rotate(0,0,0)" />
<polygon points=" 45,207.84 55,190.52 35,190.52" fill="green" stroke="black" transform="rotate(0,0,0)" />
<polygon points=" 65,173.2 75,190.52 55,190.52" fill="green" stroke="black" transform="rotate(0,0,0)" />
<polygon points=" 65,207.84 75,190.52 55,190.52" fill="green" stroke="black" transform="rotate(0,0,0)" />
<polygon points=" 85,173.2 95,190.52 75,190.52" fill="green" stroke="black" transform="rotate(0,0,0)" />
<polygon points=" 85,207.84 95,190.52 75,190.52" fill="green" stroke="black" transform="rotate(0,0,0)" />
<polygon points=" 105,173.2 115,190.52 95,190.52" fill="green" stroke="black" transform="rotate(0,0,0)" />
<polygon points=" 105,207.84 115,190.52 95,190.52" fill="green" stroke="black" transform="rotate(0,0,0)" />
<polygon points=" 125,173.2 135,190.52 115,190.52" fill="green" stroke="black" transform="rotate(0,0,0)" />
<polygon points=" 125,207.84 135,190.52 115,190.52" fill="green" stroke="black" transform="rotate(0,0,0)" />
<polygon points=" 145,173.2 155,190.52 135,190.52" fill="green" stroke="black" transform="rotate(0,0,0)" />
<polygon points=" 145,207.84 155,190.52 135,190.52" fill="green" stroke="black" transform="rotate(0,0,0)" />
<polygon points=" 165,173.2 175,190.52 155,190.52" fill="green" stroke="black" transform="rotate(0,0,0)" />
<polygon points=" 165,207.84 175,190.52 155,190.52" fill="green" stroke="black" transform="rotate(0,0,0)" />
<polygon points=" 185,173.2 195,190.52 175,190.52" fill="green" stroke="black" transform="rotate(0,0,0)" />
<polygon points=" 185,207.84 195,190.52 175,190.52" fill="green" stroke="black" transform="rotate(0,0,0)" />
<polygon points=" 205,173.2 215,190.52 195,190.52" fill="green" stroke="black" transform="rotate(0,0,0)" />
<polygon points=" 205,207.84 215,190.52 195,190.52" fill="green" stroke="black" transform="rotate(0,0,0)" />
<polygon points=" 225,173.2 235,190.52 215,190.52" fill="green" stroke="black" transform="rotate(0,0,0)" />
<polygon points=" 225,207.84 235,190.52 215,190.52" fill="green" stroke="black" transform="rotate(0,0,0)" />
<polygon points=" 15,190.52 25,207.84 5,207.84" fill="green" stroke="black" transform="rotate(0,0,0)" />
<polygon points=" 35,190.52 45,207.84 25,207.84" fill="green" stroke="black" transform="rotate(0,0,0)" />
<polygon points=" 55,190.52 65,207.84 45,207.84" fill="green" stroke="black" transform="rotate(0,0,0)" />
<polygon points=" 75,190.52 85,207.84 65,207.84" fill="green" stroke="black" transform="rotate(0,0,0)" />
<polygon points=" 95,190.52 105,207.84 85,207.84" fill="green" stroke="black" transform="rotate(0,0,0)" />
<polygon points=" 115,190.52 125,207.84 105,207.84" fill="green" stroke="black" transform="rotate(0,0,0)" />
<polygon points=" 135,190.52 145,207.84 125,207.84" fill="green" stroke="black" transform="rotate(0,0,0)" />
<polygon points=" 155,190.52 165,207.84 145,207.84" fill="green" stroke="black" transform="rotate(0,0,0)" />
<polygon points=" 175,190.52 185,207.84 165,207.84" fill="green" stroke="black" transform="rotate(0,0,0)" />
<polygon points=" 195,190.52 205,207.84 185,207.84" fill="green" stroke="black" transform="rotate(0,0,0)" />
<polygon points=" 215,190.52 225,207.84 205,207.84" fill="green" stroke="black" transform="rotate(0,0,0)" />
<polygon points=" 235,190.52 245,207.84 225,207.84" fill="green" stroke="black" transform="rotate(0,0,0)" />
</svg>