<svg viewBox="0 0 580 580" xmlns="http://www.w3.org/2000/svg">
<circle cx="290" cy="290" r="290" fill="red" />
<circle cx="290" cy="290" r="18" fill="green" transform="rotate(0,0,0)" />
<circle cx="272" cy="321.176" r="18" fill="green" transform="rotate(0,290,290)" />
<circle cx="272" cy="321.176" r="18" fill="green" transform="rotate(60,290,290)" />
<circle cx="272" cy="321.176" r="18" fill="green" transform="rotate(120,290,290)" />
<circle cx="272" cy="321.176" r="18" fill="green" transform="rotate(180,290,290)" />
<circle cx="272" cy="321.176" r="18" fill="green" transform="rotate(240,290,290)" />
<circle cx="272" cy="321.176" r="18" fill="green" transform="rotate(300,290,290)" />
<circle cx="254" cy="352.352" r="18" fill="green" transform="rotate(0,290,290)" />
<circle cx="254" cy="352.352" r="18" fill="green" transform="rotate(60,290,290)" />
<circle cx="254" cy="352.352" r="18" fill="green" transform="rotate(120,290,290)" />
<circle cx="254" cy="352.352" r="18" fill="green" transform="rotate(180,290,290)" />
<circle cx="254" cy="352.352" r="18" fill="green" transform="rotate(240,290,290)" />
<circle cx="254" cy="352.352" r="18" fill="green" transform="rotate(300,290,290)" />
<circle cx="290" cy="352.352" r="18" fill="green" transform="rotate(0,290,290)" />
<circle cx="290" cy="352.352" r="18" fill="green" transform="rotate(60,290,290)" />
<circle cx="290" cy="352.352" r="18" fill="green" transform="rotate(120,290,290)" />
<circle cx="290" cy="352.352" r="18" fill="green" transform="rotate(180,290,290)" />
<circle cx="290" cy="352.352" r="18" fill="green" transform="rotate(240,290,290)" />
<circle cx="290" cy="352.352" r="18" fill="green" transform="rotate(300,290,290)" />
<circle cx="236" cy="383.528" r="18" fill="green" transform="rotate(0,290,290)" />
<circle cx="236" cy="383.528" r="18" fill="green" transform="rotate(60,290,290)" />
<circle cx="236" cy="383.528" r="18" fill="green" transform="rotate(120,290,290)" />
<circle cx="236" cy="383.528" r="18" fill="green" transform="rotate(180,290,290)" />
<circle cx="236" cy="383.528" r="18" fill="green" transform="rotate(240,290,290)" />
<circle cx="236" cy="383.528" r="18" fill="green" transform="rotate(300,290,290)" />
<circle cx="272" cy="383.528" r="18" fill="green" transform="rotate(0,290,290)" />
<circle cx="272" cy="383.528" r="18" fill="green" transform="rotate(60,290,290)" />
<circle cx="272" cy="383.528" r="18" fill="green" transform="rotate(120,290,290)" />
<circle cx="272" cy="383.528" r="18" fill="green" transform="rotate(180,290,290)" />
<circle cx="272" cy="383.528" r="18" fill="green" transform="rotate(240,290,290)" />
<circle cx="272" cy="383.528" r="18" fill="green" transform="rotate(300,290,290)" />
<circle cx="308" cy="383.528" r="18" fill="green" transform="rotate(0,290,290)" />
<circle cx="308" cy="383.528" r="18" fill="green" transform="rotate(60,290,290)" />
<circle cx="308" cy="383.528" r="18" fill="green" transform="rotate(120,290,290)" />
<circle cx="308" cy="383.528" r="18" fill="green" transform="rotate(180,290,290)" />
<circle cx="308" cy="383.528" r="18" fill="green" transform="rotate(240,290,290)" />
<circle cx="308" cy="383.528" r="18" fill="green" transform="rotate(300,290,290)" />
<circle cx="218" cy="414.704" r="18" fill="green" transform="rotate(0,290,290)" />
<circle cx="218" cy="414.704" r="18" fill="green" transform="rotate(60,290,290)" />
<circle cx="218" cy="414.704" r="18" fill="green" transform="rotate(120,290,290)" />
<circle cx="218" cy="414.704" r="18" fill="green" transform="rotate(180,290,290)" />
<circle cx="218" cy="414.704" r="18" fill="green" transform="rotate(240,290,290)" />
<circle cx="218" cy="414.704" r="18" fill="green" transform="rotate(300,290,290)" />
<circle cx="254" cy="414.704" r="18" fill="green" transform="rotate(0,290,290)" />
<circle cx="254" cy="414.704" r="18" fill="green" transform="rotate(60,290,290)" />
<circle cx="254" cy="414.704" r="18" fill="green" transform="rotate(120,290,290)" />
<circle cx="254" cy="414.704" r="18" fill="green" transform="rotate(180,290,290)" />
<circle cx="254" cy="414.704" r="18" fill="green" transform="rotate(240,290,290)" />
<circle cx="254" cy="414.704" r="18" fill="green" transform="rotate(300,290,290)" />
<circle cx="290" cy="414.704" r="18" fill="green" transform="rotate(0,290,290)" />
<circle cx="290" cy="414.704" r="18" fill="green" transform="rotate(60,290,290)" />
<circle cx="290" cy="414.704" r="18" fill="green" transform="rotate(120,290,290)" />
<circle cx="290" cy="414.704" r="18" fill="green" transform="rotate(180,290,290)" />
<circle cx="290" cy="414.704" r="18" fill="green" transform="rotate(240,290,290)" />
<circle cx="290" cy="414.704" r="18" fill="green" transform="rotate(300,290,290)" />
<circle cx="326" cy="414.704" r="18" fill="green" transform="rotate(0,290,290)" />
<circle cx="326" cy="414.704" r="18" fill="green" transform="rotate(60,290,290)" />
<circle cx="326" cy="414.704" r="18" fill="green" transform="rotate(120,290,290)" />
<circle cx="326" cy="414.704" r="18" fill="green" transform="rotate(180,290,290)" />
<circle cx="326" cy="414.704" r="18" fill="green" transform="rotate(240,290,290)" />
<circle cx="326" cy="414.704" r="18" fill="green" transform="rotate(300,290,290)" />
<circle cx="200" cy="445.88" r="18" fill="green" transform="rotate(0,290,290)" />
<circle cx="200" cy="445.88" r="18" fill="green" transform="rotate(60,290,290)" />
<circle cx="200" cy="445.88" r="18" fill="green" transform="rotate(120,290,290)" />
<circle cx="200" cy="445.88" r="18" fill="green" transform="rotate(180,290,290)" />
<circle cx="200" cy="445.88" r="18" fill="green" transform="rotate(240,290,290)" />
<circle cx="200" cy="445.88" r="18" fill="green" transform="rotate(300,290,290)" />
<circle cx="236" cy="445.88" r="18" fill="green" transform="rotate(0,290,290)" />
<circle cx="236" cy="445.88" r="18" fill="green" transform="rotate(60,290,290)" />
<circle cx="236" cy="445.88" r="18" fill="green" transform="rotate(120,290,290)" />
<circle cx="236" cy="445.88" r="18" fill="green" transform="rotate(180,290,290)" />
<circle cx="236" cy="445.88" r="18" fill="green" transform="rotate(240,290,290)" />
<circle cx="236" cy="445.88" r="18" fill="green" transform="rotate(300,290,290)" />
<circle cx="272" cy="445.88" r="18" fill="green" transform="rotate(0,290,290)" />
<circle cx="272" cy="445.88" r="18" fill="green" transform="rotate(60,290,290)" />
<circle cx="272" cy="445.88" r="18" fill="green" transform="rotate(120,290,290)" />
<circle cx="272" cy="445.88" r="18" fill="green" transform="rotate(180,290,290)" />
<circle cx="272" cy="445.88" r="18" fill="green" transform="rotate(240,290,290)" />
<circle cx="272" cy="445.88" r="18" fill="green" transform="rotate(300,290,290)" />
<circle cx="308" cy="445.88" r="18" fill="green" transform="rotate(0,290,290)" />
<circle cx="308" cy="445.88" r="18" fill="green" transform="rotate(60,290,290)" />
<circle cx="308" cy="445.88" r="18" fill="green" transform="rotate(120,290,290)" />
<circle cx="308" cy="445.88" r="18" fill="green" transform="rotate(180,290,290)" />
<circle cx="308" cy="445.88" r="18" fill="green" transform="rotate(240,290,290)" />
<circle cx="308" cy="445.88" r="18" fill="green" transform="rotate(300,290,290)" />
<circle cx="344" cy="445.88" r="18" fill="green" transform="rotate(0,290,290)" />
<circle cx="344" cy="445.88" r="18" fill="green" transform="rotate(60,290,290)" />
<circle cx="344" cy="445.88" r="18" fill="green" transform="rotate(120,290,290)" />
<circle cx="344" cy="445.88" r="18" fill="green" transform="rotate(180,290,290)" />
<circle cx="344" cy="445.88" r="18" fill="green" transform="rotate(240,290,290)" />
<circle cx="344" cy="445.88" r="18" fill="green" transform="rotate(300,290,290)" />
<circle cx="182" cy="477.056" r="18" fill="green" transform="rotate(0,290,290)" />
<circle cx="182" cy="477.056" r="18" fill="green" transform="rotate(60,290,290)" />
<circle cx="182" cy="477.056" r="18" fill="green" transform="rotate(120,290,290)" />
<circle cx="182" cy="477.056" r="18" fill="green" transform="rotate(180,290,290)" />
<circle cx="182" cy="477.056" r="18" fill="green" transform="rotate(240,290,290)" />
<circle cx="182" cy="477.056" r="18" fill="green" transform="rotate(300,290,290)" />
<circle cx="218" cy="477.056" r="18" fill="green" transform="rotate(0,290,290)" />
<circle cx="218" cy="477.056" r="18" fill="green" transform="rotate(60,290,290)" />
<circle cx="218" cy="477.056" r="18" fill="green" transform="rotate(120,290,290)" />
<circle cx="218" cy="477.056" r="18" fill="green" transform="rotate(180,290,290)" />
<circle cx="218" cy="477.056" r="18" fill="green" transform="rotate(240,290,290)" />
<circle cx="218" cy="477.056" r="18" fill="green" transform="rotate(300,290,290)" />
<circle cx="254" cy="477.056" r="18" fill="green" transform="rotate(0,290,290)" />
<circle cx="254" cy="477.056" r="18" fill="green" transform="rotate(60,290,290)" />
<circle cx="254" cy="477.056" r="18" fill="green" transform="rotate(120,290,290)" />
<circle cx="254" cy="477.056" r="18" fill="green" transform="rotate(180,290,290)" />
<circle cx="254" cy="477.056" r="18" fill="green" transform="rotate(240,290,290)" />
<circle cx="254" cy="477.056" r="18" fill="green" transform="rotate(300,290,290)" />
<circle cx="290" cy="477.056" r="18" fill="green" transform="rotate(0,290,290)" />
<circle cx="290" cy="477.056" r="18" fill="green" transform="rotate(60,290,290)" />
<circle cx="290" cy="477.056" r="18" fill="green" transform="rotate(120,290,290)" />
<circle cx="290" cy="477.056" r="18" fill="green" transform="rotate(180,290,290)" />
<circle cx="290" cy="477.056" r="18" fill="green" transform="rotate(240,290,290)" />
<circle cx="290" cy="477.056" r="18" fill="green" transform="rotate(300,290,290)" />
<circle cx="326" cy="477.056" r="18" fill="green" transform="rotate(0,290,290)" />
<circle cx="326" cy="477.056" r="18" fill="green" transform="rotate(60,290,290)" />
<circle cx="326" cy="477.056" r="18" fill="green" transform="rotate(120,290,290)" />
<circle cx="326" cy="477.056" r="18" fill="green" transform="rotate(180,290,290)" />
<circle cx="326" cy="477.056" r="18" fill="green" transform="rotate(240,290,290)" />
<circle cx="326" cy="477.056" r="18" fill="green" transform="rotate(300,290,290)" />
<circle cx="362" cy="477.056" r="18" fill="green" transform="rotate(0,290,290)" />
<circle cx="362" cy="477.056" r="18" fill="green" transform="rotate(60,290,290)" />
<circle cx="362" cy="477.056" r="18" fill="green" transform="rotate(120,290,290)" />
<circle cx="362" cy="477.056" r="18" fill="green" transform="rotate(180,290,290)" />
<circle cx="362" cy="477.056" r="18" fill="green" transform="rotate(240,290,290)" />
<circle cx="362" cy="477.056" r="18" fill="green" transform="rotate(300,290,290)" />
<circle cx="164" cy="508.232" r="18" fill="green" transform="rotate(0,290,290)" />
<circle cx="164" cy="508.232" r="18" fill="green" transform="rotate(60,290,290)" />
<circle cx="164" cy="508.232" r="18" fill="green" transform="rotate(120,290,290)" />
<circle cx="164" cy="508.232" r="18" fill="green" transform="rotate(180,290,290)" />
<circle cx="164" cy="508.232" r="18" fill="green" transform="rotate(240,290,290)" />
<circle cx="164" cy="508.232" r="18" fill="green" transform="rotate(300,290,290)" />
<circle cx="200" cy="508.232" r="18" fill="green" transform="rotate(0,290,290)" />
<circle cx="200" cy="508.232" r="18" fill="green" transform="rotate(60,290,290)" />
<circle cx="200" cy="508.232" r="18" fill="green" transform="rotate(120,290,290)" />
<circle cx="200" cy="508.232" r="18" fill="green" transform="rotate(180,290,290)" />
<circle cx="200" cy="508.232" r="18" fill="green" transform="rotate(240,290,290)" />
<circle cx="200" cy="508.232" r="18" fill="green" transform="rotate(300,290,290)" />
<circle cx="236" cy="508.232" r="18" fill="green" transform="rotate(0,290,290)" />
<circle cx="236" cy="508.232" r="18" fill="green" transform="rotate(60,290,290)" />
<circle cx="236" cy="508.232" r="18" fill="green" transform="rotate(120,290,290)" />
<circle cx="236" cy="508.232" r="18" fill="green" transform="rotate(180,290,290)" />
<circle cx="236" cy="508.232" r="18" fill="green" transform="rotate(240,290,290)" />
<circle cx="236" cy="508.232" r="18" fill="green" transform="rotate(300,290,290)" />
<circle cx="272" cy="508.232" r="18" fill="green" transform="rotate(0,290,290)" />
<circle cx="272" cy="508.232" r="18" fill="green" transform="rotate(60,290,290)" />
<circle cx="272" cy="508.232" r="18" fill="green" transform="rotate(120,290,290)" />
<circle cx="272" cy="508.232" r="18" fill="green" transform="rotate(180,290,290)" />
<circle cx="272" cy="508.232" r="18" fill="green" transform="rotate(240,290,290)" />
<circle cx="272" cy="508.232" r="18" fill="green" transform="rotate(300,290,290)" />
<circle cx="308" cy="508.232" r="18" fill="green" transform="rotate(0,290,290)" />
<circle cx="308" cy="508.232" r="18" fill="green" transform="rotate(60,290,290)" />
<circle cx="308" cy="508.232" r="18" fill="green" transform="rotate(120,290,290)" />
<circle cx="308" cy="508.232" r="18" fill="green" transform="rotate(180,290,290)" />
<circle cx="308" cy="508.232" r="18" fill="green" transform="rotate(240,290,290)" />
<circle cx="308" cy="508.232" r="18" fill="green" transform="rotate(300,290,290)" />
<circle cx="344" cy="508.232" r="18" fill="green" transform="rotate(0,290,290)" />
<circle cx="344" cy="508.232" r="18" fill="green" transform="rotate(60,290,290)" />
<circle cx="344" cy="508.232" r="18" fill="green" transform="rotate(120,290,290)" />
<circle cx="344" cy="508.232" r="18" fill="green" transform="rotate(180,290,290)" />
<circle cx="344" cy="508.232" r="18" fill="green" transform="rotate(240,290,290)" />
<circle cx="344" cy="508.232" r="18" fill="green" transform="rotate(300,290,290)" />
<circle cx="380" cy="508.232" r="18" fill="green" transform="rotate(0,290,290)" />
<circle cx="380" cy="508.232" r="18" fill="green" transform="rotate(60,290,290)" />
<circle cx="380" cy="508.232" r="18" fill="green" transform="rotate(120,290,290)" />
<circle cx="380" cy="508.232" r="18" fill="green" transform="rotate(180,290,290)" />
<circle cx="380" cy="508.232" r="18" fill="green" transform="rotate(240,290,290)" />
<circle cx="380" cy="508.232" r="18" fill="green" transform="rotate(300,290,290)" />
</svg>