<svg version="1.1"
baseProfile="full" width="100%" height="100%"
xmlns="http://www.w3.org/2000/svg">
    	<polygon points=" 0,290 11.5768,371.121 23.1537,403.548 34.7305,427.614 46.3074,447.207 57.8842,463.846 69.4611,478.315 81.0379,491.084 92.6148,502.46 104.192,512.655 115.768,521.826 127.345,530.091 138.922,537.539 150.499,544.243 162.076,550.26 173.653,555.638 185.23,560.413 196.806,564.618 208.383,568.278 219.96,571.415 231.537,574.046 243.114,576.185 254.691,577.842 266.267,579.027 277.844,579.745 289.421,579.999 300.998,579.791 312.575,579.12 324.152,577.982 335.729,576.372 347.305,574.282 358.882,571.701 370.459,568.615 382.036,565.008 393.613,560.859 405.19,556.142 416.766,550.826 428.343,544.875 439.92,538.242 451.497,530.871 463.074,522.692 474.651,513.616 486.228,503.529 497.804,492.28 509.381,479.663 520.958,465.381 532.535,448.987 544.112,429.74 555.689,406.231 567.265,374.993 578.842,264.113 567.265,205.007 555.689,173.769 544.112,150.26 532.535,131.013 520.958,114.619 509.381,100.337 497.804,87.7197 486.228,76.4707 474.651,66.384 463.074,57.3083 451.497,49.1293 439.92,41.7583 428.343,35.1253 416.766,29.1739 405.19,23.8584 393.613,19.1414 382.036,14.992 370.459,11.385 358.882,8.29938 347.305,5.71829 335.729,3.62804 324.152,2.01795 312.575,0.879997 300.998,0.20862 289.421,0.000577688 277.844,0.254872 266.267,0.972723 254.691,2.1576 243.114,3.8153 231.537,5.95411 219.96,8.58499 208.383,11.7219 196.806,15.3822 185.23,19.5871 173.653,24.3625 162.076,29.7397 150.499,35.7571 138.922,42.4611 127.345,49.9095 115.768,58.1738 104.192,67.345 92.6148,77.5404 81.0379,88.9158 69.4611,101.685 57.8842,116.154 46.3074,132.793 34.7305,152.386 23.1537,176.452 11.5768,208.879" stroke="black" fill="red" />
</svg>