<svg viewBox="0 0 580 580" xmlns="http://www.w3.org/2000/svg">
<circle cx="290" cy="290" r="290" fill="red" />
<circle cx="290" cy="290" r="20" fill="green" transform="rotate(0,290,290)" />
<circle cx="270" cy="324.64" r="20" fill="green" transform="rotate(0,290,290)" />
<circle cx="270" cy="324.64" r="20" fill="green" transform="rotate(60,290,290)" />
<circle cx="270" cy="324.64" r="20" fill="green" transform="rotate(120,290,290)" />
<circle cx="270" cy="324.64" r="20" fill="green" transform="rotate(180,290,290)" />
<circle cx="270" cy="324.64" r="20" fill="green" transform="rotate(240,290,290)" />
<circle cx="270" cy="324.64" r="20" fill="green" transform="rotate(300,290,290)" />
<circle cx="250" cy="359.28" r="20" fill="green" transform="rotate(0,290,290)" />
<circle cx="250" cy="359.28" r="20" fill="green" transform="rotate(60,290,290)" />
<circle cx="250" cy="359.28" r="20" fill="green" transform="rotate(120,290,290)" />
<circle cx="250" cy="359.28" r="20" fill="green" transform="rotate(180,290,290)" />
<circle cx="250" cy="359.28" r="20" fill="green" transform="rotate(240,290,290)" />
<circle cx="250" cy="359.28" r="20" fill="green" transform="rotate(300,290,290)" />
<circle cx="290" cy="359.28" r="20" fill="green" transform="rotate(0,290,290)" />
<circle cx="290" cy="359.28" r="20" fill="green" transform="rotate(60,290,290)" />
<circle cx="290" cy="359.28" r="20" fill="green" transform="rotate(120,290,290)" />
<circle cx="290" cy="359.28" r="20" fill="green" transform="rotate(180,290,290)" />
<circle cx="290" cy="359.28" r="20" fill="green" transform="rotate(240,290,290)" />
<circle cx="290" cy="359.28" r="20" fill="green" transform="rotate(300,290,290)" />
<circle cx="230" cy="393.92" r="20" fill="green" transform="rotate(0,290,290)" />
<circle cx="230" cy="393.92" r="20" fill="green" transform="rotate(60,290,290)" />
<circle cx="230" cy="393.92" r="20" fill="green" transform="rotate(120,290,290)" />
<circle cx="230" cy="393.92" r="20" fill="green" transform="rotate(180,290,290)" />
<circle cx="230" cy="393.92" r="20" fill="green" transform="rotate(240,290,290)" />
<circle cx="230" cy="393.92" r="20" fill="green" transform="rotate(300,290,290)" />
<circle cx="270" cy="393.92" r="20" fill="green" transform="rotate(0,290,290)" />
<circle cx="270" cy="393.92" r="20" fill="green" transform="rotate(60,290,290)" />
<circle cx="270" cy="393.92" r="20" fill="green" transform="rotate(120,290,290)" />
<circle cx="270" cy="393.92" r="20" fill="green" transform="rotate(180,290,290)" />
<circle cx="270" cy="393.92" r="20" fill="green" transform="rotate(240,290,290)" />
<circle cx="270" cy="393.92" r="20" fill="green" transform="rotate(300,290,290)" />
<circle cx="310" cy="393.92" r="20" fill="green" transform="rotate(0,290,290)" />
<circle cx="310" cy="393.92" r="20" fill="green" transform="rotate(60,290,290)" />
<circle cx="310" cy="393.92" r="20" fill="green" transform="rotate(120,290,290)" />
<circle cx="310" cy="393.92" r="20" fill="green" transform="rotate(180,290,290)" />
<circle cx="310" cy="393.92" r="20" fill="green" transform="rotate(240,290,290)" />
<circle cx="310" cy="393.92" r="20" fill="green" transform="rotate(300,290,290)" />
<circle cx="210" cy="428.56" r="20" fill="green" transform="rotate(0,290,290)" />
<circle cx="210" cy="428.56" r="20" fill="green" transform="rotate(60,290,290)" />
<circle cx="210" cy="428.56" r="20" fill="green" transform="rotate(120,290,290)" />
<circle cx="210" cy="428.56" r="20" fill="green" transform="rotate(180,290,290)" />
<circle cx="210" cy="428.56" r="20" fill="green" transform="rotate(240,290,290)" />
<circle cx="210" cy="428.56" r="20" fill="green" transform="rotate(300,290,290)" />
<circle cx="250" cy="428.56" r="20" fill="green" transform="rotate(0,290,290)" />
<circle cx="250" cy="428.56" r="20" fill="green" transform="rotate(60,290,290)" />
<circle cx="250" cy="428.56" r="20" fill="green" transform="rotate(120,290,290)" />
<circle cx="250" cy="428.56" r="20" fill="green" transform="rotate(180,290,290)" />
<circle cx="250" cy="428.56" r="20" fill="green" transform="rotate(240,290,290)" />
<circle cx="250" cy="428.56" r="20" fill="green" transform="rotate(300,290,290)" />
<circle cx="290" cy="428.56" r="20" fill="green" transform="rotate(0,290,290)" />
<circle cx="290" cy="428.56" r="20" fill="green" transform="rotate(60,290,290)" />
<circle cx="290" cy="428.56" r="20" fill="green" transform="rotate(120,290,290)" />
<circle cx="290" cy="428.56" r="20" fill="green" transform="rotate(180,290,290)" />
<circle cx="290" cy="428.56" r="20" fill="green" transform="rotate(240,290,290)" />
<circle cx="290" cy="428.56" r="20" fill="green" transform="rotate(300,290,290)" />
<circle cx="330" cy="428.56" r="20" fill="green" transform="rotate(0,290,290)" />
<circle cx="330" cy="428.56" r="20" fill="green" transform="rotate(60,290,290)" />
<circle cx="330" cy="428.56" r="20" fill="green" transform="rotate(120,290,290)" />
<circle cx="330" cy="428.56" r="20" fill="green" transform="rotate(180,290,290)" />
<circle cx="330" cy="428.56" r="20" fill="green" transform="rotate(240,290,290)" />
<circle cx="330" cy="428.56" r="20" fill="green" transform="rotate(300,290,290)" />
<circle cx="190" cy="463.2" r="20" fill="green" transform="rotate(0,290,290)" />
<circle cx="190" cy="463.2" r="20" fill="green" transform="rotate(60,290,290)" />
<circle cx="190" cy="463.2" r="20" fill="green" transform="rotate(120,290,290)" />
<circle cx="190" cy="463.2" r="20" fill="green" transform="rotate(180,290,290)" />
<circle cx="190" cy="463.2" r="20" fill="green" transform="rotate(240,290,290)" />
<circle cx="190" cy="463.2" r="20" fill="green" transform="rotate(300,290,290)" />
<circle cx="230" cy="463.2" r="20" fill="green" transform="rotate(0,290,290)" />
<circle cx="230" cy="463.2" r="20" fill="green" transform="rotate(60,290,290)" />
<circle cx="230" cy="463.2" r="20" fill="green" transform="rotate(120,290,290)" />
<circle cx="230" cy="463.2" r="20" fill="green" transform="rotate(180,290,290)" />
<circle cx="230" cy="463.2" r="20" fill="green" transform="rotate(240,290,290)" />
<circle cx="230" cy="463.2" r="20" fill="green" transform="rotate(300,290,290)" />
<circle cx="270" cy="463.2" r="20" fill="green" transform="rotate(0,290,290)" />
<circle cx="270" cy="463.2" r="20" fill="green" transform="rotate(60,290,290)" />
<circle cx="270" cy="463.2" r="20" fill="green" transform="rotate(120,290,290)" />
<circle cx="270" cy="463.2" r="20" fill="green" transform="rotate(180,290,290)" />
<circle cx="270" cy="463.2" r="20" fill="green" transform="rotate(240,290,290)" />
<circle cx="270" cy="463.2" r="20" fill="green" transform="rotate(300,290,290)" />
<circle cx="310" cy="463.2" r="20" fill="green" transform="rotate(0,290,290)" />
<circle cx="310" cy="463.2" r="20" fill="green" transform="rotate(60,290,290)" />
<circle cx="310" cy="463.2" r="20" fill="green" transform="rotate(120,290,290)" />
<circle cx="310" cy="463.2" r="20" fill="green" transform="rotate(180,290,290)" />
<circle cx="310" cy="463.2" r="20" fill="green" transform="rotate(240,290,290)" />
<circle cx="310" cy="463.2" r="20" fill="green" transform="rotate(300,290,290)" />
<circle cx="350" cy="463.2" r="20" fill="green" transform="rotate(0,290,290)" />
<circle cx="350" cy="463.2" r="20" fill="green" transform="rotate(60,290,290)" />
<circle cx="350" cy="463.2" r="20" fill="green" transform="rotate(120,290,290)" />
<circle cx="350" cy="463.2" r="20" fill="green" transform="rotate(180,290,290)" />
<circle cx="350" cy="463.2" r="20" fill="green" transform="rotate(240,290,290)" />
<circle cx="350" cy="463.2" r="20" fill="green" transform="rotate(300,290,290)" />
<circle cx="170" cy="497.84" r="20" fill="green" transform="rotate(0,290,290)" />
<circle cx="170" cy="497.84" r="20" fill="green" transform="rotate(60,290,290)" />
<circle cx="170" cy="497.84" r="20" fill="green" transform="rotate(120,290,290)" />
<circle cx="170" cy="497.84" r="20" fill="green" transform="rotate(180,290,290)" />
<circle cx="170" cy="497.84" r="20" fill="green" transform="rotate(240,290,290)" />
<circle cx="170" cy="497.84" r="20" fill="green" transform="rotate(300,290,290)" />
<circle cx="210" cy="497.84" r="20" fill="green" transform="rotate(0,290,290)" />
<circle cx="210" cy="497.84" r="20" fill="green" transform="rotate(60,290,290)" />
<circle cx="210" cy="497.84" r="20" fill="green" transform="rotate(120,290,290)" />
<circle cx="210" cy="497.84" r="20" fill="green" transform="rotate(180,290,290)" />
<circle cx="210" cy="497.84" r="20" fill="green" transform="rotate(240,290,290)" />
<circle cx="210" cy="497.84" r="20" fill="green" transform="rotate(300,290,290)" />
<circle cx="250" cy="497.84" r="20" fill="green" transform="rotate(0,290,290)" />
<circle cx="250" cy="497.84" r="20" fill="green" transform="rotate(60,290,290)" />
<circle cx="250" cy="497.84" r="20" fill="green" transform="rotate(120,290,290)" />
<circle cx="250" cy="497.84" r="20" fill="green" transform="rotate(180,290,290)" />
<circle cx="250" cy="497.84" r="20" fill="green" transform="rotate(240,290,290)" />
<circle cx="250" cy="497.84" r="20" fill="green" transform="rotate(300,290,290)" />
<circle cx="290" cy="497.84" r="20" fill="green" transform="rotate(0,290,290)" />
<circle cx="290" cy="497.84" r="20" fill="green" transform="rotate(60,290,290)" />
<circle cx="290" cy="497.84" r="20" fill="green" transform="rotate(120,290,290)" />
<circle cx="290" cy="497.84" r="20" fill="green" transform="rotate(180,290,290)" />
<circle cx="290" cy="497.84" r="20" fill="green" transform="rotate(240,290,290)" />
<circle cx="290" cy="497.84" r="20" fill="green" transform="rotate(300,290,290)" />
<circle cx="330" cy="497.84" r="20" fill="green" transform="rotate(0,290,290)" />
<circle cx="330" cy="497.84" r="20" fill="green" transform="rotate(60,290,290)" />
<circle cx="330" cy="497.84" r="20" fill="green" transform="rotate(120,290,290)" />
<circle cx="330" cy="497.84" r="20" fill="green" transform="rotate(180,290,290)" />
<circle cx="330" cy="497.84" r="20" fill="green" transform="rotate(240,290,290)" />
<circle cx="330" cy="497.84" r="20" fill="green" transform="rotate(300,290,290)" />
<circle cx="370" cy="497.84" r="20" fill="green" transform="rotate(0,290,290)" />
<circle cx="370" cy="497.84" r="20" fill="green" transform="rotate(60,290,290)" />
<circle cx="370" cy="497.84" r="20" fill="green" transform="rotate(120,290,290)" />
<circle cx="370" cy="497.84" r="20" fill="green" transform="rotate(180,290,290)" />
<circle cx="370" cy="497.84" r="20" fill="green" transform="rotate(240,290,290)" />
<circle cx="370" cy="497.84" r="20" fill="green" transform="rotate(300,290,290)" />
</svg>