<svg version="1.1"
baseProfile="full"
height="250" width="250" xmlns="http://www.w3.org/2000/svg">>
	<polygon points="125 0 0 216.5 250 216.5" fill="red" />
<rect x="5.77367" y="206.5" width="20" height="10" fill="green" />
<rect x="25.7737" y="206.5" width="20" height="10" fill="green" />
<rect x="45.7737" y="206.5" width="20" height="10" fill="green" />
<rect x="65.7737" y="206.5" width="20" height="10" fill="green" />
<rect x="85.7737" y="206.5" width="20" height="10" fill="green" />
<rect x="105.774" y="206.5" width="20" height="10" fill="green" />
<rect x="125.774" y="206.5" width="20" height="10" fill="green" />
<rect x="145.774" y="206.5" width="20" height="10" fill="green" />
<rect x="165.774" y="206.5" width="20" height="10" fill="green" />
<rect x="185.774" y="206.5" width="20" height="10" fill="green" />
<rect x="205.774" y="206.5" width="20" height="10" fill="green" />
<rect x="11.5473" y="196.5" width="20" height="10" fill="green" />
<rect x="31.5473" y="196.5" width="20" height="10" fill="green" />
<rect x="51.5473" y="196.5" width="20" height="10" fill="green" />
<rect x="71.5473" y="196.5" width="20" height="10" fill="green" />
<rect x="91.5473" y="196.5" width="20" height="10" fill="green" />
<rect x="111.547" y="196.5" width="20" height="10" fill="green" />
<rect x="131.547" y="196.5" width="20" height="10" fill="green" />
<rect x="151.547" y="196.5" width="20" height="10" fill="green" />
<rect x="171.547" y="196.5" width="20" height="10" fill="green" />
<rect x="191.547" y="196.5" width="20" height="10" fill="green" />
<rect x="211.547" y="196.5" width="20" height="10" fill="green" />
<rect x="17.321" y="186.5" width="20" height="10" fill="green" />
<rect x="37.321" y="186.5" width="20" height="10" fill="green" />
<rect x="57.321" y="186.5" width="20" height="10" fill="green" />
<rect x="77.321" y="186.5" width="20" height="10" fill="green" />
<rect x="97.321" y="186.5" width="20" height="10" fill="green" />
<rect x="117.321" y="186.5" width="20" height="10" fill="green" />
<rect x="137.321" y="186.5" width="20" height="10" fill="green" />
<rect x="157.321" y="186.5" width="20" height="10" fill="green" />
<rect x="177.321" y="186.5" width="20" height="10" fill="green" />
<rect x="197.321" y="186.5" width="20" height="10" fill="green" />
<rect x="23.0947" y="176.5" width="20" height="10" fill="green" />
<rect x="43.0947" y="176.5" width="20" height="10" fill="green" />
<rect x="63.0947" y="176.5" width="20" height="10" fill="green" />
<rect x="83.0947" y="176.5" width="20" height="10" fill="green" />
<rect x="103.095" y="176.5" width="20" height="10" fill="green" />
<rect x="123.095" y="176.5" width="20" height="10" fill="green" />
<rect x="143.095" y="176.5" width="20" height="10" fill="green" />
<rect x="163.095" y="176.5" width="20" height="10" fill="green" />
<rect x="183.095" y="176.5" width="20" height="10" fill="green" />
<rect x="203.095" y="176.5" width="20" height="10" fill="green" />
<rect x="28.8684" y="166.5" width="20" height="10" fill="green" />
<rect x="48.8684" y="166.5" width="20" height="10" fill="green" />
<rect x="68.8684" y="166.5" width="20" height="10" fill="green" />
<rect x="88.8684" y="166.5" width="20" height="10" fill="green" />
<rect x="108.868" y="166.5" width="20" height="10" fill="green" />
<rect x="128.868" y="166.5" width="20" height="10" fill="green" />
<rect x="148.868" y="166.5" width="20" height="10" fill="green" />
<rect x="168.868" y="166.5" width="20" height="10" fill="green" />
<rect x="188.868" y="166.5" width="20" height="10" fill="green" />
<rect x="34.642" y="156.5" width="20" height="10" fill="green" />
<rect x="54.642" y="156.5" width="20" height="10" fill="green" />
<rect x="74.642" y="156.5" width="20" height="10" fill="green" />
<rect x="94.642" y="156.5" width="20" height="10" fill="green" />
<rect x="114.642" y="156.5" width="20" height="10" fill="green" />
<rect x="134.642" y="156.5" width="20" height="10" fill="green" />
<rect x="154.642" y="156.5" width="20" height="10" fill="green" />
<rect x="174.642" y="156.5" width="20" height="10" fill="green" />
<rect x="194.642" y="156.5" width="20" height="10" fill="green" />
<rect x="40.4157" y="146.5" width="20" height="10" fill="green" />
<rect x="60.4157" y="146.5" width="20" height="10" fill="green" />
<rect x="80.4157" y="146.5" width="20" height="10" fill="green" />
<rect x="100.416" y="146.5" width="20" height="10" fill="green" />
<rect x="120.416" y="146.5" width="20" height="10" fill="green" />
<rect x="140.416" y="146.5" width="20" height="10" fill="green" />
<rect x="160.416" y="146.5" width="20" height="10" fill="green" />
<rect x="180.416" y="146.5" width="20" height="10" fill="green" />
<rect x="46.1894" y="136.5" width="20" height="10" fill="green" />
<rect x="66.1894" y="136.5" width="20" height="10" fill="green" />
<rect x="86.1894" y="136.5" width="20" height="10" fill="green" />
<rect x="106.189" y="136.5" width="20" height="10" fill="green" />
<rect x="126.189" y="136.5" width="20" height="10" fill="green" />
<rect x="146.189" y="136.5" width="20" height="10" fill="green" />
<rect x="166.189" y="136.5" width="20" height="10" fill="green" />
<rect x="51.963" y="126.5" width="20" height="10" fill="green" />
<rect x="71.963" y="126.5" width="20" height="10" fill="green" />
<rect x="91.963" y="126.5" width="20" height="10" fill="green" />
<rect x="111.963" y="126.5" width="20" height="10" fill="green" />
<rect x="131.963" y="126.5" width="20" height="10" fill="green" />
<rect x="151.963" y="126.5" width="20" height="10" fill="green" />
<rect x="171.963" y="126.5" width="20" height="10" fill="green" />
<rect x="57.7367" y="116.5" width="20" height="10" fill="green" />
<rect x="77.7367" y="116.5" width="20" height="10" fill="green" />
<rect x="97.7367" y="116.5" width="20" height="10" fill="green" />
<rect x="117.737" y="116.5" width="20" height="10" fill="green" />
<rect x="137.737" y="116.5" width="20" height="10" fill="green" />
<rect x="157.737" y="116.5" width="20" height="10" fill="green" />
<rect x="63.5104" y="106.5" width="20" height="10" fill="green" />
<rect x="83.5104" y="106.5" width="20" height="10" fill="green" />
<rect x="103.51" y="106.5" width="20" height="10" fill="green" />
<rect x="123.51" y="106.5" width="20" height="10" fill="green" />
<rect x="143.51" y="106.5" width="20" height="10" fill="green" />
<rect x="163.51" y="106.5" width="20" height="10" fill="green" />
<rect x="69.2841" y="96.5" width="20" height="10" fill="green" />
<rect x="89.2841" y="96.5" width="20" height="10" fill="green" />
<rect x="109.284" y="96.5" width="20" height="10" fill="green" />
<rect x="129.284" y="96.5" width="20" height="10" fill="green" />
<rect x="149.284" y="96.5" width="20" height="10" fill="green" />
<rect x="75.0577" y="86.5" width="20" height="10" fill="green" />
<rect x="95.0577" y="86.5" width="20" height="10" fill="green" />
<rect x="115.058" y="86.5" width="20" height="10" fill="green" />
<rect x="135.058" y="86.5" width="20" height="10" fill="green" />
<rect x="80.8314" y="76.5" width="20" height="10" fill="green" />
<rect x="100.831" y="76.5" width="20" height="10" fill="green" />
<rect x="120.831" y="76.5" width="20" height="10" fill="green" />
<rect x="140.831" y="76.5" width="20" height="10" fill="green" />
<rect x="86.6051" y="66.5" width="20" height="10" fill="green" />
<rect x="106.605" y="66.5" width="20" height="10" fill="green" />
<rect x="126.605" y="66.5" width="20" height="10" fill="green" />
<rect x="92.3788" y="56.5" width="20" height="10" fill="green" />
<rect x="112.379" y="56.5" width="20" height="10" fill="green" />
<rect x="132.379" y="56.5" width="20" height="10" fill="green" />
<rect x="98.1524" y="46.5" width="20" height="10" fill="green" />
<rect x="118.152" y="46.5" width="20" height="10" fill="green" />
<rect x="103.926" y="36.5" width="20" height="10" fill="green" />
<rect x="123.926" y="36.5" width="20" height="10" fill="green" />
<rect x="109.7" y="26.5" width="20" height="10" fill="green" />
</svg>