<svg version="1.1"
baseProfile="full"
width="330" height="150" xmlns="http://www.w3.org/2000/svg">
<rect width="100%" height="100%" fill="red" />
<polygon points="0 0 0 20 17.32 10" fill="green" transform="rotate(0,0,0)" />
<polygon points="0 20 0 40 17.32 30" fill="green" transform="rotate(0,0,0)" />
<polygon points="0 40 0 60 17.32 50" fill="green" transform="rotate(0,0,0)" />
<polygon points="0 60 0 80 17.32 70" fill="green" transform="rotate(0,0,0)" />
<polygon points="0 80 0 100 17.32 90" fill="green" transform="rotate(0,0,0)" />
<polygon points="0 100 0 120 17.32 110" fill="green" transform="rotate(0,0,0)" />
<polygon points="0 120 0 140 17.32 130" fill="green" transform="rotate(0,0,0)" />
<polygon points="17.32 0 17.32 20 34.64 10" fill="green" transform="rotate(0,0,0)" />
<polygon points="17.32 20 17.32 40 34.64 30" fill="green" transform="rotate(0,0,0)" />
<polygon points="17.32 40 17.32 60 34.64 50" fill="green" transform="rotate(0,0,0)" />
<polygon points="17.32 60 17.32 80 34.64 70" fill="green" transform="rotate(0,0,0)" />
<polygon points="17.32 80 17.32 100 34.64 90" fill="green" transform="rotate(0,0,0)" />
<polygon points="17.32 100 17.32 120 34.64 110" fill="green" transform="rotate(0,0,0)" />
<polygon points="17.32 120 17.32 140 34.64 130" fill="green" transform="rotate(0,0,0)" />
<polygon points="34.64 0 34.64 20 51.96 10" fill="green" transform="rotate(0,0,0)" />
<polygon points="34.64 20 34.64 40 51.96 30" fill="green" transform="rotate(0,0,0)" />
<polygon points="34.64 40 34.64 60 51.96 50" fill="green" transform="rotate(0,0,0)" />
<polygon points="34.64 60 34.64 80 51.96 70" fill="green" transform="rotate(0,0,0)" />
<polygon points="34.64 80 34.64 100 51.96 90" fill="green" transform="rotate(0,0,0)" />
<polygon points="34.64 100 34.64 120 51.96 110" fill="green" transform="rotate(0,0,0)" />
<polygon points="34.64 120 34.64 140 51.96 130" fill="green" transform="rotate(0,0,0)" />
<polygon points="51.96 0 51.96 20 69.28 10" fill="green" transform="rotate(0,0,0)" />
<polygon points="51.96 20 51.96 40 69.28 30" fill="green" transform="rotate(0,0,0)" />
<polygon points="51.96 40 51.96 60 69.28 50" fill="green" transform="rotate(0,0,0)" />
<polygon points="51.96 60 51.96 80 69.28 70" fill="green" transform="rotate(0,0,0)" />
<polygon points="51.96 80 51.96 100 69.28 90" fill="green" transform="rotate(0,0,0)" />
<polygon points="51.96 100 51.96 120 69.28 110" fill="green" transform="rotate(0,0,0)" />
<polygon points="51.96 120 51.96 140 69.28 130" fill="green" transform="rotate(0,0,0)" />
<polygon points="69.28 0 69.28 20 86.6 10" fill="green" transform="rotate(0,0,0)" />
<polygon points="69.28 20 69.28 40 86.6 30" fill="green" transform="rotate(0,0,0)" />
<polygon points="69.28 40 69.28 60 86.6 50" fill="green" transform="rotate(0,0,0)" />
<polygon points="69.28 60 69.28 80 86.6 70" fill="green" transform="rotate(0,0,0)" />
<polygon points="69.28 80 69.28 100 86.6 90" fill="green" transform="rotate(0,0,0)" />
<polygon points="69.28 100 69.28 120 86.6 110" fill="green" transform="rotate(0,0,0)" />
<polygon points="69.28 120 69.28 140 86.6 130" fill="green" transform="rotate(0,0,0)" />
<polygon points="86.6 0 86.6 20 103.92 10" fill="green" transform="rotate(0,0,0)" />
<polygon points="86.6 20 86.6 40 103.92 30" fill="green" transform="rotate(0,0,0)" />
<polygon points="86.6 40 86.6 60 103.92 50" fill="green" transform="rotate(0,0,0)" />
<polygon points="86.6 60 86.6 80 103.92 70" fill="green" transform="rotate(0,0,0)" />
<polygon points="86.6 80 86.6 100 103.92 90" fill="green" transform="rotate(0,0,0)" />
<polygon points="86.6 100 86.6 120 103.92 110" fill="green" transform="rotate(0,0,0)" />
<polygon points="86.6 120 86.6 140 103.92 130" fill="green" transform="rotate(0,0,0)" />
<polygon points="103.92 0 103.92 20 121.24 10" fill="green" transform="rotate(0,0,0)" />
<polygon points="103.92 20 103.92 40 121.24 30" fill="green" transform="rotate(0,0,0)" />
<polygon points="103.92 40 103.92 60 121.24 50" fill="green" transform="rotate(0,0,0)" />
<polygon points="103.92 60 103.92 80 121.24 70" fill="green" transform="rotate(0,0,0)" />
<polygon points="103.92 80 103.92 100 121.24 90" fill="green" transform="rotate(0,0,0)" />
<polygon points="103.92 100 103.92 120 121.24 110" fill="green" transform="rotate(0,0,0)" />
<polygon points="103.92 120 103.92 140 121.24 130" fill="green" transform="rotate(0,0,0)" />
<polygon points="121.24 0 121.24 20 138.56 10" fill="green" transform="rotate(0,0,0)" />
<polygon points="121.24 20 121.24 40 138.56 30" fill="green" transform="rotate(0,0,0)" />
<polygon points="121.24 40 121.24 60 138.56 50" fill="green" transform="rotate(0,0,0)" />
<polygon points="121.24 60 121.24 80 138.56 70" fill="green" transform="rotate(0,0,0)" />
<polygon points="121.24 80 121.24 100 138.56 90" fill="green" transform="rotate(0,0,0)" />
<polygon points="121.24 100 121.24 120 138.56 110" fill="green" transform="rotate(0,0,0)" />
<polygon points="121.24 120 121.24 140 138.56 130" fill="green" transform="rotate(0,0,0)" />
<polygon points="138.56 0 138.56 20 155.88 10" fill="green" transform="rotate(0,0,0)" />
<polygon points="138.56 20 138.56 40 155.88 30" fill="green" transform="rotate(0,0,0)" />
<polygon points="138.56 40 138.56 60 155.88 50" fill="green" transform="rotate(0,0,0)" />
<polygon points="138.56 60 138.56 80 155.88 70" fill="green" transform="rotate(0,0,0)" />
<polygon points="138.56 80 138.56 100 155.88 90" fill="green" transform="rotate(0,0,0)" />
<polygon points="138.56 100 138.56 120 155.88 110" fill="green" transform="rotate(0,0,0)" />
<polygon points="138.56 120 138.56 140 155.88 130" fill="green" transform="rotate(0,0,0)" />
<polygon points="155.88 0 155.88 20 173.2 10" fill="green" transform="rotate(0,0,0)" />
<polygon points="155.88 20 155.88 40 173.2 30" fill="green" transform="rotate(0,0,0)" />
<polygon points="155.88 40 155.88 60 173.2 50" fill="green" transform="rotate(0,0,0)" />
<polygon points="155.88 60 155.88 80 173.2 70" fill="green" transform="rotate(0,0,0)" />
<polygon points="155.88 80 155.88 100 173.2 90" fill="green" transform="rotate(0,0,0)" />
<polygon points="155.88 100 155.88 120 173.2 110" fill="green" transform="rotate(0,0,0)" />
<polygon points="155.88 120 155.88 140 173.2 130" fill="green" transform="rotate(0,0,0)" />
<polygon points="173.2 0 173.2 20 190.52 10" fill="green" transform="rotate(0,0,0)" />
<polygon points="173.2 20 173.2 40 190.52 30" fill="green" transform="rotate(0,0,0)" />
<polygon points="173.2 40 173.2 60 190.52 50" fill="green" transform="rotate(0,0,0)" />
<polygon points="173.2 60 173.2 80 190.52 70" fill="green" transform="rotate(0,0,0)" />
<polygon points="173.2 80 173.2 100 190.52 90" fill="green" transform="rotate(0,0,0)" />
<polygon points="173.2 100 173.2 120 190.52 110" fill="green" transform="rotate(0,0,0)" />
<polygon points="173.2 120 173.2 140 190.52 130" fill="green" transform="rotate(0,0,0)" />
<polygon points="190.52 0 190.52 20 207.84 10" fill="green" transform="rotate(0,0,0)" />
<polygon points="190.52 20 190.52 40 207.84 30" fill="green" transform="rotate(0,0,0)" />
<polygon points="190.52 40 190.52 60 207.84 50" fill="green" transform="rotate(0,0,0)" />
<polygon points="190.52 60 190.52 80 207.84 70" fill="green" transform="rotate(0,0,0)" />
<polygon points="190.52 80 190.52 100 207.84 90" fill="green" transform="rotate(0,0,0)" />
<polygon points="190.52 100 190.52 120 207.84 110" fill="green" transform="rotate(0,0,0)" />
<polygon points="190.52 120 190.52 140 207.84 130" fill="green" transform="rotate(0,0,0)" />
<polygon points="207.84 0 207.84 20 225.16 10" fill="green" transform="rotate(0,0,0)" />
<polygon points="207.84 20 207.84 40 225.16 30" fill="green" transform="rotate(0,0,0)" />
<polygon points="207.84 40 207.84 60 225.16 50" fill="green" transform="rotate(0,0,0)" />
<polygon points="207.84 60 207.84 80 225.16 70" fill="green" transform="rotate(0,0,0)" />
<polygon points="207.84 80 207.84 100 225.16 90" fill="green" transform="rotate(0,0,0)" />
<polygon points="207.84 100 207.84 120 225.16 110" fill="green" transform="rotate(0,0,0)" />
<polygon points="207.84 120 207.84 140 225.16 130" fill="green" transform="rotate(0,0,0)" />
<polygon points="225.16 0 225.16 20 242.48 10" fill="green" transform="rotate(0,0,0)" />
<polygon points="225.16 20 225.16 40 242.48 30" fill="green" transform="rotate(0,0,0)" />
<polygon points="225.16 40 225.16 60 242.48 50" fill="green" transform="rotate(0,0,0)" />
<polygon points="225.16 60 225.16 80 242.48 70" fill="green" transform="rotate(0,0,0)" />
<polygon points="225.16 80 225.16 100 242.48 90" fill="green" transform="rotate(0,0,0)" />
<polygon points="225.16 100 225.16 120 242.48 110" fill="green" transform="rotate(0,0,0)" />
<polygon points="225.16 120 225.16 140 242.48 130" fill="green" transform="rotate(0,0,0)" />
<polygon points="242.48 0 242.48 20 259.8 10" fill="green" transform="rotate(0,0,0)" />
<polygon points="242.48 20 242.48 40 259.8 30" fill="green" transform="rotate(0,0,0)" />
<polygon points="242.48 40 242.48 60 259.8 50" fill="green" transform="rotate(0,0,0)" />
<polygon points="242.48 60 242.48 80 259.8 70" fill="green" transform="rotate(0,0,0)" />
<polygon points="242.48 80 242.48 100 259.8 90" fill="green" transform="rotate(0,0,0)" />
<polygon points="242.48 100 242.48 120 259.8 110" fill="green" transform="rotate(0,0,0)" />
<polygon points="242.48 120 242.48 140 259.8 130" fill="green" transform="rotate(0,0,0)" />
<polygon points="259.8 0 259.8 20 277.12 10" fill="green" transform="rotate(0,0,0)" />
<polygon points="259.8 20 259.8 40 277.12 30" fill="green" transform="rotate(0,0,0)" />
<polygon points="259.8 40 259.8 60 277.12 50" fill="green" transform="rotate(0,0,0)" />
<polygon points="259.8 60 259.8 80 277.12 70" fill="green" transform="rotate(0,0,0)" />
<polygon points="259.8 80 259.8 100 277.12 90" fill="green" transform="rotate(0,0,0)" />
<polygon points="259.8 100 259.8 120 277.12 110" fill="green" transform="rotate(0,0,0)" />
<polygon points="259.8 120 259.8 140 277.12 130" fill="green" transform="rotate(0,0,0)" />
<polygon points="277.12 0 277.12 20 294.44 10" fill="green" transform="rotate(0,0,0)" />
<polygon points="277.12 20 277.12 40 294.44 30" fill="green" transform="rotate(0,0,0)" />
<polygon points="277.12 40 277.12 60 294.44 50" fill="green" transform="rotate(0,0,0)" />
<polygon points="277.12 60 277.12 80 294.44 70" fill="green" transform="rotate(0,0,0)" />
<polygon points="277.12 80 277.12 100 294.44 90" fill="green" transform="rotate(0,0,0)" />
<polygon points="277.12 100 277.12 120 294.44 110" fill="green" transform="rotate(0,0,0)" />
<polygon points="277.12 120 277.12 140 294.44 130" fill="green" transform="rotate(0,0,0)" />
<polygon points="294.44 0 294.44 20 311.76 10" fill="green" transform="rotate(0,0,0)" />
<polygon points="294.44 20 294.44 40 311.76 30" fill="green" transform="rotate(0,0,0)" />
<polygon points="294.44 40 294.44 60 311.76 50" fill="green" transform="rotate(0,0,0)" />
<polygon points="294.44 60 294.44 80 311.76 70" fill="green" transform="rotate(0,0,0)" />
<polygon points="294.44 80 294.44 100 311.76 90" fill="green" transform="rotate(0,0,0)" />
<polygon points="294.44 100 294.44 120 311.76 110" fill="green" transform="rotate(0,0,0)" />
<polygon points="294.44 120 294.44 140 311.76 130" fill="green" transform="rotate(0,0,0)" />
<polygon points="311.76 0 311.76 20 329.08 10" fill="green" transform="rotate(0,0,0)" />
<polygon points="311.76 20 311.76 40 329.08 30" fill="green" transform="rotate(0,0,0)" />
<polygon points="311.76 40 311.76 60 329.08 50" fill="green" transform="rotate(0,0,0)" />
<polygon points="311.76 60 311.76 80 329.08 70" fill="green" transform="rotate(0,0,0)" />
<polygon points="311.76 80 311.76 100 329.08 90" fill="green" transform="rotate(0,0,0)" />
<polygon points="311.76 100 311.76 120 329.08 110" fill="green" transform="rotate(0,0,0)" />
<polygon points="311.76 120 311.76 140 329.08 130" fill="green" transform="rotate(0,0,0)" />
<polygon points="17.32 10 4.44089e-16 20 17.32 30" fill="green" transform="rotate(0,0,0)" />
<polygon points="34.64 10 17.32 20 34.64 30" fill="green" transform="rotate(0,0,0)" />
<polygon points="51.96 10 34.64 20 51.96 30" fill="green" transform="rotate(0,0,0)" />
<polygon points="69.28 10 51.96 20 69.28 30" fill="green" transform="rotate(0,0,0)" />
<polygon points="86.6 10 69.28 20 86.6 30" fill="green" transform="rotate(0,0,0)" />
<polygon points="103.92 10 86.6 20 103.92 30" fill="green" transform="rotate(0,0,0)" />
<polygon points="121.24 10 103.92 20 121.24 30" fill="green" transform="rotate(0,0,0)" />
<polygon points="138.56 10 121.24 20 138.56 30" fill="green" transform="rotate(0,0,0)" />
<polygon points="155.88 10 138.56 20 155.88 30" fill="green" transform="rotate(0,0,0)" />
<polygon points="173.2 10 155.88 20 173.2 30" fill="green" transform="rotate(0,0,0)" />
<polygon points="190.52 10 173.2 20 190.52 30" fill="green" transform="rotate(0,0,0)" />
<polygon points="207.84 10 190.52 20 207.84 30" fill="green" transform="rotate(0,0,0)" />
<polygon points="225.16 10 207.84 20 225.16 30" fill="green" transform="rotate(0,0,0)" />
<polygon points="242.48 10 225.16 20 242.48 30" fill="green" transform="rotate(0,0,0)" />
<polygon points="259.8 10 242.48 20 259.8 30" fill="green" transform="rotate(0,0,0)" />
<polygon points="277.12 10 259.8 20 277.12 30" fill="green" transform="rotate(0,0,0)" />
<polygon points="294.44 10 277.12 20 294.44 30" fill="green" transform="rotate(0,0,0)" />
<polygon points="311.76 10 294.44 20 311.76 30" fill="green" transform="rotate(0,0,0)" />
<polygon points="329.08 10 311.76 20 329.08 30" fill="green" transform="rotate(0,0,0)" />
<polygon points="17.32 30 4.44089e-16 40 17.32 50" fill="green" transform="rotate(0,0,0)" />
<polygon points="34.64 30 17.32 40 34.64 50" fill="green" transform="rotate(0,0,0)" />
<polygon points="51.96 30 34.64 40 51.96 50" fill="green" transform="rotate(0,0,0)" />
<polygon points="69.28 30 51.96 40 69.28 50" fill="green" transform="rotate(0,0,0)" />
<polygon points="86.6 30 69.28 40 86.6 50" fill="green" transform="rotate(0,0,0)" />
<polygon points="103.92 30 86.6 40 103.92 50" fill="green" transform="rotate(0,0,0)" />
<polygon points="121.24 30 103.92 40 121.24 50" fill="green" transform="rotate(0,0,0)" />
<polygon points="138.56 30 121.24 40 138.56 50" fill="green" transform="rotate(0,0,0)" />
<polygon points="155.88 30 138.56 40 155.88 50" fill="green" transform="rotate(0,0,0)" />
<polygon points="173.2 30 155.88 40 173.2 50" fill="green" transform="rotate(0,0,0)" />
<polygon points="190.52 30 173.2 40 190.52 50" fill="green" transform="rotate(0,0,0)" />
<polygon points="207.84 30 190.52 40 207.84 50" fill="green" transform="rotate(0,0,0)" />
<polygon points="225.16 30 207.84 40 225.16 50" fill="green" transform="rotate(0,0,0)" />
<polygon points="242.48 30 225.16 40 242.48 50" fill="green" transform="rotate(0,0,0)" />
<polygon points="259.8 30 242.48 40 259.8 50" fill="green" transform="rotate(0,0,0)" />
<polygon points="277.12 30 259.8 40 277.12 50" fill="green" transform="rotate(0,0,0)" />
<polygon points="294.44 30 277.12 40 294.44 50" fill="green" transform="rotate(0,0,0)" />
<polygon points="311.76 30 294.44 40 311.76 50" fill="green" transform="rotate(0,0,0)" />
<polygon points="329.08 30 311.76 40 329.08 50" fill="green" transform="rotate(0,0,0)" />
<polygon points="17.32 50 4.44089e-16 60 17.32 70" fill="green" transform="rotate(0,0,0)" />
<polygon points="34.64 50 17.32 60 34.64 70" fill="green" transform="rotate(0,0,0)" />
<polygon points="51.96 50 34.64 60 51.96 70" fill="green" transform="rotate(0,0,0)" />
<polygon points="69.28 50 51.96 60 69.28 70" fill="green" transform="rotate(0,0,0)" />
<polygon points="86.6 50 69.28 60 86.6 70" fill="green" transform="rotate(0,0,0)" />
<polygon points="103.92 50 86.6 60 103.92 70" fill="green" transform="rotate(0,0,0)" />
<polygon points="121.24 50 103.92 60 121.24 70" fill="green" transform="rotate(0,0,0)" />
<polygon points="138.56 50 121.24 60 138.56 70" fill="green" transform="rotate(0,0,0)" />
<polygon points="155.88 50 138.56 60 155.88 70" fill="green" transform="rotate(0,0,0)" />
<polygon points="173.2 50 155.88 60 173.2 70" fill="green" transform="rotate(0,0,0)" />
<polygon points="190.52 50 173.2 60 190.52 70" fill="green" transform="rotate(0,0,0)" />
<polygon points="207.84 50 190.52 60 207.84 70" fill="green" transform="rotate(0,0,0)" />
<polygon points="225.16 50 207.84 60 225.16 70" fill="green" transform="rotate(0,0,0)" />
<polygon points="242.48 50 225.16 60 242.48 70" fill="green" transform="rotate(0,0,0)" />
<polygon points="259.8 50 242.48 60 259.8 70" fill="green" transform="rotate(0,0,0)" />
<polygon points="277.12 50 259.8 60 277.12 70" fill="green" transform="rotate(0,0,0)" />
<polygon points="294.44 50 277.12 60 294.44 70" fill="green" transform="rotate(0,0,0)" />
<polygon points="311.76 50 294.44 60 311.76 70" fill="green" transform="rotate(0,0,0)" />
<polygon points="329.08 50 311.76 60 329.08 70" fill="green" transform="rotate(0,0,0)" />
<polygon points="17.32 70 4.44089e-16 80 17.32 90" fill="green" transform="rotate(0,0,0)" />
<polygon points="34.64 70 17.32 80 34.64 90" fill="green" transform="rotate(0,0,0)" />
<polygon points="51.96 70 34.64 80 51.96 90" fill="green" transform="rotate(0,0,0)" />
<polygon points="69.28 70 51.96 80 69.28 90" fill="green" transform="rotate(0,0,0)" />
<polygon points="86.6 70 69.28 80 86.6 90" fill="green" transform="rotate(0,0,0)" />
<polygon points="103.92 70 86.6 80 103.92 90" fill="green" transform="rotate(0,0,0)" />
<polygon points="121.24 70 103.92 80 121.24 90" fill="green" transform="rotate(0,0,0)" />
<polygon points="138.56 70 121.24 80 138.56 90" fill="green" transform="rotate(0,0,0)" />
<polygon points="155.88 70 138.56 80 155.88 90" fill="green" transform="rotate(0,0,0)" />
<polygon points="173.2 70 155.88 80 173.2 90" fill="green" transform="rotate(0,0,0)" />
<polygon points="190.52 70 173.2 80 190.52 90" fill="green" transform="rotate(0,0,0)" />
<polygon points="207.84 70 190.52 80 207.84 90" fill="green" transform="rotate(0,0,0)" />
<polygon points="225.16 70 207.84 80 225.16 90" fill="green" transform="rotate(0,0,0)" />
<polygon points="242.48 70 225.16 80 242.48 90" fill="green" transform="rotate(0,0,0)" />
<polygon points="259.8 70 242.48 80 259.8 90" fill="green" transform="rotate(0,0,0)" />
<polygon points="277.12 70 259.8 80 277.12 90" fill="green" transform="rotate(0,0,0)" />
<polygon points="294.44 70 277.12 80 294.44 90" fill="green" transform="rotate(0,0,0)" />
<polygon points="311.76 70 294.44 80 311.76 90" fill="green" transform="rotate(0,0,0)" />
<polygon points="329.08 70 311.76 80 329.08 90" fill="green" transform="rotate(0,0,0)" />
<polygon points="17.32 90 4.44089e-16 100 17.32 110" fill="green" transform="rotate(0,0,0)" />
<polygon points="34.64 90 17.32 100 34.64 110" fill="green" transform="rotate(0,0,0)" />
<polygon points="51.96 90 34.64 100 51.96 110" fill="green" transform="rotate(0,0,0)" />
<polygon points="69.28 90 51.96 100 69.28 110" fill="green" transform="rotate(0,0,0)" />
<polygon points="86.6 90 69.28 100 86.6 110" fill="green" transform="rotate(0,0,0)" />
<polygon points="103.92 90 86.6 100 103.92 110" fill="green" transform="rotate(0,0,0)" />
<polygon points="121.24 90 103.92 100 121.24 110" fill="green" transform="rotate(0,0,0)" />
<polygon points="138.56 90 121.24 100 138.56 110" fill="green" transform="rotate(0,0,0)" />
<polygon points="155.88 90 138.56 100 155.88 110" fill="green" transform="rotate(0,0,0)" />
<polygon points="173.2 90 155.88 100 173.2 110" fill="green" transform="rotate(0,0,0)" />
<polygon points="190.52 90 173.2 100 190.52 110" fill="green" transform="rotate(0,0,0)" />
<polygon points="207.84 90 190.52 100 207.84 110" fill="green" transform="rotate(0,0,0)" />
<polygon points="225.16 90 207.84 100 225.16 110" fill="green" transform="rotate(0,0,0)" />
<polygon points="242.48 90 225.16 100 242.48 110" fill="green" transform="rotate(0,0,0)" />
<polygon points="259.8 90 242.48 100 259.8 110" fill="green" transform="rotate(0,0,0)" />
<polygon points="277.12 90 259.8 100 277.12 110" fill="green" transform="rotate(0,0,0)" />
<polygon points="294.44 90 277.12 100 294.44 110" fill="green" transform="rotate(0,0,0)" />
<polygon points="311.76 90 294.44 100 311.76 110" fill="green" transform="rotate(0,0,0)" />
<polygon points="329.08 90 311.76 100 329.08 110" fill="green" transform="rotate(0,0,0)" />
<polygon points="17.32 110 4.44089e-16 120 17.32 130" fill="green" transform="rotate(0,0,0)" />
<polygon points="34.64 110 17.32 120 34.64 130" fill="green" transform="rotate(0,0,0)" />
<polygon points="51.96 110 34.64 120 51.96 130" fill="green" transform="rotate(0,0,0)" />
<polygon points="69.28 110 51.96 120 69.28 130" fill="green" transform="rotate(0,0,0)" />
<polygon points="86.6 110 69.28 120 86.6 130" fill="green" transform="rotate(0,0,0)" />
<polygon points="103.92 110 86.6 120 103.92 130" fill="green" transform="rotate(0,0,0)" />
<polygon points="121.24 110 103.92 120 121.24 130" fill="green" transform="rotate(0,0,0)" />
<polygon points="138.56 110 121.24 120 138.56 130" fill="green" transform="rotate(0,0,0)" />
<polygon points="155.88 110 138.56 120 155.88 130" fill="green" transform="rotate(0,0,0)" />
<polygon points="173.2 110 155.88 120 173.2 130" fill="green" transform="rotate(0,0,0)" />
<polygon points="190.52 110 173.2 120 190.52 130" fill="green" transform="rotate(0,0,0)" />
<polygon points="207.84 110 190.52 120 207.84 130" fill="green" transform="rotate(0,0,0)" />
<polygon points="225.16 110 207.84 120 225.16 130" fill="green" transform="rotate(0,0,0)" />
<polygon points="242.48 110 225.16 120 242.48 130" fill="green" transform="rotate(0,0,0)" />
<polygon points="259.8 110 242.48 120 259.8 130" fill="green" transform="rotate(0,0,0)" />
<polygon points="277.12 110 259.8 120 277.12 130" fill="green" transform="rotate(0,0,0)" />
<polygon points="294.44 110 277.12 120 294.44 130" fill="green" transform="rotate(0,0,0)" />
<polygon points="311.76 110 294.44 120 311.76 130" fill="green" transform="rotate(0,0,0)" />
<polygon points="329.08 110 311.76 120 329.08 130" fill="green" transform="rotate(0,0,0)" />
<polygon points="17.32 130 4.44089e-16 140 17.32 150" fill="green" transform="rotate(0,0,0)" />
<polygon points="34.64 130 17.32 140 34.64 150" fill="green" transform="rotate(0,0,0)" />
<polygon points="51.96 130 34.64 140 51.96 150" fill="green" transform="rotate(0,0,0)" />
<polygon points="69.28 130 51.96 140 69.28 150" fill="green" transform="rotate(0,0,0)" />
<polygon points="86.6 130 69.28 140 86.6 150" fill="green" transform="rotate(0,0,0)" />
<polygon points="103.92 130 86.6 140 103.92 150" fill="green" transform="rotate(0,0,0)" />
<polygon points="121.24 130 103.92 140 121.24 150" fill="green" transform="rotate(0,0,0)" />
<polygon points="138.56 130 121.24 140 138.56 150" fill="green" transform="rotate(0,0,0)" />
<polygon points="155.88 130 138.56 140 155.88 150" fill="green" transform="rotate(0,0,0)" />
<polygon points="173.2 130 155.88 140 173.2 150" fill="green" transform="rotate(0,0,0)" />
<polygon points="190.52 130 173.2 140 190.52 150" fill="green" transform="rotate(0,0,0)" />
<polygon points="207.84 130 190.52 140 207.84 150" fill="green" transform="rotate(0,0,0)" />
<polygon points="225.16 130 207.84 140 225.16 150" fill="green" transform="rotate(0,0,0)" />
<polygon points="242.48 130 225.16 140 242.48 150" fill="green" transform="rotate(0,0,0)" />
<polygon points="259.8 130 242.48 140 259.8 150" fill="green" transform="rotate(0,0,0)" />
<polygon points="277.12 130 259.8 140 277.12 150" fill="green" transform="rotate(0,0,0)" />
<polygon points="294.44 130 277.12 140 294.44 150" fill="green" transform="rotate(0,0,0)" />
<polygon points="311.76 130 294.44 140 311.76 150" fill="green" transform="rotate(0,0,0)" />
<polygon points="329.08 130 311.76 140 329.08 150" fill="green" transform="rotate(0,0,0)" />
</svg>