<svg version="1.1"
baseProfile="full" width="100%" height="100%"
xmlns="http://www.w3.org/2000/svg">
    	<polygon points=" 125,0 0,216.5 250,216.5" stroke="black" fill="red" />
<polygon points=" 36.6051,166.5 38.6011,180.486 40.5971,186.077 42.5931,190.226 44.5891,193.605 46.5851,196.473 48.5811,198.968 50.5771,201.17 52.5731,203.131 54.5692,204.889 56.5652,206.47 58.5612,207.895 60.5572,209.179 62.5532,210.335 64.5492,211.372 66.5452,212.3 68.5412,213.123 70.5372,213.848 72.5332,214.479 74.5292,215.02 76.5252,215.473 78.5212,215.842 80.5173,216.128 82.5133,216.332 84.5093,216.456 86.5053,216.5 88.5013,216.464 90.4973,216.348 92.4933,216.152 94.4893,215.874 96.4853,215.514 98.4813,215.069 100.477,214.537 102.473,213.915 104.469,213.2 106.465,212.386 108.461,211.47 110.457,210.444 112.453,209.3 114.449,208.029 116.445,206.619 118.441,205.054 120.437,203.315 122.433,201.376 124.429,199.2 126.425,196.738 128.421,193.912 130.417,190.593 132.413,186.54 134.409,181.154 136.405,162.037 134.409,151.846 132.413,146.46 130.417,142.407 128.421,139.088 126.425,136.262 124.429,133.8 122.433,131.624 120.437,129.685 118.441,127.946 116.445,126.381 114.449,124.971 112.453,123.7 110.457,122.556 108.461,121.53 106.465,120.614 104.469,119.8 102.473,119.085 100.477,118.463 98.4813,117.931 96.4853,117.486 94.4893,117.126 92.4933,116.848 90.4973,116.652 88.5013,116.536 86.5053,116.5 84.5093,116.544 82.5133,116.668 80.5173,116.872 78.5212,117.158 76.5252,117.527 74.5292,117.98 72.5332,118.521 70.5372,119.152 68.5412,119.877 66.5452,120.7 64.5492,121.628 62.5532,122.665 60.5572,123.821 58.5612,125.105 56.5652,126.53 54.5692,128.111 52.5731,129.869 50.5771,131.83 48.5811,134.032 46.5851,136.527 44.5891,139.395 42.5931,142.774 40.5971,146.923 38.6011,152.514" fill="green" stroke="black" transform="rotate(0,0,0)" />
</svg>