<svg version="1.1"
baseProfile="full" width="100%" height="100%"
xmlns="http://www.w3.org/2000/svg">
    	<polygon points=" 0,0 200,0 200,100 0,100" stroke="black" fill="red" />
<polygon points=" 0,0 10,0 10,20 0,20" fill="green" stroke="black" transform="rotate(0,0,0)" />
<polygon points=" 0,20 10,20 10,40 0,40" fill="green" stroke="black" transform="rotate(0,0,0)" />
<polygon points=" 0,40 10,40 10,60 0,60" fill="green" stroke="black" transform="rotate(0,0,0)" />
<polygon points=" 0,60 10,60 10,80 0,80" fill="green" stroke="black" transform="rotate(0,0,0)" />
<polygon points=" 0,80 10,80 10,100 0,100" fill="green" stroke="black" transform="rotate(0,0,0)" />
<polygon points=" 10,0 20,0 20,20 10,20" fill="green" stroke="black" transform="rotate(0,0,0)" />
<polygon points=" 10,20 20,20 20,40 10,40" fill="green" stroke="black" transform="rotate(0,0,0)" />
<polygon points=" 10,40 20,40 20,60 10,60" fill="green" stroke="black" transform="rotate(0,0,0)" />
<polygon points=" 10,60 20,60 20,80 10,80" fill="green" stroke="black" transform="rotate(0,0,0)" />
<polygon points=" 10,80 20,80 20,100 10,100" fill="green" stroke="black" transform="rotate(0,0,0)" />
<polygon points=" 20,0 30,0 30,20 20,20" fill="green" stroke="black" transform="rotate(0,0,0)" />
<polygon points=" 20,20 30,20 30,40 20,40" fill="green" stroke="black" transform="rotate(0,0,0)" />
<polygon points=" 20,40 30,40 30,60 20,60" fill="green" stroke="black" transform="rotate(0,0,0)" />
<polygon points=" 20,60 30,60 30,80 20,80" fill="green" stroke="black" transform="rotate(0,0,0)" />
<polygon points=" 20,80 30,80 30,100 20,100" fill="green" stroke="black" transform="rotate(0,0,0)" />
<polygon points=" 30,0 40,0 40,20 30,20" fill="green" stroke="black" transform="rotate(0,0,0)" />
<polygon points=" 30,20 40,20 40,40 30,40" fill="green" stroke="black" transform="rotate(0,0,0)" />
<polygon points=" 30,40 40,40 40,60 30,60" fill="green" stroke="black" transform="rotate(0,0,0)" />
<polygon points=" 30,60 40,60 40,80 30,80" fill="green" stroke="black" transform="rotate(0,0,0)" />
<polygon points=" 30,80 40,80 40,100 30,100" fill="green" stroke="black" transform="rotate(0,0,0)" />
<polygon points=" 40,0 50,0 50,20 40,20" fill="green" stroke="black" transform="rotate(0,0,0)" />
<polygon points=" 40,20 50,20 50,40 40,40" fill="green" stroke="black" transform="rotate(0,0,0)" />
<polygon points=" 40,40 50,40 50,60 40,60" fill="green" stroke="black" transform="rotate(0,0,0)" />
<polygon points=" 40,60 50,60 50,80 40,80" fill="green" stroke="black" transform="rotate(0,0,0)" />
<polygon points=" 40,80 50,80 50,100 40,100" fill="green" stroke="black" transform="rotate(0,0,0)" />
<polygon points=" 50,0 60,0 60,20 50,20" fill="green" stroke="black" transform="rotate(0,0,0)" />
<polygon points=" 50,20 60,20 60,40 50,40" fill="green" stroke="black" transform="rotate(0,0,0)" />
<polygon points=" 50,40 60,40 60,60 50,60" fill="green" stroke="black" transform="rotate(0,0,0)" />
<polygon points=" 50,60 60,60 60,80 50,80" fill="green" stroke="black" transform="rotate(0,0,0)" />
<polygon points=" 50,80 60,80 60,100 50,100" fill="green" stroke="black" transform="rotate(0,0,0)" />
<polygon points=" 60,0 70,0 70,20 60,20" fill="green" stroke="black" transform="rotate(0,0,0)" />
<polygon points=" 60,20 70,20 70,40 60,40" fill="green" stroke="black" transform="rotate(0,0,0)" />
<polygon points=" 60,40 70,40 70,60 60,60" fill="green" stroke="black" transform="rotate(0,0,0)" />
<polygon points=" 60,60 70,60 70,80 60,80" fill="green" stroke="black" transform="rotate(0,0,0)" />
<polygon points=" 60,80 70,80 70,100 60,100" fill="green" stroke="black" transform="rotate(0,0,0)" />
<polygon points=" 70,0 80,0 80,20 70,20" fill="green" stroke="black" transform="rotate(0,0,0)" />
<polygon points=" 70,20 80,20 80,40 70,40" fill="green" stroke="black" transform="rotate(0,0,0)" />
<polygon points=" 70,40 80,40 80,60 70,60" fill="green" stroke="black" transform="rotate(0,0,0)" />
<polygon points=" 70,60 80,60 80,80 70,80" fill="green" stroke="black" transform="rotate(0,0,0)" />
<polygon points=" 70,80 80,80 80,100 70,100" fill="green" stroke="black" transform="rotate(0,0,0)" />
<polygon points=" 80,0 90,0 90,20 80,20" fill="green" stroke="black" transform="rotate(0,0,0)" />
<polygon points=" 80,20 90,20 90,40 80,40" fill="green" stroke="black" transform="rotate(0,0,0)" />
<polygon points=" 80,40 90,40 90,60 80,60" fill="green" stroke="black" transform="rotate(0,0,0)" />
<polygon points=" 80,60 90,60 90,80 80,80" fill="green" stroke="black" transform="rotate(0,0,0)" />
<polygon points=" 80,80 90,80 90,100 80,100" fill="green" stroke="black" transform="rotate(0,0,0)" />
<polygon points=" 90,0 100,0 100,20 90,20" fill="green" stroke="black" transform="rotate(0,0,0)" />
<polygon points=" 90,20 100,20 100,40 90,40" fill="green" stroke="black" transform="rotate(0,0,0)" />
<polygon points=" 90,40 100,40 100,60 90,60" fill="green" stroke="black" transform="rotate(0,0,0)" />
<polygon points=" 90,60 100,60 100,80 90,80" fill="green" stroke="black" transform="rotate(0,0,0)" />
<polygon points=" 90,80 100,80 100,100 90,100" fill="green" stroke="black" transform="rotate(0,0,0)" />
<polygon points=" 100,0 110,0 110,20 100,20" fill="green" stroke="black" transform="rotate(0,0,0)" />
<polygon points=" 100,20 110,20 110,40 100,40" fill="green" stroke="black" transform="rotate(0,0,0)" />
<polygon points=" 100,40 110,40 110,60 100,60" fill="green" stroke="black" transform="rotate(0,0,0)" />
<polygon points=" 100,60 110,60 110,80 100,80" fill="green" stroke="black" transform="rotate(0,0,0)" />
<polygon points=" 100,80 110,80 110,100 100,100" fill="green" stroke="black" transform="rotate(0,0,0)" />
<polygon points=" 110,0 120,0 120,20 110,20" fill="green" stroke="black" transform="rotate(0,0,0)" />
<polygon points=" 110,20 120,20 120,40 110,40" fill="green" stroke="black" transform="rotate(0,0,0)" />
<polygon points=" 110,40 120,40 120,60 110,60" fill="green" stroke="black" transform="rotate(0,0,0)" />
<polygon points=" 110,60 120,60 120,80 110,80" fill="green" stroke="black" transform="rotate(0,0,0)" />
<polygon points=" 110,80 120,80 120,100 110,100" fill="green" stroke="black" transform="rotate(0,0,0)" />
<polygon points=" 120,0 130,0 130,20 120,20" fill="green" stroke="black" transform="rotate(0,0,0)" />
<polygon points=" 120,20 130,20 130,40 120,40" fill="green" stroke="black" transform="rotate(0,0,0)" />
<polygon points=" 120,40 130,40 130,60 120,60" fill="green" stroke="black" transform="rotate(0,0,0)" />
<polygon points=" 120,60 130,60 130,80 120,80" fill="green" stroke="black" transform="rotate(0,0,0)" />
<polygon points=" 120,80 130,80 130,100 120,100" fill="green" stroke="black" transform="rotate(0,0,0)" />
<polygon points=" 130,0 140,0 140,20 130,20" fill="green" stroke="black" transform="rotate(0,0,0)" />
<polygon points=" 130,20 140,20 140,40 130,40" fill="green" stroke="black" transform="rotate(0,0,0)" />
<polygon points=" 130,40 140,40 140,60 130,60" fill="green" stroke="black" transform="rotate(0,0,0)" />
<polygon points=" 130,60 140,60 140,80 130,80" fill="green" stroke="black" transform="rotate(0,0,0)" />
<polygon points=" 130,80 140,80 140,100 130,100" fill="green" stroke="black" transform="rotate(0,0,0)" />
<polygon points=" 140,0 150,0 150,20 140,20" fill="green" stroke="black" transform="rotate(0,0,0)" />
<polygon points=" 140,20 150,20 150,40 140,40" fill="green" stroke="black" transform="rotate(0,0,0)" />
<polygon points=" 140,40 150,40 150,60 140,60" fill="green" stroke="black" transform="rotate(0,0,0)" />
<polygon points=" 140,60 150,60 150,80 140,80" fill="green" stroke="black" transform="rotate(0,0,0)" />
<polygon points=" 140,80 150,80 150,100 140,100" fill="green" stroke="black" transform="rotate(0,0,0)" />
<polygon points=" 150,0 160,0 160,20 150,20" fill="green" stroke="black" transform="rotate(0,0,0)" />
<polygon points=" 150,20 160,20 160,40 150,40" fill="green" stroke="black" transform="rotate(0,0,0)" />
<polygon points=" 150,40 160,40 160,60 150,60" fill="green" stroke="black" transform="rotate(0,0,0)" />
<polygon points=" 150,60 160,60 160,80 150,80" fill="green" stroke="black" transform="rotate(0,0,0)" />
<polygon points=" 150,80 160,80 160,100 150,100" fill="green" stroke="black" transform="rotate(0,0,0)" />
<polygon points=" 160,0 170,0 170,20 160,20" fill="green" stroke="black" transform="rotate(0,0,0)" />
<polygon points=" 160,20 170,20 170,40 160,40" fill="green" stroke="black" transform="rotate(0,0,0)" />
<polygon points=" 160,40 170,40 170,60 160,60" fill="green" stroke="black" transform="rotate(0,0,0)" />
<polygon points=" 160,60 170,60 170,80 160,80" fill="green" stroke="black" transform="rotate(0,0,0)" />
<polygon points=" 160,80 170,80 170,100 160,100" fill="green" stroke="black" transform="rotate(0,0,0)" />
<polygon points=" 170,0 180,0 180,20 170,20" fill="green" stroke="black" transform="rotate(0,0,0)" />
<polygon points=" 170,20 180,20 180,40 170,40" fill="green" stroke="black" transform="rotate(0,0,0)" />
<polygon points=" 170,40 180,40 180,60 170,60" fill="green" stroke="black" transform="rotate(0,0,0)" />
<polygon points=" 170,60 180,60 180,80 170,80" fill="green" stroke="black" transform="rotate(0,0,0)" />
<polygon points=" 170,80 180,80 180,100 170,100" fill="green" stroke="black" transform="rotate(0,0,0)" />
<polygon points=" 180,0 190,0 190,20 180,20" fill="green" stroke="black" transform="rotate(0,0,0)" />
<polygon points=" 180,20 190,20 190,40 180,40" fill="green" stroke="black" transform="rotate(0,0,0)" />
<polygon points=" 180,40 190,40 190,60 180,60" fill="green" stroke="black" transform="rotate(0,0,0)" />
<polygon points=" 180,60 190,60 190,80 180,80" fill="green" stroke="black" transform="rotate(0,0,0)" />
<polygon points=" 180,80 190,80 190,100 180,100" fill="green" stroke="black" transform="rotate(0,0,0)" />
<polygon points=" 190,0 200,0 200,20 190,20" fill="green" stroke="black" transform="rotate(0,0,0)" />
<polygon points=" 190,20 200,20 200,40 190,40" fill="green" stroke="black" transform="rotate(0,0,0)" />
<polygon points=" 190,40 200,40 200,60 190,60" fill="green" stroke="black" transform="rotate(0,0,0)" />
<polygon points=" 190,60 200,60 200,80 190,80" fill="green" stroke="black" transform="rotate(0,0,0)" />
<polygon points=" 190,80 200,80 200,100 190,100" fill="green" stroke="black" transform="rotate(0,0,0)" />
</svg>