<svg version="1.1"
baseProfile="full" width="100%" height="100%"
xmlns="http://www.w3.org/2000/svg">
    	<polygon points=" 0,0 330,0 330,150 0,150" stroke="black" fill="red" />
<polygon points=" 0,50 1.99601,63.9863 3.99202,69.5772 5.98802,73.7265 7.98403,77.1046 9.98004,79.9734 11.976,82.4681 13.9721,84.6697 15.9681,86.631 17.9641,88.3888 19.9601,89.97 21.9561,91.3949 23.9521,92.6791 25.9481,93.835 27.9441,94.8725 29.9401,95.7996 31.9361,96.6229 33.9321,97.3479 35.9281,97.979 37.9242,98.5198 39.9202,98.9734 41.9162,99.3422 43.9122,99.628 45.9082,99.8323 47.9042,99.9561 49.9002,99.9999 51.8962,99.964 53.8922,99.8483 55.8882,99.6521 57.8842,99.3745 59.8802,99.0141 61.8762,98.5691 63.8723,98.0371 65.8683,97.4152 67.8643,96.6998 69.8603,95.8865 71.8563,94.97 73.8523,93.9439 75.8483,92.8003 77.8443,91.5294 79.8403,90.1193 81.8363,88.5545 83.8323,86.8154 85.8283,84.8759 87.8244,82.7004 89.8204,80.238 91.8164,77.4115 93.8124,74.0931 95.8084,70.0398 97.8044,64.654 99.8004,45.5368 97.8044,35.346 95.8084,29.9602 93.8124,25.9069 91.8164,22.5885 89.8204,19.762 87.8244,17.2996 85.8283,15.1241 83.8323,13.1846 81.8363,11.4455 79.8403,9.88074 77.8443,8.47056 75.8483,7.19971 73.8523,6.05608 71.8563,5.02998 69.8603,4.11352 67.8643,3.30024 65.8683,2.58483 63.8723,1.96293 61.8762,1.43093 59.8802,0.985912 57.8842,0.625524 55.8882,0.347922 53.8922,0.151724 51.8962,0.035969 49.9002,9.96013e-05 47.9042,0.0439434 45.9082,0.167711 43.9122,0.372 41.9162,0.657811 39.9202,1.02657 37.9242,1.48017 35.9281,2.02102 33.9321,2.6521 31.9361,3.37708 29.9401,4.20042 27.9441,5.12754 25.9481,6.16501 23.9521,7.32089 21.9561,8.60508 19.9601,10.03 17.9641,11.6112 15.9681,13.369 13.9721,15.3303 11.976,17.5319 9.98004,20.0266 7.98403,22.8954 5.98802,26.2735 3.99202,30.4228 1.99601,36.0137" fill="green" stroke="black" transform="rotate(0,0,0)" />
<polygon points=" 100,50 101.996,63.9863 103.992,69.5772 105.988,73.7265 107.984,77.1046 109.98,79.9734 111.976,82.4681 113.972,84.6697 115.968,86.631 117.964,88.3888 119.96,89.97 121.956,91.3949 123.952,92.6791 125.948,93.835 127.944,94.8725 129.94,95.7996 131.936,96.6229 133.932,97.3479 135.928,97.979 137.924,98.5198 139.92,98.9734 141.916,99.3422 143.912,99.628 145.908,99.8323 147.904,99.9561 149.9,99.9999 151.896,99.964 153.892,99.8483 155.888,99.6521 157.884,99.3745 159.88,99.0141 161.876,98.5691 163.872,98.0371 165.868,97.4152 167.864,96.6998 169.86,95.8865 171.856,94.97 173.852,93.9439 175.848,92.8003 177.844,91.5294 179.84,90.1193 181.836,88.5545 183.832,86.8154 185.828,84.8759 187.824,82.7004 189.82,80.238 191.816,77.4115 193.812,74.0931 195.808,70.0398 197.804,64.654 199.8,45.5368 197.804,35.346 195.808,29.9602 193.812,25.9069 191.816,22.5885 189.82,19.762 187.824,17.2996 185.828,15.1241 183.832,13.1846 181.836,11.4455 179.84,9.88074 177.844,8.47056 175.848,7.19971 173.852,6.05608 171.856,5.02998 169.86,4.11352 167.864,3.30024 165.868,2.58483 163.872,1.96293 161.876,1.43093 159.88,0.985912 157.884,0.625524 155.888,0.347922 153.892,0.151724 151.896,0.035969 149.9,9.96013e-05 147.904,0.0439434 145.908,0.167711 143.912,0.372 141.916,0.657811 139.92,1.02657 137.924,1.48017 135.928,2.02102 133.932,2.6521 131.936,3.37708 129.94,4.20042 127.944,5.12754 125.948,6.16501 123.952,7.32089 121.956,8.60508 119.96,10.03 117.964,11.6112 115.968,13.369 113.972,15.3303 111.976,17.5319 109.98,20.0266 107.984,22.8954 105.988,26.2735 103.992,30.4228 101.996,36.0137" fill="green" stroke="black" transform="rotate(0,0,0)" />
<polygon points=" 200,50 201.996,63.9863 203.992,69.5772 205.988,73.7265 207.984,77.1046 209.98,79.9734 211.976,82.4681 213.972,84.6697 215.968,86.631 217.964,88.3888 219.96,89.97 221.956,91.3949 223.952,92.6791 225.948,93.835 227.944,94.8725 229.94,95.7996 231.936,96.6229 233.932,97.3479 235.928,97.979 237.924,98.5198 239.92,98.9734 241.916,99.3422 243.912,99.628 245.908,99.8323 247.904,99.9561 249.9,99.9999 251.896,99.964 253.892,99.8483 255.888,99.6521 257.884,99.3745 259.88,99.0141 261.876,98.5691 263.872,98.0371 265.868,97.4152 267.864,96.6998 269.86,95.8865 271.856,94.97 273.852,93.9439 275.848,92.8003 277.844,91.5294 279.84,90.1193 281.836,88.5545 283.832,86.8154 285.828,84.8759 287.824,82.7004 289.82,80.238 291.816,77.4115 293.812,74.0931 295.808,70.0398 297.804,64.654 299.8,45.5368 297.804,35.346 295.808,29.9602 293.812,25.9069 291.816,22.5885 289.82,19.762 287.824,17.2996 285.828,15.1241 283.832,13.1846 281.836,11.4455 279.84,9.88074 277.844,8.47056 275.848,7.19971 273.852,6.05608 271.856,5.02998 269.86,4.11352 267.864,3.30024 265.868,2.58483 263.872,1.96293 261.876,1.43093 259.88,0.985912 257.884,0.625524 255.888,0.347922 253.892,0.151724 251.896,0.035969 249.9,9.96013e-05 247.904,0.0439434 245.908,0.167711 243.912,0.372 241.916,0.657811 239.92,1.02657 237.924,1.48017 235.928,2.02102 233.932,2.6521 231.936,3.37708 229.94,4.20042 227.944,5.12754 225.948,6.16501 223.952,7.32089 221.956,8.60508 219.96,10.03 217.964,11.6112 215.968,13.369 213.972,15.3303 211.976,17.5319 209.98,20.0266 207.984,22.8954 205.988,26.2735 203.992,30.4228 201.996,36.0137" fill="green" stroke="black" transform="rotate(0,0,0)" />
</svg>