<svg version="1.1"
baseProfile="full" width="100%" height="100%"
xmlns="http://www.w3.org/2000/svg">
    	<polyline points=" 0,300 11.976,383.918 23.9521,417.463 35.9281,442.359 47.9042,462.627 59.8802,479.84 71.8563,494.809 83.8323,508.018 95.8084,519.786 107.784,530.333 119.76,539.82 131.737,548.369 143.713,556.075 155.689,563.01 167.665,569.235 179.641,574.797 191.617,579.738 203.593,584.087 215.569,587.874 227.545,591.119 239.521,593.841 251.497,596.053 263.473,597.768 275.449,598.994 287.425,599.736 299.401,599.999 311.377,599.784 323.353,599.09 335.329,597.912 347.305,596.247 359.281,594.085 371.257,591.414 383.234,588.222 395.21,584.491 407.186,580.199 419.162,575.319 431.138,569.82 443.114,563.664 455.09,556.802 467.066,549.177 479.042,540.716 491.018,531.327 502.994,520.892 514.97,509.256 526.946,496.203 538.922,481.428 550.898,464.469 562.874,444.558 574.85,420.239 586.826,387.924 598.802,273.221 586.826,212.076 574.85,179.761 562.874,155.442 550.898,135.531 538.922,118.572 526.946,103.797 514.97,90.7445 502.994,79.1076 491.018,68.6731 479.042,59.2844 467.066,50.8234 455.09,43.1982 443.114,36.3365 431.138,30.1799 419.162,24.6811 407.186,19.8014 395.21,15.509 383.234,11.7776 371.257,8.58557 359.281,5.91547 347.305,3.75314 335.329,2.08753 323.353,0.910342 311.377,0.215814 299.401,0.000597608 287.425,0.263661 275.449,1.00627 263.473,2.232 251.497,3.94686 239.521,6.15942 227.545,8.88102 215.569,12.1261 203.593,15.9126 191.617,20.2625 179.641,25.2025 167.665,30.7652 155.689,36.9901 143.713,43.9253 131.737,51.6305 119.76,60.1798 107.784,69.6673 95.8084,80.2142 83.8323,91.9819 71.8563,105.191 59.8802,120.16 47.9042,137.373 35.9281,157.641 23.9521,182.537 11.976,216.082" fill="none" stroke="black" />
</svg>