<svg version="1.1"
baseProfile="full" width="100%" height="100%"
xmlns="http://www.w3.org/2000/svg">
    	<polygon points=" 125,0 0,216.5 250,216.5" stroke="black" fill="red" />
<polygon points=" 125,0 132.5,12.99 117.5,12.99" fill="green" stroke="black" transform="rotate(0,0,0)" />
<polygon points=" 125,25.98 132.5,12.99 117.5,12.99" fill="green" stroke="black" transform="rotate(0,0,0)" />
<polygon points=" 117.5,12.99 125,25.98 110,25.98" fill="green" stroke="black" transform="rotate(0,0,0)" />
<polygon points=" 117.5,38.97 125,25.98 110,25.98" fill="green" stroke="black" transform="rotate(0,0,0)" />
<polygon points=" 132.5,12.99 140,25.98 125,25.98" fill="green" stroke="black" transform="rotate(0,0,0)" />
<polygon points=" 132.5,38.97 140,25.98 125,25.98" fill="green" stroke="black" transform="rotate(0,0,0)" />
<polygon points=" 110,25.98 117.5,38.97 102.5,38.97" fill="green" stroke="black" transform="rotate(0,0,0)" />
<polygon points=" 110,51.96 117.5,38.97 102.5,38.97" fill="green" stroke="black" transform="rotate(0,0,0)" />
<polygon points=" 125,25.98 132.5,38.97 117.5,38.97" fill="green" stroke="black" transform="rotate(0,0,0)" />
<polygon points=" 125,51.96 132.5,38.97 117.5,38.97" fill="green" stroke="black" transform="rotate(0,0,0)" />
<polygon points=" 140,25.98 147.5,38.97 132.5,38.97" fill="green" stroke="black" transform="rotate(0,0,0)" />
<polygon points=" 140,51.96 147.5,38.97 132.5,38.97" fill="green" stroke="black" transform="rotate(0,0,0)" />
<polygon points=" 102.5,38.97 110,51.96 95,51.96" fill="green" stroke="black" transform="rotate(0,0,0)" />
<polygon points=" 102.5,64.95 110,51.96 95,51.96" fill="green" stroke="black" transform="rotate(0,0,0)" />
<polygon points=" 117.5,38.97 125,51.96 110,51.96" fill="green" stroke="black" transform="rotate(0,0,0)" />
<polygon points=" 117.5,64.95 125,51.96 110,51.96" fill="green" stroke="black" transform="rotate(0,0,0)" />
<polygon points=" 132.5,38.97 140,51.96 125,51.96" fill="green" stroke="black" transform="rotate(0,0,0)" />
<polygon points=" 132.5,64.95 140,51.96 125,51.96" fill="green" stroke="black" transform="rotate(0,0,0)" />
<polygon points=" 147.5,38.97 155,51.96 140,51.96" fill="green" stroke="black" transform="rotate(0,0,0)" />
<polygon points=" 147.5,64.95 155,51.96 140,51.96" fill="green" stroke="black" transform="rotate(0,0,0)" />
<polygon points=" 95,51.96 102.5,64.95 87.5,64.95" fill="green" stroke="black" transform="rotate(0,0,0)" />
<polygon points=" 95,77.94 102.5,64.95 87.5,64.95" fill="green" stroke="black" transform="rotate(0,0,0)" />
<polygon points=" 110,51.96 117.5,64.95 102.5,64.95" fill="green" stroke="black" transform="rotate(0,0,0)" />
<polygon points=" 110,77.94 117.5,64.95 102.5,64.95" fill="green" stroke="black" transform="rotate(0,0,0)" />
<polygon points=" 125,51.96 132.5,64.95 117.5,64.95" fill="green" stroke="black" transform="rotate(0,0,0)" />
<polygon points=" 125,77.94 132.5,64.95 117.5,64.95" fill="green" stroke="black" transform="rotate(0,0,0)" />
<polygon points=" 140,51.96 147.5,64.95 132.5,64.95" fill="green" stroke="black" transform="rotate(0,0,0)" />
<polygon points=" 140,77.94 147.5,64.95 132.5,64.95" fill="green" stroke="black" transform="rotate(0,0,0)" />
<polygon points=" 155,51.96 162.5,64.95 147.5,64.95" fill="green" stroke="black" transform="rotate(0,0,0)" />
<polygon points=" 155,77.94 162.5,64.95 147.5,64.95" fill="green" stroke="black" transform="rotate(0,0,0)" />
<polygon points=" 87.5,64.95 95,77.94 80,77.94" fill="green" stroke="black" transform="rotate(0,0,0)" />
<polygon points=" 87.5,90.93 95,77.94 80,77.94" fill="green" stroke="black" transform="rotate(0,0,0)" />
<polygon points=" 102.5,64.95 110,77.94 95,77.94" fill="green" stroke="black" transform="rotate(0,0,0)" />
<polygon points=" 102.5,90.93 110,77.94 95,77.94" fill="green" stroke="black" transform="rotate(0,0,0)" />
<polygon points=" 117.5,64.95 125,77.94 110,77.94" fill="green" stroke="black" transform="rotate(0,0,0)" />
<polygon points=" 117.5,90.93 125,77.94 110,77.94" fill="green" stroke="black" transform="rotate(0,0,0)" />
<polygon points=" 132.5,64.95 140,77.94 125,77.94" fill="green" stroke="black" transform="rotate(0,0,0)" />
<polygon points=" 132.5,90.93 140,77.94 125,77.94" fill="green" stroke="black" transform="rotate(0,0,0)" />
<polygon points=" 147.5,64.95 155,77.94 140,77.94" fill="green" stroke="black" transform="rotate(0,0,0)" />
<polygon points=" 147.5,90.93 155,77.94 140,77.94" fill="green" stroke="black" transform="rotate(0,0,0)" />
<polygon points=" 162.5,64.95 170,77.94 155,77.94" fill="green" stroke="black" transform="rotate(0,0,0)" />
<polygon points=" 162.5,90.93 170,77.94 155,77.94" fill="green" stroke="black" transform="rotate(0,0,0)" />
<polygon points=" 80,77.94 87.5,90.93 72.5,90.93" fill="green" stroke="black" transform="rotate(0,0,0)" />
<polygon points=" 80,103.92 87.5,90.93 72.5,90.93" fill="green" stroke="black" transform="rotate(0,0,0)" />
<polygon points=" 95,77.94 102.5,90.93 87.5,90.93" fill="green" stroke="black" transform="rotate(0,0,0)" />
<polygon points=" 95,103.92 102.5,90.93 87.5,90.93" fill="green" stroke="black" transform="rotate(0,0,0)" />
<polygon points=" 110,77.94 117.5,90.93 102.5,90.93" fill="green" stroke="black" transform="rotate(0,0,0)" />
<polygon points=" 110,103.92 117.5,90.93 102.5,90.93" fill="green" stroke="black" transform="rotate(0,0,0)" />
<polygon points=" 125,77.94 132.5,90.93 117.5,90.93" fill="green" stroke="black" transform="rotate(0,0,0)" />
<polygon points=" 125,103.92 132.5,90.93 117.5,90.93" fill="green" stroke="black" transform="rotate(0,0,0)" />
<polygon points=" 140,77.94 147.5,90.93 132.5,90.93" fill="green" stroke="black" transform="rotate(0,0,0)" />
<polygon points=" 140,103.92 147.5,90.93 132.5,90.93" fill="green" stroke="black" transform="rotate(0,0,0)" />
<polygon points=" 155,77.94 162.5,90.93 147.5,90.93" fill="green" stroke="black" transform="rotate(0,0,0)" />
<polygon points=" 155,103.92 162.5,90.93 147.5,90.93" fill="green" stroke="black" transform="rotate(0,0,0)" />
<polygon points=" 170,77.94 177.5,90.93 162.5,90.93" fill="green" stroke="black" transform="rotate(0,0,0)" />
<polygon points=" 170,103.92 177.5,90.93 162.5,90.93" fill="green" stroke="black" transform="rotate(0,0,0)" />
<polygon points=" 72.5,90.93 80,103.92 65,103.92" fill="green" stroke="black" transform="rotate(0,0,0)" />
<polygon points=" 72.5,116.91 80,103.92 65,103.92" fill="green" stroke="black" transform="rotate(0,0,0)" />
<polygon points=" 87.5,90.93 95,103.92 80,103.92" fill="green" stroke="black" transform="rotate(0,0,0)" />
<polygon points=" 87.5,116.91 95,103.92 80,103.92" fill="green" stroke="black" transform="rotate(0,0,0)" />
<polygon points=" 102.5,90.93 110,103.92 95,103.92" fill="green" stroke="black" transform="rotate(0,0,0)" />
<polygon points=" 102.5,116.91 110,103.92 95,103.92" fill="green" stroke="black" transform="rotate(0,0,0)" />
<polygon points=" 117.5,90.93 125,103.92 110,103.92" fill="green" stroke="black" transform="rotate(0,0,0)" />
<polygon points=" 117.5,116.91 125,103.92 110,103.92" fill="green" stroke="black" transform="rotate(0,0,0)" />
<polygon points=" 132.5,90.93 140,103.92 125,103.92" fill="green" stroke="black" transform="rotate(0,0,0)" />
<polygon points=" 132.5,116.91 140,103.92 125,103.92" fill="green" stroke="black" transform="rotate(0,0,0)" />
<polygon points=" 147.5,90.93 155,103.92 140,103.92" fill="green" stroke="black" transform="rotate(0,0,0)" />
<polygon points=" 147.5,116.91 155,103.92 140,103.92" fill="green" stroke="black" transform="rotate(0,0,0)" />
<polygon points=" 162.5,90.93 170,103.92 155,103.92" fill="green" stroke="black" transform="rotate(0,0,0)" />
<polygon points=" 162.5,116.91 170,103.92 155,103.92" fill="green" stroke="black" transform="rotate(0,0,0)" />
<polygon points=" 177.5,90.93 185,103.92 170,103.92" fill="green" stroke="black" transform="rotate(0,0,0)" />
<polygon points=" 177.5,116.91 185,103.92 170,103.92" fill="green" stroke="black" transform="rotate(0,0,0)" />
<polygon points=" 65,103.92 72.5,116.91 57.5,116.91" fill="green" stroke="black" transform="rotate(0,0,0)" />
<polygon points=" 65,129.9 72.5,116.91 57.5,116.91" fill="green" stroke="black" transform="rotate(0,0,0)" />
<polygon points=" 80,103.92 87.5,116.91 72.5,116.91" fill="green" stroke="black" transform="rotate(0,0,0)" />
<polygon points=" 80,129.9 87.5,116.91 72.5,116.91" fill="green" stroke="black" transform="rotate(0,0,0)" />
<polygon points=" 95,103.92 102.5,116.91 87.5,116.91" fill="green" stroke="black" transform="rotate(0,0,0)" />
<polygon points=" 95,129.9 102.5,116.91 87.5,116.91" fill="green" stroke="black" transform="rotate(0,0,0)" />
<polygon points=" 110,103.92 117.5,116.91 102.5,116.91" fill="green" stroke="black" transform="rotate(0,0,0)" />
<polygon points=" 110,129.9 117.5,116.91 102.5,116.91" fill="green" stroke="black" transform="rotate(0,0,0)" />
<polygon points=" 125,103.92 132.5,116.91 117.5,116.91" fill="green" stroke="black" transform="rotate(0,0,0)" />
<polygon points=" 125,129.9 132.5,116.91 117.5,116.91" fill="green" stroke="black" transform="rotate(0,0,0)" />
<polygon points=" 140,103.92 147.5,116.91 132.5,116.91" fill="green" stroke="black" transform="rotate(0,0,0)" />
<polygon points=" 140,129.9 147.5,116.91 132.5,116.91" fill="green" stroke="black" transform="rotate(0,0,0)" />
<polygon points=" 155,103.92 162.5,116.91 147.5,116.91" fill="green" stroke="black" transform="rotate(0,0,0)" />
<polygon points=" 155,129.9 162.5,116.91 147.5,116.91" fill="green" stroke="black" transform="rotate(0,0,0)" />
<polygon points=" 170,103.92 177.5,116.91 162.5,116.91" fill="green" stroke="black" transform="rotate(0,0,0)" />
<polygon points=" 170,129.9 177.5,116.91 162.5,116.91" fill="green" stroke="black" transform="rotate(0,0,0)" />
<polygon points=" 185,103.92 192.5,116.91 177.5,116.91" fill="green" stroke="black" transform="rotate(0,0,0)" />
<polygon points=" 185,129.9 192.5,116.91 177.5,116.91" fill="green" stroke="black" transform="rotate(0,0,0)" />
<polygon points=" 57.5,116.91 65,129.9 50,129.9" fill="green" stroke="black" transform="rotate(0,0,0)" />
<polygon points=" 57.5,142.89 65,129.9 50,129.9" fill="green" stroke="black" transform="rotate(0,0,0)" />
<polygon points=" 72.5,116.91 80,129.9 65,129.9" fill="green" stroke="black" transform="rotate(0,0,0)" />
<polygon points=" 72.5,142.89 80,129.9 65,129.9" fill="green" stroke="black" transform="rotate(0,0,0)" />
<polygon points=" 87.5,116.91 95,129.9 80,129.9" fill="green" stroke="black" transform="rotate(0,0,0)" />
<polygon points=" 87.5,142.89 95,129.9 80,129.9" fill="green" stroke="black" transform="rotate(0,0,0)" />
<polygon points=" 102.5,116.91 110,129.9 95,129.9" fill="green" stroke="black" transform="rotate(0,0,0)" />
<polygon points=" 102.5,142.89 110,129.9 95,129.9" fill="green" stroke="black" transform="rotate(0,0,0)" />
<polygon points=" 117.5,116.91 125,129.9 110,129.9" fill="green" stroke="black" transform="rotate(0,0,0)" />
<polygon points=" 117.5,142.89 125,129.9 110,129.9" fill="green" stroke="black" transform="rotate(0,0,0)" />
<polygon points=" 132.5,116.91 140,129.9 125,129.9" fill="green" stroke="black" transform="rotate(0,0,0)" />
<polygon points=" 132.5,142.89 140,129.9 125,129.9" fill="green" stroke="black" transform="rotate(0,0,0)" />
<polygon points=" 147.5,116.91 155,129.9 140,129.9" fill="green" stroke="black" transform="rotate(0,0,0)" />
<polygon points=" 147.5,142.89 155,129.9 140,129.9" fill="green" stroke="black" transform="rotate(0,0,0)" />
<polygon points=" 162.5,116.91 170,129.9 155,129.9" fill="green" stroke="black" transform="rotate(0,0,0)" />
<polygon points=" 162.5,142.89 170,129.9 155,129.9" fill="green" stroke="black" transform="rotate(0,0,0)" />
<polygon points=" 177.5,116.91 185,129.9 170,129.9" fill="green" stroke="black" transform="rotate(0,0,0)" />
<polygon points=" 177.5,142.89 185,129.9 170,129.9" fill="green" stroke="black" transform="rotate(0,0,0)" />
<polygon points=" 192.5,116.91 200,129.9 185,129.9" fill="green" stroke="black" transform="rotate(0,0,0)" />
<polygon points=" 192.5,142.89 200,129.9 185,129.9" fill="green" stroke="black" transform="rotate(0,0,0)" />
<polygon points=" 50,129.9 57.5,142.89 42.5,142.89" fill="green" stroke="black" transform="rotate(0,0,0)" />
<polygon points=" 50,155.88 57.5,142.89 42.5,142.89" fill="green" stroke="black" transform="rotate(0,0,0)" />
<polygon points=" 65,129.9 72.5,142.89 57.5,142.89" fill="green" stroke="black" transform="rotate(0,0,0)" />
<polygon points=" 65,155.88 72.5,142.89 57.5,142.89" fill="green" stroke="black" transform="rotate(0,0,0)" />
<polygon points=" 80,129.9 87.5,142.89 72.5,142.89" fill="green" stroke="black" transform="rotate(0,0,0)" />
<polygon points=" 80,155.88 87.5,142.89 72.5,142.89" fill="green" stroke="black" transform="rotate(0,0,0)" />
<polygon points=" 95,129.9 102.5,142.89 87.5,142.89" fill="green" stroke="black" transform="rotate(0,0,0)" />
<polygon points=" 95,155.88 102.5,142.89 87.5,142.89" fill="green" stroke="black" transform="rotate(0,0,0)" />
<polygon points=" 110,129.9 117.5,142.89 102.5,142.89" fill="green" stroke="black" transform="rotate(0,0,0)" />
<polygon points=" 110,155.88 117.5,142.89 102.5,142.89" fill="green" stroke="black" transform="rotate(0,0,0)" />
<polygon points=" 125,129.9 132.5,142.89 117.5,142.89" fill="green" stroke="black" transform="rotate(0,0,0)" />
<polygon points=" 125,155.88 132.5,142.89 117.5,142.89" fill="green" stroke="black" transform="rotate(0,0,0)" />
<polygon points=" 140,129.9 147.5,142.89 132.5,142.89" fill="green" stroke="black" transform="rotate(0,0,0)" />
<polygon points=" 140,155.88 147.5,142.89 132.5,142.89" fill="green" stroke="black" transform="rotate(0,0,0)" />
<polygon points=" 155,129.9 162.5,142.89 147.5,142.89" fill="green" stroke="black" transform="rotate(0,0,0)" />
<polygon points=" 155,155.88 162.5,142.89 147.5,142.89" fill="green" stroke="black" transform="rotate(0,0,0)" />
<polygon points=" 170,129.9 177.5,142.89 162.5,142.89" fill="green" stroke="black" transform="rotate(0,0,0)" />
<polygon points=" 170,155.88 177.5,142.89 162.5,142.89" fill="green" stroke="black" transform="rotate(0,0,0)" />
<polygon points=" 185,129.9 192.5,142.89 177.5,142.89" fill="green" stroke="black" transform="rotate(0,0,0)" />
<polygon points=" 185,155.88 192.5,142.89 177.5,142.89" fill="green" stroke="black" transform="rotate(0,0,0)" />
<polygon points=" 200,129.9 207.5,142.89 192.5,142.89" fill="green" stroke="black" transform="rotate(0,0,0)" />
<polygon points=" 200,155.88 207.5,142.89 192.5,142.89" fill="green" stroke="black" transform="rotate(0,0,0)" />
<polygon points=" 42.5,142.89 50,155.88 35,155.88" fill="green" stroke="black" transform="rotate(0,0,0)" />
<polygon points=" 42.5,168.87 50,155.88 35,155.88" fill="green" stroke="black" transform="rotate(0,0,0)" />
<polygon points=" 57.5,142.89 65,155.88 50,155.88" fill="green" stroke="black" transform="rotate(0,0,0)" />
<polygon points=" 57.5,168.87 65,155.88 50,155.88" fill="green" stroke="black" transform="rotate(0,0,0)" />
<polygon points=" 72.5,142.89 80,155.88 65,155.88" fill="green" stroke="black" transform="rotate(0,0,0)" />
<polygon points=" 72.5,168.87 80,155.88 65,155.88" fill="green" stroke="black" transform="rotate(0,0,0)" />
<polygon points=" 87.5,142.89 95,155.88 80,155.88" fill="green" stroke="black" transform="rotate(0,0,0)" />
<polygon points=" 87.5,168.87 95,155.88 80,155.88" fill="green" stroke="black" transform="rotate(0,0,0)" />
<polygon points=" 102.5,142.89 110,155.88 95,155.88" fill="green" stroke="black" transform="rotate(0,0,0)" />
<polygon points=" 102.5,168.87 110,155.88 95,155.88" fill="green" stroke="black" transform="rotate(0,0,0)" />
<polygon points=" 117.5,142.89 125,155.88 110,155.88" fill="green" stroke="black" transform="rotate(0,0,0)" />
<polygon points=" 117.5,168.87 125,155.88 110,155.88" fill="green" stroke="black" transform="rotate(0,0,0)" />
<polygon points=" 132.5,142.89 140,155.88 125,155.88" fill="green" stroke="black" transform="rotate(0,0,0)" />
<polygon points=" 132.5,168.87 140,155.88 125,155.88" fill="green" stroke="black" transform="rotate(0,0,0)" />
<polygon points=" 147.5,142.89 155,155.88 140,155.88" fill="green" stroke="black" transform="rotate(0,0,0)" />
<polygon points=" 147.5,168.87 155,155.88 140,155.88" fill="green" stroke="black" transform="rotate(0,0,0)" />
<polygon points=" 162.5,142.89 170,155.88 155,155.88" fill="green" stroke="black" transform="rotate(0,0,0)" />
<polygon points=" 162.5,168.87 170,155.88 155,155.88" fill="green" stroke="black" transform="rotate(0,0,0)" />
<polygon points=" 177.5,142.89 185,155.88 170,155.88" fill="green" stroke="black" transform="rotate(0,0,0)" />
<polygon points=" 177.5,168.87 185,155.88 170,155.88" fill="green" stroke="black" transform="rotate(0,0,0)" />
<polygon points=" 192.5,142.89 200,155.88 185,155.88" fill="green" stroke="black" transform="rotate(0,0,0)" />
<polygon points=" 192.5,168.87 200,155.88 185,155.88" fill="green" stroke="black" transform="rotate(0,0,0)" />
<polygon points=" 207.5,142.89 215,155.88 200,155.88" fill="green" stroke="black" transform="rotate(0,0,0)" />
<polygon points=" 207.5,168.87 215,155.88 200,155.88" fill="green" stroke="black" transform="rotate(0,0,0)" />
<polygon points=" 35,155.88 42.5,168.87 27.5,168.87" fill="green" stroke="black" transform="rotate(0,0,0)" />
<polygon points=" 35,181.86 42.5,168.87 27.5,168.87" fill="green" stroke="black" transform="rotate(0,0,0)" />
<polygon points=" 50,155.88 57.5,168.87 42.5,168.87" fill="green" stroke="black" transform="rotate(0,0,0)" />
<polygon points=" 50,181.86 57.5,168.87 42.5,168.87" fill="green" stroke="black" transform="rotate(0,0,0)" />
<polygon points=" 65,155.88 72.5,168.87 57.5,168.87" fill="green" stroke="black" transform="rotate(0,0,0)" />
<polygon points=" 65,181.86 72.5,168.87 57.5,168.87" fill="green" stroke="black" transform="rotate(0,0,0)" />
<polygon points=" 80,155.88 87.5,168.87 72.5,168.87" fill="green" stroke="black" transform="rotate(0,0,0)" />
<polygon points=" 80,181.86 87.5,168.87 72.5,168.87" fill="green" stroke="black" transform="rotate(0,0,0)" />
<polygon points=" 95,155.88 102.5,168.87 87.5,168.87" fill="green" stroke="black" transform="rotate(0,0,0)" />
<polygon points=" 95,181.86 102.5,168.87 87.5,168.87" fill="green" stroke="black" transform="rotate(0,0,0)" />
<polygon points=" 110,155.88 117.5,168.87 102.5,168.87" fill="green" stroke="black" transform="rotate(0,0,0)" />
<polygon points=" 110,181.86 117.5,168.87 102.5,168.87" fill="green" stroke="black" transform="rotate(0,0,0)" />
<polygon points=" 125,155.88 132.5,168.87 117.5,168.87" fill="green" stroke="black" transform="rotate(0,0,0)" />
<polygon points=" 125,181.86 132.5,168.87 117.5,168.87" fill="green" stroke="black" transform="rotate(0,0,0)" />
<polygon points=" 140,155.88 147.5,168.87 132.5,168.87" fill="green" stroke="black" transform="rotate(0,0,0)" />
<polygon points=" 140,181.86 147.5,168.87 132.5,168.87" fill="green" stroke="black" transform="rotate(0,0,0)" />
<polygon points=" 155,155.88 162.5,168.87 147.5,168.87" fill="green" stroke="black" transform="rotate(0,0,0)" />
<polygon points=" 155,181.86 162.5,168.87 147.5,168.87" fill="green" stroke="black" transform="rotate(0,0,0)" />
<polygon points=" 170,155.88 177.5,168.87 162.5,168.87" fill="green" stroke="black" transform="rotate(0,0,0)" />
<polygon points=" 170,181.86 177.5,168.87 162.5,168.87" fill="green" stroke="black" transform="rotate(0,0,0)" />
<polygon points=" 185,155.88 192.5,168.87 177.5,168.87" fill="green" stroke="black" transform="rotate(0,0,0)" />
<polygon points=" 185,181.86 192.5,168.87 177.5,168.87" fill="green" stroke="black" transform="rotate(0,0,0)" />
<polygon points=" 200,155.88 207.5,168.87 192.5,168.87" fill="green" stroke="black" transform="rotate(0,0,0)" />
<polygon points=" 200,181.86 207.5,168.87 192.5,168.87" fill="green" stroke="black" transform="rotate(0,0,0)" />
<polygon points=" 215,155.88 222.5,168.87 207.5,168.87" fill="green" stroke="black" transform="rotate(0,0,0)" />
<polygon points=" 215,181.86 222.5,168.87 207.5,168.87" fill="green" stroke="black" transform="rotate(0,0,0)" />
<polygon points=" 27.5,168.87 35,181.86 20,181.86" fill="green" stroke="black" transform="rotate(0,0,0)" />
<polygon points=" 27.5,194.85 35,181.86 20,181.86" fill="green" stroke="black" transform="rotate(0,0,0)" />
<polygon points=" 42.5,168.87 50,181.86 35,181.86" fill="green" stroke="black" transform="rotate(0,0,0)" />
<polygon points=" 42.5,194.85 50,181.86 35,181.86" fill="green" stroke="black" transform="rotate(0,0,0)" />
<polygon points=" 57.5,168.87 65,181.86 50,181.86" fill="green" stroke="black" transform="rotate(0,0,0)" />
<polygon points=" 57.5,194.85 65,181.86 50,181.86" fill="green" stroke="black" transform="rotate(0,0,0)" />
<polygon points=" 72.5,168.87 80,181.86 65,181.86" fill="green" stroke="black" transform="rotate(0,0,0)" />
<polygon points=" 72.5,194.85 80,181.86 65,181.86" fill="green" stroke="black" transform="rotate(0,0,0)" />
<polygon points=" 87.5,168.87 95,181.86 80,181.86" fill="green" stroke="black" transform="rotate(0,0,0)" />
<polygon points=" 87.5,194.85 95,181.86 80,181.86" fill="green" stroke="black" transform="rotate(0,0,0)" />
<polygon points=" 102.5,168.87 110,181.86 95,181.86" fill="green" stroke="black" transform="rotate(0,0,0)" />
<polygon points=" 102.5,194.85 110,181.86 95,181.86" fill="green" stroke="black" transform="rotate(0,0,0)" />
<polygon points=" 117.5,168.87 125,181.86 110,181.86" fill="green" stroke="black" transform="rotate(0,0,0)" />
<polygon points=" 117.5,194.85 125,181.86 110,181.86" fill="green" stroke="black" transform="rotate(0,0,0)" />
<polygon points=" 132.5,168.87 140,181.86 125,181.86" fill="green" stroke="black" transform="rotate(0,0,0)" />
<polygon points=" 132.5,194.85 140,181.86 125,181.86" fill="green" stroke="black" transform="rotate(0,0,0)" />
<polygon points=" 147.5,168.87 155,181.86 140,181.86" fill="green" stroke="black" transform="rotate(0,0,0)" />
<polygon points=" 147.5,194.85 155,181.86 140,181.86" fill="green" stroke="black" transform="rotate(0,0,0)" />
<polygon points=" 162.5,168.87 170,181.86 155,181.86" fill="green" stroke="black" transform="rotate(0,0,0)" />
<polygon points=" 162.5,194.85 170,181.86 155,181.86" fill="green" stroke="black" transform="rotate(0,0,0)" />
<polygon points=" 177.5,168.87 185,181.86 170,181.86" fill="green" stroke="black" transform="rotate(0,0,0)" />
<polygon points=" 177.5,194.85 185,181.86 170,181.86" fill="green" stroke="black" transform="rotate(0,0,0)" />
<polygon points=" 192.5,168.87 200,181.86 185,181.86" fill="green" stroke="black" transform="rotate(0,0,0)" />
<polygon points=" 192.5,194.85 200,181.86 185,181.86" fill="green" stroke="black" transform="rotate(0,0,0)" />
<polygon points=" 207.5,168.87 215,181.86 200,181.86" fill="green" stroke="black" transform="rotate(0,0,0)" />
<polygon points=" 207.5,194.85 215,181.86 200,181.86" fill="green" stroke="black" transform="rotate(0,0,0)" />
<polygon points=" 222.5,168.87 230,181.86 215,181.86" fill="green" stroke="black" transform="rotate(0,0,0)" />
<polygon points=" 222.5,194.85 230,181.86 215,181.86" fill="green" stroke="black" transform="rotate(0,0,0)" />
<polygon points=" 20,181.86 27.5,194.85 12.5,194.85" fill="green" stroke="black" transform="rotate(0,0,0)" />
<polygon points=" 20,207.84 27.5,194.85 12.5,194.85" fill="green" stroke="black" transform="rotate(0,0,0)" />
<polygon points=" 35,181.86 42.5,194.85 27.5,194.85" fill="green" stroke="black" transform="rotate(0,0,0)" />
<polygon points=" 35,207.84 42.5,194.85 27.5,194.85" fill="green" stroke="black" transform="rotate(0,0,0)" />
<polygon points=" 50,181.86 57.5,194.85 42.5,194.85" fill="green" stroke="black" transform="rotate(0,0,0)" />
<polygon points=" 50,207.84 57.5,194.85 42.5,194.85" fill="green" stroke="black" transform="rotate(0,0,0)" />
<polygon points=" 65,181.86 72.5,194.85 57.5,194.85" fill="green" stroke="black" transform="rotate(0,0,0)" />
<polygon points=" 65,207.84 72.5,194.85 57.5,194.85" fill="green" stroke="black" transform="rotate(0,0,0)" />
<polygon points=" 80,181.86 87.5,194.85 72.5,194.85" fill="green" stroke="black" transform="rotate(0,0,0)" />
<polygon points=" 80,207.84 87.5,194.85 72.5,194.85" fill="green" stroke="black" transform="rotate(0,0,0)" />
<polygon points=" 95,181.86 102.5,194.85 87.5,194.85" fill="green" stroke="black" transform="rotate(0,0,0)" />
<polygon points=" 95,207.84 102.5,194.85 87.5,194.85" fill="green" stroke="black" transform="rotate(0,0,0)" />
<polygon points=" 110,181.86 117.5,194.85 102.5,194.85" fill="green" stroke="black" transform="rotate(0,0,0)" />
<polygon points=" 110,207.84 117.5,194.85 102.5,194.85" fill="green" stroke="black" transform="rotate(0,0,0)" />
<polygon points=" 125,181.86 132.5,194.85 117.5,194.85" fill="green" stroke="black" transform="rotate(0,0,0)" />
<polygon points=" 125,207.84 132.5,194.85 117.5,194.85" fill="green" stroke="black" transform="rotate(0,0,0)" />
<polygon points=" 140,181.86 147.5,194.85 132.5,194.85" fill="green" stroke="black" transform="rotate(0,0,0)" />
<polygon points=" 140,207.84 147.5,194.85 132.5,194.85" fill="green" stroke="black" transform="rotate(0,0,0)" />
<polygon points=" 155,181.86 162.5,194.85 147.5,194.85" fill="green" stroke="black" transform="rotate(0,0,0)" />
<polygon points=" 155,207.84 162.5,194.85 147.5,194.85" fill="green" stroke="black" transform="rotate(0,0,0)" />
<polygon points=" 170,181.86 177.5,194.85 162.5,194.85" fill="green" stroke="black" transform="rotate(0,0,0)" />
<polygon points=" 170,207.84 177.5,194.85 162.5,194.85" fill="green" stroke="black" transform="rotate(0,0,0)" />
<polygon points=" 185,181.86 192.5,194.85 177.5,194.85" fill="green" stroke="black" transform="rotate(0,0,0)" />
<polygon points=" 185,207.84 192.5,194.85 177.5,194.85" fill="green" stroke="black" transform="rotate(0,0,0)" />
<polygon points=" 200,181.86 207.5,194.85 192.5,194.85" fill="green" stroke="black" transform="rotate(0,0,0)" />
<polygon points=" 200,207.84 207.5,194.85 192.5,194.85" fill="green" stroke="black" transform="rotate(0,0,0)" />
<polygon points=" 215,181.86 222.5,194.85 207.5,194.85" fill="green" stroke="black" transform="rotate(0,0,0)" />
<polygon points=" 215,207.84 222.5,194.85 207.5,194.85" fill="green" stroke="black" transform="rotate(0,0,0)" />
<polygon points=" 230,181.86 237.5,194.85 222.5,194.85" fill="green" stroke="black" transform="rotate(0,0,0)" />
<polygon points=" 230,207.84 237.5,194.85 222.5,194.85" fill="green" stroke="black" transform="rotate(0,0,0)" />
<polygon points=" 12.5,194.85 20,207.84 5,207.84" fill="green" stroke="black" transform="rotate(0,0,0)" />
<polygon points=" 27.5,194.85 35,207.84 20,207.84" fill="green" stroke="black" transform="rotate(0,0,0)" />
<polygon points=" 42.5,194.85 50,207.84 35,207.84" fill="green" stroke="black" transform="rotate(0,0,0)" />
<polygon points=" 57.5,194.85 65,207.84 50,207.84" fill="green" stroke="black" transform="rotate(0,0,0)" />
<polygon points=" 72.5,194.85 80,207.84 65,207.84" fill="green" stroke="black" transform="rotate(0,0,0)" />
<polygon points=" 87.5,194.85 95,207.84 80,207.84" fill="green" stroke="black" transform="rotate(0,0,0)" />
<polygon points=" 102.5,194.85 110,207.84 95,207.84" fill="green" stroke="black" transform="rotate(0,0,0)" />
<polygon points=" 117.5,194.85 125,207.84 110,207.84" fill="green" stroke="black" transform="rotate(0,0,0)" />
<polygon points=" 132.5,194.85 140,207.84 125,207.84" fill="green" stroke="black" transform="rotate(0,0,0)" />
<polygon points=" 147.5,194.85 155,207.84 140,207.84" fill="green" stroke="black" transform="rotate(0,0,0)" />
<polygon points=" 162.5,194.85 170,207.84 155,207.84" fill="green" stroke="black" transform="rotate(0,0,0)" />
<polygon points=" 177.5,194.85 185,207.84 170,207.84" fill="green" stroke="black" transform="rotate(0,0,0)" />
<polygon points=" 192.5,194.85 200,207.84 185,207.84" fill="green" stroke="black" transform="rotate(0,0,0)" />
<polygon points=" 207.5,194.85 215,207.84 200,207.84" fill="green" stroke="black" transform="rotate(0,0,0)" />
<polygon points=" 222.5,194.85 230,207.84 215,207.84" fill="green" stroke="black" transform="rotate(0,0,0)" />
<polygon points=" 237.5,194.85 245,207.84 230,207.84" fill="green" stroke="black" transform="rotate(0,0,0)" />
</svg>