<svg version="1.1"
baseProfile="full" width="100%" height="100%"
xmlns="http://www.w3.org/2000/svg">
    	<polygon points=" 0,300 11.976,383.918 23.9521,417.463 35.9281,442.359 47.9042,462.627 59.8802,479.84 71.8563,494.809 83.8323,508.018 95.8084,519.786 107.784,530.333 119.76,539.82 131.737,548.369 143.713,556.075 155.689,563.01 167.665,569.235 179.641,574.797 191.617,579.738 203.593,584.087 215.569,587.874 227.545,591.119 239.521,593.841 251.497,596.053 263.473,597.768 275.449,598.994 287.425,599.736 299.401,599.999 311.377,599.784 323.353,599.09 335.329,597.912 347.305,596.247 359.281,594.085 371.257,591.414 383.234,588.222 395.21,584.491 407.186,580.199 419.162,575.319 431.138,569.82 443.114,563.664 455.09,556.802 467.066,549.177 479.042,540.716 491.018,531.327 502.994,520.892 514.97,509.256 526.946,496.203 538.922,481.428 550.898,464.469 562.874,444.558 574.85,420.239 586.826,387.924 598.802,273.221 586.826,212.076 574.85,179.761 562.874,155.442 550.898,135.531 538.922,118.572 526.946,103.797 514.97,90.7445 502.994,79.1076 491.018,68.6731 479.042,59.2844 467.066,50.8234 455.09,43.1982 443.114,36.3365 431.138,30.1799 419.162,24.6811 407.186,19.8014 395.21,15.509 383.234,11.7776 371.257,8.58557 359.281,5.91547 347.305,3.75314 335.329,2.08753 323.353,0.910342 311.377,0.215814 299.401,0.000597608 287.425,0.263661 275.449,1.00627 263.473,2.232 251.497,3.94686 239.521,6.15942 227.545,8.88102 215.569,12.1261 203.593,15.9126 191.617,20.2625 179.641,25.2025 167.665,30.7652 155.689,36.9901 143.713,43.9253 131.737,51.6305 119.76,60.1798 107.784,69.6673 95.8084,80.2142 83.8323,91.9819 71.8563,105.191 59.8802,120.16 47.9042,137.373 35.9281,157.641 23.9521,182.537 11.976,216.082" stroke="black" fill="red" />
<polygon points=" 88,88 98,88 98,108 88,108" fill="green" stroke="black" transform="rotate(0,0,0)" />
<polygon points=" 88,108 98,108 98,128 88,128" fill="green" stroke="black" transform="rotate(0,0,0)" />
<polygon points=" 88,128 98,128 98,148 88,148" fill="green" stroke="black" transform="rotate(0,0,0)" />
<polygon points=" 88,148 98,148 98,168 88,168" fill="green" stroke="black" transform="rotate(0,0,0)" />
<polygon points=" 88,168 98,168 98,188 88,188" fill="green" stroke="black" transform="rotate(0,0,0)" />
<polygon points=" 88,188 98,188 98,208 88,208" fill="green" stroke="black" transform="rotate(0,0,0)" />
<polygon points=" 88,208 98,208 98,228 88,228" fill="green" stroke="black" transform="rotate(0,0,0)" />
<polygon points=" 88,228 98,228 98,248 88,248" fill="green" stroke="black" transform="rotate(0,0,0)" />
<polygon points=" 88,248 98,248 98,268 88,268" fill="green" stroke="black" transform="rotate(0,0,0)" />
<polygon points=" 88,268 98,268 98,288 88,288" fill="green" stroke="black" transform="rotate(0,0,0)" />
<polygon points=" 88,288 98,288 98,308 88,308" fill="green" stroke="black" transform="rotate(0,0,0)" />
<polygon points=" 88,308 98,308 98,328 88,328" fill="green" stroke="black" transform="rotate(0,0,0)" />
<polygon points=" 88,328 98,328 98,348 88,348" fill="green" stroke="black" transform="rotate(0,0,0)" />
<polygon points=" 88,348 98,348 98,368 88,368" fill="green" stroke="black" transform="rotate(0,0,0)" />
<polygon points=" 88,368 98,368 98,388 88,388" fill="green" stroke="black" transform="rotate(0,0,0)" />
<polygon points=" 88,388 98,388 98,408 88,408" fill="green" stroke="black" transform="rotate(0,0,0)" />
<polygon points=" 88,408 98,408 98,428 88,428" fill="green" stroke="black" transform="rotate(0,0,0)" />
<polygon points=" 88,428 98,428 98,448 88,448" fill="green" stroke="black" transform="rotate(0,0,0)" />
<polygon points=" 88,448 98,448 98,468 88,468" fill="green" stroke="black" transform="rotate(0,0,0)" />
<polygon points=" 88,468 98,468 98,488 88,488" fill="green" stroke="black" transform="rotate(0,0,0)" />
<polygon points=" 88,488 98,488 98,508 88,508" fill="green" stroke="black" transform="rotate(0,0,0)" />
<polygon points=" 98,88 108,88 108,108 98,108" fill="green" stroke="black" transform="rotate(0,0,0)" />
<polygon points=" 98,108 108,108 108,128 98,128" fill="green" stroke="black" transform="rotate(0,0,0)" />
<polygon points=" 98,128 108,128 108,148 98,148" fill="green" stroke="black" transform="rotate(0,0,0)" />
<polygon points=" 98,148 108,148 108,168 98,168" fill="green" stroke="black" transform="rotate(0,0,0)" />
<polygon points=" 98,168 108,168 108,188 98,188" fill="green" stroke="black" transform="rotate(0,0,0)" />
<polygon points=" 98,188 108,188 108,208 98,208" fill="green" stroke="black" transform="rotate(0,0,0)" />
<polygon points=" 98,208 108,208 108,228 98,228" fill="green" stroke="black" transform="rotate(0,0,0)" />
<polygon points=" 98,228 108,228 108,248 98,248" fill="green" stroke="black" transform="rotate(0,0,0)" />
<polygon points=" 98,248 108,248 108,268 98,268" fill="green" stroke="black" transform="rotate(0,0,0)" />
<polygon points=" 98,268 108,268 108,288 98,288" fill="green" stroke="black" transform="rotate(0,0,0)" />
<polygon points=" 98,288 108,288 108,308 98,308" fill="green" stroke="black" transform="rotate(0,0,0)" />
<polygon points=" 98,308 108,308 108,328 98,328" fill="green" stroke="black" transform="rotate(0,0,0)" />
<polygon points=" 98,328 108,328 108,348 98,348" fill="green" stroke="black" transform="rotate(0,0,0)" />
<polygon points=" 98,348 108,348 108,368 98,368" fill="green" stroke="black" transform="rotate(0,0,0)" />
<polygon points=" 98,368 108,368 108,388 98,388" fill="green" stroke="black" transform="rotate(0,0,0)" />
<polygon points=" 98,388 108,388 108,408 98,408" fill="green" stroke="black" transform="rotate(0,0,0)" />
<polygon points=" 98,408 108,408 108,428 98,428" fill="green" stroke="black" transform="rotate(0,0,0)" />
<polygon points=" 98,428 108,428 108,448 98,448" fill="green" stroke="black" transform="rotate(0,0,0)" />
<polygon points=" 98,448 108,448 108,468 98,468" fill="green" stroke="black" transform="rotate(0,0,0)" />
<polygon points=" 98,468 108,468 108,488 98,488" fill="green" stroke="black" transform="rotate(0,0,0)" />
<polygon points=" 98,488 108,488 108,508 98,508" fill="green" stroke="black" transform="rotate(0,0,0)" />
<polygon points=" 108,88 118,88 118,108 108,108" fill="green" stroke="black" transform="rotate(0,0,0)" />
<polygon points=" 108,108 118,108 118,128 108,128" fill="green" stroke="black" transform="rotate(0,0,0)" />
<polygon points=" 108,128 118,128 118,148 108,148" fill="green" stroke="black" transform="rotate(0,0,0)" />
<polygon points=" 108,148 118,148 118,168 108,168" fill="green" stroke="black" transform="rotate(0,0,0)" />
<polygon points=" 108,168 118,168 118,188 108,188" fill="green" stroke="black" transform="rotate(0,0,0)" />
<polygon points=" 108,188 118,188 118,208 108,208" fill="green" stroke="black" transform="rotate(0,0,0)" />
<polygon points=" 108,208 118,208 118,228 108,228" fill="green" stroke="black" transform="rotate(0,0,0)" />
<polygon points=" 108,228 118,228 118,248 108,248" fill="green" stroke="black" transform="rotate(0,0,0)" />
<polygon points=" 108,248 118,248 118,268 108,268" fill="green" stroke="black" transform="rotate(0,0,0)" />
<polygon points=" 108,268 118,268 118,288 108,288" fill="green" stroke="black" transform="rotate(0,0,0)" />
<polygon points=" 108,288 118,288 118,308 108,308" fill="green" stroke="black" transform="rotate(0,0,0)" />
<polygon points=" 108,308 118,308 118,328 108,328" fill="green" stroke="black" transform="rotate(0,0,0)" />
<polygon points=" 108,328 118,328 118,348 108,348" fill="green" stroke="black" transform="rotate(0,0,0)" />
<polygon points=" 108,348 118,348 118,368 108,368" fill="green" stroke="black" transform="rotate(0,0,0)" />
<polygon points=" 108,368 118,368 118,388 108,388" fill="green" stroke="black" transform="rotate(0,0,0)" />
<polygon points=" 108,388 118,388 118,408 108,408" fill="green" stroke="black" transform="rotate(0,0,0)" />
<polygon points=" 108,408 118,408 118,428 108,428" fill="green" stroke="black" transform="rotate(0,0,0)" />
<polygon points=" 108,428 118,428 118,448 108,448" fill="green" stroke="black" transform="rotate(0,0,0)" />
<polygon points=" 108,448 118,448 118,468 108,468" fill="green" stroke="black" transform="rotate(0,0,0)" />
<polygon points=" 108,468 118,468 118,488 108,488" fill="green" stroke="black" transform="rotate(0,0,0)" />
<polygon points=" 108,488 118,488 118,508 108,508" fill="green" stroke="black" transform="rotate(0,0,0)" />
<polygon points=" 118,88 128,88 128,108 118,108" fill="green" stroke="black" transform="rotate(0,0,0)" />
<polygon points=" 118,108 128,108 128,128 118,128" fill="green" stroke="black" transform="rotate(0,0,0)" />
<polygon points=" 118,128 128,128 128,148 118,148" fill="green" stroke="black" transform="rotate(0,0,0)" />
<polygon points=" 118,148 128,148 128,168 118,168" fill="green" stroke="black" transform="rotate(0,0,0)" />
<polygon points=" 118,168 128,168 128,188 118,188" fill="green" stroke="black" transform="rotate(0,0,0)" />
<polygon points=" 118,188 128,188 128,208 118,208" fill="green" stroke="black" transform="rotate(0,0,0)" />
<polygon points=" 118,208 128,208 128,228 118,228" fill="green" stroke="black" transform="rotate(0,0,0)" />
<polygon points=" 118,228 128,228 128,248 118,248" fill="green" stroke="black" transform="rotate(0,0,0)" />
<polygon points=" 118,248 128,248 128,268 118,268" fill="green" stroke="black" transform="rotate(0,0,0)" />
<polygon points=" 118,268 128,268 128,288 118,288" fill="green" stroke="black" transform="rotate(0,0,0)" />
<polygon points=" 118,288 128,288 128,308 118,308" fill="green" stroke="black" transform="rotate(0,0,0)" />
<polygon points=" 118,308 128,308 128,328 118,328" fill="green" stroke="black" transform="rotate(0,0,0)" />
<polygon points=" 118,328 128,328 128,348 118,348" fill="green" stroke="black" transform="rotate(0,0,0)" />
<polygon points=" 118,348 128,348 128,368 118,368" fill="green" stroke="black" transform="rotate(0,0,0)" />
<polygon points=" 118,368 128,368 128,388 118,388" fill="green" stroke="black" transform="rotate(0,0,0)" />
<polygon points=" 118,388 128,388 128,408 118,408" fill="green" stroke="black" transform="rotate(0,0,0)" />
<polygon points=" 118,408 128,408 128,428 118,428" fill="green" stroke="black" transform="rotate(0,0,0)" />
<polygon points=" 118,428 128,428 128,448 118,448" fill="green" stroke="black" transform="rotate(0,0,0)" />
<polygon points=" 118,448 128,448 128,468 118,468" fill="green" stroke="black" transform="rotate(0,0,0)" />
<polygon points=" 118,468 128,468 128,488 118,488" fill="green" stroke="black" transform="rotate(0,0,0)" />
<polygon points=" 118,488 128,488 128,508 118,508" fill="green" stroke="black" transform="rotate(0,0,0)" />
<polygon points=" 128,88 138,88 138,108 128,108" fill="green" stroke="black" transform="rotate(0,0,0)" />
<polygon points=" 128,108 138,108 138,128 128,128" fill="green" stroke="black" transform="rotate(0,0,0)" />
<polygon points=" 128,128 138,128 138,148 128,148" fill="green" stroke="black" transform="rotate(0,0,0)" />
<polygon points=" 128,148 138,148 138,168 128,168" fill="green" stroke="black" transform="rotate(0,0,0)" />
<polygon points=" 128,168 138,168 138,188 128,188" fill="green" stroke="black" transform="rotate(0,0,0)" />
<polygon points=" 128,188 138,188 138,208 128,208" fill="green" stroke="black" transform="rotate(0,0,0)" />
<polygon points=" 128,208 138,208 138,228 128,228" fill="green" stroke="black" transform="rotate(0,0,0)" />
<polygon points=" 128,228 138,228 138,248 128,248" fill="green" stroke="black" transform="rotate(0,0,0)" />
<polygon points=" 128,248 138,248 138,268 128,268" fill="green" stroke="black" transform="rotate(0,0,0)" />
<polygon points=" 128,268 138,268 138,288 128,288" fill="green" stroke="black" transform="rotate(0,0,0)" />
<polygon points=" 128,288 138,288 138,308 128,308" fill="green" stroke="black" transform="rotate(0,0,0)" />
<polygon points=" 128,308 138,308 138,328 128,328" fill="green" stroke="black" transform="rotate(0,0,0)" />
<polygon points=" 128,328 138,328 138,348 128,348" fill="green" stroke="black" transform="rotate(0,0,0)" />
<polygon points=" 128,348 138,348 138,368 128,368" fill="green" stroke="black" transform="rotate(0,0,0)" />
<polygon points=" 128,368 138,368 138,388 128,388" fill="green" stroke="black" transform="rotate(0,0,0)" />
<polygon points=" 128,388 138,388 138,408 128,408" fill="green" stroke="black" transform="rotate(0,0,0)" />
<polygon points=" 128,408 138,408 138,428 128,428" fill="green" stroke="black" transform="rotate(0,0,0)" />
<polygon points=" 128,428 138,428 138,448 128,448" fill="green" stroke="black" transform="rotate(0,0,0)" />
<polygon points=" 128,448 138,448 138,468 128,468" fill="green" stroke="black" transform="rotate(0,0,0)" />
<polygon points=" 128,468 138,468 138,488 128,488" fill="green" stroke="black" transform="rotate(0,0,0)" />
<polygon points=" 128,488 138,488 138,508 128,508" fill="green" stroke="black" transform="rotate(0,0,0)" />
<polygon points=" 138,88 148,88 148,108 138,108" fill="green" stroke="black" transform="rotate(0,0,0)" />
<polygon points=" 138,108 148,108 148,128 138,128" fill="green" stroke="black" transform="rotate(0,0,0)" />
<polygon points=" 138,128 148,128 148,148 138,148" fill="green" stroke="black" transform="rotate(0,0,0)" />
<polygon points=" 138,148 148,148 148,168 138,168" fill="green" stroke="black" transform="rotate(0,0,0)" />
<polygon points=" 138,168 148,168 148,188 138,188" fill="green" stroke="black" transform="rotate(0,0,0)" />
<polygon points=" 138,188 148,188 148,208 138,208" fill="green" stroke="black" transform="rotate(0,0,0)" />
<polygon points=" 138,208 148,208 148,228 138,228" fill="green" stroke="black" transform="rotate(0,0,0)" />
<polygon points=" 138,228 148,228 148,248 138,248" fill="green" stroke="black" transform="rotate(0,0,0)" />
<polygon points=" 138,248 148,248 148,268 138,268" fill="green" stroke="black" transform="rotate(0,0,0)" />
<polygon points=" 138,268 148,268 148,288 138,288" fill="green" stroke="black" transform="rotate(0,0,0)" />
<polygon points=" 138,288 148,288 148,308 138,308" fill="green" stroke="black" transform="rotate(0,0,0)" />
<polygon points=" 138,308 148,308 148,328 138,328" fill="green" stroke="black" transform="rotate(0,0,0)" />
<polygon points=" 138,328 148,328 148,348 138,348" fill="green" stroke="black" transform="rotate(0,0,0)" />
<polygon points=" 138,348 148,348 148,368 138,368" fill="green" stroke="black" transform="rotate(0,0,0)" />
<polygon points=" 138,368 148,368 148,388 138,388" fill="green" stroke="black" transform="rotate(0,0,0)" />
<polygon points=" 138,388 148,388 148,408 138,408" fill="green" stroke="black" transform="rotate(0,0,0)" />
<polygon points=" 138,408 148,408 148,428 138,428" fill="green" stroke="black" transform="rotate(0,0,0)" />
<polygon points=" 138,428 148,428 148,448 138,448" fill="green" stroke="black" transform="rotate(0,0,0)" />
<polygon points=" 138,448 148,448 148,468 138,468" fill="green" stroke="black" transform="rotate(0,0,0)" />
<polygon points=" 138,468 148,468 148,488 138,488" fill="green" stroke="black" transform="rotate(0,0,0)" />
<polygon points=" 138,488 148,488 148,508 138,508" fill="green" stroke="black" transform="rotate(0,0,0)" />
<polygon points=" 148,88 158,88 158,108 148,108" fill="green" stroke="black" transform="rotate(0,0,0)" />
<polygon points=" 148,108 158,108 158,128 148,128" fill="green" stroke="black" transform="rotate(0,0,0)" />
<polygon points=" 148,128 158,128 158,148 148,148" fill="green" stroke="black" transform="rotate(0,0,0)" />
<polygon points=" 148,148 158,148 158,168 148,168" fill="green" stroke="black" transform="rotate(0,0,0)" />
<polygon points=" 148,168 158,168 158,188 148,188" fill="green" stroke="black" transform="rotate(0,0,0)" />
<polygon points=" 148,188 158,188 158,208 148,208" fill="green" stroke="black" transform="rotate(0,0,0)" />
<polygon points=" 148,208 158,208 158,228 148,228" fill="green" stroke="black" transform="rotate(0,0,0)" />
<polygon points=" 148,228 158,228 158,248 148,248" fill="green" stroke="black" transform="rotate(0,0,0)" />
<polygon points=" 148,248 158,248 158,268 148,268" fill="green" stroke="black" transform="rotate(0,0,0)" />
<polygon points=" 148,268 158,268 158,288 148,288" fill="green" stroke="black" transform="rotate(0,0,0)" />
<polygon points=" 148,288 158,288 158,308 148,308" fill="green" stroke="black" transform="rotate(0,0,0)" />
<polygon points=" 148,308 158,308 158,328 148,328" fill="green" stroke="black" transform="rotate(0,0,0)" />
<polygon points=" 148,328 158,328 158,348 148,348" fill="green" stroke="black" transform="rotate(0,0,0)" />
<polygon points=" 148,348 158,348 158,368 148,368" fill="green" stroke="black" transform="rotate(0,0,0)" />
<polygon points=" 148,368 158,368 158,388 148,388" fill="green" stroke="black" transform="rotate(0,0,0)" />
<polygon points=" 148,388 158,388 158,408 148,408" fill="green" stroke="black" transform="rotate(0,0,0)" />
<polygon points=" 148,408 158,408 158,428 148,428" fill="green" stroke="black" transform="rotate(0,0,0)" />
<polygon points=" 148,428 158,428 158,448 148,448" fill="green" stroke="black" transform="rotate(0,0,0)" />
<polygon points=" 148,448 158,448 158,468 148,468" fill="green" stroke="black" transform="rotate(0,0,0)" />
<polygon points=" 148,468 158,468 158,488 148,488" fill="green" stroke="black" transform="rotate(0,0,0)" />
<polygon points=" 148,488 158,488 158,508 148,508" fill="green" stroke="black" transform="rotate(0,0,0)" />
<polygon points=" 158,88 168,88 168,108 158,108" fill="green" stroke="black" transform="rotate(0,0,0)" />
<polygon points=" 158,108 168,108 168,128 158,128" fill="green" stroke="black" transform="rotate(0,0,0)" />
<polygon points=" 158,128 168,128 168,148 158,148" fill="green" stroke="black" transform="rotate(0,0,0)" />
<polygon points=" 158,148 168,148 168,168 158,168" fill="green" stroke="black" transform="rotate(0,0,0)" />
<polygon points=" 158,168 168,168 168,188 158,188" fill="green" stroke="black" transform="rotate(0,0,0)" />
<polygon points=" 158,188 168,188 168,208 158,208" fill="green" stroke="black" transform="rotate(0,0,0)" />
<polygon points=" 158,208 168,208 168,228 158,228" fill="green" stroke="black" transform="rotate(0,0,0)" />
<polygon points=" 158,228 168,228 168,248 158,248" fill="green" stroke="black" transform="rotate(0,0,0)" />
<polygon points=" 158,248 168,248 168,268 158,268" fill="green" stroke="black" transform="rotate(0,0,0)" />
<polygon points=" 158,268 168,268 168,288 158,288" fill="green" stroke="black" transform="rotate(0,0,0)" />
<polygon points=" 158,288 168,288 168,308 158,308" fill="green" stroke="black" transform="rotate(0,0,0)" />
<polygon points=" 158,308 168,308 168,328 158,328" fill="green" stroke="black" transform="rotate(0,0,0)" />
<polygon points=" 158,328 168,328 168,348 158,348" fill="green" stroke="black" transform="rotate(0,0,0)" />
<polygon points=" 158,348 168,348 168,368 158,368" fill="green" stroke="black" transform="rotate(0,0,0)" />
<polygon points=" 158,368 168,368 168,388 158,388" fill="green" stroke="black" transform="rotate(0,0,0)" />
<polygon points=" 158,388 168,388 168,408 158,408" fill="green" stroke="black" transform="rotate(0,0,0)" />
<polygon points=" 158,408 168,408 168,428 158,428" fill="green" stroke="black" transform="rotate(0,0,0)" />
<polygon points=" 158,428 168,428 168,448 158,448" fill="green" stroke="black" transform="rotate(0,0,0)" />
<polygon points=" 158,448 168,448 168,468 158,468" fill="green" stroke="black" transform="rotate(0,0,0)" />
<polygon points=" 158,468 168,468 168,488 158,488" fill="green" stroke="black" transform="rotate(0,0,0)" />
<polygon points=" 158,488 168,488 168,508 158,508" fill="green" stroke="black" transform="rotate(0,0,0)" />
<polygon points=" 168,88 178,88 178,108 168,108" fill="green" stroke="black" transform="rotate(0,0,0)" />
<polygon points=" 168,108 178,108 178,128 168,128" fill="green" stroke="black" transform="rotate(0,0,0)" />
<polygon points=" 168,128 178,128 178,148 168,148" fill="green" stroke="black" transform="rotate(0,0,0)" />
<polygon points=" 168,148 178,148 178,168 168,168" fill="green" stroke="black" transform="rotate(0,0,0)" />
<polygon points=" 168,168 178,168 178,188 168,188" fill="green" stroke="black" transform="rotate(0,0,0)" />
<polygon points=" 168,188 178,188 178,208 168,208" fill="green" stroke="black" transform="rotate(0,0,0)" />
<polygon points=" 168,208 178,208 178,228 168,228" fill="green" stroke="black" transform="rotate(0,0,0)" />
<polygon points=" 168,228 178,228 178,248 168,248" fill="green" stroke="black" transform="rotate(0,0,0)" />
<polygon points=" 168,248 178,248 178,268 168,268" fill="green" stroke="black" transform="rotate(0,0,0)" />
<polygon points=" 168,268 178,268 178,288 168,288" fill="green" stroke="black" transform="rotate(0,0,0)" />
<polygon points=" 168,288 178,288 178,308 168,308" fill="green" stroke="black" transform="rotate(0,0,0)" />
<polygon points=" 168,308 178,308 178,328 168,328" fill="green" stroke="black" transform="rotate(0,0,0)" />
<polygon points=" 168,328 178,328 178,348 168,348" fill="green" stroke="black" transform="rotate(0,0,0)" />
<polygon points=" 168,348 178,348 178,368 168,368" fill="green" stroke="black" transform="rotate(0,0,0)" />
<polygon points=" 168,368 178,368 178,388 168,388" fill="green" stroke="black" transform="rotate(0,0,0)" />
<polygon points=" 168,388 178,388 178,408 168,408" fill="green" stroke="black" transform="rotate(0,0,0)" />
<polygon points=" 168,408 178,408 178,428 168,428" fill="green" stroke="black" transform="rotate(0,0,0)" />
<polygon points=" 168,428 178,428 178,448 168,448" fill="green" stroke="black" transform="rotate(0,0,0)" />
<polygon points=" 168,448 178,448 178,468 168,468" fill="green" stroke="black" transform="rotate(0,0,0)" />
<polygon points=" 168,468 178,468 178,488 168,488" fill="green" stroke="black" transform="rotate(0,0,0)" />
<polygon points=" 168,488 178,488 178,508 168,508" fill="green" stroke="black" transform="rotate(0,0,0)" />
<polygon points=" 178,88 188,88 188,108 178,108" fill="green" stroke="black" transform="rotate(0,0,0)" />
<polygon points=" 178,108 188,108 188,128 178,128" fill="green" stroke="black" transform="rotate(0,0,0)" />
<polygon points=" 178,128 188,128 188,148 178,148" fill="green" stroke="black" transform="rotate(0,0,0)" />
<polygon points=" 178,148 188,148 188,168 178,168" fill="green" stroke="black" transform="rotate(0,0,0)" />
<polygon points=" 178,168 188,168 188,188 178,188" fill="green" stroke="black" transform="rotate(0,0,0)" />
<polygon points=" 178,188 188,188 188,208 178,208" fill="green" stroke="black" transform="rotate(0,0,0)" />
<polygon points=" 178,208 188,208 188,228 178,228" fill="green" stroke="black" transform="rotate(0,0,0)" />
<polygon points=" 178,228 188,228 188,248 178,248" fill="green" stroke="black" transform="rotate(0,0,0)" />
<polygon points=" 178,248 188,248 188,268 178,268" fill="green" stroke="black" transform="rotate(0,0,0)" />
<polygon points=" 178,268 188,268 188,288 178,288" fill="green" stroke="black" transform="rotate(0,0,0)" />
<polygon points=" 178,288 188,288 188,308 178,308" fill="green" stroke="black" transform="rotate(0,0,0)" />
<polygon points=" 178,308 188,308 188,328 178,328" fill="green" stroke="black" transform="rotate(0,0,0)" />
<polygon points=" 178,328 188,328 188,348 178,348" fill="green" stroke="black" transform="rotate(0,0,0)" />
<polygon points=" 178,348 188,348 188,368 178,368" fill="green" stroke="black" transform="rotate(0,0,0)" />
<polygon points=" 178,368 188,368 188,388 178,388" fill="green" stroke="black" transform="rotate(0,0,0)" />
<polygon points=" 178,388 188,388 188,408 178,408" fill="green" stroke="black" transform="rotate(0,0,0)" />
<polygon points=" 178,408 188,408 188,428 178,428" fill="green" stroke="black" transform="rotate(0,0,0)" />
<polygon points=" 178,428 188,428 188,448 178,448" fill="green" stroke="black" transform="rotate(0,0,0)" />
<polygon points=" 178,448 188,448 188,468 178,468" fill="green" stroke="black" transform="rotate(0,0,0)" />
<polygon points=" 178,468 188,468 188,488 178,488" fill="green" stroke="black" transform="rotate(0,0,0)" />
<polygon points=" 178,488 188,488 188,508 178,508" fill="green" stroke="black" transform="rotate(0,0,0)" />
<polygon points=" 188,88 198,88 198,108 188,108" fill="green" stroke="black" transform="rotate(0,0,0)" />
<polygon points=" 188,108 198,108 198,128 188,128" fill="green" stroke="black" transform="rotate(0,0,0)" />
<polygon points=" 188,128 198,128 198,148 188,148" fill="green" stroke="black" transform="rotate(0,0,0)" />
<polygon points=" 188,148 198,148 198,168 188,168" fill="green" stroke="black" transform="rotate(0,0,0)" />
<polygon points=" 188,168 198,168 198,188 188,188" fill="green" stroke="black" transform="rotate(0,0,0)" />
<polygon points=" 188,188 198,188 198,208 188,208" fill="green" stroke="black" transform="rotate(0,0,0)" />
<polygon points=" 188,208 198,208 198,228 188,228" fill="green" stroke="black" transform="rotate(0,0,0)" />
<polygon points=" 188,228 198,228 198,248 188,248" fill="green" stroke="black" transform="rotate(0,0,0)" />
<polygon points=" 188,248 198,248 198,268 188,268" fill="green" stroke="black" transform="rotate(0,0,0)" />
<polygon points=" 188,268 198,268 198,288 188,288" fill="green" stroke="black" transform="rotate(0,0,0)" />
<polygon points=" 188,288 198,288 198,308 188,308" fill="green" stroke="black" transform="rotate(0,0,0)" />
<polygon points=" 188,308 198,308 198,328 188,328" fill="green" stroke="black" transform="rotate(0,0,0)" />
<polygon points=" 188,328 198,328 198,348 188,348" fill="green" stroke="black" transform="rotate(0,0,0)" />
<polygon points=" 188,348 198,348 198,368 188,368" fill="green" stroke="black" transform="rotate(0,0,0)" />
<polygon points=" 188,368 198,368 198,388 188,388" fill="green" stroke="black" transform="rotate(0,0,0)" />
<polygon points=" 188,388 198,388 198,408 188,408" fill="green" stroke="black" transform="rotate(0,0,0)" />
<polygon points=" 188,408 198,408 198,428 188,428" fill="green" stroke="black" transform="rotate(0,0,0)" />
<polygon points=" 188,428 198,428 198,448 188,448" fill="green" stroke="black" transform="rotate(0,0,0)" />
<polygon points=" 188,448 198,448 198,468 188,468" fill="green" stroke="black" transform="rotate(0,0,0)" />
<polygon points=" 188,468 198,468 198,488 188,488" fill="green" stroke="black" transform="rotate(0,0,0)" />
<polygon points=" 188,488 198,488 198,508 188,508" fill="green" stroke="black" transform="rotate(0,0,0)" />
<polygon points=" 198,88 208,88 208,108 198,108" fill="green" stroke="black" transform="rotate(0,0,0)" />
<polygon points=" 198,108 208,108 208,128 198,128" fill="green" stroke="black" transform="rotate(0,0,0)" />
<polygon points=" 198,128 208,128 208,148 198,148" fill="green" stroke="black" transform="rotate(0,0,0)" />
<polygon points=" 198,148 208,148 208,168 198,168" fill="green" stroke="black" transform="rotate(0,0,0)" />
<polygon points=" 198,168 208,168 208,188 198,188" fill="green" stroke="black" transform="rotate(0,0,0)" />
<polygon points=" 198,188 208,188 208,208 198,208" fill="green" stroke="black" transform="rotate(0,0,0)" />
<polygon points=" 198,208 208,208 208,228 198,228" fill="green" stroke="black" transform="rotate(0,0,0)" />
<polygon points=" 198,228 208,228 208,248 198,248" fill="green" stroke="black" transform="rotate(0,0,0)" />
<polygon points=" 198,248 208,248 208,268 198,268" fill="green" stroke="black" transform="rotate(0,0,0)" />
<polygon points=" 198,268 208,268 208,288 198,288" fill="green" stroke="black" transform="rotate(0,0,0)" />
<polygon points=" 198,288 208,288 208,308 198,308" fill="green" stroke="black" transform="rotate(0,0,0)" />
<polygon points=" 198,308 208,308 208,328 198,328" fill="green" stroke="black" transform="rotate(0,0,0)" />
<polygon points=" 198,328 208,328 208,348 198,348" fill="green" stroke="black" transform="rotate(0,0,0)" />
<polygon points=" 198,348 208,348 208,368 198,368" fill="green" stroke="black" transform="rotate(0,0,0)" />
<polygon points=" 198,368 208,368 208,388 198,388" fill="green" stroke="black" transform="rotate(0,0,0)" />
<polygon points=" 198,388 208,388 208,408 198,408" fill="green" stroke="black" transform="rotate(0,0,0)" />
<polygon points=" 198,408 208,408 208,428 198,428" fill="green" stroke="black" transform="rotate(0,0,0)" />
<polygon points=" 198,428 208,428 208,448 198,448" fill="green" stroke="black" transform="rotate(0,0,0)" />
<polygon points=" 198,448 208,448 208,468 198,468" fill="green" stroke="black" transform="rotate(0,0,0)" />
<polygon points=" 198,468 208,468 208,488 198,488" fill="green" stroke="black" transform="rotate(0,0,0)" />
<polygon points=" 198,488 208,488 208,508 198,508" fill="green" stroke="black" transform="rotate(0,0,0)" />
<polygon points=" 208,88 218,88 218,108 208,108" fill="green" stroke="black" transform="rotate(0,0,0)" />
<polygon points=" 208,108 218,108 218,128 208,128" fill="green" stroke="black" transform="rotate(0,0,0)" />
<polygon points=" 208,128 218,128 218,148 208,148" fill="green" stroke="black" transform="rotate(0,0,0)" />
<polygon points=" 208,148 218,148 218,168 208,168" fill="green" stroke="black" transform="rotate(0,0,0)" />
<polygon points=" 208,168 218,168 218,188 208,188" fill="green" stroke="black" transform="rotate(0,0,0)" />
<polygon points=" 208,188 218,188 218,208 208,208" fill="green" stroke="black" transform="rotate(0,0,0)" />
<polygon points=" 208,208 218,208 218,228 208,228" fill="green" stroke="black" transform="rotate(0,0,0)" />
<polygon points=" 208,228 218,228 218,248 208,248" fill="green" stroke="black" transform="rotate(0,0,0)" />
<polygon points=" 208,248 218,248 218,268 208,268" fill="green" stroke="black" transform="rotate(0,0,0)" />
<polygon points=" 208,268 218,268 218,288 208,288" fill="green" stroke="black" transform="rotate(0,0,0)" />
<polygon points=" 208,288 218,288 218,308 208,308" fill="green" stroke="black" transform="rotate(0,0,0)" />
<polygon points=" 208,308 218,308 218,328 208,328" fill="green" stroke="black" transform="rotate(0,0,0)" />
<polygon points=" 208,328 218,328 218,348 208,348" fill="green" stroke="black" transform="rotate(0,0,0)" />
<polygon points=" 208,348 218,348 218,368 208,368" fill="green" stroke="black" transform="rotate(0,0,0)" />
<polygon points=" 208,368 218,368 218,388 208,388" fill="green" stroke="black" transform="rotate(0,0,0)" />
<polygon points=" 208,388 218,388 218,408 208,408" fill="green" stroke="black" transform="rotate(0,0,0)" />
<polygon points=" 208,408 218,408 218,428 208,428" fill="green" stroke="black" transform="rotate(0,0,0)" />
<polygon points=" 208,428 218,428 218,448 208,448" fill="green" stroke="black" transform="rotate(0,0,0)" />
<polygon points=" 208,448 218,448 218,468 208,468" fill="green" stroke="black" transform="rotate(0,0,0)" />
<polygon points=" 208,468 218,468 218,488 208,488" fill="green" stroke="black" transform="rotate(0,0,0)" />
<polygon points=" 208,488 218,488 218,508 208,508" fill="green" stroke="black" transform="rotate(0,0,0)" />
<polygon points=" 218,88 228,88 228,108 218,108" fill="green" stroke="black" transform="rotate(0,0,0)" />
<polygon points=" 218,108 228,108 228,128 218,128" fill="green" stroke="black" transform="rotate(0,0,0)" />
<polygon points=" 218,128 228,128 228,148 218,148" fill="green" stroke="black" transform="rotate(0,0,0)" />
<polygon points=" 218,148 228,148 228,168 218,168" fill="green" stroke="black" transform="rotate(0,0,0)" />
<polygon points=" 218,168 228,168 228,188 218,188" fill="green" stroke="black" transform="rotate(0,0,0)" />
<polygon points=" 218,188 228,188 228,208 218,208" fill="green" stroke="black" transform="rotate(0,0,0)" />
<polygon points=" 218,208 228,208 228,228 218,228" fill="green" stroke="black" transform="rotate(0,0,0)" />
<polygon points=" 218,228 228,228 228,248 218,248" fill="green" stroke="black" transform="rotate(0,0,0)" />
<polygon points=" 218,248 228,248 228,268 218,268" fill="green" stroke="black" transform="rotate(0,0,0)" />
<polygon points=" 218,268 228,268 228,288 218,288" fill="green" stroke="black" transform="rotate(0,0,0)" />
<polygon points=" 218,288 228,288 228,308 218,308" fill="green" stroke="black" transform="rotate(0,0,0)" />
<polygon points=" 218,308 228,308 228,328 218,328" fill="green" stroke="black" transform="rotate(0,0,0)" />
<polygon points=" 218,328 228,328 228,348 218,348" fill="green" stroke="black" transform="rotate(0,0,0)" />
<polygon points=" 218,348 228,348 228,368 218,368" fill="green" stroke="black" transform="rotate(0,0,0)" />
<polygon points=" 218,368 228,368 228,388 218,388" fill="green" stroke="black" transform="rotate(0,0,0)" />
<polygon points=" 218,388 228,388 228,408 218,408" fill="green" stroke="black" transform="rotate(0,0,0)" />
<polygon points=" 218,408 228,408 228,428 218,428" fill="green" stroke="black" transform="rotate(0,0,0)" />
<polygon points=" 218,428 228,428 228,448 218,448" fill="green" stroke="black" transform="rotate(0,0,0)" />
<polygon points=" 218,448 228,448 228,468 218,468" fill="green" stroke="black" transform="rotate(0,0,0)" />
<polygon points=" 218,468 228,468 228,488 218,488" fill="green" stroke="black" transform="rotate(0,0,0)" />
<polygon points=" 218,488 228,488 228,508 218,508" fill="green" stroke="black" transform="rotate(0,0,0)" />
<polygon points=" 228,88 238,88 238,108 228,108" fill="green" stroke="black" transform="rotate(0,0,0)" />
<polygon points=" 228,108 238,108 238,128 228,128" fill="green" stroke="black" transform="rotate(0,0,0)" />
<polygon points=" 228,128 238,128 238,148 228,148" fill="green" stroke="black" transform="rotate(0,0,0)" />
<polygon points=" 228,148 238,148 238,168 228,168" fill="green" stroke="black" transform="rotate(0,0,0)" />
<polygon points=" 228,168 238,168 238,188 228,188" fill="green" stroke="black" transform="rotate(0,0,0)" />
<polygon points=" 228,188 238,188 238,208 228,208" fill="green" stroke="black" transform="rotate(0,0,0)" />
<polygon points=" 228,208 238,208 238,228 228,228" fill="green" stroke="black" transform="rotate(0,0,0)" />
<polygon points=" 228,228 238,228 238,248 228,248" fill="green" stroke="black" transform="rotate(0,0,0)" />
<polygon points=" 228,248 238,248 238,268 228,268" fill="green" stroke="black" transform="rotate(0,0,0)" />
<polygon points=" 228,268 238,268 238,288 228,288" fill="green" stroke="black" transform="rotate(0,0,0)" />
<polygon points=" 228,288 238,288 238,308 228,308" fill="green" stroke="black" transform="rotate(0,0,0)" />
<polygon points=" 228,308 238,308 238,328 228,328" fill="green" stroke="black" transform="rotate(0,0,0)" />
<polygon points=" 228,328 238,328 238,348 228,348" fill="green" stroke="black" transform="rotate(0,0,0)" />
<polygon points=" 228,348 238,348 238,368 228,368" fill="green" stroke="black" transform="rotate(0,0,0)" />
<polygon points=" 228,368 238,368 238,388 228,388" fill="green" stroke="black" transform="rotate(0,0,0)" />
<polygon points=" 228,388 238,388 238,408 228,408" fill="green" stroke="black" transform="rotate(0,0,0)" />
<polygon points=" 228,408 238,408 238,428 228,428" fill="green" stroke="black" transform="rotate(0,0,0)" />
<polygon points=" 228,428 238,428 238,448 228,448" fill="green" stroke="black" transform="rotate(0,0,0)" />
<polygon points=" 228,448 238,448 238,468 228,468" fill="green" stroke="black" transform="rotate(0,0,0)" />
<polygon points=" 228,468 238,468 238,488 228,488" fill="green" stroke="black" transform="rotate(0,0,0)" />
<polygon points=" 228,488 238,488 238,508 228,508" fill="green" stroke="black" transform="rotate(0,0,0)" />
<polygon points=" 238,88 248,88 248,108 238,108" fill="green" stroke="black" transform="rotate(0,0,0)" />
<polygon points=" 238,108 248,108 248,128 238,128" fill="green" stroke="black" transform="rotate(0,0,0)" />
<polygon points=" 238,128 248,128 248,148 238,148" fill="green" stroke="black" transform="rotate(0,0,0)" />
<polygon points=" 238,148 248,148 248,168 238,168" fill="green" stroke="black" transform="rotate(0,0,0)" />
<polygon points=" 238,168 248,168 248,188 238,188" fill="green" stroke="black" transform="rotate(0,0,0)" />
<polygon points=" 238,188 248,188 248,208 238,208" fill="green" stroke="black" transform="rotate(0,0,0)" />
<polygon points=" 238,208 248,208 248,228 238,228" fill="green" stroke="black" transform="rotate(0,0,0)" />
<polygon points=" 238,228 248,228 248,248 238,248" fill="green" stroke="black" transform="rotate(0,0,0)" />
<polygon points=" 238,248 248,248 248,268 238,268" fill="green" stroke="black" transform="rotate(0,0,0)" />
<polygon points=" 238,268 248,268 248,288 238,288" fill="green" stroke="black" transform="rotate(0,0,0)" />
<polygon points=" 238,288 248,288 248,308 238,308" fill="green" stroke="black" transform="rotate(0,0,0)" />
<polygon points=" 238,308 248,308 248,328 238,328" fill="green" stroke="black" transform="rotate(0,0,0)" />
<polygon points=" 238,328 248,328 248,348 238,348" fill="green" stroke="black" transform="rotate(0,0,0)" />
<polygon points=" 238,348 248,348 248,368 238,368" fill="green" stroke="black" transform="rotate(0,0,0)" />
<polygon points=" 238,368 248,368 248,388 238,388" fill="green" stroke="black" transform="rotate(0,0,0)" />
<polygon points=" 238,388 248,388 248,408 238,408" fill="green" stroke="black" transform="rotate(0,0,0)" />
<polygon points=" 238,408 248,408 248,428 238,428" fill="green" stroke="black" transform="rotate(0,0,0)" />
<polygon points=" 238,428 248,428 248,448 238,448" fill="green" stroke="black" transform="rotate(0,0,0)" />
<polygon points=" 238,448 248,448 248,468 238,468" fill="green" stroke="black" transform="rotate(0,0,0)" />
<polygon points=" 238,468 248,468 248,488 238,488" fill="green" stroke="black" transform="rotate(0,0,0)" />
<polygon points=" 238,488 248,488 248,508 238,508" fill="green" stroke="black" transform="rotate(0,0,0)" />
<polygon points=" 248,88 258,88 258,108 248,108" fill="green" stroke="black" transform="rotate(0,0,0)" />
<polygon points=" 248,108 258,108 258,128 248,128" fill="green" stroke="black" transform="rotate(0,0,0)" />
<polygon points=" 248,128 258,128 258,148 248,148" fill="green" stroke="black" transform="rotate(0,0,0)" />
<polygon points=" 248,148 258,148 258,168 248,168" fill="green" stroke="black" transform="rotate(0,0,0)" />
<polygon points=" 248,168 258,168 258,188 248,188" fill="green" stroke="black" transform="rotate(0,0,0)" />
<polygon points=" 248,188 258,188 258,208 248,208" fill="green" stroke="black" transform="rotate(0,0,0)" />
<polygon points=" 248,208 258,208 258,228 248,228" fill="green" stroke="black" transform="rotate(0,0,0)" />
<polygon points=" 248,228 258,228 258,248 248,248" fill="green" stroke="black" transform="rotate(0,0,0)" />
<polygon points=" 248,248 258,248 258,268 248,268" fill="green" stroke="black" transform="rotate(0,0,0)" />
<polygon points=" 248,268 258,268 258,288 248,288" fill="green" stroke="black" transform="rotate(0,0,0)" />
<polygon points=" 248,288 258,288 258,308 248,308" fill="green" stroke="black" transform="rotate(0,0,0)" />
<polygon points=" 248,308 258,308 258,328 248,328" fill="green" stroke="black" transform="rotate(0,0,0)" />
<polygon points=" 248,328 258,328 258,348 248,348" fill="green" stroke="black" transform="rotate(0,0,0)" />
<polygon points=" 248,348 258,348 258,368 248,368" fill="green" stroke="black" transform="rotate(0,0,0)" />
<polygon points=" 248,368 258,368 258,388 248,388" fill="green" stroke="black" transform="rotate(0,0,0)" />
<polygon points=" 248,388 258,388 258,408 248,408" fill="green" stroke="black" transform="rotate(0,0,0)" />
<polygon points=" 248,408 258,408 258,428 248,428" fill="green" stroke="black" transform="rotate(0,0,0)" />
<polygon points=" 248,428 258,428 258,448 248,448" fill="green" stroke="black" transform="rotate(0,0,0)" />
<polygon points=" 248,448 258,448 258,468 248,468" fill="green" stroke="black" transform="rotate(0,0,0)" />
<polygon points=" 248,468 258,468 258,488 248,488" fill="green" stroke="black" transform="rotate(0,0,0)" />
<polygon points=" 248,488 258,488 258,508 248,508" fill="green" stroke="black" transform="rotate(0,0,0)" />
<polygon points=" 258,88 268,88 268,108 258,108" fill="green" stroke="black" transform="rotate(0,0,0)" />
<polygon points=" 258,108 268,108 268,128 258,128" fill="green" stroke="black" transform="rotate(0,0,0)" />
<polygon points=" 258,128 268,128 268,148 258,148" fill="green" stroke="black" transform="rotate(0,0,0)" />
<polygon points=" 258,148 268,148 268,168 258,168" fill="green" stroke="black" transform="rotate(0,0,0)" />
<polygon points=" 258,168 268,168 268,188 258,188" fill="green" stroke="black" transform="rotate(0,0,0)" />
<polygon points=" 258,188 268,188 268,208 258,208" fill="green" stroke="black" transform="rotate(0,0,0)" />
<polygon points=" 258,208 268,208 268,228 258,228" fill="green" stroke="black" transform="rotate(0,0,0)" />
<polygon points=" 258,228 268,228 268,248 258,248" fill="green" stroke="black" transform="rotate(0,0,0)" />
<polygon points=" 258,248 268,248 268,268 258,268" fill="green" stroke="black" transform="rotate(0,0,0)" />
<polygon points=" 258,268 268,268 268,288 258,288" fill="green" stroke="black" transform="rotate(0,0,0)" />
<polygon points=" 258,288 268,288 268,308 258,308" fill="green" stroke="black" transform="rotate(0,0,0)" />
<polygon points=" 258,308 268,308 268,328 258,328" fill="green" stroke="black" transform="rotate(0,0,0)" />
<polygon points=" 258,328 268,328 268,348 258,348" fill="green" stroke="black" transform="rotate(0,0,0)" />
<polygon points=" 258,348 268,348 268,368 258,368" fill="green" stroke="black" transform="rotate(0,0,0)" />
<polygon points=" 258,368 268,368 268,388 258,388" fill="green" stroke="black" transform="rotate(0,0,0)" />
<polygon points=" 258,388 268,388 268,408 258,408" fill="green" stroke="black" transform="rotate(0,0,0)" />
<polygon points=" 258,408 268,408 268,428 258,428" fill="green" stroke="black" transform="rotate(0,0,0)" />
<polygon points=" 258,428 268,428 268,448 258,448" fill="green" stroke="black" transform="rotate(0,0,0)" />
<polygon points=" 258,448 268,448 268,468 258,468" fill="green" stroke="black" transform="rotate(0,0,0)" />
<polygon points=" 258,468 268,468 268,488 258,488" fill="green" stroke="black" transform="rotate(0,0,0)" />
<polygon points=" 258,488 268,488 268,508 258,508" fill="green" stroke="black" transform="rotate(0,0,0)" />
<polygon points=" 268,88 278,88 278,108 268,108" fill="green" stroke="black" transform="rotate(0,0,0)" />
<polygon points=" 268,108 278,108 278,128 268,128" fill="green" stroke="black" transform="rotate(0,0,0)" />
<polygon points=" 268,128 278,128 278,148 268,148" fill="green" stroke="black" transform="rotate(0,0,0)" />
<polygon points=" 268,148 278,148 278,168 268,168" fill="green" stroke="black" transform="rotate(0,0,0)" />
<polygon points=" 268,168 278,168 278,188 268,188" fill="green" stroke="black" transform="rotate(0,0,0)" />
<polygon points=" 268,188 278,188 278,208 268,208" fill="green" stroke="black" transform="rotate(0,0,0)" />
<polygon points=" 268,208 278,208 278,228 268,228" fill="green" stroke="black" transform="rotate(0,0,0)" />
<polygon points=" 268,228 278,228 278,248 268,248" fill="green" stroke="black" transform="rotate(0,0,0)" />
<polygon points=" 268,248 278,248 278,268 268,268" fill="green" stroke="black" transform="rotate(0,0,0)" />
<polygon points=" 268,268 278,268 278,288 268,288" fill="green" stroke="black" transform="rotate(0,0,0)" />
<polygon points=" 268,288 278,288 278,308 268,308" fill="green" stroke="black" transform="rotate(0,0,0)" />
<polygon points=" 268,308 278,308 278,328 268,328" fill="green" stroke="black" transform="rotate(0,0,0)" />
<polygon points=" 268,328 278,328 278,348 268,348" fill="green" stroke="black" transform="rotate(0,0,0)" />
<polygon points=" 268,348 278,348 278,368 268,368" fill="green" stroke="black" transform="rotate(0,0,0)" />
<polygon points=" 268,368 278,368 278,388 268,388" fill="green" stroke="black" transform="rotate(0,0,0)" />
<polygon points=" 268,388 278,388 278,408 268,408" fill="green" stroke="black" transform="rotate(0,0,0)" />
<polygon points=" 268,408 278,408 278,428 268,428" fill="green" stroke="black" transform="rotate(0,0,0)" />
<polygon points=" 268,428 278,428 278,448 268,448" fill="green" stroke="black" transform="rotate(0,0,0)" />
<polygon points=" 268,448 278,448 278,468 268,468" fill="green" stroke="black" transform="rotate(0,0,0)" />
<polygon points=" 268,468 278,468 278,488 268,488" fill="green" stroke="black" transform="rotate(0,0,0)" />
<polygon points=" 268,488 278,488 278,508 268,508" fill="green" stroke="black" transform="rotate(0,0,0)" />
<polygon points=" 278,88 288,88 288,108 278,108" fill="green" stroke="black" transform="rotate(0,0,0)" />
<polygon points=" 278,108 288,108 288,128 278,128" fill="green" stroke="black" transform="rotate(0,0,0)" />
<polygon points=" 278,128 288,128 288,148 278,148" fill="green" stroke="black" transform="rotate(0,0,0)" />
<polygon points=" 278,148 288,148 288,168 278,168" fill="green" stroke="black" transform="rotate(0,0,0)" />
<polygon points=" 278,168 288,168 288,188 278,188" fill="green" stroke="black" transform="rotate(0,0,0)" />
<polygon points=" 278,188 288,188 288,208 278,208" fill="green" stroke="black" transform="rotate(0,0,0)" />
<polygon points=" 278,208 288,208 288,228 278,228" fill="green" stroke="black" transform="rotate(0,0,0)" />
<polygon points=" 278,228 288,228 288,248 278,248" fill="green" stroke="black" transform="rotate(0,0,0)" />
<polygon points=" 278,248 288,248 288,268 278,268" fill="green" stroke="black" transform="rotate(0,0,0)" />
<polygon points=" 278,268 288,268 288,288 278,288" fill="green" stroke="black" transform="rotate(0,0,0)" />
<polygon points=" 278,288 288,288 288,308 278,308" fill="green" stroke="black" transform="rotate(0,0,0)" />
<polygon points=" 278,308 288,308 288,328 278,328" fill="green" stroke="black" transform="rotate(0,0,0)" />
<polygon points=" 278,328 288,328 288,348 278,348" fill="green" stroke="black" transform="rotate(0,0,0)" />
<polygon points=" 278,348 288,348 288,368 278,368" fill="green" stroke="black" transform="rotate(0,0,0)" />
<polygon points=" 278,368 288,368 288,388 278,388" fill="green" stroke="black" transform="rotate(0,0,0)" />
<polygon points=" 278,388 288,388 288,408 278,408" fill="green" stroke="black" transform="rotate(0,0,0)" />
<polygon points=" 278,408 288,408 288,428 278,428" fill="green" stroke="black" transform="rotate(0,0,0)" />
<polygon points=" 278,428 288,428 288,448 278,448" fill="green" stroke="black" transform="rotate(0,0,0)" />
<polygon points=" 278,448 288,448 288,468 278,468" fill="green" stroke="black" transform="rotate(0,0,0)" />
<polygon points=" 278,468 288,468 288,488 278,488" fill="green" stroke="black" transform="rotate(0,0,0)" />
<polygon points=" 278,488 288,488 288,508 278,508" fill="green" stroke="black" transform="rotate(0,0,0)" />
<polygon points=" 288,88 298,88 298,108 288,108" fill="green" stroke="black" transform="rotate(0,0,0)" />
<polygon points=" 288,108 298,108 298,128 288,128" fill="green" stroke="black" transform="rotate(0,0,0)" />
<polygon points=" 288,128 298,128 298,148 288,148" fill="green" stroke="black" transform="rotate(0,0,0)" />
<polygon points=" 288,148 298,148 298,168 288,168" fill="green" stroke="black" transform="rotate(0,0,0)" />
<polygon points=" 288,168 298,168 298,188 288,188" fill="green" stroke="black" transform="rotate(0,0,0)" />
<polygon points=" 288,188 298,188 298,208 288,208" fill="green" stroke="black" transform="rotate(0,0,0)" />
<polygon points=" 288,208 298,208 298,228 288,228" fill="green" stroke="black" transform="rotate(0,0,0)" />
<polygon points=" 288,228 298,228 298,248 288,248" fill="green" stroke="black" transform="rotate(0,0,0)" />
<polygon points=" 288,248 298,248 298,268 288,268" fill="green" stroke="black" transform="rotate(0,0,0)" />
<polygon points=" 288,268 298,268 298,288 288,288" fill="green" stroke="black" transform="rotate(0,0,0)" />
<polygon points=" 288,288 298,288 298,308 288,308" fill="green" stroke="black" transform="rotate(0,0,0)" />
<polygon points=" 288,308 298,308 298,328 288,328" fill="green" stroke="black" transform="rotate(0,0,0)" />
<polygon points=" 288,328 298,328 298,348 288,348" fill="green" stroke="black" transform="rotate(0,0,0)" />
<polygon points=" 288,348 298,348 298,368 288,368" fill="green" stroke="black" transform="rotate(0,0,0)" />
<polygon points=" 288,368 298,368 298,388 288,388" fill="green" stroke="black" transform="rotate(0,0,0)" />
<polygon points=" 288,388 298,388 298,408 288,408" fill="green" stroke="black" transform="rotate(0,0,0)" />
<polygon points=" 288,408 298,408 298,428 288,428" fill="green" stroke="black" transform="rotate(0,0,0)" />
<polygon points=" 288,428 298,428 298,448 288,448" fill="green" stroke="black" transform="rotate(0,0,0)" />
<polygon points=" 288,448 298,448 298,468 288,468" fill="green" stroke="black" transform="rotate(0,0,0)" />
<polygon points=" 288,468 298,468 298,488 288,488" fill="green" stroke="black" transform="rotate(0,0,0)" />
<polygon points=" 288,488 298,488 298,508 288,508" fill="green" stroke="black" transform="rotate(0,0,0)" />
<polygon points=" 298,88 308,88 308,108 298,108" fill="green" stroke="black" transform="rotate(0,0,0)" />
<polygon points=" 298,108 308,108 308,128 298,128" fill="green" stroke="black" transform="rotate(0,0,0)" />
<polygon points=" 298,128 308,128 308,148 298,148" fill="green" stroke="black" transform="rotate(0,0,0)" />
<polygon points=" 298,148 308,148 308,168 298,168" fill="green" stroke="black" transform="rotate(0,0,0)" />
<polygon points=" 298,168 308,168 308,188 298,188" fill="green" stroke="black" transform="rotate(0,0,0)" />
<polygon points=" 298,188 308,188 308,208 298,208" fill="green" stroke="black" transform="rotate(0,0,0)" />
<polygon points=" 298,208 308,208 308,228 298,228" fill="green" stroke="black" transform="rotate(0,0,0)" />
<polygon points=" 298,228 308,228 308,248 298,248" fill="green" stroke="black" transform="rotate(0,0,0)" />
<polygon points=" 298,248 308,248 308,268 298,268" fill="green" stroke="black" transform="rotate(0,0,0)" />
<polygon points=" 298,268 308,268 308,288 298,288" fill="green" stroke="black" transform="rotate(0,0,0)" />
<polygon points=" 298,288 308,288 308,308 298,308" fill="green" stroke="black" transform="rotate(0,0,0)" />
<polygon points=" 298,308 308,308 308,328 298,328" fill="green" stroke="black" transform="rotate(0,0,0)" />
<polygon points=" 298,328 308,328 308,348 298,348" fill="green" stroke="black" transform="rotate(0,0,0)" />
<polygon points=" 298,348 308,348 308,368 298,368" fill="green" stroke="black" transform="rotate(0,0,0)" />
<polygon points=" 298,368 308,368 308,388 298,388" fill="green" stroke="black" transform="rotate(0,0,0)" />
<polygon points=" 298,388 308,388 308,408 298,408" fill="green" stroke="black" transform="rotate(0,0,0)" />
<polygon points=" 298,408 308,408 308,428 298,428" fill="green" stroke="black" transform="rotate(0,0,0)" />
<polygon points=" 298,428 308,428 308,448 298,448" fill="green" stroke="black" transform="rotate(0,0,0)" />
<polygon points=" 298,448 308,448 308,468 298,468" fill="green" stroke="black" transform="rotate(0,0,0)" />
<polygon points=" 298,468 308,468 308,488 298,488" fill="green" stroke="black" transform="rotate(0,0,0)" />
<polygon points=" 298,488 308,488 308,508 298,508" fill="green" stroke="black" transform="rotate(0,0,0)" />
<polygon points=" 308,88 318,88 318,108 308,108" fill="green" stroke="black" transform="rotate(0,0,0)" />
<polygon points=" 308,108 318,108 318,128 308,128" fill="green" stroke="black" transform="rotate(0,0,0)" />
<polygon points=" 308,128 318,128 318,148 308,148" fill="green" stroke="black" transform="rotate(0,0,0)" />
<polygon points=" 308,148 318,148 318,168 308,168" fill="green" stroke="black" transform="rotate(0,0,0)" />
<polygon points=" 308,168 318,168 318,188 308,188" fill="green" stroke="black" transform="rotate(0,0,0)" />
<polygon points=" 308,188 318,188 318,208 308,208" fill="green" stroke="black" transform="rotate(0,0,0)" />
<polygon points=" 308,208 318,208 318,228 308,228" fill="green" stroke="black" transform="rotate(0,0,0)" />
<polygon points=" 308,228 318,228 318,248 308,248" fill="green" stroke="black" transform="rotate(0,0,0)" />
<polygon points=" 308,248 318,248 318,268 308,268" fill="green" stroke="black" transform="rotate(0,0,0)" />
<polygon points=" 308,268 318,268 318,288 308,288" fill="green" stroke="black" transform="rotate(0,0,0)" />
<polygon points=" 308,288 318,288 318,308 308,308" fill="green" stroke="black" transform="rotate(0,0,0)" />
<polygon points=" 308,308 318,308 318,328 308,328" fill="green" stroke="black" transform="rotate(0,0,0)" />
<polygon points=" 308,328 318,328 318,348 308,348" fill="green" stroke="black" transform="rotate(0,0,0)" />
<polygon points=" 308,348 318,348 318,368 308,368" fill="green" stroke="black" transform="rotate(0,0,0)" />
<polygon points=" 308,368 318,368 318,388 308,388" fill="green" stroke="black" transform="rotate(0,0,0)" />
<polygon points=" 308,388 318,388 318,408 308,408" fill="green" stroke="black" transform="rotate(0,0,0)" />
<polygon points=" 308,408 318,408 318,428 308,428" fill="green" stroke="black" transform="rotate(0,0,0)" />
<polygon points=" 308,428 318,428 318,448 308,448" fill="green" stroke="black" transform="rotate(0,0,0)" />
<polygon points=" 308,448 318,448 318,468 308,468" fill="green" stroke="black" transform="rotate(0,0,0)" />
<polygon points=" 308,468 318,468 318,488 308,488" fill="green" stroke="black" transform="rotate(0,0,0)" />
<polygon points=" 308,488 318,488 318,508 308,508" fill="green" stroke="black" transform="rotate(0,0,0)" />
<polygon points=" 318,88 328,88 328,108 318,108" fill="green" stroke="black" transform="rotate(0,0,0)" />
<polygon points=" 318,108 328,108 328,128 318,128" fill="green" stroke="black" transform="rotate(0,0,0)" />
<polygon points=" 318,128 328,128 328,148 318,148" fill="green" stroke="black" transform="rotate(0,0,0)" />
<polygon points=" 318,148 328,148 328,168 318,168" fill="green" stroke="black" transform="rotate(0,0,0)" />
<polygon points=" 318,168 328,168 328,188 318,188" fill="green" stroke="black" transform="rotate(0,0,0)" />
<polygon points=" 318,188 328,188 328,208 318,208" fill="green" stroke="black" transform="rotate(0,0,0)" />
<polygon points=" 318,208 328,208 328,228 318,228" fill="green" stroke="black" transform="rotate(0,0,0)" />
<polygon points=" 318,228 328,228 328,248 318,248" fill="green" stroke="black" transform="rotate(0,0,0)" />
<polygon points=" 318,248 328,248 328,268 318,268" fill="green" stroke="black" transform="rotate(0,0,0)" />
<polygon points=" 318,268 328,268 328,288 318,288" fill="green" stroke="black" transform="rotate(0,0,0)" />
<polygon points=" 318,288 328,288 328,308 318,308" fill="green" stroke="black" transform="rotate(0,0,0)" />
<polygon points=" 318,308 328,308 328,328 318,328" fill="green" stroke="black" transform="rotate(0,0,0)" />
<polygon points=" 318,328 328,328 328,348 318,348" fill="green" stroke="black" transform="rotate(0,0,0)" />
<polygon points=" 318,348 328,348 328,368 318,368" fill="green" stroke="black" transform="rotate(0,0,0)" />
<polygon points=" 318,368 328,368 328,388 318,388" fill="green" stroke="black" transform="rotate(0,0,0)" />
<polygon points=" 318,388 328,388 328,408 318,408" fill="green" stroke="black" transform="rotate(0,0,0)" />
<polygon points=" 318,408 328,408 328,428 318,428" fill="green" stroke="black" transform="rotate(0,0,0)" />
<polygon points=" 318,428 328,428 328,448 318,448" fill="green" stroke="black" transform="rotate(0,0,0)" />
<polygon points=" 318,448 328,448 328,468 318,468" fill="green" stroke="black" transform="rotate(0,0,0)" />
<polygon points=" 318,468 328,468 328,488 318,488" fill="green" stroke="black" transform="rotate(0,0,0)" />
<polygon points=" 318,488 328,488 328,508 318,508" fill="green" stroke="black" transform="rotate(0,0,0)" />
<polygon points=" 328,88 338,88 338,108 328,108" fill="green" stroke="black" transform="rotate(0,0,0)" />
<polygon points=" 328,108 338,108 338,128 328,128" fill="green" stroke="black" transform="rotate(0,0,0)" />
<polygon points=" 328,128 338,128 338,148 328,148" fill="green" stroke="black" transform="rotate(0,0,0)" />
<polygon points=" 328,148 338,148 338,168 328,168" fill="green" stroke="black" transform="rotate(0,0,0)" />
<polygon points=" 328,168 338,168 338,188 328,188" fill="green" stroke="black" transform="rotate(0,0,0)" />
<polygon points=" 328,188 338,188 338,208 328,208" fill="green" stroke="black" transform="rotate(0,0,0)" />
<polygon points=" 328,208 338,208 338,228 328,228" fill="green" stroke="black" transform="rotate(0,0,0)" />
<polygon points=" 328,228 338,228 338,248 328,248" fill="green" stroke="black" transform="rotate(0,0,0)" />
<polygon points=" 328,248 338,248 338,268 328,268" fill="green" stroke="black" transform="rotate(0,0,0)" />
<polygon points=" 328,268 338,268 338,288 328,288" fill="green" stroke="black" transform="rotate(0,0,0)" />
<polygon points=" 328,288 338,288 338,308 328,308" fill="green" stroke="black" transform="rotate(0,0,0)" />
<polygon points=" 328,308 338,308 338,328 328,328" fill="green" stroke="black" transform="rotate(0,0,0)" />
<polygon points=" 328,328 338,328 338,348 328,348" fill="green" stroke="black" transform="rotate(0,0,0)" />
<polygon points=" 328,348 338,348 338,368 328,368" fill="green" stroke="black" transform="rotate(0,0,0)" />
<polygon points=" 328,368 338,368 338,388 328,388" fill="green" stroke="black" transform="rotate(0,0,0)" />
<polygon points=" 328,388 338,388 338,408 328,408" fill="green" stroke="black" transform="rotate(0,0,0)" />
<polygon points=" 328,408 338,408 338,428 328,428" fill="green" stroke="black" transform="rotate(0,0,0)" />
<polygon points=" 328,428 338,428 338,448 328,448" fill="green" stroke="black" transform="rotate(0,0,0)" />
<polygon points=" 328,448 338,448 338,468 328,468" fill="green" stroke="black" transform="rotate(0,0,0)" />
<polygon points=" 328,468 338,468 338,488 328,488" fill="green" stroke="black" transform="rotate(0,0,0)" />
<polygon points=" 328,488 338,488 338,508 328,508" fill="green" stroke="black" transform="rotate(0,0,0)" />
<polygon points=" 338,88 348,88 348,108 338,108" fill="green" stroke="black" transform="rotate(0,0,0)" />
<polygon points=" 338,108 348,108 348,128 338,128" fill="green" stroke="black" transform="rotate(0,0,0)" />
<polygon points=" 338,128 348,128 348,148 338,148" fill="green" stroke="black" transform="rotate(0,0,0)" />
<polygon points=" 338,148 348,148 348,168 338,168" fill="green" stroke="black" transform="rotate(0,0,0)" />
<polygon points=" 338,168 348,168 348,188 338,188" fill="green" stroke="black" transform="rotate(0,0,0)" />
<polygon points=" 338,188 348,188 348,208 338,208" fill="green" stroke="black" transform="rotate(0,0,0)" />
<polygon points=" 338,208 348,208 348,228 338,228" fill="green" stroke="black" transform="rotate(0,0,0)" />
<polygon points=" 338,228 348,228 348,248 338,248" fill="green" stroke="black" transform="rotate(0,0,0)" />
<polygon points=" 338,248 348,248 348,268 338,268" fill="green" stroke="black" transform="rotate(0,0,0)" />
<polygon points=" 338,268 348,268 348,288 338,288" fill="green" stroke="black" transform="rotate(0,0,0)" />
<polygon points=" 338,288 348,288 348,308 338,308" fill="green" stroke="black" transform="rotate(0,0,0)" />
<polygon points=" 338,308 348,308 348,328 338,328" fill="green" stroke="black" transform="rotate(0,0,0)" />
<polygon points=" 338,328 348,328 348,348 338,348" fill="green" stroke="black" transform="rotate(0,0,0)" />
<polygon points=" 338,348 348,348 348,368 338,368" fill="green" stroke="black" transform="rotate(0,0,0)" />
<polygon points=" 338,368 348,368 348,388 338,388" fill="green" stroke="black" transform="rotate(0,0,0)" />
<polygon points=" 338,388 348,388 348,408 338,408" fill="green" stroke="black" transform="rotate(0,0,0)" />
<polygon points=" 338,408 348,408 348,428 338,428" fill="green" stroke="black" transform="rotate(0,0,0)" />
<polygon points=" 338,428 348,428 348,448 338,448" fill="green" stroke="black" transform="rotate(0,0,0)" />
<polygon points=" 338,448 348,448 348,468 338,468" fill="green" stroke="black" transform="rotate(0,0,0)" />
<polygon points=" 338,468 348,468 348,488 338,488" fill="green" stroke="black" transform="rotate(0,0,0)" />
<polygon points=" 338,488 348,488 348,508 338,508" fill="green" stroke="black" transform="rotate(0,0,0)" />
<polygon points=" 348,88 358,88 358,108 348,108" fill="green" stroke="black" transform="rotate(0,0,0)" />
<polygon points=" 348,108 358,108 358,128 348,128" fill="green" stroke="black" transform="rotate(0,0,0)" />
<polygon points=" 348,128 358,128 358,148 348,148" fill="green" stroke="black" transform="rotate(0,0,0)" />
<polygon points=" 348,148 358,148 358,168 348,168" fill="green" stroke="black" transform="rotate(0,0,0)" />
<polygon points=" 348,168 358,168 358,188 348,188" fill="green" stroke="black" transform="rotate(0,0,0)" />
<polygon points=" 348,188 358,188 358,208 348,208" fill="green" stroke="black" transform="rotate(0,0,0)" />
<polygon points=" 348,208 358,208 358,228 348,228" fill="green" stroke="black" transform="rotate(0,0,0)" />
<polygon points=" 348,228 358,228 358,248 348,248" fill="green" stroke="black" transform="rotate(0,0,0)" />
<polygon points=" 348,248 358,248 358,268 348,268" fill="green" stroke="black" transform="rotate(0,0,0)" />
<polygon points=" 348,268 358,268 358,288 348,288" fill="green" stroke="black" transform="rotate(0,0,0)" />
<polygon points=" 348,288 358,288 358,308 348,308" fill="green" stroke="black" transform="rotate(0,0,0)" />
<polygon points=" 348,308 358,308 358,328 348,328" fill="green" stroke="black" transform="rotate(0,0,0)" />
<polygon points=" 348,328 358,328 358,348 348,348" fill="green" stroke="black" transform="rotate(0,0,0)" />
<polygon points=" 348,348 358,348 358,368 348,368" fill="green" stroke="black" transform="rotate(0,0,0)" />
<polygon points=" 348,368 358,368 358,388 348,388" fill="green" stroke="black" transform="rotate(0,0,0)" />
<polygon points=" 348,388 358,388 358,408 348,408" fill="green" stroke="black" transform="rotate(0,0,0)" />
<polygon points=" 348,408 358,408 358,428 348,428" fill="green" stroke="black" transform="rotate(0,0,0)" />
<polygon points=" 348,428 358,428 358,448 348,448" fill="green" stroke="black" transform="rotate(0,0,0)" />
<polygon points=" 348,448 358,448 358,468 348,468" fill="green" stroke="black" transform="rotate(0,0,0)" />
<polygon points=" 348,468 358,468 358,488 348,488" fill="green" stroke="black" transform="rotate(0,0,0)" />
<polygon points=" 348,488 358,488 358,508 348,508" fill="green" stroke="black" transform="rotate(0,0,0)" />
<polygon points=" 358,88 368,88 368,108 358,108" fill="green" stroke="black" transform="rotate(0,0,0)" />
<polygon points=" 358,108 368,108 368,128 358,128" fill="green" stroke="black" transform="rotate(0,0,0)" />
<polygon points=" 358,128 368,128 368,148 358,148" fill="green" stroke="black" transform="rotate(0,0,0)" />
<polygon points=" 358,148 368,148 368,168 358,168" fill="green" stroke="black" transform="rotate(0,0,0)" />
<polygon points=" 358,168 368,168 368,188 358,188" fill="green" stroke="black" transform="rotate(0,0,0)" />
<polygon points=" 358,188 368,188 368,208 358,208" fill="green" stroke="black" transform="rotate(0,0,0)" />
<polygon points=" 358,208 368,208 368,228 358,228" fill="green" stroke="black" transform="rotate(0,0,0)" />
<polygon points=" 358,228 368,228 368,248 358,248" fill="green" stroke="black" transform="rotate(0,0,0)" />
<polygon points=" 358,248 368,248 368,268 358,268" fill="green" stroke="black" transform="rotate(0,0,0)" />
<polygon points=" 358,268 368,268 368,288 358,288" fill="green" stroke="black" transform="rotate(0,0,0)" />
<polygon points=" 358,288 368,288 368,308 358,308" fill="green" stroke="black" transform="rotate(0,0,0)" />
<polygon points=" 358,308 368,308 368,328 358,328" fill="green" stroke="black" transform="rotate(0,0,0)" />
<polygon points=" 358,328 368,328 368,348 358,348" fill="green" stroke="black" transform="rotate(0,0,0)" />
<polygon points=" 358,348 368,348 368,368 358,368" fill="green" stroke="black" transform="rotate(0,0,0)" />
<polygon points=" 358,368 368,368 368,388 358,388" fill="green" stroke="black" transform="rotate(0,0,0)" />
<polygon points=" 358,388 368,388 368,408 358,408" fill="green" stroke="black" transform="rotate(0,0,0)" />
<polygon points=" 358,408 368,408 368,428 358,428" fill="green" stroke="black" transform="rotate(0,0,0)" />
<polygon points=" 358,428 368,428 368,448 358,448" fill="green" stroke="black" transform="rotate(0,0,0)" />
<polygon points=" 358,448 368,448 368,468 358,468" fill="green" stroke="black" transform="rotate(0,0,0)" />
<polygon points=" 358,468 368,468 368,488 358,488" fill="green" stroke="black" transform="rotate(0,0,0)" />
<polygon points=" 358,488 368,488 368,508 358,508" fill="green" stroke="black" transform="rotate(0,0,0)" />
<polygon points=" 368,88 378,88 378,108 368,108" fill="green" stroke="black" transform="rotate(0,0,0)" />
<polygon points=" 368,108 378,108 378,128 368,128" fill="green" stroke="black" transform="rotate(0,0,0)" />
<polygon points=" 368,128 378,128 378,148 368,148" fill="green" stroke="black" transform="rotate(0,0,0)" />
<polygon points=" 368,148 378,148 378,168 368,168" fill="green" stroke="black" transform="rotate(0,0,0)" />
<polygon points=" 368,168 378,168 378,188 368,188" fill="green" stroke="black" transform="rotate(0,0,0)" />
<polygon points=" 368,188 378,188 378,208 368,208" fill="green" stroke="black" transform="rotate(0,0,0)" />
<polygon points=" 368,208 378,208 378,228 368,228" fill="green" stroke="black" transform="rotate(0,0,0)" />
<polygon points=" 368,228 378,228 378,248 368,248" fill="green" stroke="black" transform="rotate(0,0,0)" />
<polygon points=" 368,248 378,248 378,268 368,268" fill="green" stroke="black" transform="rotate(0,0,0)" />
<polygon points=" 368,268 378,268 378,288 368,288" fill="green" stroke="black" transform="rotate(0,0,0)" />
<polygon points=" 368,288 378,288 378,308 368,308" fill="green" stroke="black" transform="rotate(0,0,0)" />
<polygon points=" 368,308 378,308 378,328 368,328" fill="green" stroke="black" transform="rotate(0,0,0)" />
<polygon points=" 368,328 378,328 378,348 368,348" fill="green" stroke="black" transform="rotate(0,0,0)" />
<polygon points=" 368,348 378,348 378,368 368,368" fill="green" stroke="black" transform="rotate(0,0,0)" />
<polygon points=" 368,368 378,368 378,388 368,388" fill="green" stroke="black" transform="rotate(0,0,0)" />
<polygon points=" 368,388 378,388 378,408 368,408" fill="green" stroke="black" transform="rotate(0,0,0)" />
<polygon points=" 368,408 378,408 378,428 368,428" fill="green" stroke="black" transform="rotate(0,0,0)" />
<polygon points=" 368,428 378,428 378,448 368,448" fill="green" stroke="black" transform="rotate(0,0,0)" />
<polygon points=" 368,448 378,448 378,468 368,468" fill="green" stroke="black" transform="rotate(0,0,0)" />
<polygon points=" 368,468 378,468 378,488 368,488" fill="green" stroke="black" transform="rotate(0,0,0)" />
<polygon points=" 368,488 378,488 378,508 368,508" fill="green" stroke="black" transform="rotate(0,0,0)" />
<polygon points=" 378,88 388,88 388,108 378,108" fill="green" stroke="black" transform="rotate(0,0,0)" />
<polygon points=" 378,108 388,108 388,128 378,128" fill="green" stroke="black" transform="rotate(0,0,0)" />
<polygon points=" 378,128 388,128 388,148 378,148" fill="green" stroke="black" transform="rotate(0,0,0)" />
<polygon points=" 378,148 388,148 388,168 378,168" fill="green" stroke="black" transform="rotate(0,0,0)" />
<polygon points=" 378,168 388,168 388,188 378,188" fill="green" stroke="black" transform="rotate(0,0,0)" />
<polygon points=" 378,188 388,188 388,208 378,208" fill="green" stroke="black" transform="rotate(0,0,0)" />
<polygon points=" 378,208 388,208 388,228 378,228" fill="green" stroke="black" transform="rotate(0,0,0)" />
<polygon points=" 378,228 388,228 388,248 378,248" fill="green" stroke="black" transform="rotate(0,0,0)" />
<polygon points=" 378,248 388,248 388,268 378,268" fill="green" stroke="black" transform="rotate(0,0,0)" />
<polygon points=" 378,268 388,268 388,288 378,288" fill="green" stroke="black" transform="rotate(0,0,0)" />
<polygon points=" 378,288 388,288 388,308 378,308" fill="green" stroke="black" transform="rotate(0,0,0)" />
<polygon points=" 378,308 388,308 388,328 378,328" fill="green" stroke="black" transform="rotate(0,0,0)" />
<polygon points=" 378,328 388,328 388,348 378,348" fill="green" stroke="black" transform="rotate(0,0,0)" />
<polygon points=" 378,348 388,348 388,368 378,368" fill="green" stroke="black" transform="rotate(0,0,0)" />
<polygon points=" 378,368 388,368 388,388 378,388" fill="green" stroke="black" transform="rotate(0,0,0)" />
<polygon points=" 378,388 388,388 388,408 378,408" fill="green" stroke="black" transform="rotate(0,0,0)" />
<polygon points=" 378,408 388,408 388,428 378,428" fill="green" stroke="black" transform="rotate(0,0,0)" />
<polygon points=" 378,428 388,428 388,448 378,448" fill="green" stroke="black" transform="rotate(0,0,0)" />
<polygon points=" 378,448 388,448 388,468 378,468" fill="green" stroke="black" transform="rotate(0,0,0)" />
<polygon points=" 378,468 388,468 388,488 378,488" fill="green" stroke="black" transform="rotate(0,0,0)" />
<polygon points=" 378,488 388,488 388,508 378,508" fill="green" stroke="black" transform="rotate(0,0,0)" />
<polygon points=" 388,88 398,88 398,108 388,108" fill="green" stroke="black" transform="rotate(0,0,0)" />
<polygon points=" 388,108 398,108 398,128 388,128" fill="green" stroke="black" transform="rotate(0,0,0)" />
<polygon points=" 388,128 398,128 398,148 388,148" fill="green" stroke="black" transform="rotate(0,0,0)" />
<polygon points=" 388,148 398,148 398,168 388,168" fill="green" stroke="black" transform="rotate(0,0,0)" />
<polygon points=" 388,168 398,168 398,188 388,188" fill="green" stroke="black" transform="rotate(0,0,0)" />
<polygon points=" 388,188 398,188 398,208 388,208" fill="green" stroke="black" transform="rotate(0,0,0)" />
<polygon points=" 388,208 398,208 398,228 388,228" fill="green" stroke="black" transform="rotate(0,0,0)" />
<polygon points=" 388,228 398,228 398,248 388,248" fill="green" stroke="black" transform="rotate(0,0,0)" />
<polygon points=" 388,248 398,248 398,268 388,268" fill="green" stroke="black" transform="rotate(0,0,0)" />
<polygon points=" 388,268 398,268 398,288 388,288" fill="green" stroke="black" transform="rotate(0,0,0)" />
<polygon points=" 388,288 398,288 398,308 388,308" fill="green" stroke="black" transform="rotate(0,0,0)" />
<polygon points=" 388,308 398,308 398,328 388,328" fill="green" stroke="black" transform="rotate(0,0,0)" />
<polygon points=" 388,328 398,328 398,348 388,348" fill="green" stroke="black" transform="rotate(0,0,0)" />
<polygon points=" 388,348 398,348 398,368 388,368" fill="green" stroke="black" transform="rotate(0,0,0)" />
<polygon points=" 388,368 398,368 398,388 388,388" fill="green" stroke="black" transform="rotate(0,0,0)" />
<polygon points=" 388,388 398,388 398,408 388,408" fill="green" stroke="black" transform="rotate(0,0,0)" />
<polygon points=" 388,408 398,408 398,428 388,428" fill="green" stroke="black" transform="rotate(0,0,0)" />
<polygon points=" 388,428 398,428 398,448 388,448" fill="green" stroke="black" transform="rotate(0,0,0)" />
<polygon points=" 388,448 398,448 398,468 388,468" fill="green" stroke="black" transform="rotate(0,0,0)" />
<polygon points=" 388,468 398,468 398,488 388,488" fill="green" stroke="black" transform="rotate(0,0,0)" />
<polygon points=" 388,488 398,488 398,508 388,508" fill="green" stroke="black" transform="rotate(0,0,0)" />
<polygon points=" 398,88 408,88 408,108 398,108" fill="green" stroke="black" transform="rotate(0,0,0)" />
<polygon points=" 398,108 408,108 408,128 398,128" fill="green" stroke="black" transform="rotate(0,0,0)" />
<polygon points=" 398,128 408,128 408,148 398,148" fill="green" stroke="black" transform="rotate(0,0,0)" />
<polygon points=" 398,148 408,148 408,168 398,168" fill="green" stroke="black" transform="rotate(0,0,0)" />
<polygon points=" 398,168 408,168 408,188 398,188" fill="green" stroke="black" transform="rotate(0,0,0)" />
<polygon points=" 398,188 408,188 408,208 398,208" fill="green" stroke="black" transform="rotate(0,0,0)" />
<polygon points=" 398,208 408,208 408,228 398,228" fill="green" stroke="black" transform="rotate(0,0,0)" />
<polygon points=" 398,228 408,228 408,248 398,248" fill="green" stroke="black" transform="rotate(0,0,0)" />
<polygon points=" 398,248 408,248 408,268 398,268" fill="green" stroke="black" transform="rotate(0,0,0)" />
<polygon points=" 398,268 408,268 408,288 398,288" fill="green" stroke="black" transform="rotate(0,0,0)" />
<polygon points=" 398,288 408,288 408,308 398,308" fill="green" stroke="black" transform="rotate(0,0,0)" />
<polygon points=" 398,308 408,308 408,328 398,328" fill="green" stroke="black" transform="rotate(0,0,0)" />
<polygon points=" 398,328 408,328 408,348 398,348" fill="green" stroke="black" transform="rotate(0,0,0)" />
<polygon points=" 398,348 408,348 408,368 398,368" fill="green" stroke="black" transform="rotate(0,0,0)" />
<polygon points=" 398,368 408,368 408,388 398,388" fill="green" stroke="black" transform="rotate(0,0,0)" />
<polygon points=" 398,388 408,388 408,408 398,408" fill="green" stroke="black" transform="rotate(0,0,0)" />
<polygon points=" 398,408 408,408 408,428 398,428" fill="green" stroke="black" transform="rotate(0,0,0)" />
<polygon points=" 398,428 408,428 408,448 398,448" fill="green" stroke="black" transform="rotate(0,0,0)" />
<polygon points=" 398,448 408,448 408,468 398,468" fill="green" stroke="black" transform="rotate(0,0,0)" />
<polygon points=" 398,468 408,468 408,488 398,488" fill="green" stroke="black" transform="rotate(0,0,0)" />
<polygon points=" 398,488 408,488 408,508 398,508" fill="green" stroke="black" transform="rotate(0,0,0)" />
<polygon points=" 408,88 418,88 418,108 408,108" fill="green" stroke="black" transform="rotate(0,0,0)" />
<polygon points=" 408,108 418,108 418,128 408,128" fill="green" stroke="black" transform="rotate(0,0,0)" />
<polygon points=" 408,128 418,128 418,148 408,148" fill="green" stroke="black" transform="rotate(0,0,0)" />
<polygon points=" 408,148 418,148 418,168 408,168" fill="green" stroke="black" transform="rotate(0,0,0)" />
<polygon points=" 408,168 418,168 418,188 408,188" fill="green" stroke="black" transform="rotate(0,0,0)" />
<polygon points=" 408,188 418,188 418,208 408,208" fill="green" stroke="black" transform="rotate(0,0,0)" />
<polygon points=" 408,208 418,208 418,228 408,228" fill="green" stroke="black" transform="rotate(0,0,0)" />
<polygon points=" 408,228 418,228 418,248 408,248" fill="green" stroke="black" transform="rotate(0,0,0)" />
<polygon points=" 408,248 418,248 418,268 408,268" fill="green" stroke="black" transform="rotate(0,0,0)" />
<polygon points=" 408,268 418,268 418,288 408,288" fill="green" stroke="black" transform="rotate(0,0,0)" />
<polygon points=" 408,288 418,288 418,308 408,308" fill="green" stroke="black" transform="rotate(0,0,0)" />
<polygon points=" 408,308 418,308 418,328 408,328" fill="green" stroke="black" transform="rotate(0,0,0)" />
<polygon points=" 408,328 418,328 418,348 408,348" fill="green" stroke="black" transform="rotate(0,0,0)" />
<polygon points=" 408,348 418,348 418,368 408,368" fill="green" stroke="black" transform="rotate(0,0,0)" />
<polygon points=" 408,368 418,368 418,388 408,388" fill="green" stroke="black" transform="rotate(0,0,0)" />
<polygon points=" 408,388 418,388 418,408 408,408" fill="green" stroke="black" transform="rotate(0,0,0)" />
<polygon points=" 408,408 418,408 418,428 408,428" fill="green" stroke="black" transform="rotate(0,0,0)" />
<polygon points=" 408,428 418,428 418,448 408,448" fill="green" stroke="black" transform="rotate(0,0,0)" />
<polygon points=" 408,448 418,448 418,468 408,468" fill="green" stroke="black" transform="rotate(0,0,0)" />
<polygon points=" 408,468 418,468 418,488 408,488" fill="green" stroke="black" transform="rotate(0,0,0)" />
<polygon points=" 408,488 418,488 418,508 408,508" fill="green" stroke="black" transform="rotate(0,0,0)" />
<polygon points=" 418,88 428,88 428,108 418,108" fill="green" stroke="black" transform="rotate(0,0,0)" />
<polygon points=" 418,108 428,108 428,128 418,128" fill="green" stroke="black" transform="rotate(0,0,0)" />
<polygon points=" 418,128 428,128 428,148 418,148" fill="green" stroke="black" transform="rotate(0,0,0)" />
<polygon points=" 418,148 428,148 428,168 418,168" fill="green" stroke="black" transform="rotate(0,0,0)" />
<polygon points=" 418,168 428,168 428,188 418,188" fill="green" stroke="black" transform="rotate(0,0,0)" />
<polygon points=" 418,188 428,188 428,208 418,208" fill="green" stroke="black" transform="rotate(0,0,0)" />
<polygon points=" 418,208 428,208 428,228 418,228" fill="green" stroke="black" transform="rotate(0,0,0)" />
<polygon points=" 418,228 428,228 428,248 418,248" fill="green" stroke="black" transform="rotate(0,0,0)" />
<polygon points=" 418,248 428,248 428,268 418,268" fill="green" stroke="black" transform="rotate(0,0,0)" />
<polygon points=" 418,268 428,268 428,288 418,288" fill="green" stroke="black" transform="rotate(0,0,0)" />
<polygon points=" 418,288 428,288 428,308 418,308" fill="green" stroke="black" transform="rotate(0,0,0)" />
<polygon points=" 418,308 428,308 428,328 418,328" fill="green" stroke="black" transform="rotate(0,0,0)" />
<polygon points=" 418,328 428,328 428,348 418,348" fill="green" stroke="black" transform="rotate(0,0,0)" />
<polygon points=" 418,348 428,348 428,368 418,368" fill="green" stroke="black" transform="rotate(0,0,0)" />
<polygon points=" 418,368 428,368 428,388 418,388" fill="green" stroke="black" transform="rotate(0,0,0)" />
<polygon points=" 418,388 428,388 428,408 418,408" fill="green" stroke="black" transform="rotate(0,0,0)" />
<polygon points=" 418,408 428,408 428,428 418,428" fill="green" stroke="black" transform="rotate(0,0,0)" />
<polygon points=" 418,428 428,428 428,448 418,448" fill="green" stroke="black" transform="rotate(0,0,0)" />
<polygon points=" 418,448 428,448 428,468 418,468" fill="green" stroke="black" transform="rotate(0,0,0)" />
<polygon points=" 418,468 428,468 428,488 418,488" fill="green" stroke="black" transform="rotate(0,0,0)" />
<polygon points=" 418,488 428,488 428,508 418,508" fill="green" stroke="black" transform="rotate(0,0,0)" />
<polygon points=" 428,88 438,88 438,108 428,108" fill="green" stroke="black" transform="rotate(0,0,0)" />
<polygon points=" 428,108 438,108 438,128 428,128" fill="green" stroke="black" transform="rotate(0,0,0)" />
<polygon points=" 428,128 438,128 438,148 428,148" fill="green" stroke="black" transform="rotate(0,0,0)" />
<polygon points=" 428,148 438,148 438,168 428,168" fill="green" stroke="black" transform="rotate(0,0,0)" />
<polygon points=" 428,168 438,168 438,188 428,188" fill="green" stroke="black" transform="rotate(0,0,0)" />
<polygon points=" 428,188 438,188 438,208 428,208" fill="green" stroke="black" transform="rotate(0,0,0)" />
<polygon points=" 428,208 438,208 438,228 428,228" fill="green" stroke="black" transform="rotate(0,0,0)" />
<polygon points=" 428,228 438,228 438,248 428,248" fill="green" stroke="black" transform="rotate(0,0,0)" />
<polygon points=" 428,248 438,248 438,268 428,268" fill="green" stroke="black" transform="rotate(0,0,0)" />
<polygon points=" 428,268 438,268 438,288 428,288" fill="green" stroke="black" transform="rotate(0,0,0)" />
<polygon points=" 428,288 438,288 438,308 428,308" fill="green" stroke="black" transform="rotate(0,0,0)" />
<polygon points=" 428,308 438,308 438,328 428,328" fill="green" stroke="black" transform="rotate(0,0,0)" />
<polygon points=" 428,328 438,328 438,348 428,348" fill="green" stroke="black" transform="rotate(0,0,0)" />
<polygon points=" 428,348 438,348 438,368 428,368" fill="green" stroke="black" transform="rotate(0,0,0)" />
<polygon points=" 428,368 438,368 438,388 428,388" fill="green" stroke="black" transform="rotate(0,0,0)" />
<polygon points=" 428,388 438,388 438,408 428,408" fill="green" stroke="black" transform="rotate(0,0,0)" />
<polygon points=" 428,408 438,408 438,428 428,428" fill="green" stroke="black" transform="rotate(0,0,0)" />
<polygon points=" 428,428 438,428 438,448 428,448" fill="green" stroke="black" transform="rotate(0,0,0)" />
<polygon points=" 428,448 438,448 438,468 428,468" fill="green" stroke="black" transform="rotate(0,0,0)" />
<polygon points=" 428,468 438,468 438,488 428,488" fill="green" stroke="black" transform="rotate(0,0,0)" />
<polygon points=" 428,488 438,488 438,508 428,508" fill="green" stroke="black" transform="rotate(0,0,0)" />
<polygon points=" 438,88 448,88 448,108 438,108" fill="green" stroke="black" transform="rotate(0,0,0)" />
<polygon points=" 438,108 448,108 448,128 438,128" fill="green" stroke="black" transform="rotate(0,0,0)" />
<polygon points=" 438,128 448,128 448,148 438,148" fill="green" stroke="black" transform="rotate(0,0,0)" />
<polygon points=" 438,148 448,148 448,168 438,168" fill="green" stroke="black" transform="rotate(0,0,0)" />
<polygon points=" 438,168 448,168 448,188 438,188" fill="green" stroke="black" transform="rotate(0,0,0)" />
<polygon points=" 438,188 448,188 448,208 438,208" fill="green" stroke="black" transform="rotate(0,0,0)" />
<polygon points=" 438,208 448,208 448,228 438,228" fill="green" stroke="black" transform="rotate(0,0,0)" />
<polygon points=" 438,228 448,228 448,248 438,248" fill="green" stroke="black" transform="rotate(0,0,0)" />
<polygon points=" 438,248 448,248 448,268 438,268" fill="green" stroke="black" transform="rotate(0,0,0)" />
<polygon points=" 438,268 448,268 448,288 438,288" fill="green" stroke="black" transform="rotate(0,0,0)" />
<polygon points=" 438,288 448,288 448,308 438,308" fill="green" stroke="black" transform="rotate(0,0,0)" />
<polygon points=" 438,308 448,308 448,328 438,328" fill="green" stroke="black" transform="rotate(0,0,0)" />
<polygon points=" 438,328 448,328 448,348 438,348" fill="green" stroke="black" transform="rotate(0,0,0)" />
<polygon points=" 438,348 448,348 448,368 438,368" fill="green" stroke="black" transform="rotate(0,0,0)" />
<polygon points=" 438,368 448,368 448,388 438,388" fill="green" stroke="black" transform="rotate(0,0,0)" />
<polygon points=" 438,388 448,388 448,408 438,408" fill="green" stroke="black" transform="rotate(0,0,0)" />
<polygon points=" 438,408 448,408 448,428 438,428" fill="green" stroke="black" transform="rotate(0,0,0)" />
<polygon points=" 438,428 448,428 448,448 438,448" fill="green" stroke="black" transform="rotate(0,0,0)" />
<polygon points=" 438,448 448,448 448,468 438,468" fill="green" stroke="black" transform="rotate(0,0,0)" />
<polygon points=" 438,468 448,468 448,488 438,488" fill="green" stroke="black" transform="rotate(0,0,0)" />
<polygon points=" 438,488 448,488 448,508 438,508" fill="green" stroke="black" transform="rotate(0,0,0)" />
<polygon points=" 448,88 458,88 458,108 448,108" fill="green" stroke="black" transform="rotate(0,0,0)" />
<polygon points=" 448,108 458,108 458,128 448,128" fill="green" stroke="black" transform="rotate(0,0,0)" />
<polygon points=" 448,128 458,128 458,148 448,148" fill="green" stroke="black" transform="rotate(0,0,0)" />
<polygon points=" 448,148 458,148 458,168 448,168" fill="green" stroke="black" transform="rotate(0,0,0)" />
<polygon points=" 448,168 458,168 458,188 448,188" fill="green" stroke="black" transform="rotate(0,0,0)" />
<polygon points=" 448,188 458,188 458,208 448,208" fill="green" stroke="black" transform="rotate(0,0,0)" />
<polygon points=" 448,208 458,208 458,228 448,228" fill="green" stroke="black" transform="rotate(0,0,0)" />
<polygon points=" 448,228 458,228 458,248 448,248" fill="green" stroke="black" transform="rotate(0,0,0)" />
<polygon points=" 448,248 458,248 458,268 448,268" fill="green" stroke="black" transform="rotate(0,0,0)" />
<polygon points=" 448,268 458,268 458,288 448,288" fill="green" stroke="black" transform="rotate(0,0,0)" />
<polygon points=" 448,288 458,288 458,308 448,308" fill="green" stroke="black" transform="rotate(0,0,0)" />
<polygon points=" 448,308 458,308 458,328 448,328" fill="green" stroke="black" transform="rotate(0,0,0)" />
<polygon points=" 448,328 458,328 458,348 448,348" fill="green" stroke="black" transform="rotate(0,0,0)" />
<polygon points=" 448,348 458,348 458,368 448,368" fill="green" stroke="black" transform="rotate(0,0,0)" />
<polygon points=" 448,368 458,368 458,388 448,388" fill="green" stroke="black" transform="rotate(0,0,0)" />
<polygon points=" 448,388 458,388 458,408 448,408" fill="green" stroke="black" transform="rotate(0,0,0)" />
<polygon points=" 448,408 458,408 458,428 448,428" fill="green" stroke="black" transform="rotate(0,0,0)" />
<polygon points=" 448,428 458,428 458,448 448,448" fill="green" stroke="black" transform="rotate(0,0,0)" />
<polygon points=" 448,448 458,448 458,468 448,468" fill="green" stroke="black" transform="rotate(0,0,0)" />
<polygon points=" 448,468 458,468 458,488 448,488" fill="green" stroke="black" transform="rotate(0,0,0)" />
<polygon points=" 448,488 458,488 458,508 448,508" fill="green" stroke="black" transform="rotate(0,0,0)" />
<polygon points=" 458,88 468,88 468,108 458,108" fill="green" stroke="black" transform="rotate(0,0,0)" />
<polygon points=" 458,108 468,108 468,128 458,128" fill="green" stroke="black" transform="rotate(0,0,0)" />
<polygon points=" 458,128 468,128 468,148 458,148" fill="green" stroke="black" transform="rotate(0,0,0)" />
<polygon points=" 458,148 468,148 468,168 458,168" fill="green" stroke="black" transform="rotate(0,0,0)" />
<polygon points=" 458,168 468,168 468,188 458,188" fill="green" stroke="black" transform="rotate(0,0,0)" />
<polygon points=" 458,188 468,188 468,208 458,208" fill="green" stroke="black" transform="rotate(0,0,0)" />
<polygon points=" 458,208 468,208 468,228 458,228" fill="green" stroke="black" transform="rotate(0,0,0)" />
<polygon points=" 458,228 468,228 468,248 458,248" fill="green" stroke="black" transform="rotate(0,0,0)" />
<polygon points=" 458,248 468,248 468,268 458,268" fill="green" stroke="black" transform="rotate(0,0,0)" />
<polygon points=" 458,268 468,268 468,288 458,288" fill="green" stroke="black" transform="rotate(0,0,0)" />
<polygon points=" 458,288 468,288 468,308 458,308" fill="green" stroke="black" transform="rotate(0,0,0)" />
<polygon points=" 458,308 468,308 468,328 458,328" fill="green" stroke="black" transform="rotate(0,0,0)" />
<polygon points=" 458,328 468,328 468,348 458,348" fill="green" stroke="black" transform="rotate(0,0,0)" />
<polygon points=" 458,348 468,348 468,368 458,368" fill="green" stroke="black" transform="rotate(0,0,0)" />
<polygon points=" 458,368 468,368 468,388 458,388" fill="green" stroke="black" transform="rotate(0,0,0)" />
<polygon points=" 458,388 468,388 468,408 458,408" fill="green" stroke="black" transform="rotate(0,0,0)" />
<polygon points=" 458,408 468,408 468,428 458,428" fill="green" stroke="black" transform="rotate(0,0,0)" />
<polygon points=" 458,428 468,428 468,448 458,448" fill="green" stroke="black" transform="rotate(0,0,0)" />
<polygon points=" 458,448 468,448 468,468 458,468" fill="green" stroke="black" transform="rotate(0,0,0)" />
<polygon points=" 458,468 468,468 468,488 458,488" fill="green" stroke="black" transform="rotate(0,0,0)" />
<polygon points=" 458,488 468,488 468,508 458,508" fill="green" stroke="black" transform="rotate(0,0,0)" />
<polygon points=" 468,88 478,88 478,108 468,108" fill="green" stroke="black" transform="rotate(0,0,0)" />
<polygon points=" 468,108 478,108 478,128 468,128" fill="green" stroke="black" transform="rotate(0,0,0)" />
<polygon points=" 468,128 478,128 478,148 468,148" fill="green" stroke="black" transform="rotate(0,0,0)" />
<polygon points=" 468,148 478,148 478,168 468,168" fill="green" stroke="black" transform="rotate(0,0,0)" />
<polygon points=" 468,168 478,168 478,188 468,188" fill="green" stroke="black" transform="rotate(0,0,0)" />
<polygon points=" 468,188 478,188 478,208 468,208" fill="green" stroke="black" transform="rotate(0,0,0)" />
<polygon points=" 468,208 478,208 478,228 468,228" fill="green" stroke="black" transform="rotate(0,0,0)" />
<polygon points=" 468,228 478,228 478,248 468,248" fill="green" stroke="black" transform="rotate(0,0,0)" />
<polygon points=" 468,248 478,248 478,268 468,268" fill="green" stroke="black" transform="rotate(0,0,0)" />
<polygon points=" 468,268 478,268 478,288 468,288" fill="green" stroke="black" transform="rotate(0,0,0)" />
<polygon points=" 468,288 478,288 478,308 468,308" fill="green" stroke="black" transform="rotate(0,0,0)" />
<polygon points=" 468,308 478,308 478,328 468,328" fill="green" stroke="black" transform="rotate(0,0,0)" />
<polygon points=" 468,328 478,328 478,348 468,348" fill="green" stroke="black" transform="rotate(0,0,0)" />
<polygon points=" 468,348 478,348 478,368 468,368" fill="green" stroke="black" transform="rotate(0,0,0)" />
<polygon points=" 468,368 478,368 478,388 468,388" fill="green" stroke="black" transform="rotate(0,0,0)" />
<polygon points=" 468,388 478,388 478,408 468,408" fill="green" stroke="black" transform="rotate(0,0,0)" />
<polygon points=" 468,408 478,408 478,428 468,428" fill="green" stroke="black" transform="rotate(0,0,0)" />
<polygon points=" 468,428 478,428 478,448 468,448" fill="green" stroke="black" transform="rotate(0,0,0)" />
<polygon points=" 468,448 478,448 478,468 468,468" fill="green" stroke="black" transform="rotate(0,0,0)" />
<polygon points=" 468,468 478,468 478,488 468,488" fill="green" stroke="black" transform="rotate(0,0,0)" />
<polygon points=" 468,488 478,488 478,508 468,508" fill="green" stroke="black" transform="rotate(0,0,0)" />
<polygon points=" 478,88 488,88 488,108 478,108" fill="green" stroke="black" transform="rotate(0,0,0)" />
<polygon points=" 478,108 488,108 488,128 478,128" fill="green" stroke="black" transform="rotate(0,0,0)" />
<polygon points=" 478,128 488,128 488,148 478,148" fill="green" stroke="black" transform="rotate(0,0,0)" />
<polygon points=" 478,148 488,148 488,168 478,168" fill="green" stroke="black" transform="rotate(0,0,0)" />
<polygon points=" 478,168 488,168 488,188 478,188" fill="green" stroke="black" transform="rotate(0,0,0)" />
<polygon points=" 478,188 488,188 488,208 478,208" fill="green" stroke="black" transform="rotate(0,0,0)" />
<polygon points=" 478,208 488,208 488,228 478,228" fill="green" stroke="black" transform="rotate(0,0,0)" />
<polygon points=" 478,228 488,228 488,248 478,248" fill="green" stroke="black" transform="rotate(0,0,0)" />
<polygon points=" 478,248 488,248 488,268 478,268" fill="green" stroke="black" transform="rotate(0,0,0)" />
<polygon points=" 478,268 488,268 488,288 478,288" fill="green" stroke="black" transform="rotate(0,0,0)" />
<polygon points=" 478,288 488,288 488,308 478,308" fill="green" stroke="black" transform="rotate(0,0,0)" />
<polygon points=" 478,308 488,308 488,328 478,328" fill="green" stroke="black" transform="rotate(0,0,0)" />
<polygon points=" 478,328 488,328 488,348 478,348" fill="green" stroke="black" transform="rotate(0,0,0)" />
<polygon points=" 478,348 488,348 488,368 478,368" fill="green" stroke="black" transform="rotate(0,0,0)" />
<polygon points=" 478,368 488,368 488,388 478,388" fill="green" stroke="black" transform="rotate(0,0,0)" />
<polygon points=" 478,388 488,388 488,408 478,408" fill="green" stroke="black" transform="rotate(0,0,0)" />
<polygon points=" 478,408 488,408 488,428 478,428" fill="green" stroke="black" transform="rotate(0,0,0)" />
<polygon points=" 478,428 488,428 488,448 478,448" fill="green" stroke="black" transform="rotate(0,0,0)" />
<polygon points=" 478,448 488,448 488,468 478,468" fill="green" stroke="black" transform="rotate(0,0,0)" />
<polygon points=" 478,468 488,468 488,488 478,488" fill="green" stroke="black" transform="rotate(0,0,0)" />
<polygon points=" 478,488 488,488 488,508 478,508" fill="green" stroke="black" transform="rotate(0,0,0)" />
<polygon points=" 488,88 498,88 498,108 488,108" fill="green" stroke="black" transform="rotate(0,0,0)" />
<polygon points=" 488,108 498,108 498,128 488,128" fill="green" stroke="black" transform="rotate(0,0,0)" />
<polygon points=" 488,128 498,128 498,148 488,148" fill="green" stroke="black" transform="rotate(0,0,0)" />
<polygon points=" 488,148 498,148 498,168 488,168" fill="green" stroke="black" transform="rotate(0,0,0)" />
<polygon points=" 488,168 498,168 498,188 488,188" fill="green" stroke="black" transform="rotate(0,0,0)" />
<polygon points=" 488,188 498,188 498,208 488,208" fill="green" stroke="black" transform="rotate(0,0,0)" />
<polygon points=" 488,208 498,208 498,228 488,228" fill="green" stroke="black" transform="rotate(0,0,0)" />
<polygon points=" 488,228 498,228 498,248 488,248" fill="green" stroke="black" transform="rotate(0,0,0)" />
<polygon points=" 488,248 498,248 498,268 488,268" fill="green" stroke="black" transform="rotate(0,0,0)" />
<polygon points=" 488,268 498,268 498,288 488,288" fill="green" stroke="black" transform="rotate(0,0,0)" />
<polygon points=" 488,288 498,288 498,308 488,308" fill="green" stroke="black" transform="rotate(0,0,0)" />
<polygon points=" 488,308 498,308 498,328 488,328" fill="green" stroke="black" transform="rotate(0,0,0)" />
<polygon points=" 488,328 498,328 498,348 488,348" fill="green" stroke="black" transform="rotate(0,0,0)" />
<polygon points=" 488,348 498,348 498,368 488,368" fill="green" stroke="black" transform="rotate(0,0,0)" />
<polygon points=" 488,368 498,368 498,388 488,388" fill="green" stroke="black" transform="rotate(0,0,0)" />
<polygon points=" 488,388 498,388 498,408 488,408" fill="green" stroke="black" transform="rotate(0,0,0)" />
<polygon points=" 488,408 498,408 498,428 488,428" fill="green" stroke="black" transform="rotate(0,0,0)" />
<polygon points=" 488,428 498,428 498,448 488,448" fill="green" stroke="black" transform="rotate(0,0,0)" />
<polygon points=" 488,448 498,448 498,468 488,468" fill="green" stroke="black" transform="rotate(0,0,0)" />
<polygon points=" 488,468 498,468 498,488 488,488" fill="green" stroke="black" transform="rotate(0,0,0)" />
<polygon points=" 488,488 498,488 498,508 488,508" fill="green" stroke="black" transform="rotate(0,0,0)" />
<polygon points=" 498,88 508,88 508,108 498,108" fill="green" stroke="black" transform="rotate(0,0,0)" />
<polygon points=" 498,108 508,108 508,128 498,128" fill="green" stroke="black" transform="rotate(0,0,0)" />
<polygon points=" 498,128 508,128 508,148 498,148" fill="green" stroke="black" transform="rotate(0,0,0)" />
<polygon points=" 498,148 508,148 508,168 498,168" fill="green" stroke="black" transform="rotate(0,0,0)" />
<polygon points=" 498,168 508,168 508,188 498,188" fill="green" stroke="black" transform="rotate(0,0,0)" />
<polygon points=" 498,188 508,188 508,208 498,208" fill="green" stroke="black" transform="rotate(0,0,0)" />
<polygon points=" 498,208 508,208 508,228 498,228" fill="green" stroke="black" transform="rotate(0,0,0)" />
<polygon points=" 498,228 508,228 508,248 498,248" fill="green" stroke="black" transform="rotate(0,0,0)" />
<polygon points=" 498,248 508,248 508,268 498,268" fill="green" stroke="black" transform="rotate(0,0,0)" />
<polygon points=" 498,268 508,268 508,288 498,288" fill="green" stroke="black" transform="rotate(0,0,0)" />
<polygon points=" 498,288 508,288 508,308 498,308" fill="green" stroke="black" transform="rotate(0,0,0)" />
<polygon points=" 498,308 508,308 508,328 498,328" fill="green" stroke="black" transform="rotate(0,0,0)" />
<polygon points=" 498,328 508,328 508,348 498,348" fill="green" stroke="black" transform="rotate(0,0,0)" />
<polygon points=" 498,348 508,348 508,368 498,368" fill="green" stroke="black" transform="rotate(0,0,0)" />
<polygon points=" 498,368 508,368 508,388 498,388" fill="green" stroke="black" transform="rotate(0,0,0)" />
<polygon points=" 498,388 508,388 508,408 498,408" fill="green" stroke="black" transform="rotate(0,0,0)" />
<polygon points=" 498,408 508,408 508,428 498,428" fill="green" stroke="black" transform="rotate(0,0,0)" />
<polygon points=" 498,428 508,428 508,448 498,448" fill="green" stroke="black" transform="rotate(0,0,0)" />
<polygon points=" 498,448 508,448 508,468 498,468" fill="green" stroke="black" transform="rotate(0,0,0)" />
<polygon points=" 498,468 508,468 508,488 498,488" fill="green" stroke="black" transform="rotate(0,0,0)" />
<polygon points=" 498,488 508,488 508,508 498,508" fill="green" stroke="black" transform="rotate(0,0,0)" />
</svg>