<svg version="1.1"
baseProfile="full" width="100%" height="100%"
xmlns="http://www.w3.org/2000/svg">
    	<polygon points=" 125,0 0,216.5 250,216.5" stroke="black" fill="red" />
<polygon points=" 5.77367,206.5 25.7737,206.5 25.7737,216.5 5.77367,216.5" fill="green" stroke="black" transform="rotate(0,0,0)" />
<polygon points=" 25.7737,206.5 45.7737,206.5 45.7737,216.5 25.7737,216.5" fill="green" stroke="black" transform="rotate(0,0,0)" />
<polygon points=" 45.7737,206.5 65.7737,206.5 65.7737,216.5 45.7737,216.5" fill="green" stroke="black" transform="rotate(0,0,0)" />
<polygon points=" 65.7737,206.5 85.7737,206.5 85.7737,216.5 65.7737,216.5" fill="green" stroke="black" transform="rotate(0,0,0)" />
<polygon points=" 85.7737,206.5 105.774,206.5 105.774,216.5 85.7737,216.5" fill="green" stroke="black" transform="rotate(0,0,0)" />
<polygon points=" 105.774,206.5 125.774,206.5 125.774,216.5 105.774,216.5" fill="green" stroke="black" transform="rotate(0,0,0)" />
<polygon points=" 125.774,206.5 145.774,206.5 145.774,216.5 125.774,216.5" fill="green" stroke="black" transform="rotate(0,0,0)" />
<polygon points=" 145.774,206.5 165.774,206.5 165.774,216.5 145.774,216.5" fill="green" stroke="black" transform="rotate(0,0,0)" />
<polygon points=" 165.774,206.5 185.774,206.5 185.774,216.5 165.774,216.5" fill="green" stroke="black" transform="rotate(0,0,0)" />
<polygon points=" 185.774,206.5 205.774,206.5 205.774,216.5 185.774,216.5" fill="green" stroke="black" transform="rotate(0,0,0)" />
<polygon points=" 205.774,206.5 225.774,206.5 225.774,216.5 205.774,216.5" fill="green" stroke="black" transform="rotate(0,0,0)" />
<polygon points=" 11.5473,196.5 31.5473,196.5 31.5473,206.5 11.5473,206.5" fill="green" stroke="black" transform="rotate(0,0,0)" />
<polygon points=" 31.5473,196.5 51.5473,196.5 51.5473,206.5 31.5473,206.5" fill="green" stroke="black" transform="rotate(0,0,0)" />
<polygon points=" 51.5473,196.5 71.5473,196.5 71.5473,206.5 51.5473,206.5" fill="green" stroke="black" transform="rotate(0,0,0)" />
<polygon points=" 71.5473,196.5 91.5473,196.5 91.5473,206.5 71.5473,206.5" fill="green" stroke="black" transform="rotate(0,0,0)" />
<polygon points=" 91.5473,196.5 111.547,196.5 111.547,206.5 91.5473,206.5" fill="green" stroke="black" transform="rotate(0,0,0)" />
<polygon points=" 111.547,196.5 131.547,196.5 131.547,206.5 111.547,206.5" fill="green" stroke="black" transform="rotate(0,0,0)" />
<polygon points=" 131.547,196.5 151.547,196.5 151.547,206.5 131.547,206.5" fill="green" stroke="black" transform="rotate(0,0,0)" />
<polygon points=" 151.547,196.5 171.547,196.5 171.547,206.5 151.547,206.5" fill="green" stroke="black" transform="rotate(0,0,0)" />
<polygon points=" 171.547,196.5 191.547,196.5 191.547,206.5 171.547,206.5" fill="green" stroke="black" transform="rotate(0,0,0)" />
<polygon points=" 191.547,196.5 211.547,196.5 211.547,206.5 191.547,206.5" fill="green" stroke="black" transform="rotate(0,0,0)" />
<polygon points=" 211.547,196.5 231.547,196.5 231.547,206.5 211.547,206.5" fill="green" stroke="black" transform="rotate(0,0,0)" />
<polygon points=" 17.321,186.5 37.321,186.5 37.321,196.5 17.321,196.5" fill="green" stroke="black" transform="rotate(0,0,0)" />
<polygon points=" 37.321,186.5 57.321,186.5 57.321,196.5 37.321,196.5" fill="green" stroke="black" transform="rotate(0,0,0)" />
<polygon points=" 57.321,186.5 77.321,186.5 77.321,196.5 57.321,196.5" fill="green" stroke="black" transform="rotate(0,0,0)" />
<polygon points=" 77.321,186.5 97.321,186.5 97.321,196.5 77.321,196.5" fill="green" stroke="black" transform="rotate(0,0,0)" />
<polygon points=" 97.321,186.5 117.321,186.5 117.321,196.5 97.321,196.5" fill="green" stroke="black" transform="rotate(0,0,0)" />
<polygon points=" 117.321,186.5 137.321,186.5 137.321,196.5 117.321,196.5" fill="green" stroke="black" transform="rotate(0,0,0)" />
<polygon points=" 137.321,186.5 157.321,186.5 157.321,196.5 137.321,196.5" fill="green" stroke="black" transform="rotate(0,0,0)" />
<polygon points=" 157.321,186.5 177.321,186.5 177.321,196.5 157.321,196.5" fill="green" stroke="black" transform="rotate(0,0,0)" />
<polygon points=" 177.321,186.5 197.321,186.5 197.321,196.5 177.321,196.5" fill="green" stroke="black" transform="rotate(0,0,0)" />
<polygon points=" 197.321,186.5 217.321,186.5 217.321,196.5 197.321,196.5" fill="green" stroke="black" transform="rotate(0,0,0)" />
<polygon points=" 23.0947,176.5 43.0947,176.5 43.0947,186.5 23.0947,186.5" fill="green" stroke="black" transform="rotate(0,0,0)" />
<polygon points=" 43.0947,176.5 63.0947,176.5 63.0947,186.5 43.0947,186.5" fill="green" stroke="black" transform="rotate(0,0,0)" />
<polygon points=" 63.0947,176.5 83.0947,176.5 83.0947,186.5 63.0947,186.5" fill="green" stroke="black" transform="rotate(0,0,0)" />
<polygon points=" 83.0947,176.5 103.095,176.5 103.095,186.5 83.0947,186.5" fill="green" stroke="black" transform="rotate(0,0,0)" />
<polygon points=" 103.095,176.5 123.095,176.5 123.095,186.5 103.095,186.5" fill="green" stroke="black" transform="rotate(0,0,0)" />
<polygon points=" 123.095,176.5 143.095,176.5 143.095,186.5 123.095,186.5" fill="green" stroke="black" transform="rotate(0,0,0)" />
<polygon points=" 143.095,176.5 163.095,176.5 163.095,186.5 143.095,186.5" fill="green" stroke="black" transform="rotate(0,0,0)" />
<polygon points=" 163.095,176.5 183.095,176.5 183.095,186.5 163.095,186.5" fill="green" stroke="black" transform="rotate(0,0,0)" />
<polygon points=" 183.095,176.5 203.095,176.5 203.095,186.5 183.095,186.5" fill="green" stroke="black" transform="rotate(0,0,0)" />
<polygon points=" 203.095,176.5 223.095,176.5 223.095,186.5 203.095,186.5" fill="green" stroke="black" transform="rotate(0,0,0)" />
<polygon points=" 28.8684,166.5 48.8684,166.5 48.8684,176.5 28.8684,176.5" fill="green" stroke="black" transform="rotate(0,0,0)" />
<polygon points=" 48.8684,166.5 68.8684,166.5 68.8684,176.5 48.8684,176.5" fill="green" stroke="black" transform="rotate(0,0,0)" />
<polygon points=" 68.8684,166.5 88.8684,166.5 88.8684,176.5 68.8684,176.5" fill="green" stroke="black" transform="rotate(0,0,0)" />
<polygon points=" 88.8684,166.5 108.868,166.5 108.868,176.5 88.8684,176.5" fill="green" stroke="black" transform="rotate(0,0,0)" />
<polygon points=" 108.868,166.5 128.868,166.5 128.868,176.5 108.868,176.5" fill="green" stroke="black" transform="rotate(0,0,0)" />
<polygon points=" 128.868,166.5 148.868,166.5 148.868,176.5 128.868,176.5" fill="green" stroke="black" transform="rotate(0,0,0)" />
<polygon points=" 148.868,166.5 168.868,166.5 168.868,176.5 148.868,176.5" fill="green" stroke="black" transform="rotate(0,0,0)" />
<polygon points=" 168.868,166.5 188.868,166.5 188.868,176.5 168.868,176.5" fill="green" stroke="black" transform="rotate(0,0,0)" />
<polygon points=" 188.868,166.5 208.868,166.5 208.868,176.5 188.868,176.5" fill="green" stroke="black" transform="rotate(0,0,0)" />
<polygon points=" 34.642,156.5 54.642,156.5 54.642,166.5 34.642,166.5" fill="green" stroke="black" transform="rotate(0,0,0)" />
<polygon points=" 54.642,156.5 74.642,156.5 74.642,166.5 54.642,166.5" fill="green" stroke="black" transform="rotate(0,0,0)" />
<polygon points=" 74.642,156.5 94.642,156.5 94.642,166.5 74.642,166.5" fill="green" stroke="black" transform="rotate(0,0,0)" />
<polygon points=" 94.642,156.5 114.642,156.5 114.642,166.5 94.642,166.5" fill="green" stroke="black" transform="rotate(0,0,0)" />
<polygon points=" 114.642,156.5 134.642,156.5 134.642,166.5 114.642,166.5" fill="green" stroke="black" transform="rotate(0,0,0)" />
<polygon points=" 134.642,156.5 154.642,156.5 154.642,166.5 134.642,166.5" fill="green" stroke="black" transform="rotate(0,0,0)" />
<polygon points=" 154.642,156.5 174.642,156.5 174.642,166.5 154.642,166.5" fill="green" stroke="black" transform="rotate(0,0,0)" />
<polygon points=" 174.642,156.5 194.642,156.5 194.642,166.5 174.642,166.5" fill="green" stroke="black" transform="rotate(0,0,0)" />
<polygon points=" 194.642,156.5 214.642,156.5 214.642,166.5 194.642,166.5" fill="green" stroke="black" transform="rotate(0,0,0)" />
<polygon points=" 40.4157,146.5 60.4157,146.5 60.4157,156.5 40.4157,156.5" fill="green" stroke="black" transform="rotate(0,0,0)" />
<polygon points=" 60.4157,146.5 80.4157,146.5 80.4157,156.5 60.4157,156.5" fill="green" stroke="black" transform="rotate(0,0,0)" />
<polygon points=" 80.4157,146.5 100.416,146.5 100.416,156.5 80.4157,156.5" fill="green" stroke="black" transform="rotate(0,0,0)" />
<polygon points=" 100.416,146.5 120.416,146.5 120.416,156.5 100.416,156.5" fill="green" stroke="black" transform="rotate(0,0,0)" />
<polygon points=" 120.416,146.5 140.416,146.5 140.416,156.5 120.416,156.5" fill="green" stroke="black" transform="rotate(0,0,0)" />
<polygon points=" 140.416,146.5 160.416,146.5 160.416,156.5 140.416,156.5" fill="green" stroke="black" transform="rotate(0,0,0)" />
<polygon points=" 160.416,146.5 180.416,146.5 180.416,156.5 160.416,156.5" fill="green" stroke="black" transform="rotate(0,0,0)" />
<polygon points=" 180.416,146.5 200.416,146.5 200.416,156.5 180.416,156.5" fill="green" stroke="black" transform="rotate(0,0,0)" />
<polygon points=" 46.1894,136.5 66.1894,136.5 66.1894,146.5 46.1894,146.5" fill="green" stroke="black" transform="rotate(0,0,0)" />
<polygon points=" 66.1894,136.5 86.1894,136.5 86.1894,146.5 66.1894,146.5" fill="green" stroke="black" transform="rotate(0,0,0)" />
<polygon points=" 86.1894,136.5 106.189,136.5 106.189,146.5 86.1894,146.5" fill="green" stroke="black" transform="rotate(0,0,0)" />
<polygon points=" 106.189,136.5 126.189,136.5 126.189,146.5 106.189,146.5" fill="green" stroke="black" transform="rotate(0,0,0)" />
<polygon points=" 126.189,136.5 146.189,136.5 146.189,146.5 126.189,146.5" fill="green" stroke="black" transform="rotate(0,0,0)" />
<polygon points=" 146.189,136.5 166.189,136.5 166.189,146.5 146.189,146.5" fill="green" stroke="black" transform="rotate(0,0,0)" />
<polygon points=" 166.189,136.5 186.189,136.5 186.189,146.5 166.189,146.5" fill="green" stroke="black" transform="rotate(0,0,0)" />
<polygon points=" 51.963,126.5 71.963,126.5 71.963,136.5 51.963,136.5" fill="green" stroke="black" transform="rotate(0,0,0)" />
<polygon points=" 71.963,126.5 91.963,126.5 91.963,136.5 71.963,136.5" fill="green" stroke="black" transform="rotate(0,0,0)" />
<polygon points=" 91.963,126.5 111.963,126.5 111.963,136.5 91.963,136.5" fill="green" stroke="black" transform="rotate(0,0,0)" />
<polygon points=" 111.963,126.5 131.963,126.5 131.963,136.5 111.963,136.5" fill="green" stroke="black" transform="rotate(0,0,0)" />
<polygon points=" 131.963,126.5 151.963,126.5 151.963,136.5 131.963,136.5" fill="green" stroke="black" transform="rotate(0,0,0)" />
<polygon points=" 151.963,126.5 171.963,126.5 171.963,136.5 151.963,136.5" fill="green" stroke="black" transform="rotate(0,0,0)" />
<polygon points=" 171.963,126.5 191.963,126.5 191.963,136.5 171.963,136.5" fill="green" stroke="black" transform="rotate(0,0,0)" />
<polygon points=" 57.7367,116.5 77.7367,116.5 77.7367,126.5 57.7367,126.5" fill="green" stroke="black" transform="rotate(0,0,0)" />
<polygon points=" 77.7367,116.5 97.7367,116.5 97.7367,126.5 77.7367,126.5" fill="green" stroke="black" transform="rotate(0,0,0)" />
<polygon points=" 97.7367,116.5 117.737,116.5 117.737,126.5 97.7367,126.5" fill="green" stroke="black" transform="rotate(0,0,0)" />
<polygon points=" 117.737,116.5 137.737,116.5 137.737,126.5 117.737,126.5" fill="green" stroke="black" transform="rotate(0,0,0)" />
<polygon points=" 137.737,116.5 157.737,116.5 157.737,126.5 137.737,126.5" fill="green" stroke="black" transform="rotate(0,0,0)" />
<polygon points=" 157.737,116.5 177.737,116.5 177.737,126.5 157.737,126.5" fill="green" stroke="black" transform="rotate(0,0,0)" />
<polygon points=" 63.5104,106.5 83.5104,106.5 83.5104,116.5 63.5104,116.5" fill="green" stroke="black" transform="rotate(0,0,0)" />
<polygon points=" 83.5104,106.5 103.51,106.5 103.51,116.5 83.5104,116.5" fill="green" stroke="black" transform="rotate(0,0,0)" />
<polygon points=" 103.51,106.5 123.51,106.5 123.51,116.5 103.51,116.5" fill="green" stroke="black" transform="rotate(0,0,0)" />
<polygon points=" 123.51,106.5 143.51,106.5 143.51,116.5 123.51,116.5" fill="green" stroke="black" transform="rotate(0,0,0)" />
<polygon points=" 143.51,106.5 163.51,106.5 163.51,116.5 143.51,116.5" fill="green" stroke="black" transform="rotate(0,0,0)" />
<polygon points=" 163.51,106.5 183.51,106.5 183.51,116.5 163.51,116.5" fill="green" stroke="black" transform="rotate(0,0,0)" />
<polygon points=" 69.2841,96.5 89.2841,96.5 89.2841,106.5 69.2841,106.5" fill="green" stroke="black" transform="rotate(0,0,0)" />
<polygon points=" 89.2841,96.5 109.284,96.5 109.284,106.5 89.2841,106.5" fill="green" stroke="black" transform="rotate(0,0,0)" />
<polygon points=" 109.284,96.5 129.284,96.5 129.284,106.5 109.284,106.5" fill="green" stroke="black" transform="rotate(0,0,0)" />
<polygon points=" 129.284,96.5 149.284,96.5 149.284,106.5 129.284,106.5" fill="green" stroke="black" transform="rotate(0,0,0)" />
<polygon points=" 149.284,96.5 169.284,96.5 169.284,106.5 149.284,106.5" fill="green" stroke="black" transform="rotate(0,0,0)" />
<polygon points=" 75.0577,86.5 95.0577,86.5 95.0577,96.5 75.0577,96.5" fill="green" stroke="black" transform="rotate(0,0,0)" />
<polygon points=" 95.0577,86.5 115.058,86.5 115.058,96.5 95.0577,96.5" fill="green" stroke="black" transform="rotate(0,0,0)" />
<polygon points=" 115.058,86.5 135.058,86.5 135.058,96.5 115.058,96.5" fill="green" stroke="black" transform="rotate(0,0,0)" />
<polygon points=" 135.058,86.5 155.058,86.5 155.058,96.5 135.058,96.5" fill="green" stroke="black" transform="rotate(0,0,0)" />
<polygon points=" 80.8314,76.5 100.831,76.5 100.831,86.5 80.8314,86.5" fill="green" stroke="black" transform="rotate(0,0,0)" />
<polygon points=" 100.831,76.5 120.831,76.5 120.831,86.5 100.831,86.5" fill="green" stroke="black" transform="rotate(0,0,0)" />
<polygon points=" 120.831,76.5 140.831,76.5 140.831,86.5 120.831,86.5" fill="green" stroke="black" transform="rotate(0,0,0)" />
<polygon points=" 140.831,76.5 160.831,76.5 160.831,86.5 140.831,86.5" fill="green" stroke="black" transform="rotate(0,0,0)" />
<polygon points=" 86.6051,66.5 106.605,66.5 106.605,76.5 86.6051,76.5" fill="green" stroke="black" transform="rotate(0,0,0)" />
<polygon points=" 106.605,66.5 126.605,66.5 126.605,76.5 106.605,76.5" fill="green" stroke="black" transform="rotate(0,0,0)" />
<polygon points=" 126.605,66.5 146.605,66.5 146.605,76.5 126.605,76.5" fill="green" stroke="black" transform="rotate(0,0,0)" />
<polygon points=" 92.3788,56.5 112.379,56.5 112.379,66.5 92.3788,66.5" fill="green" stroke="black" transform="rotate(0,0,0)" />
<polygon points=" 112.379,56.5 132.379,56.5 132.379,66.5 112.379,66.5" fill="green" stroke="black" transform="rotate(0,0,0)" />
<polygon points=" 132.379,56.5 152.379,56.5 152.379,66.5 132.379,66.5" fill="green" stroke="black" transform="rotate(0,0,0)" />
<polygon points=" 98.1524,46.5 118.152,46.5 118.152,56.5 98.1524,56.5" fill="green" stroke="black" transform="rotate(0,0,0)" />
<polygon points=" 118.152,46.5 138.152,46.5 138.152,56.5 118.152,56.5" fill="green" stroke="black" transform="rotate(0,0,0)" />
<polygon points=" 103.926,36.5 123.926,36.5 123.926,46.5 103.926,46.5" fill="green" stroke="black" transform="rotate(0,0,0)" />
<polygon points=" 123.926,36.5 143.926,36.5 143.926,46.5 123.926,46.5" fill="green" stroke="black" transform="rotate(0,0,0)" />
<polygon points=" 109.7,26.5 129.7,26.5 129.7,36.5 109.7,36.5" fill="green" stroke="black" transform="rotate(0,0,0)" />
</svg>